G75*
%MOIN*%
%OFA0B0*%
%FSLAX25Y25*%
%IPPOS*%
%LPD*%
%AMOC8*
5,1,8,0,0,1.08239X$1,22.5*
%
%ADD10C,0.00800*%
%ADD11C,0.00600*%
%ADD12C,0.00300*%
%ADD13C,0.00500*%
%ADD14R,0.01500X0.03000*%
%ADD15C,0.01200*%
%ADD16C,0.00700*%
%ADD17C,0.00400*%
%ADD18C,0.01500*%
%ADD19C,0.00100*%
D10*
X0040104Y0010500D02*
X0040104Y0019708D01*
X0044708Y0019708D01*
X0046243Y0018173D01*
X0046243Y0015104D01*
X0044708Y0013569D01*
X0040104Y0013569D01*
X0049312Y0013569D02*
X0052382Y0016639D01*
X0053916Y0016639D01*
X0056985Y0015104D02*
X0056985Y0012035D01*
X0058520Y0010500D01*
X0061589Y0010500D01*
X0063124Y0012035D01*
X0063124Y0015104D01*
X0061589Y0016639D01*
X0058520Y0016639D01*
X0056985Y0015104D01*
X0049312Y0016639D02*
X0049312Y0010500D01*
X0066193Y0016639D02*
X0069263Y0016639D01*
X0067728Y0018173D02*
X0067728Y0012035D01*
X0069263Y0010500D01*
X0072332Y0012035D02*
X0072332Y0015104D01*
X0073867Y0016639D01*
X0076936Y0016639D01*
X0078470Y0015104D01*
X0078470Y0012035D01*
X0076936Y0010500D01*
X0073867Y0010500D01*
X0072332Y0012035D01*
X0081540Y0016639D02*
X0084609Y0016639D01*
X0083074Y0018173D02*
X0083074Y0012035D01*
X0084609Y0010500D01*
X0087678Y0012035D02*
X0089213Y0010500D01*
X0093817Y0010500D01*
X0093817Y0008965D02*
X0092282Y0007431D01*
X0090748Y0007431D01*
X0093817Y0008965D02*
X0093817Y0016639D01*
X0096886Y0016639D02*
X0101490Y0016639D01*
X0103025Y0015104D01*
X0103025Y0012035D01*
X0101490Y0010500D01*
X0096886Y0010500D01*
X0096886Y0007431D02*
X0096886Y0016639D01*
X0087678Y0016639D02*
X0087678Y0012035D01*
X0106094Y0012035D02*
X0106094Y0015104D01*
X0107629Y0016639D01*
X0110698Y0016639D01*
X0112233Y0015104D01*
X0112233Y0013569D01*
X0106094Y0013569D01*
X0106094Y0012035D02*
X0107629Y0010500D01*
X0110698Y0010500D01*
X0124510Y0010500D02*
X0124510Y0019708D01*
X0129114Y0019708D01*
X0130648Y0018173D01*
X0130648Y0016639D01*
X0129114Y0015104D01*
X0124510Y0015104D01*
X0129114Y0015104D02*
X0130648Y0013569D01*
X0130648Y0012035D01*
X0129114Y0010500D01*
X0124510Y0010500D01*
X0133718Y0012035D02*
X0135252Y0013569D01*
X0139856Y0013569D01*
X0139856Y0015104D02*
X0139856Y0010500D01*
X0135252Y0010500D01*
X0133718Y0012035D01*
X0138322Y0016639D02*
X0139856Y0015104D01*
X0138322Y0016639D02*
X0135252Y0016639D01*
X0142925Y0016639D02*
X0145995Y0016639D01*
X0144460Y0018173D02*
X0144460Y0012035D01*
X0145995Y0010500D01*
X0149064Y0012035D02*
X0150599Y0010500D01*
X0155203Y0010500D01*
X0158272Y0010500D02*
X0158272Y0019708D01*
X0159807Y0016639D02*
X0162876Y0016639D01*
X0164410Y0015104D01*
X0164410Y0010500D01*
X0158272Y0015104D02*
X0159807Y0016639D01*
X0155203Y0016639D02*
X0150599Y0016639D01*
X0149064Y0015104D01*
X0149064Y0012035D01*
X0176688Y0010500D02*
X0182826Y0016639D01*
X0182826Y0018173D01*
X0181292Y0019708D01*
X0178222Y0019708D01*
X0176688Y0018173D01*
X0176688Y0010500D02*
X0182826Y0010500D01*
X0205651Y0022895D02*
X0225336Y0022895D01*
X0225336Y0023683D01*
X0205651Y0023683D02*
X0205651Y0022895D01*
X0205651Y0046124D02*
X0205651Y0046911D01*
X0213131Y0046911D01*
X0213133Y0046824D01*
X0213139Y0046737D01*
X0213148Y0046650D01*
X0213162Y0046564D01*
X0213179Y0046479D01*
X0213200Y0046394D01*
X0213225Y0046311D01*
X0213253Y0046228D01*
X0213285Y0046147D01*
X0213321Y0046068D01*
X0213360Y0045990D01*
X0213402Y0045914D01*
X0213448Y0045840D01*
X0213497Y0045768D01*
X0213549Y0045698D01*
X0213604Y0045631D01*
X0213662Y0045566D01*
X0213723Y0045503D01*
X0213787Y0045444D01*
X0213853Y0045387D01*
X0213922Y0045334D01*
X0213993Y0045283D01*
X0214066Y0045236D01*
X0214141Y0045191D01*
X0214218Y0045151D01*
X0214296Y0045113D01*
X0214377Y0045080D01*
X0214458Y0045049D01*
X0214541Y0045023D01*
X0214626Y0045000D01*
X0214711Y0044981D01*
X0214796Y0044966D01*
X0214883Y0044954D01*
X0214969Y0044946D01*
X0215056Y0044942D01*
X0215144Y0044942D01*
X0215231Y0044946D01*
X0215317Y0044954D01*
X0215404Y0044966D01*
X0215489Y0044981D01*
X0215574Y0045000D01*
X0215659Y0045023D01*
X0215742Y0045049D01*
X0215823Y0045080D01*
X0215904Y0045113D01*
X0215982Y0045151D01*
X0216059Y0045191D01*
X0216134Y0045236D01*
X0216207Y0045283D01*
X0216278Y0045334D01*
X0216347Y0045387D01*
X0216413Y0045444D01*
X0216477Y0045503D01*
X0216538Y0045566D01*
X0216596Y0045631D01*
X0216651Y0045698D01*
X0216703Y0045768D01*
X0216752Y0045840D01*
X0216798Y0045914D01*
X0216840Y0045990D01*
X0216879Y0046068D01*
X0216915Y0046147D01*
X0216947Y0046228D01*
X0216975Y0046311D01*
X0217000Y0046394D01*
X0217021Y0046479D01*
X0217038Y0046564D01*
X0217052Y0046650D01*
X0217061Y0046737D01*
X0217067Y0046824D01*
X0217069Y0046911D01*
X0225336Y0046911D01*
X0225336Y0046124D01*
X0263100Y0064100D02*
X0263100Y0081100D01*
X0271100Y0084600D02*
X0279147Y0084600D01*
X0287100Y0081100D02*
X0287100Y0064100D01*
X0279029Y0060600D02*
X0271100Y0060600D01*
X0268100Y0072600D02*
X0268102Y0072772D01*
X0268108Y0072943D01*
X0268119Y0073115D01*
X0268134Y0073286D01*
X0268153Y0073457D01*
X0268176Y0073627D01*
X0268203Y0073797D01*
X0268235Y0073966D01*
X0268270Y0074134D01*
X0268310Y0074301D01*
X0268354Y0074467D01*
X0268401Y0074632D01*
X0268453Y0074796D01*
X0268509Y0074958D01*
X0268569Y0075119D01*
X0268633Y0075279D01*
X0268701Y0075437D01*
X0268772Y0075593D01*
X0268847Y0075747D01*
X0268927Y0075900D01*
X0269009Y0076050D01*
X0269096Y0076199D01*
X0269186Y0076345D01*
X0269280Y0076489D01*
X0269377Y0076631D01*
X0269478Y0076770D01*
X0269582Y0076907D01*
X0269689Y0077041D01*
X0269800Y0077172D01*
X0269913Y0077301D01*
X0270030Y0077427D01*
X0270150Y0077550D01*
X0270273Y0077670D01*
X0270399Y0077787D01*
X0270528Y0077900D01*
X0270659Y0078011D01*
X0270793Y0078118D01*
X0270930Y0078222D01*
X0271069Y0078323D01*
X0271211Y0078420D01*
X0271355Y0078514D01*
X0271501Y0078604D01*
X0271650Y0078691D01*
X0271800Y0078773D01*
X0271953Y0078853D01*
X0272107Y0078928D01*
X0272263Y0078999D01*
X0272421Y0079067D01*
X0272581Y0079131D01*
X0272742Y0079191D01*
X0272904Y0079247D01*
X0273068Y0079299D01*
X0273233Y0079346D01*
X0273399Y0079390D01*
X0273566Y0079430D01*
X0273734Y0079465D01*
X0273903Y0079497D01*
X0274073Y0079524D01*
X0274243Y0079547D01*
X0274414Y0079566D01*
X0274585Y0079581D01*
X0274757Y0079592D01*
X0274928Y0079598D01*
X0275100Y0079600D01*
X0275272Y0079598D01*
X0275443Y0079592D01*
X0275615Y0079581D01*
X0275786Y0079566D01*
X0275957Y0079547D01*
X0276127Y0079524D01*
X0276297Y0079497D01*
X0276466Y0079465D01*
X0276634Y0079430D01*
X0276801Y0079390D01*
X0276967Y0079346D01*
X0277132Y0079299D01*
X0277296Y0079247D01*
X0277458Y0079191D01*
X0277619Y0079131D01*
X0277779Y0079067D01*
X0277937Y0078999D01*
X0278093Y0078928D01*
X0278247Y0078853D01*
X0278400Y0078773D01*
X0278550Y0078691D01*
X0278699Y0078604D01*
X0278845Y0078514D01*
X0278989Y0078420D01*
X0279131Y0078323D01*
X0279270Y0078222D01*
X0279407Y0078118D01*
X0279541Y0078011D01*
X0279672Y0077900D01*
X0279801Y0077787D01*
X0279927Y0077670D01*
X0280050Y0077550D01*
X0280170Y0077427D01*
X0280287Y0077301D01*
X0280400Y0077172D01*
X0280511Y0077041D01*
X0280618Y0076907D01*
X0280722Y0076770D01*
X0280823Y0076631D01*
X0280920Y0076489D01*
X0281014Y0076345D01*
X0281104Y0076199D01*
X0281191Y0076050D01*
X0281273Y0075900D01*
X0281353Y0075747D01*
X0281428Y0075593D01*
X0281499Y0075437D01*
X0281567Y0075279D01*
X0281631Y0075119D01*
X0281691Y0074958D01*
X0281747Y0074796D01*
X0281799Y0074632D01*
X0281846Y0074467D01*
X0281890Y0074301D01*
X0281930Y0074134D01*
X0281965Y0073966D01*
X0281997Y0073797D01*
X0282024Y0073627D01*
X0282047Y0073457D01*
X0282066Y0073286D01*
X0282081Y0073115D01*
X0282092Y0072943D01*
X0282098Y0072772D01*
X0282100Y0072600D01*
X0282098Y0072428D01*
X0282092Y0072257D01*
X0282081Y0072085D01*
X0282066Y0071914D01*
X0282047Y0071743D01*
X0282024Y0071573D01*
X0281997Y0071403D01*
X0281965Y0071234D01*
X0281930Y0071066D01*
X0281890Y0070899D01*
X0281846Y0070733D01*
X0281799Y0070568D01*
X0281747Y0070404D01*
X0281691Y0070242D01*
X0281631Y0070081D01*
X0281567Y0069921D01*
X0281499Y0069763D01*
X0281428Y0069607D01*
X0281353Y0069453D01*
X0281273Y0069300D01*
X0281191Y0069150D01*
X0281104Y0069001D01*
X0281014Y0068855D01*
X0280920Y0068711D01*
X0280823Y0068569D01*
X0280722Y0068430D01*
X0280618Y0068293D01*
X0280511Y0068159D01*
X0280400Y0068028D01*
X0280287Y0067899D01*
X0280170Y0067773D01*
X0280050Y0067650D01*
X0279927Y0067530D01*
X0279801Y0067413D01*
X0279672Y0067300D01*
X0279541Y0067189D01*
X0279407Y0067082D01*
X0279270Y0066978D01*
X0279131Y0066877D01*
X0278989Y0066780D01*
X0278845Y0066686D01*
X0278699Y0066596D01*
X0278550Y0066509D01*
X0278400Y0066427D01*
X0278247Y0066347D01*
X0278093Y0066272D01*
X0277937Y0066201D01*
X0277779Y0066133D01*
X0277619Y0066069D01*
X0277458Y0066009D01*
X0277296Y0065953D01*
X0277132Y0065901D01*
X0276967Y0065854D01*
X0276801Y0065810D01*
X0276634Y0065770D01*
X0276466Y0065735D01*
X0276297Y0065703D01*
X0276127Y0065676D01*
X0275957Y0065653D01*
X0275786Y0065634D01*
X0275615Y0065619D01*
X0275443Y0065608D01*
X0275272Y0065602D01*
X0275100Y0065600D01*
X0274928Y0065602D01*
X0274757Y0065608D01*
X0274585Y0065619D01*
X0274414Y0065634D01*
X0274243Y0065653D01*
X0274073Y0065676D01*
X0273903Y0065703D01*
X0273734Y0065735D01*
X0273566Y0065770D01*
X0273399Y0065810D01*
X0273233Y0065854D01*
X0273068Y0065901D01*
X0272904Y0065953D01*
X0272742Y0066009D01*
X0272581Y0066069D01*
X0272421Y0066133D01*
X0272263Y0066201D01*
X0272107Y0066272D01*
X0271953Y0066347D01*
X0271800Y0066427D01*
X0271650Y0066509D01*
X0271501Y0066596D01*
X0271355Y0066686D01*
X0271211Y0066780D01*
X0271069Y0066877D01*
X0270930Y0066978D01*
X0270793Y0067082D01*
X0270659Y0067189D01*
X0270528Y0067300D01*
X0270399Y0067413D01*
X0270273Y0067530D01*
X0270150Y0067650D01*
X0270030Y0067773D01*
X0269913Y0067899D01*
X0269800Y0068028D01*
X0269689Y0068159D01*
X0269582Y0068293D01*
X0269478Y0068430D01*
X0269377Y0068569D01*
X0269280Y0068711D01*
X0269186Y0068855D01*
X0269096Y0069001D01*
X0269009Y0069150D01*
X0268927Y0069300D01*
X0268847Y0069453D01*
X0268772Y0069607D01*
X0268701Y0069763D01*
X0268633Y0069921D01*
X0268569Y0070081D01*
X0268509Y0070242D01*
X0268453Y0070404D01*
X0268401Y0070568D01*
X0268354Y0070733D01*
X0268310Y0070899D01*
X0268270Y0071066D01*
X0268235Y0071234D01*
X0268203Y0071403D01*
X0268176Y0071573D01*
X0268153Y0071743D01*
X0268134Y0071914D01*
X0268119Y0072085D01*
X0268108Y0072257D01*
X0268102Y0072428D01*
X0268100Y0072600D01*
X0308600Y0047100D02*
X0316647Y0047100D01*
X0324600Y0043600D02*
X0324600Y0026600D01*
X0316529Y0023100D02*
X0308600Y0023100D01*
X0300600Y0026600D02*
X0300600Y0043600D01*
X0305600Y0035100D02*
X0305602Y0035272D01*
X0305608Y0035443D01*
X0305619Y0035615D01*
X0305634Y0035786D01*
X0305653Y0035957D01*
X0305676Y0036127D01*
X0305703Y0036297D01*
X0305735Y0036466D01*
X0305770Y0036634D01*
X0305810Y0036801D01*
X0305854Y0036967D01*
X0305901Y0037132D01*
X0305953Y0037296D01*
X0306009Y0037458D01*
X0306069Y0037619D01*
X0306133Y0037779D01*
X0306201Y0037937D01*
X0306272Y0038093D01*
X0306347Y0038247D01*
X0306427Y0038400D01*
X0306509Y0038550D01*
X0306596Y0038699D01*
X0306686Y0038845D01*
X0306780Y0038989D01*
X0306877Y0039131D01*
X0306978Y0039270D01*
X0307082Y0039407D01*
X0307189Y0039541D01*
X0307300Y0039672D01*
X0307413Y0039801D01*
X0307530Y0039927D01*
X0307650Y0040050D01*
X0307773Y0040170D01*
X0307899Y0040287D01*
X0308028Y0040400D01*
X0308159Y0040511D01*
X0308293Y0040618D01*
X0308430Y0040722D01*
X0308569Y0040823D01*
X0308711Y0040920D01*
X0308855Y0041014D01*
X0309001Y0041104D01*
X0309150Y0041191D01*
X0309300Y0041273D01*
X0309453Y0041353D01*
X0309607Y0041428D01*
X0309763Y0041499D01*
X0309921Y0041567D01*
X0310081Y0041631D01*
X0310242Y0041691D01*
X0310404Y0041747D01*
X0310568Y0041799D01*
X0310733Y0041846D01*
X0310899Y0041890D01*
X0311066Y0041930D01*
X0311234Y0041965D01*
X0311403Y0041997D01*
X0311573Y0042024D01*
X0311743Y0042047D01*
X0311914Y0042066D01*
X0312085Y0042081D01*
X0312257Y0042092D01*
X0312428Y0042098D01*
X0312600Y0042100D01*
X0312772Y0042098D01*
X0312943Y0042092D01*
X0313115Y0042081D01*
X0313286Y0042066D01*
X0313457Y0042047D01*
X0313627Y0042024D01*
X0313797Y0041997D01*
X0313966Y0041965D01*
X0314134Y0041930D01*
X0314301Y0041890D01*
X0314467Y0041846D01*
X0314632Y0041799D01*
X0314796Y0041747D01*
X0314958Y0041691D01*
X0315119Y0041631D01*
X0315279Y0041567D01*
X0315437Y0041499D01*
X0315593Y0041428D01*
X0315747Y0041353D01*
X0315900Y0041273D01*
X0316050Y0041191D01*
X0316199Y0041104D01*
X0316345Y0041014D01*
X0316489Y0040920D01*
X0316631Y0040823D01*
X0316770Y0040722D01*
X0316907Y0040618D01*
X0317041Y0040511D01*
X0317172Y0040400D01*
X0317301Y0040287D01*
X0317427Y0040170D01*
X0317550Y0040050D01*
X0317670Y0039927D01*
X0317787Y0039801D01*
X0317900Y0039672D01*
X0318011Y0039541D01*
X0318118Y0039407D01*
X0318222Y0039270D01*
X0318323Y0039131D01*
X0318420Y0038989D01*
X0318514Y0038845D01*
X0318604Y0038699D01*
X0318691Y0038550D01*
X0318773Y0038400D01*
X0318853Y0038247D01*
X0318928Y0038093D01*
X0318999Y0037937D01*
X0319067Y0037779D01*
X0319131Y0037619D01*
X0319191Y0037458D01*
X0319247Y0037296D01*
X0319299Y0037132D01*
X0319346Y0036967D01*
X0319390Y0036801D01*
X0319430Y0036634D01*
X0319465Y0036466D01*
X0319497Y0036297D01*
X0319524Y0036127D01*
X0319547Y0035957D01*
X0319566Y0035786D01*
X0319581Y0035615D01*
X0319592Y0035443D01*
X0319598Y0035272D01*
X0319600Y0035100D01*
X0319598Y0034928D01*
X0319592Y0034757D01*
X0319581Y0034585D01*
X0319566Y0034414D01*
X0319547Y0034243D01*
X0319524Y0034073D01*
X0319497Y0033903D01*
X0319465Y0033734D01*
X0319430Y0033566D01*
X0319390Y0033399D01*
X0319346Y0033233D01*
X0319299Y0033068D01*
X0319247Y0032904D01*
X0319191Y0032742D01*
X0319131Y0032581D01*
X0319067Y0032421D01*
X0318999Y0032263D01*
X0318928Y0032107D01*
X0318853Y0031953D01*
X0318773Y0031800D01*
X0318691Y0031650D01*
X0318604Y0031501D01*
X0318514Y0031355D01*
X0318420Y0031211D01*
X0318323Y0031069D01*
X0318222Y0030930D01*
X0318118Y0030793D01*
X0318011Y0030659D01*
X0317900Y0030528D01*
X0317787Y0030399D01*
X0317670Y0030273D01*
X0317550Y0030150D01*
X0317427Y0030030D01*
X0317301Y0029913D01*
X0317172Y0029800D01*
X0317041Y0029689D01*
X0316907Y0029582D01*
X0316770Y0029478D01*
X0316631Y0029377D01*
X0316489Y0029280D01*
X0316345Y0029186D01*
X0316199Y0029096D01*
X0316050Y0029009D01*
X0315900Y0028927D01*
X0315747Y0028847D01*
X0315593Y0028772D01*
X0315437Y0028701D01*
X0315279Y0028633D01*
X0315119Y0028569D01*
X0314958Y0028509D01*
X0314796Y0028453D01*
X0314632Y0028401D01*
X0314467Y0028354D01*
X0314301Y0028310D01*
X0314134Y0028270D01*
X0313966Y0028235D01*
X0313797Y0028203D01*
X0313627Y0028176D01*
X0313457Y0028153D01*
X0313286Y0028134D01*
X0313115Y0028119D01*
X0312943Y0028108D01*
X0312772Y0028102D01*
X0312600Y0028100D01*
X0312428Y0028102D01*
X0312257Y0028108D01*
X0312085Y0028119D01*
X0311914Y0028134D01*
X0311743Y0028153D01*
X0311573Y0028176D01*
X0311403Y0028203D01*
X0311234Y0028235D01*
X0311066Y0028270D01*
X0310899Y0028310D01*
X0310733Y0028354D01*
X0310568Y0028401D01*
X0310404Y0028453D01*
X0310242Y0028509D01*
X0310081Y0028569D01*
X0309921Y0028633D01*
X0309763Y0028701D01*
X0309607Y0028772D01*
X0309453Y0028847D01*
X0309300Y0028927D01*
X0309150Y0029009D01*
X0309001Y0029096D01*
X0308855Y0029186D01*
X0308711Y0029280D01*
X0308569Y0029377D01*
X0308430Y0029478D01*
X0308293Y0029582D01*
X0308159Y0029689D01*
X0308028Y0029800D01*
X0307899Y0029913D01*
X0307773Y0030030D01*
X0307650Y0030150D01*
X0307530Y0030273D01*
X0307413Y0030399D01*
X0307300Y0030528D01*
X0307189Y0030659D01*
X0307082Y0030793D01*
X0306978Y0030930D01*
X0306877Y0031069D01*
X0306780Y0031211D01*
X0306686Y0031355D01*
X0306596Y0031501D01*
X0306509Y0031650D01*
X0306427Y0031800D01*
X0306347Y0031953D01*
X0306272Y0032107D01*
X0306201Y0032263D01*
X0306133Y0032421D01*
X0306069Y0032581D01*
X0306009Y0032742D01*
X0305953Y0032904D01*
X0305901Y0033068D01*
X0305854Y0033233D01*
X0305810Y0033399D01*
X0305770Y0033566D01*
X0305735Y0033734D01*
X0305703Y0033903D01*
X0305676Y0034073D01*
X0305653Y0034243D01*
X0305634Y0034414D01*
X0305619Y0034585D01*
X0305608Y0034757D01*
X0305602Y0034928D01*
X0305600Y0035100D01*
X0346100Y0060600D02*
X0354029Y0060600D01*
X0362100Y0064100D02*
X0362100Y0081100D01*
X0354147Y0084600D02*
X0346100Y0084600D01*
X0338100Y0081100D02*
X0338100Y0064100D01*
X0343100Y0072600D02*
X0343102Y0072772D01*
X0343108Y0072943D01*
X0343119Y0073115D01*
X0343134Y0073286D01*
X0343153Y0073457D01*
X0343176Y0073627D01*
X0343203Y0073797D01*
X0343235Y0073966D01*
X0343270Y0074134D01*
X0343310Y0074301D01*
X0343354Y0074467D01*
X0343401Y0074632D01*
X0343453Y0074796D01*
X0343509Y0074958D01*
X0343569Y0075119D01*
X0343633Y0075279D01*
X0343701Y0075437D01*
X0343772Y0075593D01*
X0343847Y0075747D01*
X0343927Y0075900D01*
X0344009Y0076050D01*
X0344096Y0076199D01*
X0344186Y0076345D01*
X0344280Y0076489D01*
X0344377Y0076631D01*
X0344478Y0076770D01*
X0344582Y0076907D01*
X0344689Y0077041D01*
X0344800Y0077172D01*
X0344913Y0077301D01*
X0345030Y0077427D01*
X0345150Y0077550D01*
X0345273Y0077670D01*
X0345399Y0077787D01*
X0345528Y0077900D01*
X0345659Y0078011D01*
X0345793Y0078118D01*
X0345930Y0078222D01*
X0346069Y0078323D01*
X0346211Y0078420D01*
X0346355Y0078514D01*
X0346501Y0078604D01*
X0346650Y0078691D01*
X0346800Y0078773D01*
X0346953Y0078853D01*
X0347107Y0078928D01*
X0347263Y0078999D01*
X0347421Y0079067D01*
X0347581Y0079131D01*
X0347742Y0079191D01*
X0347904Y0079247D01*
X0348068Y0079299D01*
X0348233Y0079346D01*
X0348399Y0079390D01*
X0348566Y0079430D01*
X0348734Y0079465D01*
X0348903Y0079497D01*
X0349073Y0079524D01*
X0349243Y0079547D01*
X0349414Y0079566D01*
X0349585Y0079581D01*
X0349757Y0079592D01*
X0349928Y0079598D01*
X0350100Y0079600D01*
X0350272Y0079598D01*
X0350443Y0079592D01*
X0350615Y0079581D01*
X0350786Y0079566D01*
X0350957Y0079547D01*
X0351127Y0079524D01*
X0351297Y0079497D01*
X0351466Y0079465D01*
X0351634Y0079430D01*
X0351801Y0079390D01*
X0351967Y0079346D01*
X0352132Y0079299D01*
X0352296Y0079247D01*
X0352458Y0079191D01*
X0352619Y0079131D01*
X0352779Y0079067D01*
X0352937Y0078999D01*
X0353093Y0078928D01*
X0353247Y0078853D01*
X0353400Y0078773D01*
X0353550Y0078691D01*
X0353699Y0078604D01*
X0353845Y0078514D01*
X0353989Y0078420D01*
X0354131Y0078323D01*
X0354270Y0078222D01*
X0354407Y0078118D01*
X0354541Y0078011D01*
X0354672Y0077900D01*
X0354801Y0077787D01*
X0354927Y0077670D01*
X0355050Y0077550D01*
X0355170Y0077427D01*
X0355287Y0077301D01*
X0355400Y0077172D01*
X0355511Y0077041D01*
X0355618Y0076907D01*
X0355722Y0076770D01*
X0355823Y0076631D01*
X0355920Y0076489D01*
X0356014Y0076345D01*
X0356104Y0076199D01*
X0356191Y0076050D01*
X0356273Y0075900D01*
X0356353Y0075747D01*
X0356428Y0075593D01*
X0356499Y0075437D01*
X0356567Y0075279D01*
X0356631Y0075119D01*
X0356691Y0074958D01*
X0356747Y0074796D01*
X0356799Y0074632D01*
X0356846Y0074467D01*
X0356890Y0074301D01*
X0356930Y0074134D01*
X0356965Y0073966D01*
X0356997Y0073797D01*
X0357024Y0073627D01*
X0357047Y0073457D01*
X0357066Y0073286D01*
X0357081Y0073115D01*
X0357092Y0072943D01*
X0357098Y0072772D01*
X0357100Y0072600D01*
X0357098Y0072428D01*
X0357092Y0072257D01*
X0357081Y0072085D01*
X0357066Y0071914D01*
X0357047Y0071743D01*
X0357024Y0071573D01*
X0356997Y0071403D01*
X0356965Y0071234D01*
X0356930Y0071066D01*
X0356890Y0070899D01*
X0356846Y0070733D01*
X0356799Y0070568D01*
X0356747Y0070404D01*
X0356691Y0070242D01*
X0356631Y0070081D01*
X0356567Y0069921D01*
X0356499Y0069763D01*
X0356428Y0069607D01*
X0356353Y0069453D01*
X0356273Y0069300D01*
X0356191Y0069150D01*
X0356104Y0069001D01*
X0356014Y0068855D01*
X0355920Y0068711D01*
X0355823Y0068569D01*
X0355722Y0068430D01*
X0355618Y0068293D01*
X0355511Y0068159D01*
X0355400Y0068028D01*
X0355287Y0067899D01*
X0355170Y0067773D01*
X0355050Y0067650D01*
X0354927Y0067530D01*
X0354801Y0067413D01*
X0354672Y0067300D01*
X0354541Y0067189D01*
X0354407Y0067082D01*
X0354270Y0066978D01*
X0354131Y0066877D01*
X0353989Y0066780D01*
X0353845Y0066686D01*
X0353699Y0066596D01*
X0353550Y0066509D01*
X0353400Y0066427D01*
X0353247Y0066347D01*
X0353093Y0066272D01*
X0352937Y0066201D01*
X0352779Y0066133D01*
X0352619Y0066069D01*
X0352458Y0066009D01*
X0352296Y0065953D01*
X0352132Y0065901D01*
X0351967Y0065854D01*
X0351801Y0065810D01*
X0351634Y0065770D01*
X0351466Y0065735D01*
X0351297Y0065703D01*
X0351127Y0065676D01*
X0350957Y0065653D01*
X0350786Y0065634D01*
X0350615Y0065619D01*
X0350443Y0065608D01*
X0350272Y0065602D01*
X0350100Y0065600D01*
X0349928Y0065602D01*
X0349757Y0065608D01*
X0349585Y0065619D01*
X0349414Y0065634D01*
X0349243Y0065653D01*
X0349073Y0065676D01*
X0348903Y0065703D01*
X0348734Y0065735D01*
X0348566Y0065770D01*
X0348399Y0065810D01*
X0348233Y0065854D01*
X0348068Y0065901D01*
X0347904Y0065953D01*
X0347742Y0066009D01*
X0347581Y0066069D01*
X0347421Y0066133D01*
X0347263Y0066201D01*
X0347107Y0066272D01*
X0346953Y0066347D01*
X0346800Y0066427D01*
X0346650Y0066509D01*
X0346501Y0066596D01*
X0346355Y0066686D01*
X0346211Y0066780D01*
X0346069Y0066877D01*
X0345930Y0066978D01*
X0345793Y0067082D01*
X0345659Y0067189D01*
X0345528Y0067300D01*
X0345399Y0067413D01*
X0345273Y0067530D01*
X0345150Y0067650D01*
X0345030Y0067773D01*
X0344913Y0067899D01*
X0344800Y0068028D01*
X0344689Y0068159D01*
X0344582Y0068293D01*
X0344478Y0068430D01*
X0344377Y0068569D01*
X0344280Y0068711D01*
X0344186Y0068855D01*
X0344096Y0069001D01*
X0344009Y0069150D01*
X0343927Y0069300D01*
X0343847Y0069453D01*
X0343772Y0069607D01*
X0343701Y0069763D01*
X0343633Y0069921D01*
X0343569Y0070081D01*
X0343509Y0070242D01*
X0343453Y0070404D01*
X0343401Y0070568D01*
X0343354Y0070733D01*
X0343310Y0070899D01*
X0343270Y0071066D01*
X0343235Y0071234D01*
X0343203Y0071403D01*
X0343176Y0071573D01*
X0343153Y0071743D01*
X0343134Y0071914D01*
X0343119Y0072085D01*
X0343108Y0072257D01*
X0343102Y0072428D01*
X0343100Y0072600D01*
X0316529Y0098100D02*
X0308600Y0098100D01*
X0300600Y0101600D02*
X0300600Y0118600D01*
X0308600Y0122100D02*
X0316647Y0122100D01*
X0324600Y0118600D02*
X0324600Y0101600D01*
X0305600Y0110100D02*
X0305602Y0110272D01*
X0305608Y0110443D01*
X0305619Y0110615D01*
X0305634Y0110786D01*
X0305653Y0110957D01*
X0305676Y0111127D01*
X0305703Y0111297D01*
X0305735Y0111466D01*
X0305770Y0111634D01*
X0305810Y0111801D01*
X0305854Y0111967D01*
X0305901Y0112132D01*
X0305953Y0112296D01*
X0306009Y0112458D01*
X0306069Y0112619D01*
X0306133Y0112779D01*
X0306201Y0112937D01*
X0306272Y0113093D01*
X0306347Y0113247D01*
X0306427Y0113400D01*
X0306509Y0113550D01*
X0306596Y0113699D01*
X0306686Y0113845D01*
X0306780Y0113989D01*
X0306877Y0114131D01*
X0306978Y0114270D01*
X0307082Y0114407D01*
X0307189Y0114541D01*
X0307300Y0114672D01*
X0307413Y0114801D01*
X0307530Y0114927D01*
X0307650Y0115050D01*
X0307773Y0115170D01*
X0307899Y0115287D01*
X0308028Y0115400D01*
X0308159Y0115511D01*
X0308293Y0115618D01*
X0308430Y0115722D01*
X0308569Y0115823D01*
X0308711Y0115920D01*
X0308855Y0116014D01*
X0309001Y0116104D01*
X0309150Y0116191D01*
X0309300Y0116273D01*
X0309453Y0116353D01*
X0309607Y0116428D01*
X0309763Y0116499D01*
X0309921Y0116567D01*
X0310081Y0116631D01*
X0310242Y0116691D01*
X0310404Y0116747D01*
X0310568Y0116799D01*
X0310733Y0116846D01*
X0310899Y0116890D01*
X0311066Y0116930D01*
X0311234Y0116965D01*
X0311403Y0116997D01*
X0311573Y0117024D01*
X0311743Y0117047D01*
X0311914Y0117066D01*
X0312085Y0117081D01*
X0312257Y0117092D01*
X0312428Y0117098D01*
X0312600Y0117100D01*
X0312772Y0117098D01*
X0312943Y0117092D01*
X0313115Y0117081D01*
X0313286Y0117066D01*
X0313457Y0117047D01*
X0313627Y0117024D01*
X0313797Y0116997D01*
X0313966Y0116965D01*
X0314134Y0116930D01*
X0314301Y0116890D01*
X0314467Y0116846D01*
X0314632Y0116799D01*
X0314796Y0116747D01*
X0314958Y0116691D01*
X0315119Y0116631D01*
X0315279Y0116567D01*
X0315437Y0116499D01*
X0315593Y0116428D01*
X0315747Y0116353D01*
X0315900Y0116273D01*
X0316050Y0116191D01*
X0316199Y0116104D01*
X0316345Y0116014D01*
X0316489Y0115920D01*
X0316631Y0115823D01*
X0316770Y0115722D01*
X0316907Y0115618D01*
X0317041Y0115511D01*
X0317172Y0115400D01*
X0317301Y0115287D01*
X0317427Y0115170D01*
X0317550Y0115050D01*
X0317670Y0114927D01*
X0317787Y0114801D01*
X0317900Y0114672D01*
X0318011Y0114541D01*
X0318118Y0114407D01*
X0318222Y0114270D01*
X0318323Y0114131D01*
X0318420Y0113989D01*
X0318514Y0113845D01*
X0318604Y0113699D01*
X0318691Y0113550D01*
X0318773Y0113400D01*
X0318853Y0113247D01*
X0318928Y0113093D01*
X0318999Y0112937D01*
X0319067Y0112779D01*
X0319131Y0112619D01*
X0319191Y0112458D01*
X0319247Y0112296D01*
X0319299Y0112132D01*
X0319346Y0111967D01*
X0319390Y0111801D01*
X0319430Y0111634D01*
X0319465Y0111466D01*
X0319497Y0111297D01*
X0319524Y0111127D01*
X0319547Y0110957D01*
X0319566Y0110786D01*
X0319581Y0110615D01*
X0319592Y0110443D01*
X0319598Y0110272D01*
X0319600Y0110100D01*
X0319598Y0109928D01*
X0319592Y0109757D01*
X0319581Y0109585D01*
X0319566Y0109414D01*
X0319547Y0109243D01*
X0319524Y0109073D01*
X0319497Y0108903D01*
X0319465Y0108734D01*
X0319430Y0108566D01*
X0319390Y0108399D01*
X0319346Y0108233D01*
X0319299Y0108068D01*
X0319247Y0107904D01*
X0319191Y0107742D01*
X0319131Y0107581D01*
X0319067Y0107421D01*
X0318999Y0107263D01*
X0318928Y0107107D01*
X0318853Y0106953D01*
X0318773Y0106800D01*
X0318691Y0106650D01*
X0318604Y0106501D01*
X0318514Y0106355D01*
X0318420Y0106211D01*
X0318323Y0106069D01*
X0318222Y0105930D01*
X0318118Y0105793D01*
X0318011Y0105659D01*
X0317900Y0105528D01*
X0317787Y0105399D01*
X0317670Y0105273D01*
X0317550Y0105150D01*
X0317427Y0105030D01*
X0317301Y0104913D01*
X0317172Y0104800D01*
X0317041Y0104689D01*
X0316907Y0104582D01*
X0316770Y0104478D01*
X0316631Y0104377D01*
X0316489Y0104280D01*
X0316345Y0104186D01*
X0316199Y0104096D01*
X0316050Y0104009D01*
X0315900Y0103927D01*
X0315747Y0103847D01*
X0315593Y0103772D01*
X0315437Y0103701D01*
X0315279Y0103633D01*
X0315119Y0103569D01*
X0314958Y0103509D01*
X0314796Y0103453D01*
X0314632Y0103401D01*
X0314467Y0103354D01*
X0314301Y0103310D01*
X0314134Y0103270D01*
X0313966Y0103235D01*
X0313797Y0103203D01*
X0313627Y0103176D01*
X0313457Y0103153D01*
X0313286Y0103134D01*
X0313115Y0103119D01*
X0312943Y0103108D01*
X0312772Y0103102D01*
X0312600Y0103100D01*
X0312428Y0103102D01*
X0312257Y0103108D01*
X0312085Y0103119D01*
X0311914Y0103134D01*
X0311743Y0103153D01*
X0311573Y0103176D01*
X0311403Y0103203D01*
X0311234Y0103235D01*
X0311066Y0103270D01*
X0310899Y0103310D01*
X0310733Y0103354D01*
X0310568Y0103401D01*
X0310404Y0103453D01*
X0310242Y0103509D01*
X0310081Y0103569D01*
X0309921Y0103633D01*
X0309763Y0103701D01*
X0309607Y0103772D01*
X0309453Y0103847D01*
X0309300Y0103927D01*
X0309150Y0104009D01*
X0309001Y0104096D01*
X0308855Y0104186D01*
X0308711Y0104280D01*
X0308569Y0104377D01*
X0308430Y0104478D01*
X0308293Y0104582D01*
X0308159Y0104689D01*
X0308028Y0104800D01*
X0307899Y0104913D01*
X0307773Y0105030D01*
X0307650Y0105150D01*
X0307530Y0105273D01*
X0307413Y0105399D01*
X0307300Y0105528D01*
X0307189Y0105659D01*
X0307082Y0105793D01*
X0306978Y0105930D01*
X0306877Y0106069D01*
X0306780Y0106211D01*
X0306686Y0106355D01*
X0306596Y0106501D01*
X0306509Y0106650D01*
X0306427Y0106800D01*
X0306347Y0106953D01*
X0306272Y0107107D01*
X0306201Y0107263D01*
X0306133Y0107421D01*
X0306069Y0107581D01*
X0306009Y0107742D01*
X0305953Y0107904D01*
X0305901Y0108068D01*
X0305854Y0108233D01*
X0305810Y0108399D01*
X0305770Y0108566D01*
X0305735Y0108734D01*
X0305703Y0108903D01*
X0305676Y0109073D01*
X0305653Y0109243D01*
X0305634Y0109414D01*
X0305619Y0109585D01*
X0305608Y0109757D01*
X0305602Y0109928D01*
X0305600Y0110100D01*
X0230800Y0139100D02*
X0230800Y0166100D01*
X0230796Y0166168D01*
X0230787Y0166235D01*
X0230776Y0166302D01*
X0230760Y0166368D01*
X0230741Y0166433D01*
X0230719Y0166497D01*
X0230693Y0166559D01*
X0230664Y0166620D01*
X0230631Y0166680D01*
X0230596Y0166738D01*
X0230557Y0166793D01*
X0230515Y0166847D01*
X0230471Y0166898D01*
X0230423Y0166946D01*
X0230374Y0166992D01*
X0230321Y0167035D01*
X0230267Y0167076D01*
X0230210Y0167113D01*
X0230152Y0167147D01*
X0230092Y0167178D01*
X0230030Y0167206D01*
X0229967Y0167230D01*
X0229902Y0167251D01*
X0229837Y0167268D01*
X0229770Y0167282D01*
X0229703Y0167292D01*
X0229636Y0167298D01*
X0229568Y0167301D01*
X0229500Y0167300D01*
X0186100Y0167300D01*
X0186019Y0167298D01*
X0185938Y0167292D01*
X0185858Y0167283D01*
X0185778Y0167269D01*
X0185699Y0167252D01*
X0185621Y0167231D01*
X0185544Y0167207D01*
X0185468Y0167178D01*
X0185394Y0167146D01*
X0185321Y0167111D01*
X0185250Y0167072D01*
X0185181Y0167030D01*
X0185114Y0166985D01*
X0185049Y0166936D01*
X0184987Y0166885D01*
X0184927Y0166830D01*
X0184870Y0166773D01*
X0184815Y0166713D01*
X0184764Y0166651D01*
X0184715Y0166586D01*
X0184670Y0166519D01*
X0184628Y0166450D01*
X0184589Y0166379D01*
X0184554Y0166306D01*
X0184522Y0166232D01*
X0184493Y0166156D01*
X0184469Y0166079D01*
X0184448Y0166001D01*
X0184431Y0165922D01*
X0184417Y0165842D01*
X0184408Y0165762D01*
X0184402Y0165681D01*
X0184400Y0165600D01*
X0184391Y0156537D01*
X0184514Y0156508D01*
X0184635Y0156476D01*
X0184756Y0156441D01*
X0184876Y0156401D01*
X0184994Y0156358D01*
X0185111Y0156311D01*
X0185226Y0156260D01*
X0185340Y0156206D01*
X0185452Y0156149D01*
X0185562Y0156087D01*
X0185670Y0156023D01*
X0185776Y0155955D01*
X0185880Y0155884D01*
X0185981Y0155809D01*
X0186080Y0155732D01*
X0186177Y0155651D01*
X0186271Y0155567D01*
X0186363Y0155481D01*
X0186452Y0155392D01*
X0186537Y0155300D01*
X0186620Y0155205D01*
X0186700Y0155108D01*
X0186777Y0155008D01*
X0186851Y0154906D01*
X0186922Y0154802D01*
X0186989Y0154695D01*
X0187053Y0154587D01*
X0187113Y0154476D01*
X0187170Y0154364D01*
X0187223Y0154250D01*
X0187273Y0154134D01*
X0187319Y0154017D01*
X0187362Y0153898D01*
X0187401Y0153779D01*
X0187436Y0153658D01*
X0187467Y0153536D01*
X0187494Y0153413D01*
X0187518Y0153289D01*
X0187537Y0153165D01*
X0187553Y0153040D01*
X0187565Y0152914D01*
X0187573Y0152789D01*
X0187577Y0152663D01*
X0187577Y0152537D01*
X0187573Y0152411D01*
X0187565Y0152286D01*
X0187553Y0152160D01*
X0187537Y0152035D01*
X0187518Y0151911D01*
X0187494Y0151787D01*
X0187467Y0151664D01*
X0187436Y0151542D01*
X0187401Y0151421D01*
X0187362Y0151302D01*
X0187319Y0151183D01*
X0187273Y0151066D01*
X0187223Y0150950D01*
X0187170Y0150836D01*
X0187113Y0150724D01*
X0187053Y0150613D01*
X0186989Y0150505D01*
X0186922Y0150398D01*
X0186851Y0150294D01*
X0186777Y0150192D01*
X0186700Y0150092D01*
X0186620Y0149995D01*
X0186537Y0149900D01*
X0186452Y0149808D01*
X0186363Y0149719D01*
X0186271Y0149633D01*
X0186177Y0149549D01*
X0186080Y0149468D01*
X0185981Y0149391D01*
X0185880Y0149316D01*
X0185776Y0149245D01*
X0185670Y0149177D01*
X0185562Y0149113D01*
X0185452Y0149051D01*
X0185340Y0148994D01*
X0185226Y0148940D01*
X0185111Y0148889D01*
X0184994Y0148842D01*
X0184876Y0148799D01*
X0184756Y0148759D01*
X0184635Y0148724D01*
X0184514Y0148692D01*
X0184391Y0148663D01*
X0184400Y0139400D01*
X0184876Y0139300D02*
X0230500Y0139300D01*
X0230800Y0139100D02*
X0230796Y0139032D01*
X0230787Y0138965D01*
X0230776Y0138898D01*
X0230760Y0138832D01*
X0230741Y0138767D01*
X0230719Y0138703D01*
X0230693Y0138641D01*
X0230664Y0138580D01*
X0230631Y0138520D01*
X0230596Y0138462D01*
X0230557Y0138407D01*
X0230515Y0138353D01*
X0230471Y0138302D01*
X0230423Y0138254D01*
X0230374Y0138208D01*
X0230321Y0138165D01*
X0230267Y0138124D01*
X0230210Y0138087D01*
X0230152Y0138053D01*
X0230092Y0138022D01*
X0230030Y0137994D01*
X0229967Y0137970D01*
X0229902Y0137949D01*
X0229837Y0137932D01*
X0229770Y0137918D01*
X0229703Y0137908D01*
X0229636Y0137902D01*
X0229568Y0137899D01*
X0229500Y0137900D01*
X0186100Y0137900D01*
X0186021Y0137897D01*
X0185943Y0137898D01*
X0185864Y0137903D01*
X0185786Y0137911D01*
X0185708Y0137924D01*
X0185631Y0137940D01*
X0185555Y0137960D01*
X0185480Y0137984D01*
X0185406Y0138011D01*
X0185334Y0138042D01*
X0185263Y0138076D01*
X0185194Y0138114D01*
X0185127Y0138155D01*
X0185062Y0138200D01*
X0185000Y0138247D01*
X0184939Y0138298D01*
X0184882Y0138351D01*
X0184827Y0138408D01*
X0184775Y0138467D01*
X0184725Y0138528D01*
X0184679Y0138592D01*
X0184636Y0138658D01*
X0184596Y0138726D01*
X0184560Y0138795D01*
X0184527Y0138867D01*
X0184498Y0138940D01*
X0184472Y0139014D01*
X0184450Y0139090D01*
X0184432Y0139166D01*
X0184418Y0139244D01*
X0184407Y0139322D01*
X0184400Y0139400D01*
X0202895Y0099549D02*
X0202895Y0079864D01*
X0203683Y0079864D01*
X0226124Y0079864D02*
X0226911Y0079864D01*
X0226911Y0088131D01*
X0226824Y0088133D01*
X0226737Y0088139D01*
X0226650Y0088148D01*
X0226564Y0088162D01*
X0226479Y0088179D01*
X0226394Y0088200D01*
X0226311Y0088225D01*
X0226228Y0088253D01*
X0226147Y0088285D01*
X0226068Y0088321D01*
X0225990Y0088360D01*
X0225914Y0088402D01*
X0225840Y0088448D01*
X0225768Y0088497D01*
X0225698Y0088549D01*
X0225631Y0088604D01*
X0225566Y0088662D01*
X0225503Y0088723D01*
X0225444Y0088787D01*
X0225387Y0088853D01*
X0225334Y0088922D01*
X0225283Y0088993D01*
X0225236Y0089066D01*
X0225191Y0089141D01*
X0225151Y0089218D01*
X0225113Y0089296D01*
X0225080Y0089377D01*
X0225049Y0089458D01*
X0225023Y0089541D01*
X0225000Y0089626D01*
X0224981Y0089711D01*
X0224966Y0089796D01*
X0224954Y0089883D01*
X0224946Y0089969D01*
X0224942Y0090056D01*
X0224942Y0090144D01*
X0224946Y0090231D01*
X0224954Y0090317D01*
X0224966Y0090404D01*
X0224981Y0090489D01*
X0225000Y0090574D01*
X0225023Y0090659D01*
X0225049Y0090742D01*
X0225080Y0090823D01*
X0225113Y0090904D01*
X0225151Y0090982D01*
X0225191Y0091059D01*
X0225236Y0091134D01*
X0225283Y0091207D01*
X0225334Y0091278D01*
X0225387Y0091347D01*
X0225444Y0091413D01*
X0225503Y0091477D01*
X0225566Y0091538D01*
X0225631Y0091596D01*
X0225698Y0091651D01*
X0225768Y0091703D01*
X0225840Y0091752D01*
X0225914Y0091798D01*
X0225990Y0091840D01*
X0226068Y0091879D01*
X0226147Y0091915D01*
X0226228Y0091947D01*
X0226311Y0091975D01*
X0226394Y0092000D01*
X0226479Y0092021D01*
X0226564Y0092038D01*
X0226650Y0092052D01*
X0226737Y0092061D01*
X0226824Y0092067D01*
X0226911Y0092069D01*
X0226911Y0099549D01*
X0226124Y0099549D01*
X0203683Y0099549D02*
X0202895Y0099549D01*
X0350750Y0034541D02*
X0350750Y0028159D01*
X0351123Y0028159D01*
X0351123Y0034541D02*
X0350750Y0034541D01*
X0361577Y0034541D02*
X0361950Y0034541D01*
X0361950Y0028159D01*
X0361577Y0028159D01*
X0381350Y0015100D02*
X0383850Y0017600D01*
X0388850Y0017600D01*
X0391350Y0015100D01*
X0393850Y0017600D01*
X0398850Y0017600D01*
X0401350Y0015100D01*
X0403850Y0017600D01*
X0408850Y0017600D01*
X0411350Y0015100D01*
X0413850Y0017600D01*
X0418850Y0017600D01*
X0421350Y0015100D01*
X0423850Y0017600D01*
X0428850Y0017600D01*
X0431350Y0015100D01*
X0433850Y0017600D01*
X0438850Y0017600D01*
X0441350Y0015100D01*
X0441350Y0010100D01*
X0438850Y0007600D01*
X0433850Y0007600D01*
X0431350Y0010100D01*
X0428850Y0007600D01*
X0423850Y0007600D01*
X0421350Y0010100D01*
X0418850Y0007600D01*
X0413850Y0007600D01*
X0411350Y0010100D01*
X0408850Y0007600D01*
X0403850Y0007600D01*
X0401350Y0010100D01*
X0398850Y0007600D01*
X0393850Y0007600D01*
X0391350Y0010100D01*
X0388850Y0007600D01*
X0383850Y0007600D01*
X0381350Y0010100D01*
X0381350Y0015100D01*
X0225336Y0202895D02*
X0205651Y0202895D01*
X0205651Y0203683D01*
X0225336Y0203683D02*
X0225336Y0202895D01*
X0225336Y0226124D02*
X0225336Y0226911D01*
X0217069Y0226911D01*
X0217067Y0226824D01*
X0217061Y0226737D01*
X0217052Y0226650D01*
X0217038Y0226564D01*
X0217021Y0226479D01*
X0217000Y0226394D01*
X0216975Y0226311D01*
X0216947Y0226228D01*
X0216915Y0226147D01*
X0216879Y0226068D01*
X0216840Y0225990D01*
X0216798Y0225914D01*
X0216752Y0225840D01*
X0216703Y0225768D01*
X0216651Y0225698D01*
X0216596Y0225631D01*
X0216538Y0225566D01*
X0216477Y0225503D01*
X0216413Y0225444D01*
X0216347Y0225387D01*
X0216278Y0225334D01*
X0216207Y0225283D01*
X0216134Y0225236D01*
X0216059Y0225191D01*
X0215982Y0225151D01*
X0215904Y0225113D01*
X0215823Y0225080D01*
X0215742Y0225049D01*
X0215659Y0225023D01*
X0215574Y0225000D01*
X0215489Y0224981D01*
X0215404Y0224966D01*
X0215317Y0224954D01*
X0215231Y0224946D01*
X0215144Y0224942D01*
X0215056Y0224942D01*
X0214969Y0224946D01*
X0214883Y0224954D01*
X0214796Y0224966D01*
X0214711Y0224981D01*
X0214626Y0225000D01*
X0214541Y0225023D01*
X0214458Y0225049D01*
X0214377Y0225080D01*
X0214296Y0225113D01*
X0214218Y0225151D01*
X0214141Y0225191D01*
X0214066Y0225236D01*
X0213993Y0225283D01*
X0213922Y0225334D01*
X0213853Y0225387D01*
X0213787Y0225444D01*
X0213723Y0225503D01*
X0213662Y0225566D01*
X0213604Y0225631D01*
X0213549Y0225698D01*
X0213497Y0225768D01*
X0213448Y0225840D01*
X0213402Y0225914D01*
X0213360Y0225990D01*
X0213321Y0226068D01*
X0213285Y0226147D01*
X0213253Y0226228D01*
X0213225Y0226311D01*
X0213200Y0226394D01*
X0213179Y0226479D01*
X0213162Y0226564D01*
X0213148Y0226650D01*
X0213139Y0226737D01*
X0213133Y0226824D01*
X0213131Y0226911D01*
X0205651Y0226911D01*
X0205651Y0226124D01*
X0203683Y0259864D02*
X0202895Y0259864D01*
X0202895Y0279549D01*
X0203683Y0279549D01*
X0226124Y0279549D02*
X0226911Y0279549D01*
X0226911Y0272069D01*
X0226824Y0272067D01*
X0226737Y0272061D01*
X0226650Y0272052D01*
X0226564Y0272038D01*
X0226479Y0272021D01*
X0226394Y0272000D01*
X0226311Y0271975D01*
X0226228Y0271947D01*
X0226147Y0271915D01*
X0226068Y0271879D01*
X0225990Y0271840D01*
X0225914Y0271798D01*
X0225840Y0271752D01*
X0225768Y0271703D01*
X0225698Y0271651D01*
X0225631Y0271596D01*
X0225566Y0271538D01*
X0225503Y0271477D01*
X0225444Y0271413D01*
X0225387Y0271347D01*
X0225334Y0271278D01*
X0225283Y0271207D01*
X0225236Y0271134D01*
X0225191Y0271059D01*
X0225151Y0270982D01*
X0225113Y0270904D01*
X0225080Y0270823D01*
X0225049Y0270742D01*
X0225023Y0270659D01*
X0225000Y0270574D01*
X0224981Y0270489D01*
X0224966Y0270404D01*
X0224954Y0270317D01*
X0224946Y0270231D01*
X0224942Y0270144D01*
X0224942Y0270056D01*
X0224946Y0269969D01*
X0224954Y0269883D01*
X0224966Y0269796D01*
X0224981Y0269711D01*
X0225000Y0269626D01*
X0225023Y0269541D01*
X0225049Y0269458D01*
X0225080Y0269377D01*
X0225113Y0269296D01*
X0225151Y0269218D01*
X0225191Y0269141D01*
X0225236Y0269066D01*
X0225283Y0268993D01*
X0225334Y0268922D01*
X0225387Y0268853D01*
X0225444Y0268787D01*
X0225503Y0268723D01*
X0225566Y0268662D01*
X0225631Y0268604D01*
X0225698Y0268549D01*
X0225768Y0268497D01*
X0225840Y0268448D01*
X0225914Y0268402D01*
X0225990Y0268360D01*
X0226068Y0268321D01*
X0226147Y0268285D01*
X0226228Y0268253D01*
X0226311Y0268225D01*
X0226394Y0268200D01*
X0226479Y0268179D01*
X0226564Y0268162D01*
X0226650Y0268148D01*
X0226737Y0268139D01*
X0226824Y0268133D01*
X0226911Y0268131D01*
X0226911Y0259864D01*
X0226124Y0259864D01*
X0263100Y0261600D02*
X0263100Y0278600D01*
X0271100Y0282100D02*
X0279147Y0282100D01*
X0287100Y0278600D02*
X0287100Y0261600D01*
X0279029Y0258100D02*
X0271100Y0258100D01*
X0268100Y0270100D02*
X0268102Y0270272D01*
X0268108Y0270443D01*
X0268119Y0270615D01*
X0268134Y0270786D01*
X0268153Y0270957D01*
X0268176Y0271127D01*
X0268203Y0271297D01*
X0268235Y0271466D01*
X0268270Y0271634D01*
X0268310Y0271801D01*
X0268354Y0271967D01*
X0268401Y0272132D01*
X0268453Y0272296D01*
X0268509Y0272458D01*
X0268569Y0272619D01*
X0268633Y0272779D01*
X0268701Y0272937D01*
X0268772Y0273093D01*
X0268847Y0273247D01*
X0268927Y0273400D01*
X0269009Y0273550D01*
X0269096Y0273699D01*
X0269186Y0273845D01*
X0269280Y0273989D01*
X0269377Y0274131D01*
X0269478Y0274270D01*
X0269582Y0274407D01*
X0269689Y0274541D01*
X0269800Y0274672D01*
X0269913Y0274801D01*
X0270030Y0274927D01*
X0270150Y0275050D01*
X0270273Y0275170D01*
X0270399Y0275287D01*
X0270528Y0275400D01*
X0270659Y0275511D01*
X0270793Y0275618D01*
X0270930Y0275722D01*
X0271069Y0275823D01*
X0271211Y0275920D01*
X0271355Y0276014D01*
X0271501Y0276104D01*
X0271650Y0276191D01*
X0271800Y0276273D01*
X0271953Y0276353D01*
X0272107Y0276428D01*
X0272263Y0276499D01*
X0272421Y0276567D01*
X0272581Y0276631D01*
X0272742Y0276691D01*
X0272904Y0276747D01*
X0273068Y0276799D01*
X0273233Y0276846D01*
X0273399Y0276890D01*
X0273566Y0276930D01*
X0273734Y0276965D01*
X0273903Y0276997D01*
X0274073Y0277024D01*
X0274243Y0277047D01*
X0274414Y0277066D01*
X0274585Y0277081D01*
X0274757Y0277092D01*
X0274928Y0277098D01*
X0275100Y0277100D01*
X0275272Y0277098D01*
X0275443Y0277092D01*
X0275615Y0277081D01*
X0275786Y0277066D01*
X0275957Y0277047D01*
X0276127Y0277024D01*
X0276297Y0276997D01*
X0276466Y0276965D01*
X0276634Y0276930D01*
X0276801Y0276890D01*
X0276967Y0276846D01*
X0277132Y0276799D01*
X0277296Y0276747D01*
X0277458Y0276691D01*
X0277619Y0276631D01*
X0277779Y0276567D01*
X0277937Y0276499D01*
X0278093Y0276428D01*
X0278247Y0276353D01*
X0278400Y0276273D01*
X0278550Y0276191D01*
X0278699Y0276104D01*
X0278845Y0276014D01*
X0278989Y0275920D01*
X0279131Y0275823D01*
X0279270Y0275722D01*
X0279407Y0275618D01*
X0279541Y0275511D01*
X0279672Y0275400D01*
X0279801Y0275287D01*
X0279927Y0275170D01*
X0280050Y0275050D01*
X0280170Y0274927D01*
X0280287Y0274801D01*
X0280400Y0274672D01*
X0280511Y0274541D01*
X0280618Y0274407D01*
X0280722Y0274270D01*
X0280823Y0274131D01*
X0280920Y0273989D01*
X0281014Y0273845D01*
X0281104Y0273699D01*
X0281191Y0273550D01*
X0281273Y0273400D01*
X0281353Y0273247D01*
X0281428Y0273093D01*
X0281499Y0272937D01*
X0281567Y0272779D01*
X0281631Y0272619D01*
X0281691Y0272458D01*
X0281747Y0272296D01*
X0281799Y0272132D01*
X0281846Y0271967D01*
X0281890Y0271801D01*
X0281930Y0271634D01*
X0281965Y0271466D01*
X0281997Y0271297D01*
X0282024Y0271127D01*
X0282047Y0270957D01*
X0282066Y0270786D01*
X0282081Y0270615D01*
X0282092Y0270443D01*
X0282098Y0270272D01*
X0282100Y0270100D01*
X0282098Y0269928D01*
X0282092Y0269757D01*
X0282081Y0269585D01*
X0282066Y0269414D01*
X0282047Y0269243D01*
X0282024Y0269073D01*
X0281997Y0268903D01*
X0281965Y0268734D01*
X0281930Y0268566D01*
X0281890Y0268399D01*
X0281846Y0268233D01*
X0281799Y0268068D01*
X0281747Y0267904D01*
X0281691Y0267742D01*
X0281631Y0267581D01*
X0281567Y0267421D01*
X0281499Y0267263D01*
X0281428Y0267107D01*
X0281353Y0266953D01*
X0281273Y0266800D01*
X0281191Y0266650D01*
X0281104Y0266501D01*
X0281014Y0266355D01*
X0280920Y0266211D01*
X0280823Y0266069D01*
X0280722Y0265930D01*
X0280618Y0265793D01*
X0280511Y0265659D01*
X0280400Y0265528D01*
X0280287Y0265399D01*
X0280170Y0265273D01*
X0280050Y0265150D01*
X0279927Y0265030D01*
X0279801Y0264913D01*
X0279672Y0264800D01*
X0279541Y0264689D01*
X0279407Y0264582D01*
X0279270Y0264478D01*
X0279131Y0264377D01*
X0278989Y0264280D01*
X0278845Y0264186D01*
X0278699Y0264096D01*
X0278550Y0264009D01*
X0278400Y0263927D01*
X0278247Y0263847D01*
X0278093Y0263772D01*
X0277937Y0263701D01*
X0277779Y0263633D01*
X0277619Y0263569D01*
X0277458Y0263509D01*
X0277296Y0263453D01*
X0277132Y0263401D01*
X0276967Y0263354D01*
X0276801Y0263310D01*
X0276634Y0263270D01*
X0276466Y0263235D01*
X0276297Y0263203D01*
X0276127Y0263176D01*
X0275957Y0263153D01*
X0275786Y0263134D01*
X0275615Y0263119D01*
X0275443Y0263108D01*
X0275272Y0263102D01*
X0275100Y0263100D01*
X0274928Y0263102D01*
X0274757Y0263108D01*
X0274585Y0263119D01*
X0274414Y0263134D01*
X0274243Y0263153D01*
X0274073Y0263176D01*
X0273903Y0263203D01*
X0273734Y0263235D01*
X0273566Y0263270D01*
X0273399Y0263310D01*
X0273233Y0263354D01*
X0273068Y0263401D01*
X0272904Y0263453D01*
X0272742Y0263509D01*
X0272581Y0263569D01*
X0272421Y0263633D01*
X0272263Y0263701D01*
X0272107Y0263772D01*
X0271953Y0263847D01*
X0271800Y0263927D01*
X0271650Y0264009D01*
X0271501Y0264096D01*
X0271355Y0264186D01*
X0271211Y0264280D01*
X0271069Y0264377D01*
X0270930Y0264478D01*
X0270793Y0264582D01*
X0270659Y0264689D01*
X0270528Y0264800D01*
X0270399Y0264913D01*
X0270273Y0265030D01*
X0270150Y0265150D01*
X0270030Y0265273D01*
X0269913Y0265399D01*
X0269800Y0265528D01*
X0269689Y0265659D01*
X0269582Y0265793D01*
X0269478Y0265930D01*
X0269377Y0266069D01*
X0269280Y0266211D01*
X0269186Y0266355D01*
X0269096Y0266501D01*
X0269009Y0266650D01*
X0268927Y0266800D01*
X0268847Y0266953D01*
X0268772Y0267107D01*
X0268701Y0267263D01*
X0268633Y0267421D01*
X0268569Y0267581D01*
X0268509Y0267742D01*
X0268453Y0267904D01*
X0268401Y0268068D01*
X0268354Y0268233D01*
X0268310Y0268399D01*
X0268270Y0268566D01*
X0268235Y0268734D01*
X0268203Y0268903D01*
X0268176Y0269073D01*
X0268153Y0269243D01*
X0268134Y0269414D01*
X0268119Y0269585D01*
X0268108Y0269757D01*
X0268102Y0269928D01*
X0268100Y0270100D01*
X0328100Y0251100D02*
X0328100Y0234100D01*
X0336100Y0230600D02*
X0344029Y0230600D01*
X0352100Y0234100D02*
X0352100Y0251100D01*
X0344147Y0254600D02*
X0336100Y0254600D01*
X0333100Y0242600D02*
X0333102Y0242772D01*
X0333108Y0242943D01*
X0333119Y0243115D01*
X0333134Y0243286D01*
X0333153Y0243457D01*
X0333176Y0243627D01*
X0333203Y0243797D01*
X0333235Y0243966D01*
X0333270Y0244134D01*
X0333310Y0244301D01*
X0333354Y0244467D01*
X0333401Y0244632D01*
X0333453Y0244796D01*
X0333509Y0244958D01*
X0333569Y0245119D01*
X0333633Y0245279D01*
X0333701Y0245437D01*
X0333772Y0245593D01*
X0333847Y0245747D01*
X0333927Y0245900D01*
X0334009Y0246050D01*
X0334096Y0246199D01*
X0334186Y0246345D01*
X0334280Y0246489D01*
X0334377Y0246631D01*
X0334478Y0246770D01*
X0334582Y0246907D01*
X0334689Y0247041D01*
X0334800Y0247172D01*
X0334913Y0247301D01*
X0335030Y0247427D01*
X0335150Y0247550D01*
X0335273Y0247670D01*
X0335399Y0247787D01*
X0335528Y0247900D01*
X0335659Y0248011D01*
X0335793Y0248118D01*
X0335930Y0248222D01*
X0336069Y0248323D01*
X0336211Y0248420D01*
X0336355Y0248514D01*
X0336501Y0248604D01*
X0336650Y0248691D01*
X0336800Y0248773D01*
X0336953Y0248853D01*
X0337107Y0248928D01*
X0337263Y0248999D01*
X0337421Y0249067D01*
X0337581Y0249131D01*
X0337742Y0249191D01*
X0337904Y0249247D01*
X0338068Y0249299D01*
X0338233Y0249346D01*
X0338399Y0249390D01*
X0338566Y0249430D01*
X0338734Y0249465D01*
X0338903Y0249497D01*
X0339073Y0249524D01*
X0339243Y0249547D01*
X0339414Y0249566D01*
X0339585Y0249581D01*
X0339757Y0249592D01*
X0339928Y0249598D01*
X0340100Y0249600D01*
X0340272Y0249598D01*
X0340443Y0249592D01*
X0340615Y0249581D01*
X0340786Y0249566D01*
X0340957Y0249547D01*
X0341127Y0249524D01*
X0341297Y0249497D01*
X0341466Y0249465D01*
X0341634Y0249430D01*
X0341801Y0249390D01*
X0341967Y0249346D01*
X0342132Y0249299D01*
X0342296Y0249247D01*
X0342458Y0249191D01*
X0342619Y0249131D01*
X0342779Y0249067D01*
X0342937Y0248999D01*
X0343093Y0248928D01*
X0343247Y0248853D01*
X0343400Y0248773D01*
X0343550Y0248691D01*
X0343699Y0248604D01*
X0343845Y0248514D01*
X0343989Y0248420D01*
X0344131Y0248323D01*
X0344270Y0248222D01*
X0344407Y0248118D01*
X0344541Y0248011D01*
X0344672Y0247900D01*
X0344801Y0247787D01*
X0344927Y0247670D01*
X0345050Y0247550D01*
X0345170Y0247427D01*
X0345287Y0247301D01*
X0345400Y0247172D01*
X0345511Y0247041D01*
X0345618Y0246907D01*
X0345722Y0246770D01*
X0345823Y0246631D01*
X0345920Y0246489D01*
X0346014Y0246345D01*
X0346104Y0246199D01*
X0346191Y0246050D01*
X0346273Y0245900D01*
X0346353Y0245747D01*
X0346428Y0245593D01*
X0346499Y0245437D01*
X0346567Y0245279D01*
X0346631Y0245119D01*
X0346691Y0244958D01*
X0346747Y0244796D01*
X0346799Y0244632D01*
X0346846Y0244467D01*
X0346890Y0244301D01*
X0346930Y0244134D01*
X0346965Y0243966D01*
X0346997Y0243797D01*
X0347024Y0243627D01*
X0347047Y0243457D01*
X0347066Y0243286D01*
X0347081Y0243115D01*
X0347092Y0242943D01*
X0347098Y0242772D01*
X0347100Y0242600D01*
X0347098Y0242428D01*
X0347092Y0242257D01*
X0347081Y0242085D01*
X0347066Y0241914D01*
X0347047Y0241743D01*
X0347024Y0241573D01*
X0346997Y0241403D01*
X0346965Y0241234D01*
X0346930Y0241066D01*
X0346890Y0240899D01*
X0346846Y0240733D01*
X0346799Y0240568D01*
X0346747Y0240404D01*
X0346691Y0240242D01*
X0346631Y0240081D01*
X0346567Y0239921D01*
X0346499Y0239763D01*
X0346428Y0239607D01*
X0346353Y0239453D01*
X0346273Y0239300D01*
X0346191Y0239150D01*
X0346104Y0239001D01*
X0346014Y0238855D01*
X0345920Y0238711D01*
X0345823Y0238569D01*
X0345722Y0238430D01*
X0345618Y0238293D01*
X0345511Y0238159D01*
X0345400Y0238028D01*
X0345287Y0237899D01*
X0345170Y0237773D01*
X0345050Y0237650D01*
X0344927Y0237530D01*
X0344801Y0237413D01*
X0344672Y0237300D01*
X0344541Y0237189D01*
X0344407Y0237082D01*
X0344270Y0236978D01*
X0344131Y0236877D01*
X0343989Y0236780D01*
X0343845Y0236686D01*
X0343699Y0236596D01*
X0343550Y0236509D01*
X0343400Y0236427D01*
X0343247Y0236347D01*
X0343093Y0236272D01*
X0342937Y0236201D01*
X0342779Y0236133D01*
X0342619Y0236069D01*
X0342458Y0236009D01*
X0342296Y0235953D01*
X0342132Y0235901D01*
X0341967Y0235854D01*
X0341801Y0235810D01*
X0341634Y0235770D01*
X0341466Y0235735D01*
X0341297Y0235703D01*
X0341127Y0235676D01*
X0340957Y0235653D01*
X0340786Y0235634D01*
X0340615Y0235619D01*
X0340443Y0235608D01*
X0340272Y0235602D01*
X0340100Y0235600D01*
X0339928Y0235602D01*
X0339757Y0235608D01*
X0339585Y0235619D01*
X0339414Y0235634D01*
X0339243Y0235653D01*
X0339073Y0235676D01*
X0338903Y0235703D01*
X0338734Y0235735D01*
X0338566Y0235770D01*
X0338399Y0235810D01*
X0338233Y0235854D01*
X0338068Y0235901D01*
X0337904Y0235953D01*
X0337742Y0236009D01*
X0337581Y0236069D01*
X0337421Y0236133D01*
X0337263Y0236201D01*
X0337107Y0236272D01*
X0336953Y0236347D01*
X0336800Y0236427D01*
X0336650Y0236509D01*
X0336501Y0236596D01*
X0336355Y0236686D01*
X0336211Y0236780D01*
X0336069Y0236877D01*
X0335930Y0236978D01*
X0335793Y0237082D01*
X0335659Y0237189D01*
X0335528Y0237300D01*
X0335399Y0237413D01*
X0335273Y0237530D01*
X0335150Y0237650D01*
X0335030Y0237773D01*
X0334913Y0237899D01*
X0334800Y0238028D01*
X0334689Y0238159D01*
X0334582Y0238293D01*
X0334478Y0238430D01*
X0334377Y0238569D01*
X0334280Y0238711D01*
X0334186Y0238855D01*
X0334096Y0239001D01*
X0334009Y0239150D01*
X0333927Y0239300D01*
X0333847Y0239453D01*
X0333772Y0239607D01*
X0333701Y0239763D01*
X0333633Y0239921D01*
X0333569Y0240081D01*
X0333509Y0240242D01*
X0333453Y0240404D01*
X0333401Y0240568D01*
X0333354Y0240733D01*
X0333310Y0240899D01*
X0333270Y0241066D01*
X0333235Y0241234D01*
X0333203Y0241403D01*
X0333176Y0241573D01*
X0333153Y0241743D01*
X0333134Y0241914D01*
X0333119Y0242085D01*
X0333108Y0242257D01*
X0333102Y0242428D01*
X0333100Y0242600D01*
D11*
X0447041Y0166238D02*
X0447775Y0166972D01*
X0449977Y0166972D01*
X0449977Y0164770D01*
X0449243Y0164036D01*
X0448509Y0164770D01*
X0448509Y0166972D01*
X0447041Y0166238D02*
X0447041Y0164770D01*
X0447775Y0162368D02*
X0449977Y0162368D01*
X0447775Y0162368D02*
X0447041Y0161634D01*
X0447041Y0159432D01*
X0449977Y0159432D01*
X0449977Y0157764D02*
X0447775Y0157764D01*
X0447041Y0157030D01*
X0447041Y0154828D01*
X0449977Y0154828D01*
X0448509Y0153160D02*
X0448509Y0150224D01*
X0447775Y0150224D02*
X0447041Y0150958D01*
X0447041Y0152426D01*
X0447775Y0153160D01*
X0448509Y0153160D01*
X0449977Y0152426D02*
X0449977Y0150958D01*
X0449243Y0150224D01*
X0447775Y0150224D01*
X0447041Y0148623D02*
X0447041Y0147155D01*
X0446307Y0147889D02*
X0449243Y0147889D01*
X0449977Y0148623D01*
X0449977Y0145487D02*
X0447775Y0145487D01*
X0447041Y0144753D01*
X0447041Y0142551D01*
X0449977Y0142551D01*
X0449977Y0140883D02*
X0447041Y0140883D01*
X0445573Y0139415D01*
X0447041Y0137947D01*
X0449977Y0137947D01*
X0447775Y0137947D02*
X0447775Y0140883D01*
X0361281Y0047462D02*
X0358919Y0047462D01*
X0358919Y0042738D02*
X0361281Y0042738D01*
X0342531Y0037462D02*
X0340169Y0037462D01*
X0340169Y0032738D02*
X0342531Y0032738D01*
D12*
X0338651Y0027444D02*
X0338651Y0025510D01*
X0338651Y0026477D02*
X0335748Y0026477D01*
X0336716Y0025510D01*
X0338651Y0024498D02*
X0338651Y0022563D01*
X0335748Y0022563D01*
X0345748Y0015521D02*
X0348650Y0015521D01*
X0348650Y0016488D02*
X0348650Y0014553D01*
X0348650Y0013542D02*
X0347683Y0012574D01*
X0347683Y0013058D02*
X0347683Y0011607D01*
X0348650Y0011607D02*
X0345748Y0011607D01*
X0345748Y0013058D01*
X0346231Y0013542D01*
X0347199Y0013542D01*
X0347683Y0013058D01*
X0346715Y0014553D02*
X0345748Y0015521D01*
X0364248Y0028553D02*
X0366666Y0028553D01*
X0367150Y0029037D01*
X0367150Y0030005D01*
X0366666Y0030488D01*
X0364248Y0030488D01*
X0364731Y0031500D02*
X0364248Y0031984D01*
X0364248Y0032951D01*
X0364731Y0033435D01*
X0365215Y0033435D01*
X0367150Y0031500D01*
X0367150Y0033435D01*
X0344738Y0040050D02*
X0344738Y0042952D01*
X0342803Y0042952D02*
X0342803Y0040050D01*
X0341807Y0040050D02*
X0340839Y0040050D01*
X0341323Y0040050D02*
X0341323Y0042952D01*
X0340839Y0042952D02*
X0341807Y0042952D01*
X0342803Y0042952D02*
X0344738Y0040050D01*
X0339828Y0039566D02*
X0337893Y0039566D01*
X0336881Y0040534D02*
X0336397Y0040050D01*
X0335430Y0040050D01*
X0334946Y0040534D01*
X0334946Y0042469D01*
X0335430Y0042952D01*
X0336397Y0042952D01*
X0336881Y0042469D01*
X0348500Y0050234D02*
X0348984Y0049750D01*
X0349951Y0049750D01*
X0350435Y0050234D01*
X0351447Y0049266D02*
X0353381Y0049266D01*
X0354393Y0050234D02*
X0354877Y0049750D01*
X0355844Y0049750D01*
X0356328Y0050234D01*
X0356328Y0052169D01*
X0355844Y0052652D01*
X0354877Y0052652D01*
X0354393Y0052169D01*
X0354393Y0050234D01*
X0357340Y0050234D02*
X0357823Y0049750D01*
X0358791Y0049750D01*
X0359275Y0050234D01*
X0359275Y0052652D01*
X0360286Y0052652D02*
X0362221Y0052652D01*
X0361254Y0052652D02*
X0361254Y0049750D01*
X0357340Y0050234D02*
X0357340Y0052652D01*
X0350435Y0052169D02*
X0349951Y0052652D01*
X0348984Y0052652D01*
X0348500Y0052169D01*
X0348500Y0050234D01*
X0413248Y0100357D02*
X0413248Y0101808D01*
X0413731Y0102292D01*
X0414699Y0102292D01*
X0415183Y0101808D01*
X0415183Y0100357D01*
X0416150Y0100357D02*
X0413248Y0100357D01*
X0415183Y0101324D02*
X0416150Y0102292D01*
X0415666Y0103303D02*
X0416150Y0103787D01*
X0416150Y0104755D01*
X0415666Y0105238D01*
X0415183Y0105238D01*
X0414699Y0104755D01*
X0414699Y0104271D01*
X0414699Y0104755D02*
X0414215Y0105238D01*
X0413731Y0105238D01*
X0413248Y0104755D01*
X0413248Y0103787D01*
X0413731Y0103303D01*
X0413787Y0116550D02*
X0413303Y0117034D01*
X0413787Y0116550D02*
X0414755Y0116550D01*
X0415238Y0117034D01*
X0415238Y0118001D01*
X0414755Y0118485D01*
X0414271Y0118485D01*
X0413303Y0118001D01*
X0413303Y0119452D01*
X0415238Y0119452D01*
X0412292Y0118969D02*
X0411808Y0119452D01*
X0410841Y0119452D01*
X0410357Y0118969D01*
X0410357Y0117034D01*
X0410841Y0116550D01*
X0411808Y0116550D01*
X0412292Y0117034D01*
X0389450Y0113648D02*
X0386548Y0113648D01*
X0387999Y0112197D01*
X0387999Y0114131D01*
X0387999Y0111185D02*
X0388483Y0110701D01*
X0388483Y0109250D01*
X0389450Y0109250D02*
X0386548Y0109250D01*
X0386548Y0110701D01*
X0387031Y0111185D01*
X0387999Y0111185D01*
X0388483Y0110217D02*
X0389450Y0111185D01*
X0386631Y0117000D02*
X0384697Y0117000D01*
X0386631Y0118935D01*
X0386631Y0119419D01*
X0386148Y0119902D01*
X0385180Y0119902D01*
X0384697Y0119419D01*
X0383685Y0119419D02*
X0383685Y0118451D01*
X0383201Y0117967D01*
X0381750Y0117967D01*
X0381750Y0117000D02*
X0381750Y0119902D01*
X0383201Y0119902D01*
X0383685Y0119419D01*
X0382717Y0117967D02*
X0383685Y0117000D01*
X0363966Y0183000D02*
X0362031Y0183000D01*
X0361548Y0183484D01*
X0361548Y0184451D01*
X0362031Y0184935D01*
X0362999Y0185947D02*
X0361548Y0187398D01*
X0364450Y0187398D01*
X0362999Y0187881D02*
X0362999Y0185947D01*
X0363966Y0184935D02*
X0364450Y0184451D01*
X0364450Y0183484D01*
X0363966Y0183000D01*
X0414048Y0191750D02*
X0414048Y0193201D01*
X0414531Y0193685D01*
X0415499Y0193685D01*
X0415983Y0193201D01*
X0415983Y0191750D01*
X0416950Y0191750D02*
X0414048Y0191750D01*
X0415983Y0192717D02*
X0416950Y0193685D01*
X0416466Y0194697D02*
X0416950Y0195180D01*
X0416950Y0196148D01*
X0416466Y0196631D01*
X0415499Y0196631D01*
X0415015Y0196148D01*
X0415015Y0195664D01*
X0415499Y0194697D01*
X0414048Y0194697D01*
X0414048Y0196631D01*
X0433248Y0196607D02*
X0433248Y0198058D01*
X0433731Y0198542D01*
X0434699Y0198542D01*
X0435183Y0198058D01*
X0435183Y0196607D01*
X0436150Y0196607D02*
X0433248Y0196607D01*
X0435183Y0197574D02*
X0436150Y0198542D01*
X0435666Y0199553D02*
X0436150Y0200037D01*
X0436150Y0201005D01*
X0435666Y0201488D01*
X0435183Y0201488D01*
X0434699Y0201005D01*
X0434699Y0199553D01*
X0435666Y0199553D01*
X0434699Y0199553D02*
X0433731Y0200521D01*
X0433248Y0201488D01*
X0237738Y0224534D02*
X0237255Y0224050D01*
X0236287Y0224050D01*
X0235803Y0224534D01*
X0234792Y0224534D02*
X0234308Y0224050D01*
X0233341Y0224050D01*
X0232857Y0224534D01*
X0232857Y0226469D01*
X0233341Y0226952D01*
X0234308Y0226952D01*
X0234792Y0226469D01*
X0235803Y0226469D02*
X0236287Y0226952D01*
X0237255Y0226952D01*
X0237738Y0226469D01*
X0237738Y0225985D01*
X0237255Y0225501D01*
X0237738Y0225017D01*
X0237738Y0224534D01*
X0237255Y0225501D02*
X0236771Y0225501D01*
X0233916Y0216488D02*
X0233433Y0216488D01*
X0232949Y0216005D01*
X0232949Y0214553D01*
X0233916Y0214553D01*
X0234400Y0215037D01*
X0234400Y0216005D01*
X0233916Y0216488D01*
X0231981Y0215521D02*
X0232949Y0214553D01*
X0231981Y0215521D02*
X0231498Y0216488D01*
X0231498Y0213542D02*
X0233916Y0213542D01*
X0234400Y0213058D01*
X0234400Y0212091D01*
X0233916Y0211607D01*
X0231498Y0211607D01*
X0229531Y0179131D02*
X0231466Y0177197D01*
X0231950Y0177197D01*
X0231466Y0176185D02*
X0231950Y0175701D01*
X0231950Y0174734D01*
X0231466Y0174250D01*
X0229531Y0174250D01*
X0229048Y0174734D01*
X0229048Y0175701D01*
X0229531Y0176185D01*
X0229048Y0177197D02*
X0229048Y0179131D01*
X0229531Y0179131D01*
X0229451Y0249500D02*
X0229935Y0249984D01*
X0229451Y0249500D02*
X0228484Y0249500D01*
X0228000Y0249984D01*
X0228000Y0251919D01*
X0228484Y0252402D01*
X0229451Y0252402D01*
X0229935Y0251919D01*
X0230947Y0250951D02*
X0230947Y0249984D01*
X0231430Y0249500D01*
X0232398Y0249500D01*
X0232881Y0249984D01*
X0232881Y0250467D01*
X0232398Y0250951D01*
X0230947Y0250951D01*
X0231914Y0251919D01*
X0232881Y0252402D01*
X0231416Y0266607D02*
X0228998Y0266607D01*
X0228998Y0268542D02*
X0231416Y0268542D01*
X0231900Y0268058D01*
X0231900Y0267091D01*
X0231416Y0266607D01*
X0231416Y0269553D02*
X0229481Y0271488D01*
X0228998Y0271488D01*
X0228998Y0269553D01*
X0231416Y0269553D02*
X0231900Y0269553D01*
X0230449Y0091488D02*
X0230449Y0089553D01*
X0228998Y0091005D01*
X0231900Y0091005D01*
X0231416Y0088542D02*
X0228998Y0088542D01*
X0228998Y0086607D02*
X0231416Y0086607D01*
X0231900Y0087091D01*
X0231900Y0088058D01*
X0231416Y0088542D01*
X0236150Y0075238D02*
X0236150Y0073303D01*
X0236150Y0074271D02*
X0233248Y0074271D01*
X0234215Y0073303D01*
X0233731Y0072292D02*
X0233248Y0071808D01*
X0233248Y0070841D01*
X0233731Y0070357D01*
X0235666Y0070357D01*
X0236150Y0070841D01*
X0236150Y0071808D01*
X0235666Y0072292D01*
X0226950Y0056631D02*
X0226950Y0054697D01*
X0225015Y0056631D01*
X0224531Y0056631D01*
X0224048Y0056148D01*
X0224048Y0055180D01*
X0224531Y0054697D01*
X0224531Y0053685D02*
X0224048Y0053201D01*
X0224048Y0052234D01*
X0224531Y0051750D01*
X0226466Y0051750D01*
X0226950Y0052234D01*
X0226950Y0053201D01*
X0226466Y0053685D01*
X0232748Y0036488D02*
X0232748Y0034553D01*
X0234199Y0034553D01*
X0233715Y0035521D01*
X0233715Y0036005D01*
X0234199Y0036488D01*
X0235166Y0036488D01*
X0235650Y0036005D01*
X0235650Y0035037D01*
X0235166Y0034553D01*
X0235166Y0033542D02*
X0232748Y0033542D01*
X0232748Y0031607D02*
X0235166Y0031607D01*
X0235650Y0032091D01*
X0235650Y0033058D01*
X0235166Y0033542D01*
D13*
X0179850Y0033749D02*
X0179850Y0030746D01*
X0176847Y0033749D01*
X0176097Y0033749D01*
X0175346Y0032998D01*
X0175346Y0031497D01*
X0176097Y0030746D01*
X0175346Y0029145D02*
X0179850Y0029145D01*
X0175346Y0026142D01*
X0179850Y0026142D01*
X0179850Y0024541D02*
X0178349Y0023039D01*
X0178349Y0023790D02*
X0178349Y0021538D01*
X0179850Y0021538D02*
X0175346Y0021538D01*
X0175346Y0023790D01*
X0176097Y0024541D01*
X0177598Y0024541D01*
X0178349Y0023790D01*
X0175592Y0026616D02*
X0049608Y0026616D01*
X0049608Y0152600D01*
X0175592Y0152600D01*
X0175592Y0278584D01*
X0049608Y0278584D01*
X0049608Y0152600D01*
X0175592Y0152600D01*
X0175592Y0026616D01*
X0175346Y0036538D02*
X0175346Y0038790D01*
X0176097Y0039541D01*
X0177598Y0039541D01*
X0178349Y0038790D01*
X0178349Y0036538D01*
X0179850Y0036538D02*
X0175346Y0036538D01*
X0178349Y0038039D02*
X0179850Y0039541D01*
X0179850Y0041142D02*
X0175346Y0041142D01*
X0179850Y0044145D01*
X0175346Y0044145D01*
X0176847Y0045746D02*
X0175346Y0047247D01*
X0179850Y0047247D01*
X0179850Y0045746D02*
X0179850Y0048749D01*
X0258036Y0112600D02*
X0262836Y0112600D01*
X0266580Y0117960D01*
X0270316Y0123320D01*
X0274060Y0128680D01*
X0277804Y0134040D01*
X0282204Y0134840D01*
X0286604Y0135640D01*
X0285276Y0142648D01*
X0283948Y0149656D01*
X0282620Y0156664D01*
X0281292Y0163672D01*
X0279964Y0170680D01*
X0277804Y0171072D01*
X0274060Y0176456D01*
X0270324Y0181832D01*
X0266580Y0187216D01*
X0262836Y0192600D01*
X0258036Y0192600D01*
X0258036Y0156520D01*
X0262916Y0154600D01*
X0262916Y0150520D01*
X0258036Y0148600D01*
X0258036Y0112600D01*
X0258036Y0112771D02*
X0262955Y0112771D01*
X0263304Y0113270D02*
X0258036Y0113270D01*
X0258036Y0113768D02*
X0263652Y0113768D01*
X0264000Y0114267D02*
X0258036Y0114267D01*
X0258036Y0114765D02*
X0264348Y0114765D01*
X0264697Y0115264D02*
X0258036Y0115264D01*
X0258036Y0115762D02*
X0265045Y0115762D01*
X0265393Y0116261D02*
X0258036Y0116261D01*
X0258036Y0116759D02*
X0265741Y0116759D01*
X0266089Y0117258D02*
X0258036Y0117258D01*
X0258036Y0117756D02*
X0266438Y0117756D01*
X0266785Y0118255D02*
X0258036Y0118255D01*
X0258036Y0118753D02*
X0267133Y0118753D01*
X0267480Y0119252D02*
X0258036Y0119252D01*
X0258036Y0119750D02*
X0267828Y0119750D01*
X0268175Y0120249D02*
X0258036Y0120249D01*
X0258036Y0120747D02*
X0268523Y0120747D01*
X0268870Y0121246D02*
X0258036Y0121246D01*
X0258036Y0121744D02*
X0269218Y0121744D01*
X0269565Y0122243D02*
X0258036Y0122243D01*
X0258036Y0122741D02*
X0269913Y0122741D01*
X0270260Y0123240D02*
X0258036Y0123240D01*
X0258036Y0123738D02*
X0270608Y0123738D01*
X0270956Y0124237D02*
X0258036Y0124237D01*
X0258036Y0124735D02*
X0271305Y0124735D01*
X0271653Y0125234D02*
X0258036Y0125234D01*
X0258036Y0125732D02*
X0272001Y0125732D01*
X0272349Y0126231D02*
X0258036Y0126231D01*
X0258036Y0126729D02*
X0272697Y0126729D01*
X0273046Y0127228D02*
X0258036Y0127228D01*
X0258036Y0127726D02*
X0273394Y0127726D01*
X0273742Y0128225D02*
X0258036Y0128225D01*
X0258036Y0128723D02*
X0274090Y0128723D01*
X0274439Y0129222D02*
X0258036Y0129222D01*
X0258036Y0129720D02*
X0274787Y0129720D01*
X0275135Y0130219D02*
X0258036Y0130219D01*
X0258036Y0130717D02*
X0275483Y0130717D01*
X0275831Y0131216D02*
X0258036Y0131216D01*
X0258036Y0131714D02*
X0276180Y0131714D01*
X0276528Y0132213D02*
X0258036Y0132213D01*
X0258036Y0132711D02*
X0276876Y0132711D01*
X0277224Y0133210D02*
X0258036Y0133210D01*
X0258036Y0133708D02*
X0277572Y0133708D01*
X0278722Y0134207D02*
X0258036Y0134207D01*
X0258036Y0134705D02*
X0281464Y0134705D01*
X0284206Y0135204D02*
X0258036Y0135204D01*
X0258036Y0135703D02*
X0286592Y0135703D01*
X0286498Y0136201D02*
X0258036Y0136201D01*
X0258036Y0136700D02*
X0286403Y0136700D01*
X0286309Y0137198D02*
X0258036Y0137198D01*
X0258036Y0137697D02*
X0286214Y0137697D01*
X0286120Y0138195D02*
X0258036Y0138195D01*
X0258036Y0138694D02*
X0286025Y0138694D01*
X0285931Y0139192D02*
X0258036Y0139192D01*
X0258036Y0139691D02*
X0285836Y0139691D01*
X0285742Y0140189D02*
X0258036Y0140189D01*
X0258036Y0140688D02*
X0285647Y0140688D01*
X0285553Y0141186D02*
X0258036Y0141186D01*
X0258036Y0141685D02*
X0285459Y0141685D01*
X0285364Y0142183D02*
X0258036Y0142183D01*
X0258036Y0142682D02*
X0285270Y0142682D01*
X0285175Y0143180D02*
X0258036Y0143180D01*
X0258036Y0143679D02*
X0285081Y0143679D01*
X0284986Y0144177D02*
X0258036Y0144177D01*
X0258036Y0144676D02*
X0284892Y0144676D01*
X0284797Y0145174D02*
X0258036Y0145174D01*
X0258036Y0145673D02*
X0284703Y0145673D01*
X0284608Y0146171D02*
X0258036Y0146171D01*
X0258036Y0146670D02*
X0284514Y0146670D01*
X0284419Y0147168D02*
X0258036Y0147168D01*
X0258036Y0147667D02*
X0284325Y0147667D01*
X0284230Y0148165D02*
X0258036Y0148165D01*
X0258198Y0148664D02*
X0284136Y0148664D01*
X0284042Y0149162D02*
X0259465Y0149162D01*
X0260732Y0149661D02*
X0283947Y0149661D01*
X0283853Y0150159D02*
X0261999Y0150159D01*
X0262916Y0150658D02*
X0283758Y0150658D01*
X0283664Y0151156D02*
X0262916Y0151156D01*
X0262916Y0151655D02*
X0283569Y0151655D01*
X0283475Y0152153D02*
X0262916Y0152153D01*
X0262916Y0152652D02*
X0283380Y0152652D01*
X0283286Y0153150D02*
X0262916Y0153150D01*
X0262916Y0153649D02*
X0283191Y0153649D01*
X0283097Y0154147D02*
X0262916Y0154147D01*
X0262799Y0154646D02*
X0283002Y0154646D01*
X0282908Y0155144D02*
X0261532Y0155144D01*
X0260265Y0155643D02*
X0282813Y0155643D01*
X0282719Y0156141D02*
X0258998Y0156141D01*
X0258036Y0156640D02*
X0282625Y0156640D01*
X0282530Y0157139D02*
X0258036Y0157139D01*
X0258036Y0157637D02*
X0282436Y0157637D01*
X0282341Y0158136D02*
X0258036Y0158136D01*
X0258036Y0158634D02*
X0282247Y0158634D01*
X0282152Y0159133D02*
X0258036Y0159133D01*
X0258036Y0159631D02*
X0282058Y0159631D01*
X0281963Y0160130D02*
X0258036Y0160130D01*
X0258036Y0160628D02*
X0281869Y0160628D01*
X0281774Y0161127D02*
X0258036Y0161127D01*
X0258036Y0161625D02*
X0281680Y0161625D01*
X0281585Y0162124D02*
X0258036Y0162124D01*
X0258036Y0162622D02*
X0281491Y0162622D01*
X0281396Y0163121D02*
X0258036Y0163121D01*
X0258036Y0163619D02*
X0281302Y0163619D01*
X0281208Y0164118D02*
X0258036Y0164118D01*
X0258036Y0164616D02*
X0281113Y0164616D01*
X0281019Y0165115D02*
X0258036Y0165115D01*
X0258036Y0165613D02*
X0280924Y0165613D01*
X0280830Y0166112D02*
X0258036Y0166112D01*
X0258036Y0166610D02*
X0280735Y0166610D01*
X0280641Y0167109D02*
X0258036Y0167109D01*
X0258036Y0167607D02*
X0280546Y0167607D01*
X0280452Y0168106D02*
X0258036Y0168106D01*
X0258036Y0168604D02*
X0280357Y0168604D01*
X0280263Y0169103D02*
X0258036Y0169103D01*
X0258036Y0169601D02*
X0280168Y0169601D01*
X0280074Y0170100D02*
X0258036Y0170100D01*
X0258036Y0170598D02*
X0279979Y0170598D01*
X0277787Y0171097D02*
X0258036Y0171097D01*
X0258036Y0171595D02*
X0277440Y0171595D01*
X0277093Y0172094D02*
X0258036Y0172094D01*
X0258036Y0172592D02*
X0276747Y0172592D01*
X0276400Y0173091D02*
X0258036Y0173091D01*
X0258036Y0173589D02*
X0276053Y0173589D01*
X0275707Y0174088D02*
X0258036Y0174088D01*
X0258036Y0174586D02*
X0275360Y0174586D01*
X0275013Y0175085D02*
X0258036Y0175085D01*
X0258036Y0175583D02*
X0274667Y0175583D01*
X0274320Y0176082D02*
X0258036Y0176082D01*
X0258036Y0176580D02*
X0273974Y0176580D01*
X0273627Y0177079D02*
X0258036Y0177079D01*
X0258036Y0177577D02*
X0273281Y0177577D01*
X0272934Y0178076D02*
X0258036Y0178076D01*
X0258036Y0178574D02*
X0272588Y0178574D01*
X0272241Y0179073D02*
X0258036Y0179073D01*
X0258036Y0179572D02*
X0271895Y0179572D01*
X0271548Y0180070D02*
X0258036Y0180070D01*
X0258036Y0180569D02*
X0271202Y0180569D01*
X0270856Y0181067D02*
X0258036Y0181067D01*
X0258036Y0181566D02*
X0270509Y0181566D01*
X0270163Y0182064D02*
X0258036Y0182064D01*
X0258036Y0182563D02*
X0269816Y0182563D01*
X0269469Y0183061D02*
X0258036Y0183061D01*
X0258036Y0183560D02*
X0269123Y0183560D01*
X0268776Y0184058D02*
X0258036Y0184058D01*
X0258036Y0184557D02*
X0268429Y0184557D01*
X0268083Y0185055D02*
X0258036Y0185055D01*
X0258036Y0185554D02*
X0267736Y0185554D01*
X0267389Y0186052D02*
X0258036Y0186052D01*
X0258036Y0186551D02*
X0267043Y0186551D01*
X0266696Y0187049D02*
X0258036Y0187049D01*
X0258036Y0187548D02*
X0266349Y0187548D01*
X0266003Y0188046D02*
X0258036Y0188046D01*
X0258036Y0188545D02*
X0265656Y0188545D01*
X0265309Y0189043D02*
X0258036Y0189043D01*
X0258036Y0189542D02*
X0264963Y0189542D01*
X0264616Y0190040D02*
X0258036Y0190040D01*
X0258036Y0190539D02*
X0264269Y0190539D01*
X0263923Y0191037D02*
X0258036Y0191037D01*
X0258036Y0191536D02*
X0263576Y0191536D01*
X0263229Y0192034D02*
X0258036Y0192034D01*
X0258036Y0192533D02*
X0262883Y0192533D01*
X0287404Y0169312D02*
X0291756Y0168512D01*
X0296116Y0167712D01*
X0297500Y0160392D01*
X0298884Y0153072D01*
X0300260Y0145752D01*
X0301644Y0138432D01*
X0297604Y0137672D01*
X0293564Y0136912D01*
X0292332Y0143392D01*
X0291100Y0149872D01*
X0289868Y0156352D01*
X0288636Y0162832D01*
X0287404Y0169312D01*
X0287444Y0169103D02*
X0288542Y0169103D01*
X0287539Y0168604D02*
X0291254Y0168604D01*
X0293970Y0168106D02*
X0287633Y0168106D01*
X0287728Y0167607D02*
X0296136Y0167607D01*
X0296230Y0167109D02*
X0287823Y0167109D01*
X0287918Y0166610D02*
X0296324Y0166610D01*
X0296419Y0166112D02*
X0288012Y0166112D01*
X0288107Y0165613D02*
X0296513Y0165613D01*
X0296607Y0165115D02*
X0288202Y0165115D01*
X0288297Y0164616D02*
X0296701Y0164616D01*
X0296796Y0164118D02*
X0288392Y0164118D01*
X0288486Y0163619D02*
X0296890Y0163619D01*
X0296984Y0163121D02*
X0288581Y0163121D01*
X0288676Y0162622D02*
X0297078Y0162622D01*
X0297173Y0162124D02*
X0288771Y0162124D01*
X0288865Y0161625D02*
X0297267Y0161625D01*
X0297361Y0161127D02*
X0288960Y0161127D01*
X0289055Y0160628D02*
X0297455Y0160628D01*
X0297550Y0160130D02*
X0289150Y0160130D01*
X0289245Y0159631D02*
X0297644Y0159631D01*
X0297738Y0159133D02*
X0289339Y0159133D01*
X0289434Y0158634D02*
X0297832Y0158634D01*
X0297927Y0158136D02*
X0289529Y0158136D01*
X0289624Y0157637D02*
X0298021Y0157637D01*
X0298115Y0157139D02*
X0289718Y0157139D01*
X0289813Y0156640D02*
X0298209Y0156640D01*
X0298304Y0156141D02*
X0289908Y0156141D01*
X0290003Y0155643D02*
X0298398Y0155643D01*
X0298492Y0155144D02*
X0290098Y0155144D01*
X0290192Y0154646D02*
X0298586Y0154646D01*
X0298681Y0154147D02*
X0290287Y0154147D01*
X0290382Y0153649D02*
X0298775Y0153649D01*
X0298869Y0153150D02*
X0290477Y0153150D01*
X0290571Y0152652D02*
X0298963Y0152652D01*
X0299057Y0152153D02*
X0290666Y0152153D01*
X0290761Y0151655D02*
X0299150Y0151655D01*
X0299244Y0151156D02*
X0290856Y0151156D01*
X0290951Y0150658D02*
X0299338Y0150658D01*
X0299432Y0150159D02*
X0291045Y0150159D01*
X0291140Y0149661D02*
X0299525Y0149661D01*
X0299619Y0149162D02*
X0291235Y0149162D01*
X0291330Y0148664D02*
X0299713Y0148664D01*
X0299806Y0148165D02*
X0291424Y0148165D01*
X0291519Y0147667D02*
X0299900Y0147667D01*
X0299994Y0147168D02*
X0291614Y0147168D01*
X0291709Y0146670D02*
X0300087Y0146670D01*
X0300181Y0146171D02*
X0291804Y0146171D01*
X0291898Y0145673D02*
X0300275Y0145673D01*
X0300369Y0145174D02*
X0291993Y0145174D01*
X0292088Y0144676D02*
X0300463Y0144676D01*
X0300558Y0144177D02*
X0292183Y0144177D01*
X0292277Y0143679D02*
X0300652Y0143679D01*
X0300746Y0143180D02*
X0292372Y0143180D01*
X0292467Y0142682D02*
X0300841Y0142682D01*
X0300935Y0142183D02*
X0292562Y0142183D01*
X0292657Y0141685D02*
X0301029Y0141685D01*
X0301123Y0141186D02*
X0292751Y0141186D01*
X0292846Y0140688D02*
X0301218Y0140688D01*
X0301312Y0140189D02*
X0292941Y0140189D01*
X0293036Y0139691D02*
X0301406Y0139691D01*
X0301500Y0139192D02*
X0293130Y0139192D01*
X0293225Y0138694D02*
X0301595Y0138694D01*
X0300385Y0138195D02*
X0293320Y0138195D01*
X0293415Y0137697D02*
X0297735Y0137697D01*
X0295085Y0137198D02*
X0293510Y0137198D01*
X0308591Y0140189D02*
X0311263Y0140189D01*
X0312724Y0140464D02*
X0316764Y0141224D01*
X0315268Y0149064D01*
X0313772Y0156904D01*
X0312276Y0164744D01*
X0307916Y0165544D01*
X0303564Y0166352D01*
X0304844Y0159688D01*
X0306124Y0153032D01*
X0307404Y0146368D01*
X0308684Y0139704D01*
X0312724Y0140464D01*
X0313913Y0140688D02*
X0308495Y0140688D01*
X0308399Y0141186D02*
X0316563Y0141186D01*
X0316676Y0141685D02*
X0308304Y0141685D01*
X0308208Y0142183D02*
X0316581Y0142183D01*
X0316486Y0142682D02*
X0308112Y0142682D01*
X0308016Y0143180D02*
X0316391Y0143180D01*
X0316296Y0143679D02*
X0307921Y0143679D01*
X0307825Y0144177D02*
X0316200Y0144177D01*
X0316105Y0144676D02*
X0307729Y0144676D01*
X0307633Y0145174D02*
X0316010Y0145174D01*
X0315915Y0145673D02*
X0307538Y0145673D01*
X0307442Y0146171D02*
X0315820Y0146171D01*
X0315725Y0146670D02*
X0307346Y0146670D01*
X0307250Y0147168D02*
X0315630Y0147168D01*
X0315535Y0147667D02*
X0307155Y0147667D01*
X0307059Y0148165D02*
X0315439Y0148165D01*
X0315344Y0148664D02*
X0306963Y0148664D01*
X0306867Y0149162D02*
X0315249Y0149162D01*
X0315154Y0149661D02*
X0306772Y0149661D01*
X0306676Y0150159D02*
X0315059Y0150159D01*
X0314964Y0150658D02*
X0306580Y0150658D01*
X0306484Y0151156D02*
X0314869Y0151156D01*
X0314774Y0151655D02*
X0306389Y0151655D01*
X0306293Y0152153D02*
X0314678Y0152153D01*
X0314583Y0152652D02*
X0306197Y0152652D01*
X0306101Y0153150D02*
X0314488Y0153150D01*
X0314393Y0153649D02*
X0306005Y0153649D01*
X0305909Y0154147D02*
X0314298Y0154147D01*
X0314203Y0154646D02*
X0305814Y0154646D01*
X0305718Y0155144D02*
X0314108Y0155144D01*
X0314013Y0155643D02*
X0305622Y0155643D01*
X0305526Y0156141D02*
X0313918Y0156141D01*
X0313822Y0156640D02*
X0305430Y0156640D01*
X0305334Y0157139D02*
X0313727Y0157139D01*
X0313632Y0157637D02*
X0305238Y0157637D01*
X0305143Y0158136D02*
X0313537Y0158136D01*
X0313442Y0158634D02*
X0305047Y0158634D01*
X0304951Y0159133D02*
X0313347Y0159133D01*
X0313252Y0159631D02*
X0304855Y0159631D01*
X0304759Y0160130D02*
X0313157Y0160130D01*
X0313061Y0160628D02*
X0304663Y0160628D01*
X0304568Y0161127D02*
X0312966Y0161127D01*
X0312871Y0161625D02*
X0304472Y0161625D01*
X0304376Y0162124D02*
X0312776Y0162124D01*
X0312681Y0162622D02*
X0304280Y0162622D01*
X0304185Y0163121D02*
X0312586Y0163121D01*
X0312491Y0163619D02*
X0304089Y0163619D01*
X0303993Y0164118D02*
X0312396Y0164118D01*
X0312300Y0164616D02*
X0303897Y0164616D01*
X0303802Y0165115D02*
X0310256Y0165115D01*
X0307543Y0165613D02*
X0303706Y0165613D01*
X0303610Y0166112D02*
X0304858Y0166112D01*
X0319724Y0163312D02*
X0324092Y0162512D01*
X0328452Y0161712D01*
X0329572Y0155816D01*
X0330692Y0149920D01*
X0331812Y0144024D01*
X0327772Y0143264D01*
X0323732Y0142504D01*
X0322396Y0149440D01*
X0321060Y0156376D01*
X0319724Y0163312D01*
X0319761Y0163121D02*
X0320769Y0163121D01*
X0319857Y0162622D02*
X0323491Y0162622D01*
X0326209Y0162124D02*
X0319953Y0162124D01*
X0320049Y0161625D02*
X0328469Y0161625D01*
X0328563Y0161127D02*
X0320145Y0161127D01*
X0320241Y0160628D02*
X0328658Y0160628D01*
X0328753Y0160130D02*
X0320337Y0160130D01*
X0320433Y0159631D02*
X0328847Y0159631D01*
X0328942Y0159133D02*
X0320529Y0159133D01*
X0320625Y0158634D02*
X0329037Y0158634D01*
X0329131Y0158136D02*
X0320721Y0158136D01*
X0320817Y0157637D02*
X0329226Y0157637D01*
X0329321Y0157139D02*
X0320913Y0157139D01*
X0321009Y0156640D02*
X0329415Y0156640D01*
X0329510Y0156141D02*
X0321105Y0156141D01*
X0321201Y0155643D02*
X0329605Y0155643D01*
X0329700Y0155144D02*
X0321297Y0155144D01*
X0321393Y0154646D02*
X0329794Y0154646D01*
X0329889Y0154147D02*
X0321489Y0154147D01*
X0321585Y0153649D02*
X0329984Y0153649D01*
X0330078Y0153150D02*
X0321681Y0153150D01*
X0321777Y0152652D02*
X0330173Y0152652D01*
X0330268Y0152153D02*
X0321873Y0152153D01*
X0321969Y0151655D02*
X0330362Y0151655D01*
X0330457Y0151156D02*
X0322065Y0151156D01*
X0322161Y0150658D02*
X0330552Y0150658D01*
X0330647Y0150159D02*
X0322257Y0150159D01*
X0322353Y0149661D02*
X0330741Y0149661D01*
X0330836Y0149162D02*
X0322449Y0149162D01*
X0322545Y0148664D02*
X0330931Y0148664D01*
X0331025Y0148165D02*
X0322642Y0148165D01*
X0322738Y0147667D02*
X0331120Y0147667D01*
X0331215Y0147168D02*
X0322834Y0147168D01*
X0322930Y0146670D02*
X0331309Y0146670D01*
X0331404Y0146171D02*
X0323026Y0146171D01*
X0323122Y0145673D02*
X0331499Y0145673D01*
X0331594Y0145174D02*
X0323218Y0145174D01*
X0323314Y0144676D02*
X0331688Y0144676D01*
X0331783Y0144177D02*
X0323410Y0144177D01*
X0323506Y0143679D02*
X0329976Y0143679D01*
X0327326Y0143180D02*
X0323602Y0143180D01*
X0323698Y0142682D02*
X0324677Y0142682D01*
X0338511Y0146670D02*
X0340396Y0146670D01*
X0340965Y0147168D02*
X0338418Y0147168D01*
X0338326Y0147667D02*
X0341535Y0147667D01*
X0342105Y0148165D02*
X0338233Y0148165D01*
X0338140Y0148664D02*
X0342675Y0148664D01*
X0343004Y0148952D02*
X0347164Y0152592D01*
X0343004Y0156192D01*
X0338844Y0159792D01*
X0335964Y0160352D01*
X0337364Y0152832D01*
X0338764Y0145312D01*
X0338844Y0145312D01*
X0343004Y0148952D01*
X0343244Y0149162D02*
X0338047Y0149162D01*
X0337954Y0149661D02*
X0343814Y0149661D01*
X0344384Y0150159D02*
X0337862Y0150159D01*
X0337769Y0150658D02*
X0344954Y0150658D01*
X0345523Y0151156D02*
X0337676Y0151156D01*
X0337583Y0151655D02*
X0346093Y0151655D01*
X0346663Y0152153D02*
X0337490Y0152153D01*
X0337398Y0152652D02*
X0347095Y0152652D01*
X0346519Y0153150D02*
X0337305Y0153150D01*
X0337212Y0153649D02*
X0345943Y0153649D01*
X0345367Y0154147D02*
X0337119Y0154147D01*
X0337026Y0154646D02*
X0344791Y0154646D01*
X0344214Y0155144D02*
X0336933Y0155144D01*
X0336841Y0155643D02*
X0343638Y0155643D01*
X0343062Y0156141D02*
X0336748Y0156141D01*
X0336655Y0156640D02*
X0342486Y0156640D01*
X0341910Y0157139D02*
X0336562Y0157139D01*
X0336469Y0157637D02*
X0341334Y0157637D01*
X0340758Y0158136D02*
X0336377Y0158136D01*
X0336284Y0158634D02*
X0340182Y0158634D01*
X0339606Y0159133D02*
X0336191Y0159133D01*
X0336098Y0159631D02*
X0339030Y0159631D01*
X0337108Y0160130D02*
X0336005Y0160130D01*
X0338604Y0146171D02*
X0339826Y0146171D01*
X0339256Y0145673D02*
X0338697Y0145673D01*
X0371793Y0121104D02*
X0371793Y0184096D01*
X0466281Y0184096D01*
X0466281Y0121104D01*
X0371793Y0121104D01*
X0376517Y0128978D02*
X0376517Y0176222D01*
X0435572Y0176222D01*
X0435572Y0128978D01*
X0376517Y0128978D01*
X0333600Y0075102D02*
X0329096Y0075102D01*
X0331348Y0072850D01*
X0331348Y0075853D01*
X0332099Y0071249D02*
X0332849Y0071249D01*
X0333600Y0070498D01*
X0333600Y0068997D01*
X0332849Y0068246D01*
X0331348Y0068997D02*
X0331348Y0070498D01*
X0332099Y0071249D01*
X0329847Y0071249D02*
X0329096Y0070498D01*
X0329096Y0068997D01*
X0329847Y0068246D01*
X0330597Y0068246D01*
X0331348Y0068997D01*
X0296100Y0068997D02*
X0295349Y0068246D01*
X0296100Y0068997D02*
X0296100Y0070498D01*
X0295349Y0071249D01*
X0294599Y0071249D01*
X0293848Y0070498D01*
X0293848Y0068997D01*
X0293097Y0068246D01*
X0292347Y0068246D01*
X0291596Y0068997D01*
X0291596Y0070498D01*
X0292347Y0071249D01*
X0292347Y0072850D02*
X0291596Y0073601D01*
X0291596Y0075102D01*
X0292347Y0075853D01*
X0293097Y0075853D01*
X0296100Y0072850D01*
X0296100Y0075853D01*
X0295349Y0105746D02*
X0296100Y0106497D01*
X0296100Y0107998D01*
X0295349Y0108749D01*
X0294599Y0108749D01*
X0293848Y0107998D01*
X0293848Y0106497D01*
X0293097Y0105746D01*
X0292347Y0105746D01*
X0291596Y0106497D01*
X0291596Y0107998D01*
X0292347Y0108749D01*
X0292347Y0110350D02*
X0291596Y0111101D01*
X0291596Y0112602D01*
X0292347Y0113353D01*
X0293097Y0113353D01*
X0293848Y0112602D01*
X0294599Y0113353D01*
X0295349Y0113353D01*
X0296100Y0112602D01*
X0296100Y0111101D01*
X0295349Y0110350D01*
X0293848Y0111851D02*
X0293848Y0112602D01*
X0237850Y0149601D02*
X0237099Y0148850D01*
X0233346Y0148850D01*
X0233346Y0151853D02*
X0237099Y0151853D01*
X0237850Y0151102D01*
X0237850Y0149601D01*
X0237099Y0153454D02*
X0237850Y0154205D01*
X0237850Y0155706D01*
X0237099Y0156456D01*
X0236349Y0156456D01*
X0235598Y0155706D01*
X0235598Y0154955D01*
X0235598Y0155706D02*
X0234847Y0156456D01*
X0234097Y0156456D01*
X0233346Y0155706D01*
X0233346Y0154205D01*
X0234097Y0153454D01*
X0179850Y0201538D02*
X0175346Y0201538D01*
X0175346Y0203790D01*
X0176097Y0204541D01*
X0177598Y0204541D01*
X0178349Y0203790D01*
X0178349Y0201538D01*
X0178349Y0203039D02*
X0179850Y0204541D01*
X0179850Y0206142D02*
X0175346Y0206142D01*
X0179850Y0209145D01*
X0175346Y0209145D01*
X0177598Y0210746D02*
X0177598Y0213749D01*
X0175346Y0212998D02*
X0177598Y0210746D01*
X0179850Y0212998D02*
X0175346Y0212998D01*
X0175346Y0216538D02*
X0175346Y0218790D01*
X0176097Y0219541D01*
X0177598Y0219541D01*
X0178349Y0218790D01*
X0178349Y0216538D01*
X0179850Y0216538D02*
X0175346Y0216538D01*
X0178349Y0218039D02*
X0179850Y0219541D01*
X0179850Y0221142D02*
X0175346Y0221142D01*
X0179850Y0224145D01*
X0175346Y0224145D01*
X0176097Y0225746D02*
X0175346Y0226497D01*
X0175346Y0227998D01*
X0176097Y0228749D01*
X0176847Y0228749D01*
X0177598Y0227998D01*
X0178349Y0228749D01*
X0179099Y0228749D01*
X0179850Y0227998D01*
X0179850Y0226497D01*
X0179099Y0225746D01*
X0177598Y0227247D02*
X0177598Y0227998D01*
X0180346Y0264038D02*
X0180346Y0266290D01*
X0181097Y0267041D01*
X0182598Y0267041D01*
X0183349Y0266290D01*
X0183349Y0264038D01*
X0184850Y0264038D02*
X0180346Y0264038D01*
X0183349Y0265539D02*
X0184850Y0267041D01*
X0184850Y0268642D02*
X0180346Y0268642D01*
X0184850Y0271645D01*
X0180346Y0271645D01*
X0180346Y0273246D02*
X0182598Y0273246D01*
X0181847Y0274747D01*
X0181847Y0275498D01*
X0182598Y0276249D01*
X0184099Y0276249D01*
X0184850Y0275498D01*
X0184850Y0273997D01*
X0184099Y0273246D01*
X0180346Y0273246D02*
X0180346Y0276249D01*
X0180346Y0281538D02*
X0180346Y0283790D01*
X0181097Y0284541D01*
X0182598Y0284541D01*
X0183349Y0283790D01*
X0183349Y0281538D01*
X0184850Y0281538D02*
X0180346Y0281538D01*
X0183349Y0283039D02*
X0184850Y0284541D01*
X0184850Y0286142D02*
X0180346Y0286142D01*
X0184850Y0289145D01*
X0180346Y0289145D01*
X0182598Y0290746D02*
X0182598Y0292998D01*
X0183349Y0293749D01*
X0184099Y0293749D01*
X0184850Y0292998D01*
X0184850Y0291497D01*
X0184099Y0290746D01*
X0182598Y0290746D01*
X0181097Y0292247D01*
X0180346Y0293749D01*
X0292846Y0273353D02*
X0292846Y0270350D01*
X0295098Y0270350D01*
X0294347Y0271851D01*
X0294347Y0272602D01*
X0295098Y0273353D01*
X0296599Y0273353D01*
X0297350Y0272602D01*
X0297350Y0271101D01*
X0296599Y0270350D01*
X0296599Y0268749D02*
X0297350Y0267998D01*
X0297350Y0266497D01*
X0296599Y0265746D01*
X0295098Y0266497D02*
X0295098Y0267998D01*
X0295849Y0268749D01*
X0296599Y0268749D01*
X0295098Y0266497D02*
X0294347Y0265746D01*
X0293597Y0265746D01*
X0292846Y0266497D01*
X0292846Y0267998D01*
X0293597Y0268749D01*
X0317846Y0245853D02*
X0318597Y0244351D01*
X0320098Y0242850D01*
X0320098Y0245102D01*
X0320849Y0245853D01*
X0321599Y0245853D01*
X0322350Y0245102D01*
X0322350Y0243601D01*
X0321599Y0242850D01*
X0320098Y0242850D01*
X0320849Y0241249D02*
X0321599Y0241249D01*
X0322350Y0240498D01*
X0322350Y0238997D01*
X0321599Y0238246D01*
X0320098Y0238997D02*
X0320098Y0240498D01*
X0320849Y0241249D01*
X0318597Y0241249D02*
X0317846Y0240498D01*
X0317846Y0238997D01*
X0318597Y0238246D01*
X0319347Y0238246D01*
X0320098Y0238997D01*
X0296100Y0038353D02*
X0296100Y0035350D01*
X0296100Y0036851D02*
X0291596Y0036851D01*
X0293097Y0035350D01*
X0292347Y0033749D02*
X0291596Y0032998D01*
X0291596Y0031497D01*
X0292347Y0030746D01*
X0293097Y0030746D01*
X0293848Y0031497D01*
X0293848Y0032998D01*
X0294599Y0033749D01*
X0295349Y0033749D01*
X0296100Y0032998D01*
X0296100Y0031497D01*
X0295349Y0030746D01*
X0341163Y0026675D02*
X0341163Y0023525D01*
X0349037Y0023525D02*
X0349037Y0026675D01*
X0391300Y0020801D02*
X0392051Y0020050D01*
X0392801Y0020050D01*
X0393552Y0020801D01*
X0393552Y0024554D01*
X0392801Y0024554D02*
X0394303Y0024554D01*
X0395904Y0023053D02*
X0397405Y0024554D01*
X0397405Y0020050D01*
X0395904Y0020050D02*
X0398906Y0020050D01*
D14*
X0356350Y0013850D03*
X0405100Y0103850D03*
X0397600Y0111350D03*
X0381350Y0111350D03*
X0425100Y0193850D03*
X0425100Y0200100D03*
D15*
X0352509Y0029850D02*
X0352511Y0029873D01*
X0352517Y0029896D01*
X0352526Y0029917D01*
X0352539Y0029937D01*
X0352555Y0029954D01*
X0352573Y0029968D01*
X0352593Y0029979D01*
X0352615Y0029987D01*
X0352638Y0029991D01*
X0352662Y0029991D01*
X0352685Y0029987D01*
X0352707Y0029979D01*
X0352727Y0029968D01*
X0352745Y0029954D01*
X0352761Y0029937D01*
X0352774Y0029917D01*
X0352783Y0029896D01*
X0352789Y0029873D01*
X0352791Y0029850D01*
X0352789Y0029827D01*
X0352783Y0029804D01*
X0352774Y0029783D01*
X0352761Y0029763D01*
X0352745Y0029746D01*
X0352727Y0029732D01*
X0352707Y0029721D01*
X0352685Y0029713D01*
X0352662Y0029709D01*
X0352638Y0029709D01*
X0352615Y0029713D01*
X0352593Y0029721D01*
X0352573Y0029732D01*
X0352555Y0029746D01*
X0352539Y0029763D01*
X0352526Y0029783D01*
X0352517Y0029804D01*
X0352511Y0029827D01*
X0352509Y0029850D01*
D16*
X0365402Y0167479D02*
X0369489Y0167479D01*
X0370306Y0168296D01*
X0370306Y0169931D01*
X0369489Y0170748D01*
X0365402Y0170748D01*
X0367036Y0172635D02*
X0365402Y0174270D01*
X0370306Y0174270D01*
X0370306Y0175904D02*
X0370306Y0172635D01*
D17*
X0384046Y0032577D02*
X0388650Y0032577D01*
X0384046Y0029508D01*
X0388650Y0029508D01*
X0388650Y0027973D02*
X0387115Y0026439D01*
X0387115Y0027206D02*
X0387115Y0024904D01*
X0388650Y0024904D02*
X0384046Y0024904D01*
X0384046Y0027206D01*
X0384813Y0027973D01*
X0386348Y0027973D01*
X0387115Y0027206D01*
X0386348Y0023369D02*
X0386348Y0021835D01*
X0386348Y0023369D02*
X0387883Y0023369D01*
X0388650Y0022602D01*
X0388650Y0021067D01*
X0387883Y0020300D01*
X0384813Y0020300D01*
X0384046Y0021067D01*
X0384046Y0022602D01*
X0384813Y0023369D01*
X0434046Y0022602D02*
X0434046Y0020300D01*
X0438650Y0020300D01*
X0438650Y0022602D01*
X0437883Y0023369D01*
X0437115Y0023369D01*
X0436348Y0022602D01*
X0436348Y0020300D01*
X0436348Y0022602D02*
X0435581Y0023369D01*
X0434813Y0023369D01*
X0434046Y0022602D01*
X0434046Y0024904D02*
X0438650Y0024904D01*
X0438650Y0027973D01*
X0438650Y0029508D02*
X0434046Y0029508D01*
X0436348Y0030275D02*
X0438650Y0032577D01*
X0437115Y0029508D02*
X0434046Y0032577D01*
X0154152Y0048371D02*
X0154152Y0051440D01*
X0154152Y0049905D02*
X0149548Y0049905D01*
X0151083Y0048371D01*
X0151083Y0174355D02*
X0149548Y0175890D01*
X0154152Y0175890D01*
X0154152Y0177424D02*
X0154152Y0174355D01*
D18*
X0234990Y0177600D02*
X0235210Y0177600D01*
X0235100Y0229990D02*
X0235100Y0230210D01*
X0230210Y0260100D02*
X0229990Y0260100D01*
X0367490Y0186350D02*
X0367710Y0186350D01*
X0412600Y0111460D02*
X0412600Y0111240D01*
X0230210Y0072600D02*
X0229990Y0072600D01*
X0229990Y0055100D02*
X0230210Y0055100D01*
D19*
X0369799Y0263150D02*
X0369799Y0263651D01*
X0369799Y0263401D02*
X0371050Y0263401D01*
X0371300Y0263150D01*
X0371300Y0262900D01*
X0371050Y0262650D01*
X0371300Y0264123D02*
X0370299Y0265124D01*
X0370049Y0265124D01*
X0369799Y0264874D01*
X0369799Y0264373D01*
X0370049Y0264123D01*
X0371300Y0264123D02*
X0371300Y0265124D01*
M02*
