G75*
%MOIN*%
%OFA0B0*%
%FSLAX25Y25*%
%IPPOS*%
%LPD*%
%AMOC8*
5,1,8,0,0,1.08239X$1,22.5*
%
%ADD10OC8,0.08300*%
%ADD11C,0.08200*%
%ADD12C,0.07800*%
%ADD13R,0.10000X0.02400*%
%ADD14R,0.02300X0.05800*%
%ADD15C,0.10850*%
%ADD16C,0.03600*%
D10*
X0065356Y0087108D03*
X0065356Y0097108D03*
X0065356Y0107108D03*
X0065356Y0117108D03*
X0065356Y0127108D03*
X0065356Y0137108D03*
X0065356Y0147108D03*
X0065356Y0157108D03*
X0065356Y0213092D03*
X0065356Y0223092D03*
X0065356Y0233092D03*
X0065356Y0243092D03*
X0065356Y0253092D03*
X0065356Y0263092D03*
X0065356Y0273092D03*
X0065356Y0283092D03*
X0159844Y0283092D03*
X0159844Y0273092D03*
X0159844Y0263092D03*
X0159844Y0253092D03*
X0159844Y0243092D03*
X0159844Y0233092D03*
X0159844Y0223092D03*
X0159844Y0213092D03*
X0159844Y0157108D03*
X0159844Y0147108D03*
X0159844Y0137108D03*
X0159844Y0127108D03*
X0159844Y0117108D03*
X0159844Y0107108D03*
X0159844Y0097108D03*
X0159844Y0087108D03*
D11*
X0256200Y0099800D03*
X0274000Y0099800D03*
X0303700Y0077900D03*
X0321500Y0077900D03*
X0351200Y0099800D03*
X0369000Y0099800D03*
X0369000Y0125400D03*
X0351200Y0125400D03*
X0321500Y0147300D03*
X0303700Y0147300D03*
X0274000Y0125400D03*
X0256200Y0125400D03*
X0303700Y0172900D03*
X0321500Y0172900D03*
X0331200Y0269800D03*
X0349000Y0269800D03*
X0349000Y0295400D03*
X0331200Y0295400D03*
X0284000Y0297300D03*
X0266200Y0297300D03*
X0266200Y0322900D03*
X0284000Y0322900D03*
X0137600Y0367600D03*
X0127600Y0367600D03*
X0117600Y0367600D03*
X0107600Y0367600D03*
X0097600Y0367600D03*
X0087600Y0367600D03*
X0303700Y0052300D03*
X0321500Y0052300D03*
D12*
X0375100Y0312600D03*
X0375100Y0322600D03*
D13*
X0375100Y0317600D03*
D14*
X0375100Y0317600D03*
D15*
X0427600Y0267600D03*
X0462600Y0267600D03*
X0462600Y0237600D03*
X0427600Y0237600D03*
X0427600Y0127600D03*
X0462600Y0127600D03*
X0462600Y0097600D03*
X0427600Y0097600D03*
D16*
X0095376Y0079824D03*
X0052600Y0132600D03*
X0152108Y0174608D03*
X0165100Y0187600D03*
X0157600Y0195100D03*
X0182600Y0185100D03*
X0202600Y0197600D03*
X0192600Y0212600D03*
X0202600Y0217600D03*
X0212600Y0222600D03*
X0217600Y0227600D03*
X0207600Y0232600D03*
X0202600Y0227600D03*
X0197600Y0227600D03*
X0215100Y0242600D03*
X0218850Y0250100D03*
X0211350Y0252600D03*
X0225100Y0262600D03*
X0222600Y0275100D03*
X0220100Y0280100D03*
X0215100Y0275100D03*
X0207600Y0267600D03*
X0202600Y0273092D03*
X0207600Y0283850D03*
X0192108Y0283092D03*
X0177600Y0262600D03*
X0172600Y0252600D03*
X0177600Y0245100D03*
X0225100Y0285100D03*
X0238850Y0288850D03*
X0237600Y0295946D03*
X0223801Y0306301D03*
X0232600Y0308850D03*
X0208550Y0320100D03*
X0250100Y0257600D03*
X0257600Y0240100D03*
X0262600Y0240100D03*
X0267600Y0240100D03*
X0272600Y0240100D03*
X0250100Y0235100D03*
X0240100Y0232600D03*
X0235100Y0220100D03*
X0240100Y0200100D03*
X0235100Y0197600D03*
X0230100Y0195100D03*
X0227600Y0190100D03*
X0227600Y0172600D03*
X0227600Y0135100D03*
X0207600Y0127600D03*
X0207600Y0117600D03*
X0223801Y0116801D03*
X0245100Y0112600D03*
X0230100Y0096350D03*
X0220100Y0078801D03*
X0207600Y0087600D03*
X0197600Y0079824D03*
X0178525Y0076675D03*
X0174175Y0073525D03*
X0170100Y0064824D03*
X0210946Y0058446D03*
X0235100Y0075100D03*
X0265100Y0080100D03*
X0265100Y0095100D03*
X0182600Y0102600D03*
X0177600Y0105100D03*
X0172600Y0112600D03*
X0350100Y0238850D03*
X0350100Y0252600D03*
X0382600Y0272600D03*
X0362600Y0285100D03*
X0363850Y0293850D03*
X0361350Y0297600D03*
X0367600Y0305100D03*
X0382600Y0293850D03*
X0386822Y0290572D03*
X0390100Y0310100D03*
X0385100Y0312600D03*
X0365100Y0330100D03*
X0345100Y0337600D03*
X0390100Y0341350D03*
X0390100Y0351350D03*
X0410100Y0337600D03*
X0412600Y0330100D03*
X0415100Y0310100D03*
X0415100Y0301350D03*
X0418850Y0297600D03*
X0427600Y0305100D03*
X0465100Y0282600D03*
X0408850Y0258850D03*
X0383850Y0225100D03*
X0390100Y0210100D03*
X0400100Y0097600D03*
X0390100Y0067600D03*
M02*
