G75*
%MOIN*%
%OFA0B0*%
%FSLAX25Y25*%
%IPPOS*%
%LPD*%
%AMOC8*
5,1,8,0,0,1.08239X$1,22.5*
%
%ADD10R,0.04724X0.03150*%
%ADD11R,0.03150X0.04724*%
%ADD12R,0.07874X0.03150*%
%ADD13R,0.03937X0.04331*%
%ADD14R,0.02165X0.04724*%
%ADD15R,0.07874X0.04724*%
%ADD16R,0.01575X0.06299*%
%ADD17R,0.06299X0.01575*%
%ADD18R,0.02600X0.08000*%
%ADD19R,0.02559X0.01969*%
%ADD20R,0.04331X0.03937*%
%ADD21R,0.01969X0.02559*%
%ADD22R,0.08700X0.02400*%
D10*
X0402600Y0086557D03*
X0402600Y0093643D03*
D11*
X0396143Y0092600D03*
X0389057Y0092600D03*
D12*
X0402600Y0081537D03*
X0402600Y0073663D03*
D13*
X0380100Y0076754D03*
X0380100Y0083446D03*
X0230100Y0084254D03*
X0230100Y0090946D03*
X0230100Y0101754D03*
X0230100Y0108446D03*
X0235100Y0206754D03*
X0235100Y0213446D03*
X0230100Y0289254D03*
X0230100Y0295946D03*
X0375100Y0338004D03*
X0375100Y0344696D03*
X0385100Y0345504D03*
X0385100Y0352196D03*
X0472600Y0288446D03*
X0472600Y0281754D03*
D14*
X0393840Y0082719D03*
X0390100Y0082719D03*
X0386360Y0082719D03*
X0386360Y0072481D03*
X0390100Y0072481D03*
X0393840Y0072481D03*
D15*
X0398072Y0282698D03*
X0398072Y0290572D03*
X0398072Y0298446D03*
X0398072Y0306320D03*
X0398072Y0314194D03*
X0398072Y0322069D03*
X0398072Y0329943D03*
X0398072Y0337817D03*
X0457128Y0337817D03*
X0457128Y0329943D03*
X0457128Y0322069D03*
X0457128Y0314194D03*
X0457128Y0306320D03*
X0457128Y0298446D03*
X0457128Y0290572D03*
X0457128Y0282698D03*
D16*
X0223860Y0290592D03*
X0221301Y0290592D03*
X0218742Y0290592D03*
X0216183Y0290592D03*
X0213624Y0290592D03*
X0211065Y0290592D03*
X0208506Y0290592D03*
X0205946Y0290592D03*
X0205946Y0313820D03*
X0208506Y0313820D03*
X0211065Y0313820D03*
X0213624Y0313820D03*
X0216183Y0313820D03*
X0218742Y0313820D03*
X0221301Y0313820D03*
X0223860Y0313820D03*
X0223860Y0133820D03*
X0221301Y0133820D03*
X0218742Y0133820D03*
X0216183Y0133820D03*
X0213624Y0133820D03*
X0211065Y0133820D03*
X0208506Y0133820D03*
X0205946Y0133820D03*
X0205946Y0110592D03*
X0208506Y0110592D03*
X0211065Y0110592D03*
X0213624Y0110592D03*
X0216183Y0110592D03*
X0218742Y0110592D03*
X0221301Y0110592D03*
X0223860Y0110592D03*
D17*
X0227108Y0076360D03*
X0227108Y0073801D03*
X0227108Y0071242D03*
X0227108Y0068683D03*
X0227108Y0066124D03*
X0227108Y0063565D03*
X0227108Y0061006D03*
X0227108Y0058446D03*
X0203880Y0058446D03*
X0203880Y0061006D03*
X0203880Y0063565D03*
X0203880Y0066124D03*
X0203880Y0068683D03*
X0203880Y0071242D03*
X0203880Y0073801D03*
X0203880Y0076360D03*
X0203880Y0238446D03*
X0203880Y0241006D03*
X0203880Y0243565D03*
X0203880Y0246124D03*
X0203880Y0248683D03*
X0203880Y0251242D03*
X0203880Y0253801D03*
X0203880Y0256360D03*
X0227108Y0256360D03*
X0227108Y0253801D03*
X0227108Y0251242D03*
X0227108Y0248683D03*
X0227108Y0246124D03*
X0227108Y0243565D03*
X0227108Y0241006D03*
X0227108Y0238446D03*
D18*
X0227600Y0204400D03*
X0222600Y0204400D03*
X0217600Y0204400D03*
X0212600Y0204400D03*
X0207600Y0204400D03*
X0202600Y0204400D03*
X0197600Y0204400D03*
X0192600Y0204400D03*
X0187600Y0204400D03*
X0187600Y0165800D03*
X0192600Y0165800D03*
X0197600Y0165800D03*
X0202600Y0165800D03*
X0207600Y0165800D03*
X0212600Y0165800D03*
X0217600Y0165800D03*
X0222600Y0165800D03*
X0227600Y0165800D03*
D19*
X0182639Y0055376D03*
X0182639Y0058525D03*
X0182639Y0061675D03*
X0182639Y0064824D03*
X0187561Y0064824D03*
X0187561Y0061675D03*
X0187561Y0058525D03*
X0187561Y0055376D03*
X0187561Y0070376D03*
X0187561Y0073525D03*
X0187561Y0076675D03*
X0187561Y0079824D03*
X0182639Y0079824D03*
X0182639Y0076675D03*
X0182639Y0073525D03*
X0182639Y0070376D03*
X0182639Y0235376D03*
X0182639Y0238525D03*
X0182639Y0241675D03*
X0182639Y0244824D03*
X0187561Y0244824D03*
X0187561Y0241675D03*
X0187561Y0238525D03*
X0187561Y0235376D03*
X0187561Y0250376D03*
X0187561Y0253525D03*
X0187561Y0256675D03*
X0187561Y0259824D03*
X0182639Y0259824D03*
X0182639Y0256675D03*
X0182639Y0253525D03*
X0182639Y0250376D03*
X0187639Y0297876D03*
X0187639Y0301025D03*
X0187639Y0304175D03*
X0187639Y0307324D03*
X0192561Y0307324D03*
X0192561Y0304175D03*
X0192561Y0301025D03*
X0192561Y0297876D03*
D20*
X0231754Y0262600D03*
X0238446Y0262600D03*
X0356754Y0345100D03*
X0363446Y0345100D03*
X0389254Y0272600D03*
X0395946Y0272600D03*
X0471754Y0297600D03*
X0478446Y0297600D03*
X0478446Y0307600D03*
X0471754Y0307600D03*
D21*
X0219824Y0325139D03*
X0216675Y0325139D03*
X0213525Y0325139D03*
X0210376Y0325139D03*
X0210376Y0330061D03*
X0213525Y0330061D03*
X0216675Y0330061D03*
X0219824Y0330061D03*
D22*
X0347300Y0225100D03*
X0347300Y0220100D03*
X0347300Y0215100D03*
X0347300Y0210100D03*
X0376650Y0210100D03*
X0376650Y0215100D03*
X0376650Y0220100D03*
X0376650Y0225100D03*
M02*
