G75*
%MOIN*%
%OFA0B0*%
%FSLAX25Y25*%
%IPPOS*%
%LPD*%
%AMOC8*
5,1,8,0,0,1.08239X$1,22.5*
%
%ADD10R,0.03950X0.05524*%
%ADD11R,0.08674X0.03950*%
%ADD12R,0.05131X0.04737*%
%ADD13R,0.02965X0.05524*%
%ADD14R,0.05524X0.08674*%
%ADD15OC8,0.08300*%
%ADD16R,0.02375X0.07099*%
%ADD17R,0.07099X0.02375*%
%ADD18R,0.03400X0.08800*%
%ADD19R,0.03359X0.02769*%
%ADD20R,0.04737X0.05131*%
%ADD21C,0.08200*%
%ADD22C,0.07800*%
%ADD23C,0.10850*%
D10*
X0337807Y0035100D03*
X0344893Y0035100D03*
X0356557Y0045100D03*
X0363643Y0045100D03*
D11*
X0345100Y0029037D03*
X0345100Y0021163D03*
D12*
X0353004Y0013850D03*
X0359696Y0013850D03*
X0401754Y0103850D03*
X0408446Y0103850D03*
X0409254Y0111350D03*
X0415946Y0111350D03*
X0400946Y0111350D03*
X0394254Y0111350D03*
X0384696Y0111350D03*
X0378004Y0111350D03*
X0421754Y0193850D03*
X0421754Y0200100D03*
X0428446Y0200100D03*
X0428446Y0193850D03*
X0238446Y0230100D03*
X0231754Y0230100D03*
D13*
X0352610Y0036469D03*
X0356350Y0036469D03*
X0360090Y0036469D03*
X0360090Y0026231D03*
X0356350Y0026231D03*
X0352610Y0026231D03*
D14*
X0377698Y0123072D03*
X0385572Y0123072D03*
X0393446Y0123072D03*
X0401320Y0123072D03*
X0409194Y0123072D03*
X0417069Y0123072D03*
X0424943Y0123072D03*
X0432817Y0123072D03*
X0432817Y0182128D03*
X0424943Y0182128D03*
X0417069Y0182128D03*
X0409194Y0182128D03*
X0401320Y0182128D03*
X0393446Y0182128D03*
X0385572Y0182128D03*
X0377698Y0182128D03*
D15*
X0065356Y0054608D03*
X0065356Y0064608D03*
X0065356Y0074608D03*
X0065356Y0084608D03*
X0065356Y0094608D03*
X0065356Y0104608D03*
X0065356Y0114608D03*
X0065356Y0124608D03*
X0065356Y0180592D03*
X0065356Y0190592D03*
X0065356Y0200592D03*
X0065356Y0210592D03*
X0065356Y0220592D03*
X0065356Y0230592D03*
X0065356Y0240592D03*
X0065356Y0250592D03*
X0159844Y0250592D03*
X0159844Y0240592D03*
X0159844Y0230592D03*
X0159844Y0220592D03*
X0159844Y0210592D03*
X0159844Y0200592D03*
X0159844Y0190592D03*
X0159844Y0180592D03*
X0159844Y0124608D03*
X0159844Y0114608D03*
X0159844Y0104608D03*
X0159844Y0094608D03*
X0159844Y0084608D03*
X0159844Y0074608D03*
X0159844Y0064608D03*
X0159844Y0054608D03*
D16*
X0205946Y0078092D03*
X0208506Y0078092D03*
X0211065Y0078092D03*
X0213624Y0078092D03*
X0216183Y0078092D03*
X0218742Y0078092D03*
X0221301Y0078092D03*
X0223860Y0078092D03*
X0223860Y0101320D03*
X0221301Y0101320D03*
X0218742Y0101320D03*
X0216183Y0101320D03*
X0213624Y0101320D03*
X0211065Y0101320D03*
X0208506Y0101320D03*
X0205946Y0101320D03*
X0205946Y0258092D03*
X0208506Y0258092D03*
X0211065Y0258092D03*
X0213624Y0258092D03*
X0216183Y0258092D03*
X0218742Y0258092D03*
X0221301Y0258092D03*
X0223860Y0258092D03*
X0223860Y0281320D03*
X0221301Y0281320D03*
X0218742Y0281320D03*
X0216183Y0281320D03*
X0213624Y0281320D03*
X0211065Y0281320D03*
X0208506Y0281320D03*
X0205946Y0281320D03*
D17*
X0203880Y0223860D03*
X0203880Y0221301D03*
X0203880Y0218742D03*
X0203880Y0216183D03*
X0203880Y0213624D03*
X0203880Y0211065D03*
X0203880Y0208506D03*
X0203880Y0205946D03*
X0227108Y0205946D03*
X0227108Y0208506D03*
X0227108Y0211065D03*
X0227108Y0213624D03*
X0227108Y0216183D03*
X0227108Y0218742D03*
X0227108Y0221301D03*
X0227108Y0223860D03*
X0227108Y0043860D03*
X0227108Y0041301D03*
X0227108Y0038742D03*
X0227108Y0036183D03*
X0227108Y0033624D03*
X0227108Y0031065D03*
X0227108Y0028506D03*
X0227108Y0025946D03*
X0203880Y0025946D03*
X0203880Y0028506D03*
X0203880Y0031065D03*
X0203880Y0033624D03*
X0203880Y0036183D03*
X0203880Y0038742D03*
X0203880Y0041301D03*
X0203880Y0043860D03*
D18*
X0202600Y0133300D03*
X0197600Y0133300D03*
X0192600Y0133300D03*
X0187600Y0133300D03*
X0207600Y0133300D03*
X0212600Y0133300D03*
X0217600Y0133300D03*
X0222600Y0133300D03*
X0227600Y0133300D03*
X0227600Y0171900D03*
X0222600Y0171900D03*
X0217600Y0171900D03*
X0212600Y0171900D03*
X0207600Y0171900D03*
X0202600Y0171900D03*
X0197600Y0171900D03*
X0192600Y0171900D03*
X0187600Y0171900D03*
D19*
X0187561Y0202876D03*
X0187561Y0206025D03*
X0187561Y0209175D03*
X0187561Y0212324D03*
X0182639Y0212324D03*
X0182639Y0209175D03*
X0182639Y0206025D03*
X0182639Y0202876D03*
X0182639Y0217876D03*
X0182639Y0221025D03*
X0182639Y0224175D03*
X0182639Y0227324D03*
X0187561Y0227324D03*
X0187561Y0224175D03*
X0187561Y0221025D03*
X0187561Y0217876D03*
X0187639Y0265376D03*
X0187639Y0268525D03*
X0192561Y0268525D03*
X0192561Y0265376D03*
X0192561Y0271675D03*
X0192561Y0274824D03*
X0187639Y0274824D03*
X0187639Y0271675D03*
X0187639Y0282876D03*
X0187639Y0286025D03*
X0187639Y0289175D03*
X0187639Y0292324D03*
X0192561Y0292324D03*
X0192561Y0289175D03*
X0192561Y0286025D03*
X0192561Y0282876D03*
X0187561Y0047324D03*
X0187561Y0044175D03*
X0187561Y0041025D03*
X0187561Y0037876D03*
X0182639Y0037876D03*
X0182639Y0041025D03*
X0182639Y0044175D03*
X0182639Y0047324D03*
X0182639Y0032324D03*
X0182639Y0029175D03*
X0182639Y0026025D03*
X0182639Y0022876D03*
X0187561Y0022876D03*
X0187561Y0026025D03*
X0187561Y0029175D03*
X0187561Y0032324D03*
D20*
X0230100Y0051754D03*
X0230100Y0058446D03*
X0230100Y0069254D03*
X0230100Y0075946D03*
X0235100Y0174254D03*
X0235100Y0180946D03*
X0230100Y0256754D03*
X0230100Y0263446D03*
X0367600Y0189696D03*
X0367600Y0183004D03*
D21*
X0349000Y0229800D03*
X0331200Y0229800D03*
X0331200Y0255400D03*
X0349000Y0255400D03*
X0284000Y0257300D03*
X0266200Y0257300D03*
X0266200Y0282900D03*
X0284000Y0282900D03*
X0303700Y0122900D03*
X0321500Y0122900D03*
X0321500Y0097300D03*
X0303700Y0097300D03*
X0284000Y0085400D03*
X0266200Y0085400D03*
X0266200Y0059800D03*
X0284000Y0059800D03*
X0303700Y0047900D03*
X0321500Y0047900D03*
X0341200Y0059800D03*
X0359000Y0059800D03*
X0359000Y0085400D03*
X0341200Y0085400D03*
X0321500Y0022300D03*
X0303700Y0022300D03*
X0386350Y0012600D03*
X0396350Y0012600D03*
X0406350Y0012600D03*
X0416350Y0012600D03*
X0426350Y0012600D03*
X0436350Y0012600D03*
D22*
X0366350Y0267600D03*
X0366350Y0277600D03*
D23*
X0387600Y0237600D03*
X0387600Y0207600D03*
X0437600Y0207600D03*
X0437600Y0237600D03*
X0437600Y0097600D03*
X0437600Y0067600D03*
X0387600Y0067600D03*
X0387600Y0097600D03*
M02*
