G75*
%MOIN*%
%OFA0B0*%
%FSLAX25Y25*%
%IPPOS*%
%LPD*%
%AMOC8*
5,1,8,0,0,1.08239X$1,22.5*
%
%ADD10OC8,0.07500*%
%ADD11C,0.07400*%
%ADD12C,0.07000*%
%ADD13C,0.10050*%
%ADD14C,0.02800*%
%ADD15C,0.02400*%
%ADD16C,0.01600*%
%ADD17C,0.05000*%
%ADD18C,0.02000*%
%ADD19C,0.03200*%
D10*
X0065356Y0054608D03*
X0065356Y0064608D03*
X0065356Y0074608D03*
X0065356Y0084608D03*
X0065356Y0094608D03*
X0065356Y0104608D03*
X0065356Y0114608D03*
X0065356Y0124608D03*
X0065356Y0180592D03*
X0065356Y0190592D03*
X0065356Y0200592D03*
X0065356Y0210592D03*
X0065356Y0220592D03*
X0065356Y0230592D03*
X0065356Y0240592D03*
X0065356Y0250592D03*
X0159844Y0250592D03*
X0159844Y0240592D03*
X0159844Y0230592D03*
X0159844Y0220592D03*
X0159844Y0210592D03*
X0159844Y0200592D03*
X0159844Y0190592D03*
X0159844Y0180592D03*
X0159844Y0124608D03*
X0159844Y0114608D03*
X0159844Y0104608D03*
X0159844Y0094608D03*
X0159844Y0084608D03*
X0159844Y0074608D03*
X0159844Y0064608D03*
X0159844Y0054608D03*
D11*
X0266200Y0059800D03*
X0284000Y0059800D03*
X0303700Y0047900D03*
X0321500Y0047900D03*
X0341200Y0059800D03*
X0359000Y0059800D03*
X0359000Y0085400D03*
X0341200Y0085400D03*
X0321500Y0097300D03*
X0303700Y0097300D03*
X0284000Y0085400D03*
X0266200Y0085400D03*
X0303700Y0122900D03*
X0321500Y0122900D03*
X0321500Y0022300D03*
X0303700Y0022300D03*
X0386350Y0012600D03*
X0396350Y0012600D03*
X0406350Y0012600D03*
X0416350Y0012600D03*
X0426350Y0012600D03*
X0436350Y0012600D03*
X0349000Y0229800D03*
X0331200Y0229800D03*
X0331200Y0255400D03*
X0349000Y0255400D03*
X0284000Y0257300D03*
X0266200Y0257300D03*
X0266200Y0282900D03*
X0284000Y0282900D03*
D12*
X0366350Y0277600D03*
X0366350Y0267600D03*
D13*
X0387600Y0237600D03*
X0387600Y0207600D03*
X0437600Y0207600D03*
X0437600Y0237600D03*
X0437600Y0097600D03*
X0437600Y0067600D03*
X0387600Y0067600D03*
X0387600Y0097600D03*
D14*
X0420100Y0115100D03*
X0427600Y0137600D03*
X0417069Y0148131D03*
X0409194Y0149756D03*
X0377698Y0132502D03*
X0357600Y0189696D03*
X0360100Y0205100D03*
X0353850Y0205100D03*
X0342885Y0209815D03*
X0401320Y0190130D03*
X0272600Y0205100D03*
X0267600Y0205100D03*
X0262600Y0205100D03*
X0257600Y0205100D03*
X0250100Y0202600D03*
X0240100Y0200100D03*
X0235100Y0187600D03*
X0217600Y0195100D03*
X0212600Y0190100D03*
X0202600Y0185100D03*
X0202600Y0195100D03*
X0197600Y0195100D03*
X0207600Y0200100D03*
X0215100Y0210100D03*
X0218850Y0217600D03*
X0211350Y0220100D03*
X0225100Y0230100D03*
X0207600Y0235100D03*
X0202600Y0240592D03*
X0215100Y0242600D03*
X0220100Y0247600D03*
X0225100Y0252600D03*
X0222600Y0242600D03*
X0207600Y0251350D03*
X0192108Y0250592D03*
X0177600Y0230100D03*
X0172600Y0220100D03*
X0177600Y0212600D03*
X0192600Y0180100D03*
X0202600Y0165100D03*
X0182600Y0152600D03*
X0165100Y0155100D03*
X0157600Y0162600D03*
X0152108Y0142108D03*
X0207600Y0095100D03*
X0207600Y0085100D03*
X0223801Y0084301D03*
X0245100Y0080100D03*
X0257600Y0078850D03*
X0257600Y0066350D03*
X0230100Y0063850D03*
X0207600Y0055100D03*
X0197600Y0047324D03*
X0220100Y0046301D03*
X0235100Y0042600D03*
X0210946Y0025946D03*
X0178525Y0044175D03*
X0174175Y0041025D03*
X0170100Y0032324D03*
X0182600Y0070100D03*
X0177600Y0072600D03*
X0172600Y0080100D03*
X0227600Y0102600D03*
X0227600Y0140100D03*
X0227600Y0157600D03*
X0230100Y0162600D03*
X0235100Y0165100D03*
X0240100Y0167600D03*
X0250100Y0225100D03*
X0238850Y0256350D03*
X0237600Y0263446D03*
X0223801Y0273801D03*
X0232600Y0276350D03*
X0208550Y0287600D03*
X0052600Y0100100D03*
X0095376Y0047324D03*
X0333850Y0035100D03*
X0356350Y0021350D03*
X0367600Y0026350D03*
X0367600Y0036350D03*
X0370100Y0045100D03*
X0418850Y0023850D03*
D15*
X0402600Y0023850D01*
X0396350Y0017600D01*
X0396350Y0012600D01*
X0367600Y0026350D02*
X0367600Y0036350D01*
X0420100Y0115100D02*
X0427600Y0122600D01*
X0427600Y0137600D01*
D16*
X0417069Y0148131D02*
X0360100Y0205100D01*
X0353850Y0205100D02*
X0409194Y0149756D01*
X0401320Y0190130D02*
X0396350Y0195100D01*
X0382600Y0195100D01*
X0367885Y0209815D01*
X0342885Y0209815D01*
X0272600Y0205100D02*
X0272600Y0240100D01*
X0260100Y0252600D01*
X0225100Y0252600D01*
X0221350Y0256350D02*
X0238850Y0256350D01*
X0221350Y0256350D02*
X0216350Y0251350D01*
X0207600Y0251350D01*
X0198850Y0252600D02*
X0215100Y0236350D01*
X0215100Y0210100D01*
X0217600Y0207600D01*
X0217600Y0202600D01*
X0222600Y0197600D01*
X0222600Y0170100D01*
X0230100Y0162600D01*
X0227600Y0157600D02*
X0217600Y0167600D01*
X0217600Y0195100D01*
X0212600Y0190100D02*
X0212108Y0190592D01*
X0159844Y0190592D01*
X0164352Y0185100D02*
X0202600Y0185100D01*
X0202600Y0195100D02*
X0202600Y0240592D01*
X0207600Y0235100D02*
X0207600Y0200100D01*
X0197600Y0195100D02*
X0197600Y0245100D01*
X0192108Y0250592D01*
X0196350Y0251350D02*
X0196350Y0267600D01*
X0201350Y0272600D01*
X0222600Y0272600D01*
X0223801Y0273801D01*
X0226350Y0270100D02*
X0203850Y0270100D01*
X0198850Y0265100D01*
X0198850Y0252600D01*
X0196350Y0251350D02*
X0211350Y0236350D01*
X0211350Y0220100D01*
X0218850Y0217600D02*
X0222600Y0213850D01*
X0222600Y0205100D01*
X0227600Y0200100D01*
X0227600Y0172600D01*
X0235100Y0165100D01*
X0240100Y0167600D02*
X0240100Y0200100D01*
X0257600Y0205100D02*
X0257600Y0232600D01*
X0252600Y0237600D01*
X0220100Y0237600D01*
X0215100Y0242600D01*
X0220100Y0247600D02*
X0257600Y0247600D01*
X0267600Y0237600D01*
X0267600Y0205100D01*
X0262600Y0205100D02*
X0262600Y0235100D01*
X0255100Y0242600D01*
X0222600Y0242600D01*
X0226350Y0270100D02*
X0232600Y0276350D01*
X0177600Y0255100D02*
X0177600Y0230100D01*
X0177600Y0222600D02*
X0169608Y0230592D01*
X0159844Y0230592D01*
X0172600Y0220100D02*
X0163092Y0210592D01*
X0159844Y0210592D01*
X0177600Y0212600D02*
X0177600Y0222600D01*
X0177600Y0255100D02*
X0172600Y0260100D01*
X0082600Y0260100D01*
X0077600Y0255100D01*
X0077600Y0220100D01*
X0068092Y0210592D01*
X0065356Y0210592D01*
X0047600Y0240100D02*
X0058092Y0250592D01*
X0065356Y0250592D01*
X0047600Y0240100D02*
X0047600Y0135100D01*
X0058092Y0124608D01*
X0065356Y0124608D01*
X0052600Y0100100D02*
X0058092Y0094608D01*
X0065356Y0094608D01*
X0065356Y0084608D02*
X0077600Y0072364D01*
X0077600Y0065100D01*
X0095376Y0047324D01*
X0147600Y0066852D02*
X0147600Y0168348D01*
X0159844Y0180592D01*
X0164352Y0185100D01*
X0157600Y0162600D02*
X0200100Y0162600D01*
X0202600Y0165100D01*
X0182600Y0152600D02*
X0182600Y0070100D01*
X0177600Y0072600D02*
X0177600Y0045100D01*
X0178525Y0044175D01*
X0174175Y0041025D02*
X0172600Y0042600D01*
X0172600Y0080100D01*
X0167600Y0096852D02*
X0159844Y0104608D01*
X0167600Y0096852D02*
X0167600Y0035100D01*
X0170100Y0032600D01*
X0170100Y0032324D01*
X0197600Y0047324D02*
X0219076Y0047324D01*
X0220100Y0046301D01*
X0210100Y0052600D02*
X0207600Y0055100D01*
X0210100Y0052600D02*
X0232600Y0052600D01*
X0235100Y0050100D01*
X0235100Y0042600D01*
X0257600Y0066350D02*
X0257600Y0078850D01*
X0227600Y0090100D02*
X0227600Y0102600D01*
X0227600Y0090100D02*
X0223801Y0084301D01*
X0159844Y0054608D02*
X0147600Y0066852D01*
X0152108Y0142108D02*
X0165100Y0155100D01*
D17*
X0250100Y0202600D02*
X0250100Y0225100D01*
D18*
X0207600Y0085100D02*
X0207600Y0082600D01*
X0210100Y0080100D01*
X0245100Y0080100D01*
D19*
X0013130Y0007528D02*
X0010013Y0010013D01*
X0007528Y0013130D01*
X0005799Y0016721D01*
X0004912Y0020607D01*
X0004800Y0022600D01*
X0004800Y0282600D01*
X0004912Y0284593D01*
X0005799Y0288479D01*
X0007528Y0292070D01*
X0010013Y0295187D01*
X0013130Y0297672D01*
X0016721Y0299401D01*
X0020607Y0300288D01*
X0022600Y0300400D01*
X0447600Y0300400D01*
X0449593Y0300288D01*
X0453479Y0299401D01*
X0457070Y0297672D01*
X0460186Y0295186D01*
X0462672Y0292070D01*
X0464401Y0288479D01*
X0465288Y0284593D01*
X0465400Y0282600D01*
X0465400Y0185696D01*
X0438059Y0185696D01*
X0437122Y0184759D01*
X0437122Y0120441D01*
X0438059Y0119504D01*
X0465400Y0119504D01*
X0465400Y0022600D01*
X0465288Y0020607D01*
X0464401Y0016721D01*
X0462672Y0013130D01*
X0460186Y0010013D01*
X0457070Y0007528D01*
X0453479Y0005799D01*
X0449593Y0004912D01*
X0447600Y0004800D01*
X0022600Y0004800D01*
X0020607Y0004912D01*
X0016721Y0005799D01*
X0013130Y0007528D01*
X0011288Y0008997D02*
X0381609Y0008997D01*
X0381348Y0009258D02*
X0383008Y0007598D01*
X0385176Y0006700D01*
X0387524Y0006700D01*
X0389692Y0007598D01*
X0391350Y0009256D01*
X0393008Y0007598D01*
X0395176Y0006700D01*
X0397524Y0006700D01*
X0399692Y0007598D01*
X0401350Y0009256D01*
X0403008Y0007598D01*
X0405176Y0006700D01*
X0407524Y0006700D01*
X0409692Y0007598D01*
X0411350Y0009256D01*
X0413008Y0007598D01*
X0415176Y0006700D01*
X0417524Y0006700D01*
X0419692Y0007598D01*
X0421350Y0009256D01*
X0423008Y0007598D01*
X0425176Y0006700D01*
X0427524Y0006700D01*
X0429692Y0007598D01*
X0431143Y0009049D01*
X0431545Y0008496D01*
X0432246Y0007795D01*
X0433048Y0007212D01*
X0433932Y0006762D01*
X0434875Y0006455D01*
X0435854Y0006300D01*
X0436350Y0006300D01*
X0436846Y0006300D01*
X0437825Y0006455D01*
X0438768Y0006762D01*
X0439652Y0007212D01*
X0440454Y0007795D01*
X0441155Y0008496D01*
X0441738Y0009298D01*
X0442188Y0010182D01*
X0442495Y0011125D01*
X0442650Y0012104D01*
X0442650Y0012600D01*
X0442650Y0013096D01*
X0442495Y0014075D01*
X0442188Y0015018D01*
X0441738Y0015902D01*
X0441155Y0016704D01*
X0440454Y0017405D01*
X0439652Y0017988D01*
X0438768Y0018438D01*
X0437825Y0018745D01*
X0436846Y0018900D01*
X0436350Y0018900D01*
X0436350Y0012600D01*
X0436350Y0012600D01*
X0442650Y0012600D01*
X0436350Y0012600D01*
X0436350Y0012600D01*
X0436350Y0018900D01*
X0435854Y0018900D01*
X0434875Y0018745D01*
X0433932Y0018438D01*
X0433048Y0017988D01*
X0432246Y0017405D01*
X0431545Y0016704D01*
X0431143Y0016151D01*
X0429692Y0017602D01*
X0427524Y0018500D01*
X0425176Y0018500D01*
X0423008Y0017602D01*
X0421350Y0015944D01*
X0419692Y0017602D01*
X0417524Y0018500D01*
X0415176Y0018500D01*
X0413008Y0017602D01*
X0411350Y0015944D01*
X0409692Y0017602D01*
X0407524Y0018500D01*
X0405176Y0018500D01*
X0403008Y0017602D01*
X0401350Y0015944D01*
X0400426Y0016868D01*
X0404008Y0020450D01*
X0417651Y0020450D01*
X0418134Y0020250D01*
X0419566Y0020250D01*
X0420889Y0020798D01*
X0421902Y0021811D01*
X0422450Y0023134D01*
X0422450Y0024566D01*
X0421902Y0025889D01*
X0420889Y0026902D01*
X0419566Y0027450D01*
X0418134Y0027450D01*
X0417651Y0027250D01*
X0401924Y0027250D01*
X0400674Y0026732D01*
X0394424Y0020482D01*
X0393468Y0019526D01*
X0392950Y0018276D01*
X0392950Y0017544D01*
X0391350Y0015944D01*
X0389692Y0017602D01*
X0387524Y0018500D01*
X0385176Y0018500D01*
X0383008Y0017602D01*
X0381348Y0015942D01*
X0380450Y0013774D01*
X0380450Y0011426D01*
X0381348Y0009258D01*
X0380450Y0012196D02*
X0008273Y0012196D01*
X0006438Y0015394D02*
X0381121Y0015394D01*
X0393081Y0018593D02*
X0326136Y0018593D01*
X0326502Y0018958D02*
X0327400Y0021126D01*
X0327400Y0023474D01*
X0326502Y0025642D01*
X0324842Y0027302D01*
X0322674Y0028200D01*
X0320326Y0028200D01*
X0318158Y0027302D01*
X0316498Y0025642D01*
X0315600Y0023474D01*
X0315600Y0021126D01*
X0316498Y0018958D01*
X0318158Y0017298D01*
X0320326Y0016400D01*
X0322674Y0016400D01*
X0324842Y0017298D01*
X0326502Y0018958D01*
X0327400Y0021791D02*
X0395733Y0021791D01*
X0394424Y0020482D02*
X0394424Y0020482D01*
X0398931Y0024990D02*
X0370933Y0024990D01*
X0371200Y0025634D02*
X0370652Y0024311D01*
X0369639Y0023298D01*
X0368316Y0022750D01*
X0366884Y0022750D01*
X0365561Y0023298D01*
X0364548Y0024311D01*
X0364000Y0025634D01*
X0364000Y0027066D01*
X0364200Y0027549D01*
X0364200Y0035151D01*
X0364000Y0035634D01*
X0364000Y0037066D01*
X0364548Y0038389D01*
X0365561Y0039402D01*
X0366884Y0039950D01*
X0368316Y0039950D01*
X0369639Y0039402D01*
X0370652Y0038389D01*
X0371200Y0037066D01*
X0371200Y0035634D01*
X0371000Y0035151D01*
X0371000Y0027549D01*
X0371200Y0027066D01*
X0371200Y0025634D01*
X0371000Y0028188D02*
X0465400Y0028188D01*
X0465400Y0024990D02*
X0422275Y0024990D01*
X0421882Y0021791D02*
X0465355Y0021791D01*
X0464828Y0018593D02*
X0438294Y0018593D01*
X0436350Y0018593D02*
X0436350Y0018593D01*
X0434406Y0018593D02*
X0402151Y0018593D01*
X0401609Y0008997D02*
X0401091Y0008997D01*
X0391609Y0008997D02*
X0391091Y0008997D01*
X0411091Y0008997D02*
X0411609Y0008997D01*
X0421091Y0008997D02*
X0421609Y0008997D01*
X0431091Y0008997D02*
X0431180Y0008997D01*
X0436350Y0008997D02*
X0436350Y0008997D01*
X0436350Y0006300D02*
X0436350Y0012600D01*
X0436350Y0012600D01*
X0436350Y0006300D01*
X0441520Y0008997D02*
X0458912Y0008997D01*
X0461927Y0012196D02*
X0442650Y0012196D01*
X0441997Y0015394D02*
X0463762Y0015394D01*
X0453477Y0005799D02*
X0016723Y0005799D01*
X0005372Y0018593D02*
X0299064Y0018593D01*
X0298698Y0018958D02*
X0300358Y0017298D01*
X0302526Y0016400D01*
X0304874Y0016400D01*
X0307042Y0017298D01*
X0308702Y0018958D01*
X0309600Y0021126D01*
X0309600Y0023474D01*
X0308702Y0025642D01*
X0307042Y0027302D01*
X0304874Y0028200D01*
X0302526Y0028200D01*
X0300358Y0027302D01*
X0298698Y0025642D01*
X0297800Y0023474D01*
X0297800Y0021126D01*
X0298698Y0018958D01*
X0297800Y0021791D02*
X0004845Y0021791D01*
X0004800Y0024990D02*
X0298428Y0024990D01*
X0302498Y0028188D02*
X0004800Y0028188D01*
X0004800Y0031387D02*
X0166592Y0031387D01*
X0166500Y0031608D02*
X0167048Y0030285D01*
X0168061Y0029272D01*
X0169384Y0028724D01*
X0170816Y0028724D01*
X0172139Y0029272D01*
X0173152Y0030285D01*
X0173700Y0031608D01*
X0173700Y0033040D01*
X0173152Y0034364D01*
X0172139Y0035376D01*
X0171161Y0035781D01*
X0170600Y0036343D01*
X0170600Y0040248D01*
X0171123Y0038986D01*
X0172136Y0037973D01*
X0173459Y0037425D01*
X0174891Y0037425D01*
X0176214Y0037973D01*
X0177227Y0038986D01*
X0177775Y0040309D01*
X0177775Y0040589D01*
X0177809Y0040575D01*
X0179241Y0040575D01*
X0180564Y0041123D01*
X0181577Y0042136D01*
X0182125Y0043459D01*
X0182125Y0044891D01*
X0181577Y0046214D01*
X0180600Y0047191D01*
X0180600Y0067032D01*
X0181884Y0066500D01*
X0183316Y0066500D01*
X0184639Y0067048D01*
X0185652Y0068061D01*
X0186200Y0069384D01*
X0186200Y0070816D01*
X0185652Y0072139D01*
X0185600Y0072191D01*
X0185600Y0150509D01*
X0185652Y0150561D01*
X0186200Y0151884D01*
X0186200Y0153316D01*
X0185652Y0154639D01*
X0184639Y0155652D01*
X0183316Y0156200D01*
X0181884Y0156200D01*
X0180561Y0155652D01*
X0179548Y0154639D01*
X0179000Y0153316D01*
X0179000Y0151884D01*
X0179548Y0150561D01*
X0179600Y0150509D01*
X0179600Y0075668D01*
X0178316Y0076200D01*
X0176884Y0076200D01*
X0175600Y0075668D01*
X0175600Y0078009D01*
X0175652Y0078061D01*
X0176200Y0079384D01*
X0176200Y0080816D01*
X0175652Y0082139D01*
X0174639Y0083152D01*
X0173316Y0083700D01*
X0171884Y0083700D01*
X0170600Y0083168D01*
X0170600Y0097449D01*
X0170143Y0098551D01*
X0165794Y0102901D01*
X0165794Y0107072D01*
X0163259Y0109608D01*
X0165794Y0112143D01*
X0165794Y0117072D01*
X0163259Y0119608D01*
X0165794Y0122143D01*
X0165794Y0127072D01*
X0162309Y0130558D01*
X0157380Y0130558D01*
X0153894Y0127072D01*
X0153894Y0122143D01*
X0156430Y0119608D01*
X0153894Y0117072D01*
X0153894Y0112143D01*
X0156430Y0109608D01*
X0153894Y0107072D01*
X0153894Y0102143D01*
X0156430Y0099608D01*
X0153894Y0097072D01*
X0153894Y0092143D01*
X0156430Y0089608D01*
X0153894Y0087072D01*
X0153894Y0082143D01*
X0156430Y0079608D01*
X0153894Y0077072D01*
X0153894Y0072143D01*
X0156430Y0069608D01*
X0153894Y0067072D01*
X0153894Y0064800D01*
X0150600Y0068095D01*
X0150600Y0138836D01*
X0151392Y0138508D01*
X0152824Y0138508D01*
X0154147Y0139056D01*
X0155160Y0140069D01*
X0155708Y0141392D01*
X0155708Y0141465D01*
X0165743Y0151500D01*
X0165816Y0151500D01*
X0167139Y0152048D01*
X0168152Y0153061D01*
X0168700Y0154384D01*
X0168700Y0155816D01*
X0168152Y0157139D01*
X0167139Y0158152D01*
X0165816Y0158700D01*
X0164384Y0158700D01*
X0163061Y0158152D01*
X0162048Y0157139D01*
X0161500Y0155816D01*
X0161500Y0155743D01*
X0151465Y0145708D01*
X0151392Y0145708D01*
X0150600Y0145380D01*
X0150600Y0167105D01*
X0158137Y0174642D01*
X0162309Y0174642D01*
X0165794Y0178128D01*
X0165794Y0182100D01*
X0200509Y0182100D01*
X0200561Y0182048D01*
X0201884Y0181500D01*
X0203316Y0181500D01*
X0204639Y0182048D01*
X0205652Y0183061D01*
X0206200Y0184384D01*
X0206200Y0185816D01*
X0205652Y0187139D01*
X0205199Y0187592D01*
X0210017Y0187592D01*
X0210561Y0187048D01*
X0211884Y0186500D01*
X0213316Y0186500D01*
X0214600Y0187032D01*
X0214600Y0167003D01*
X0215057Y0165901D01*
X0215901Y0165057D01*
X0224000Y0156957D01*
X0224000Y0156884D01*
X0224548Y0155561D01*
X0225561Y0154548D01*
X0226884Y0154000D01*
X0228316Y0154000D01*
X0229639Y0154548D01*
X0230652Y0155561D01*
X0231200Y0156884D01*
X0231200Y0158316D01*
X0230902Y0159036D01*
X0232139Y0159548D01*
X0233152Y0160561D01*
X0233664Y0161798D01*
X0234384Y0161500D01*
X0235816Y0161500D01*
X0237139Y0162048D01*
X0238152Y0163061D01*
X0238664Y0164298D01*
X0239384Y0164000D01*
X0240816Y0164000D01*
X0242139Y0164548D01*
X0243152Y0165561D01*
X0243700Y0166884D01*
X0243700Y0168316D01*
X0243152Y0169639D01*
X0243100Y0169691D01*
X0243100Y0198009D01*
X0243152Y0198061D01*
X0243700Y0199384D01*
X0243700Y0200816D01*
X0243152Y0202139D01*
X0242139Y0203152D01*
X0240816Y0203700D01*
X0239384Y0203700D01*
X0238061Y0203152D01*
X0237048Y0202139D01*
X0236500Y0200816D01*
X0236500Y0199384D01*
X0237048Y0198061D01*
X0237100Y0198009D01*
X0237100Y0169691D01*
X0237048Y0169639D01*
X0236536Y0168402D01*
X0235816Y0168700D01*
X0235743Y0168700D01*
X0230600Y0173843D01*
X0230600Y0200697D01*
X0230143Y0201799D01*
X0225600Y0206343D01*
X0225600Y0214447D01*
X0225143Y0215549D01*
X0222450Y0218243D01*
X0222450Y0218316D01*
X0221902Y0219639D01*
X0220889Y0220652D01*
X0219566Y0221200D01*
X0218134Y0221200D01*
X0218100Y0221186D01*
X0218100Y0235357D01*
X0218401Y0235057D01*
X0219503Y0234600D01*
X0251357Y0234600D01*
X0254600Y0231357D01*
X0254600Y0226518D01*
X0254084Y0227762D01*
X0252762Y0229084D01*
X0251035Y0229800D01*
X0249165Y0229800D01*
X0247438Y0229084D01*
X0246116Y0227762D01*
X0245400Y0226035D01*
X0245400Y0201665D01*
X0246116Y0199938D01*
X0247438Y0198616D01*
X0249165Y0197900D01*
X0251035Y0197900D01*
X0252762Y0198616D01*
X0254084Y0199938D01*
X0254800Y0201665D01*
X0254800Y0202809D01*
X0255561Y0202048D01*
X0256884Y0201500D01*
X0258316Y0201500D01*
X0259639Y0202048D01*
X0260100Y0202509D01*
X0260561Y0202048D01*
X0261884Y0201500D01*
X0263316Y0201500D01*
X0264639Y0202048D01*
X0265100Y0202509D01*
X0265561Y0202048D01*
X0266884Y0201500D01*
X0268316Y0201500D01*
X0269639Y0202048D01*
X0270100Y0202509D01*
X0270561Y0202048D01*
X0271884Y0201500D01*
X0273316Y0201500D01*
X0274639Y0202048D01*
X0275652Y0203061D01*
X0276200Y0204384D01*
X0276200Y0205816D01*
X0275652Y0207139D01*
X0275600Y0207191D01*
X0275600Y0240697D01*
X0275143Y0241799D01*
X0274299Y0242643D01*
X0265543Y0251400D01*
X0267374Y0251400D01*
X0269542Y0252298D01*
X0271202Y0253958D01*
X0272100Y0256126D01*
X0272100Y0258474D01*
X0271202Y0260642D01*
X0269542Y0262302D01*
X0267374Y0263200D01*
X0265026Y0263200D01*
X0262858Y0262302D01*
X0261198Y0260642D01*
X0260300Y0258474D01*
X0260300Y0256126D01*
X0260518Y0255600D01*
X0242436Y0255600D01*
X0242450Y0255634D01*
X0242450Y0257066D01*
X0241902Y0258389D01*
X0240889Y0259402D01*
X0239566Y0259950D01*
X0238134Y0259950D01*
X0236811Y0259402D01*
X0236759Y0259350D01*
X0220753Y0259350D01*
X0219651Y0258893D01*
X0218807Y0258049D01*
X0215107Y0254350D01*
X0209691Y0254350D01*
X0209639Y0254402D01*
X0208316Y0254950D01*
X0206884Y0254950D01*
X0205561Y0254402D01*
X0204548Y0253389D01*
X0204000Y0252066D01*
X0204000Y0251693D01*
X0201850Y0253843D01*
X0201850Y0263857D01*
X0205093Y0267100D01*
X0226947Y0267100D01*
X0228049Y0267557D01*
X0228893Y0268401D01*
X0233243Y0272750D01*
X0233316Y0272750D01*
X0234639Y0273298D01*
X0235652Y0274311D01*
X0236200Y0275634D01*
X0236200Y0277066D01*
X0235652Y0278389D01*
X0234639Y0279402D01*
X0233316Y0279950D01*
X0231884Y0279950D01*
X0230561Y0279402D01*
X0229548Y0278389D01*
X0229000Y0277066D01*
X0229000Y0276993D01*
X0227144Y0275137D01*
X0226853Y0275840D01*
X0225840Y0276853D01*
X0224517Y0277401D01*
X0223085Y0277401D01*
X0221762Y0276853D01*
X0220749Y0275840D01*
X0220649Y0275600D01*
X0200753Y0275600D01*
X0199651Y0275143D01*
X0198807Y0274299D01*
X0193807Y0269299D01*
X0193350Y0268197D01*
X0193350Y0253974D01*
X0192824Y0254192D01*
X0191392Y0254192D01*
X0190069Y0253644D01*
X0189056Y0252631D01*
X0188508Y0251308D01*
X0188508Y0249876D01*
X0189056Y0248553D01*
X0190069Y0247540D01*
X0191392Y0246992D01*
X0191465Y0246992D01*
X0194600Y0243857D01*
X0194600Y0197191D01*
X0194548Y0197139D01*
X0194000Y0195816D01*
X0194000Y0194384D01*
X0194328Y0193592D01*
X0165259Y0193592D01*
X0163259Y0195592D01*
X0165794Y0198128D01*
X0165794Y0203057D01*
X0163259Y0205592D01*
X0165794Y0208128D01*
X0165794Y0209051D01*
X0173243Y0216500D01*
X0173316Y0216500D01*
X0174600Y0217032D01*
X0174600Y0214691D01*
X0174548Y0214639D01*
X0174000Y0213316D01*
X0174000Y0211884D01*
X0174548Y0210561D01*
X0175561Y0209548D01*
X0176884Y0209000D01*
X0178316Y0209000D01*
X0179639Y0209548D01*
X0180652Y0210561D01*
X0181200Y0211884D01*
X0181200Y0213316D01*
X0180652Y0214639D01*
X0180600Y0214691D01*
X0180600Y0223197D01*
X0180143Y0224299D01*
X0177943Y0226500D01*
X0178316Y0226500D01*
X0179639Y0227048D01*
X0180652Y0228061D01*
X0181200Y0229384D01*
X0181200Y0230816D01*
X0180652Y0232139D01*
X0180600Y0232191D01*
X0180600Y0255697D01*
X0180143Y0256799D01*
X0179299Y0257643D01*
X0174299Y0262643D01*
X0173197Y0263100D01*
X0082003Y0263100D01*
X0080901Y0262643D01*
X0080057Y0261799D01*
X0075057Y0256799D01*
X0074600Y0255697D01*
X0074600Y0221343D01*
X0068810Y0215553D01*
X0068770Y0215592D01*
X0071306Y0218128D01*
X0071306Y0223057D01*
X0068770Y0225592D01*
X0071306Y0228128D01*
X0071306Y0233057D01*
X0068770Y0235592D01*
X0071306Y0238128D01*
X0071306Y0243057D01*
X0068770Y0245592D01*
X0071306Y0248128D01*
X0071306Y0253057D01*
X0067820Y0256542D01*
X0062891Y0256542D01*
X0059941Y0253592D01*
X0057495Y0253592D01*
X0056393Y0253135D01*
X0045901Y0242643D01*
X0045901Y0242643D01*
X0045057Y0241799D01*
X0044600Y0240697D01*
X0044600Y0134503D01*
X0045057Y0133401D01*
X0045901Y0132557D01*
X0055549Y0122909D01*
X0055549Y0122909D01*
X0056393Y0122065D01*
X0057495Y0121608D01*
X0059941Y0121608D01*
X0061941Y0119608D01*
X0059406Y0117072D01*
X0059406Y0112143D01*
X0061941Y0109608D01*
X0059406Y0107072D01*
X0059406Y0102143D01*
X0061941Y0099608D01*
X0059941Y0097608D01*
X0059335Y0097608D01*
X0056200Y0100743D01*
X0056200Y0100816D01*
X0055652Y0102139D01*
X0054639Y0103152D01*
X0053316Y0103700D01*
X0051884Y0103700D01*
X0050561Y0103152D01*
X0049548Y0102139D01*
X0049000Y0100816D01*
X0049000Y0099384D01*
X0049548Y0098061D01*
X0050561Y0097048D01*
X0051884Y0096500D01*
X0051957Y0096500D01*
X0055549Y0092909D01*
X0056393Y0092065D01*
X0057495Y0091608D01*
X0059941Y0091608D01*
X0061941Y0089608D01*
X0059406Y0087072D01*
X0059406Y0082143D01*
X0061941Y0079608D01*
X0059406Y0077072D01*
X0059406Y0072143D01*
X0061941Y0069608D01*
X0059406Y0067072D01*
X0059406Y0062143D01*
X0061941Y0059608D01*
X0059406Y0057072D01*
X0059406Y0052143D01*
X0062891Y0048658D01*
X0067820Y0048658D01*
X0071306Y0052143D01*
X0071306Y0057072D01*
X0068770Y0059608D01*
X0071306Y0062143D01*
X0071306Y0067072D01*
X0068770Y0069608D01*
X0071306Y0072143D01*
X0071306Y0074415D01*
X0074600Y0071121D01*
X0074600Y0064503D01*
X0075057Y0063401D01*
X0091776Y0046682D01*
X0091776Y0046608D01*
X0092324Y0045285D01*
X0093336Y0044272D01*
X0094659Y0043724D01*
X0096092Y0043724D01*
X0097415Y0044272D01*
X0098428Y0045285D01*
X0098976Y0046608D01*
X0098976Y0048040D01*
X0098428Y0049364D01*
X0097415Y0050376D01*
X0096092Y0050924D01*
X0096018Y0050924D01*
X0080600Y0066343D01*
X0080600Y0072961D01*
X0080143Y0074063D01*
X0079299Y0074907D01*
X0071306Y0082901D01*
X0071306Y0087072D01*
X0068770Y0089608D01*
X0071306Y0092143D01*
X0071306Y0097072D01*
X0068770Y0099608D01*
X0071306Y0102143D01*
X0071306Y0107072D01*
X0068770Y0109608D01*
X0071306Y0112143D01*
X0071306Y0117072D01*
X0068770Y0119608D01*
X0071306Y0122143D01*
X0071306Y0127072D01*
X0067820Y0130558D01*
X0062891Y0130558D01*
X0059941Y0127608D01*
X0059335Y0127608D01*
X0050600Y0136343D01*
X0050600Y0238857D01*
X0059335Y0247592D01*
X0059941Y0247592D01*
X0061941Y0245592D01*
X0059406Y0243057D01*
X0059406Y0238128D01*
X0061941Y0235592D01*
X0059406Y0233057D01*
X0059406Y0228128D01*
X0061941Y0225592D01*
X0059406Y0223057D01*
X0059406Y0218128D01*
X0061941Y0215592D01*
X0059406Y0213057D01*
X0059406Y0208128D01*
X0061941Y0205592D01*
X0059406Y0203057D01*
X0059406Y0198128D01*
X0061941Y0195592D01*
X0059406Y0193057D01*
X0059406Y0188128D01*
X0061941Y0185592D01*
X0059406Y0183057D01*
X0059406Y0178128D01*
X0062891Y0174642D01*
X0067820Y0174642D01*
X0071306Y0178128D01*
X0071306Y0183057D01*
X0068770Y0185592D01*
X0071306Y0188128D01*
X0071306Y0193057D01*
X0068770Y0195592D01*
X0071306Y0198128D01*
X0071306Y0203057D01*
X0068770Y0205592D01*
X0071306Y0208128D01*
X0071306Y0209563D01*
X0079299Y0217557D01*
X0080143Y0218401D01*
X0080600Y0219503D01*
X0080600Y0253857D01*
X0083843Y0257100D01*
X0171357Y0257100D01*
X0174600Y0253857D01*
X0174600Y0232191D01*
X0174548Y0232139D01*
X0174000Y0230816D01*
X0174000Y0230443D01*
X0172151Y0232291D01*
X0171307Y0233135D01*
X0170205Y0233592D01*
X0165259Y0233592D01*
X0163259Y0235592D01*
X0165794Y0238128D01*
X0165794Y0243057D01*
X0163259Y0245592D01*
X0165794Y0248128D01*
X0165794Y0253057D01*
X0162309Y0256542D01*
X0157380Y0256542D01*
X0153894Y0253057D01*
X0153894Y0248128D01*
X0156430Y0245592D01*
X0153894Y0243057D01*
X0153894Y0238128D01*
X0156430Y0235592D01*
X0153894Y0233057D01*
X0153894Y0228128D01*
X0156430Y0225592D01*
X0153894Y0223057D01*
X0153894Y0218128D01*
X0156430Y0215592D01*
X0153894Y0213057D01*
X0153894Y0208128D01*
X0156430Y0205592D01*
X0153894Y0203057D01*
X0153894Y0198128D01*
X0156430Y0195592D01*
X0153894Y0193057D01*
X0153894Y0188128D01*
X0156430Y0185592D01*
X0153894Y0183057D01*
X0153894Y0178885D01*
X0145057Y0170047D01*
X0144600Y0168945D01*
X0144600Y0066255D01*
X0145057Y0065153D01*
X0145901Y0064309D01*
X0153894Y0056315D01*
X0153894Y0052143D01*
X0157380Y0048658D01*
X0162309Y0048658D01*
X0164600Y0050949D01*
X0164600Y0034503D01*
X0165057Y0033401D01*
X0165901Y0032557D01*
X0166500Y0031957D01*
X0166500Y0031608D01*
X0164600Y0034585D02*
X0004800Y0034585D01*
X0004800Y0037784D02*
X0164600Y0037784D01*
X0164600Y0040982D02*
X0004800Y0040982D01*
X0004800Y0044181D02*
X0093558Y0044181D01*
X0097193Y0044181D02*
X0164600Y0044181D01*
X0164600Y0047379D02*
X0098976Y0047379D01*
X0096929Y0050578D02*
X0155460Y0050578D01*
X0153894Y0053776D02*
X0093166Y0053776D01*
X0089968Y0056975D02*
X0153235Y0056975D01*
X0150036Y0060173D02*
X0086769Y0060173D01*
X0083571Y0063372D02*
X0146838Y0063372D01*
X0144600Y0066570D02*
X0080600Y0066570D01*
X0080600Y0069769D02*
X0144600Y0069769D01*
X0144600Y0072967D02*
X0080597Y0072967D01*
X0078041Y0076166D02*
X0144600Y0076166D01*
X0144600Y0079364D02*
X0074842Y0079364D01*
X0071644Y0082563D02*
X0144600Y0082563D01*
X0144600Y0085761D02*
X0071306Y0085761D01*
X0069419Y0088960D02*
X0144600Y0088960D01*
X0144600Y0092158D02*
X0071306Y0092158D01*
X0071306Y0095357D02*
X0144600Y0095357D01*
X0144600Y0098555D02*
X0069823Y0098555D01*
X0070916Y0101754D02*
X0144600Y0101754D01*
X0144600Y0104952D02*
X0071306Y0104952D01*
X0070227Y0108151D02*
X0144600Y0108151D01*
X0144600Y0111349D02*
X0070512Y0111349D01*
X0071306Y0114548D02*
X0144600Y0114548D01*
X0144600Y0117746D02*
X0070632Y0117746D01*
X0070107Y0120945D02*
X0144600Y0120945D01*
X0144600Y0124143D02*
X0071306Y0124143D01*
X0071036Y0127342D02*
X0144600Y0127342D01*
X0144600Y0130540D02*
X0067838Y0130540D01*
X0062874Y0130540D02*
X0056402Y0130540D01*
X0053204Y0133739D02*
X0144600Y0133739D01*
X0144600Y0136937D02*
X0050600Y0136937D01*
X0050600Y0140136D02*
X0144600Y0140136D01*
X0144600Y0143334D02*
X0050600Y0143334D01*
X0044600Y0143334D02*
X0034800Y0143334D01*
X0034800Y0140136D02*
X0044600Y0140136D01*
X0044600Y0136937D02*
X0034800Y0136937D01*
X0034800Y0133739D02*
X0044917Y0133739D01*
X0045901Y0132557D02*
X0045901Y0132557D01*
X0047917Y0130540D02*
X0034673Y0130540D01*
X0034800Y0130890D02*
X0034800Y0133511D01*
X0034800Y0171689D01*
X0034800Y0174310D01*
X0033630Y0177525D01*
X0031431Y0180145D01*
X0028469Y0181856D01*
X0028469Y0181856D01*
X0025100Y0182450D01*
X0021731Y0181856D01*
X0018769Y0180145D01*
X0016570Y0177525D01*
X0016570Y0177525D01*
X0015400Y0174310D01*
X0015400Y0130890D01*
X0016570Y0127675D01*
X0018769Y0125055D01*
X0018769Y0125055D01*
X0021731Y0123344D01*
X0025100Y0122750D01*
X0028469Y0123344D01*
X0031431Y0125055D01*
X0031431Y0125055D01*
X0033630Y0127675D01*
X0033630Y0127675D01*
X0034800Y0130890D01*
X0033350Y0127342D02*
X0051115Y0127342D01*
X0054314Y0124143D02*
X0029853Y0124143D01*
X0028469Y0123344D02*
X0028469Y0123344D01*
X0025100Y0122750D02*
X0025100Y0122750D01*
X0021731Y0123344D02*
X0021731Y0123344D01*
X0020347Y0124143D02*
X0004800Y0124143D01*
X0004800Y0120945D02*
X0060604Y0120945D01*
X0060080Y0117746D02*
X0004800Y0117746D01*
X0004800Y0114548D02*
X0059406Y0114548D01*
X0060200Y0111349D02*
X0004800Y0111349D01*
X0004800Y0108151D02*
X0060484Y0108151D01*
X0059406Y0104952D02*
X0004800Y0104952D01*
X0004800Y0101754D02*
X0049388Y0101754D01*
X0049343Y0098555D02*
X0004800Y0098555D01*
X0004800Y0095357D02*
X0053101Y0095357D01*
X0056299Y0092158D02*
X0004800Y0092158D01*
X0004800Y0088960D02*
X0061293Y0088960D01*
X0059406Y0085761D02*
X0004800Y0085761D01*
X0004800Y0082563D02*
X0059406Y0082563D01*
X0061698Y0079364D02*
X0004800Y0079364D01*
X0004800Y0076166D02*
X0059406Y0076166D01*
X0059406Y0072967D02*
X0004800Y0072967D01*
X0004800Y0069769D02*
X0061780Y0069769D01*
X0059406Y0066570D02*
X0004800Y0066570D01*
X0004800Y0063372D02*
X0059406Y0063372D01*
X0061376Y0060173D02*
X0004800Y0060173D01*
X0004800Y0056975D02*
X0059406Y0056975D01*
X0059406Y0053776D02*
X0004800Y0053776D01*
X0004800Y0050578D02*
X0060972Y0050578D01*
X0069740Y0050578D02*
X0087880Y0050578D01*
X0084681Y0053776D02*
X0071306Y0053776D01*
X0071306Y0056975D02*
X0081483Y0056975D01*
X0078284Y0060173D02*
X0069336Y0060173D01*
X0071306Y0063372D02*
X0075086Y0063372D01*
X0074600Y0066570D02*
X0071306Y0066570D01*
X0068931Y0069769D02*
X0074600Y0069769D01*
X0072754Y0072967D02*
X0071306Y0072967D01*
X0091078Y0047379D02*
X0004800Y0047379D01*
X0058387Y0098555D02*
X0060889Y0098555D01*
X0059795Y0101754D02*
X0055812Y0101754D01*
X0018769Y0125055D02*
X0018769Y0125055D01*
X0016850Y0127342D02*
X0004800Y0127342D01*
X0004800Y0130540D02*
X0015527Y0130540D01*
X0016570Y0127675D02*
X0016570Y0127675D01*
X0015400Y0133739D02*
X0004800Y0133739D01*
X0004800Y0136937D02*
X0015400Y0136937D01*
X0015400Y0140136D02*
X0004800Y0140136D01*
X0004800Y0143334D02*
X0015400Y0143334D01*
X0015400Y0146533D02*
X0004800Y0146533D01*
X0004800Y0149732D02*
X0015400Y0149732D01*
X0015400Y0152930D02*
X0004800Y0152930D01*
X0004800Y0156129D02*
X0015400Y0156129D01*
X0015400Y0159327D02*
X0004800Y0159327D01*
X0004800Y0162526D02*
X0015400Y0162526D01*
X0015400Y0165724D02*
X0004800Y0165724D01*
X0004800Y0168923D02*
X0015400Y0168923D01*
X0015400Y0172121D02*
X0004800Y0172121D01*
X0004800Y0175320D02*
X0015767Y0175320D01*
X0017403Y0178518D02*
X0004800Y0178518D01*
X0004800Y0181717D02*
X0021490Y0181717D01*
X0021731Y0181856D02*
X0021731Y0181856D01*
X0018769Y0180145D02*
X0018769Y0180145D01*
X0025100Y0182450D02*
X0025100Y0182450D01*
X0028710Y0181717D02*
X0044600Y0181717D01*
X0044600Y0184915D02*
X0004800Y0184915D01*
X0004800Y0188114D02*
X0044600Y0188114D01*
X0044600Y0191312D02*
X0004800Y0191312D01*
X0004800Y0194511D02*
X0044600Y0194511D01*
X0044600Y0197709D02*
X0004800Y0197709D01*
X0004800Y0200908D02*
X0044600Y0200908D01*
X0044600Y0204106D02*
X0004800Y0204106D01*
X0004800Y0207305D02*
X0044600Y0207305D01*
X0044600Y0210503D02*
X0004800Y0210503D01*
X0004800Y0213702D02*
X0044600Y0213702D01*
X0044600Y0216900D02*
X0004800Y0216900D01*
X0004800Y0220099D02*
X0044600Y0220099D01*
X0044600Y0223297D02*
X0004800Y0223297D01*
X0004800Y0226496D02*
X0044600Y0226496D01*
X0044600Y0229694D02*
X0004800Y0229694D01*
X0004800Y0232893D02*
X0044600Y0232893D01*
X0044600Y0236091D02*
X0004800Y0236091D01*
X0004800Y0239290D02*
X0044600Y0239290D01*
X0045746Y0242488D02*
X0004800Y0242488D01*
X0004800Y0245687D02*
X0048944Y0245687D01*
X0052143Y0248885D02*
X0004800Y0248885D01*
X0004800Y0252084D02*
X0055341Y0252084D01*
X0057429Y0245687D02*
X0061847Y0245687D01*
X0059406Y0242488D02*
X0054231Y0242488D01*
X0051032Y0239290D02*
X0059406Y0239290D01*
X0061442Y0236091D02*
X0050600Y0236091D01*
X0050600Y0232893D02*
X0059406Y0232893D01*
X0059406Y0229694D02*
X0050600Y0229694D01*
X0050600Y0226496D02*
X0061038Y0226496D01*
X0059647Y0223297D02*
X0050600Y0223297D01*
X0050600Y0220099D02*
X0059406Y0220099D01*
X0060633Y0216900D02*
X0050600Y0216900D01*
X0050600Y0213702D02*
X0060051Y0213702D01*
X0059406Y0210503D02*
X0050600Y0210503D01*
X0050600Y0207305D02*
X0060229Y0207305D01*
X0060455Y0204106D02*
X0050600Y0204106D01*
X0050600Y0200908D02*
X0059406Y0200908D01*
X0059824Y0197709D02*
X0050600Y0197709D01*
X0050600Y0194511D02*
X0060860Y0194511D01*
X0059406Y0191312D02*
X0050600Y0191312D01*
X0050600Y0188114D02*
X0059420Y0188114D01*
X0061264Y0184915D02*
X0050600Y0184915D01*
X0050600Y0181717D02*
X0059406Y0181717D01*
X0059406Y0178518D02*
X0050600Y0178518D01*
X0050600Y0175320D02*
X0062214Y0175320D01*
X0068498Y0175320D02*
X0150329Y0175320D01*
X0153527Y0178518D02*
X0071306Y0178518D01*
X0071306Y0181717D02*
X0153894Y0181717D01*
X0155753Y0184915D02*
X0069447Y0184915D01*
X0071292Y0188114D02*
X0153908Y0188114D01*
X0153894Y0191312D02*
X0071306Y0191312D01*
X0069852Y0194511D02*
X0155348Y0194511D01*
X0154312Y0197709D02*
X0070888Y0197709D01*
X0071306Y0200908D02*
X0153894Y0200908D01*
X0154944Y0204106D02*
X0070256Y0204106D01*
X0070483Y0207305D02*
X0154717Y0207305D01*
X0153894Y0210503D02*
X0072246Y0210503D01*
X0075444Y0213702D02*
X0154539Y0213702D01*
X0155121Y0216900D02*
X0078643Y0216900D01*
X0080600Y0220099D02*
X0153894Y0220099D01*
X0154135Y0223297D02*
X0080600Y0223297D01*
X0080600Y0226496D02*
X0155526Y0226496D01*
X0153894Y0229694D02*
X0080600Y0229694D01*
X0080600Y0232893D02*
X0153894Y0232893D01*
X0155930Y0236091D02*
X0080600Y0236091D01*
X0080600Y0239290D02*
X0153894Y0239290D01*
X0153894Y0242488D02*
X0080600Y0242488D01*
X0080600Y0245687D02*
X0156335Y0245687D01*
X0153894Y0248885D02*
X0080600Y0248885D01*
X0080600Y0252084D02*
X0153894Y0252084D01*
X0156120Y0255282D02*
X0082025Y0255282D01*
X0076738Y0258481D02*
X0004800Y0258481D01*
X0004800Y0261679D02*
X0079937Y0261679D01*
X0074600Y0255282D02*
X0069080Y0255282D01*
X0071306Y0252084D02*
X0074600Y0252084D01*
X0074600Y0248885D02*
X0071306Y0248885D01*
X0068865Y0245687D02*
X0074600Y0245687D01*
X0074600Y0242488D02*
X0071306Y0242488D01*
X0071306Y0239290D02*
X0074600Y0239290D01*
X0074600Y0236091D02*
X0069270Y0236091D01*
X0071306Y0232893D02*
X0074600Y0232893D01*
X0074600Y0229694D02*
X0071306Y0229694D01*
X0069674Y0226496D02*
X0074600Y0226496D01*
X0074600Y0223297D02*
X0071065Y0223297D01*
X0071306Y0220099D02*
X0073356Y0220099D01*
X0070158Y0216900D02*
X0070079Y0216900D01*
X0061632Y0255282D02*
X0004800Y0255282D01*
X0004800Y0264878D02*
X0193350Y0264878D01*
X0193350Y0268076D02*
X0004800Y0268076D01*
X0004800Y0271275D02*
X0195782Y0271275D01*
X0198981Y0274473D02*
X0004800Y0274473D01*
X0004800Y0277672D02*
X0229251Y0277672D01*
X0235949Y0277672D02*
X0263404Y0277672D01*
X0262858Y0277898D02*
X0265026Y0277000D01*
X0267374Y0277000D01*
X0269542Y0277898D01*
X0271202Y0279558D01*
X0272100Y0281726D01*
X0272100Y0284074D01*
X0271202Y0286242D01*
X0269542Y0287902D01*
X0267374Y0288800D01*
X0265026Y0288800D01*
X0262858Y0287902D01*
X0261198Y0286242D01*
X0260300Y0284074D01*
X0260300Y0281726D01*
X0261198Y0279558D01*
X0262858Y0277898D01*
X0260655Y0280870D02*
X0004800Y0280870D01*
X0004882Y0284069D02*
X0260300Y0284069D01*
X0262224Y0287268D02*
X0005522Y0287268D01*
X0006756Y0290466D02*
X0463444Y0290466D01*
X0464678Y0287268D02*
X0288542Y0287268D01*
X0288805Y0287004D02*
X0288104Y0287705D01*
X0287302Y0288288D01*
X0286418Y0288738D01*
X0285475Y0289045D01*
X0284496Y0289200D01*
X0284000Y0289200D01*
X0284000Y0282900D01*
X0284000Y0282900D01*
X0290300Y0282900D01*
X0290300Y0283396D01*
X0290145Y0284375D01*
X0289838Y0285318D01*
X0289388Y0286202D01*
X0288805Y0287004D01*
X0290193Y0284069D02*
X0465317Y0284069D01*
X0465400Y0280870D02*
X0371141Y0280870D01*
X0371182Y0280829D02*
X0369579Y0282432D01*
X0367484Y0283300D01*
X0365216Y0283300D01*
X0363121Y0282432D01*
X0361518Y0280829D01*
X0360650Y0278734D01*
X0360650Y0276466D01*
X0361518Y0274371D01*
X0363121Y0272768D01*
X0363526Y0272600D01*
X0363121Y0272432D01*
X0361518Y0270829D01*
X0360650Y0268734D01*
X0360650Y0266466D01*
X0361518Y0264371D01*
X0363121Y0262768D01*
X0365216Y0261900D01*
X0367484Y0261900D01*
X0369579Y0262768D01*
X0371182Y0264371D01*
X0372050Y0266466D01*
X0372050Y0268734D01*
X0371182Y0270829D01*
X0369579Y0272432D01*
X0369174Y0272600D01*
X0369579Y0272768D01*
X0371182Y0274371D01*
X0372050Y0276466D01*
X0372050Y0278734D01*
X0371182Y0280829D01*
X0372050Y0277672D02*
X0465400Y0277672D01*
X0465400Y0274473D02*
X0371225Y0274473D01*
X0370736Y0271275D02*
X0465400Y0271275D01*
X0465400Y0268076D02*
X0372050Y0268076D01*
X0371392Y0264878D02*
X0465400Y0264878D01*
X0465400Y0261679D02*
X0349626Y0261679D01*
X0349496Y0261700D02*
X0349000Y0261700D01*
X0349000Y0255400D01*
X0349000Y0255400D01*
X0355300Y0255400D01*
X0355300Y0255896D01*
X0355145Y0256875D01*
X0354838Y0257818D01*
X0354388Y0258702D01*
X0353805Y0259504D01*
X0353104Y0260205D01*
X0352302Y0260788D01*
X0351418Y0261238D01*
X0350475Y0261545D01*
X0349496Y0261700D01*
X0349000Y0261700D02*
X0348504Y0261700D01*
X0347525Y0261545D01*
X0346582Y0261238D01*
X0345698Y0260788D01*
X0344896Y0260205D01*
X0344195Y0259504D01*
X0343612Y0258702D01*
X0343162Y0257818D01*
X0342855Y0256875D01*
X0342700Y0255896D01*
X0342700Y0255400D01*
X0349000Y0255400D01*
X0349000Y0255400D01*
X0349000Y0255400D01*
X0349000Y0261700D01*
X0349000Y0261679D02*
X0349000Y0261679D01*
X0348374Y0261679D02*
X0287964Y0261679D01*
X0287342Y0262302D02*
X0285174Y0263200D01*
X0282826Y0263200D01*
X0280658Y0262302D01*
X0278998Y0260642D01*
X0278100Y0258474D01*
X0278100Y0256126D01*
X0278998Y0253958D01*
X0280658Y0252298D01*
X0282826Y0251400D01*
X0285174Y0251400D01*
X0287342Y0252298D01*
X0289002Y0253958D01*
X0289900Y0256126D01*
X0289900Y0258474D01*
X0289002Y0260642D01*
X0287342Y0262302D01*
X0289897Y0258481D02*
X0326090Y0258481D01*
X0326198Y0258742D02*
X0325300Y0256574D01*
X0325300Y0254226D01*
X0326198Y0252058D01*
X0327858Y0250398D01*
X0330026Y0249500D01*
X0332374Y0249500D01*
X0334542Y0250398D01*
X0336202Y0252058D01*
X0337100Y0254226D01*
X0337100Y0256574D01*
X0336202Y0258742D01*
X0334542Y0260402D01*
X0332374Y0261300D01*
X0330026Y0261300D01*
X0327858Y0260402D01*
X0326198Y0258742D01*
X0325300Y0255282D02*
X0289550Y0255282D01*
X0286825Y0252084D02*
X0326187Y0252084D01*
X0336213Y0252084D02*
X0343622Y0252084D01*
X0343612Y0252098D02*
X0344195Y0251296D01*
X0344896Y0250595D01*
X0345698Y0250012D01*
X0346582Y0249562D01*
X0347525Y0249255D01*
X0348504Y0249100D01*
X0349000Y0249100D01*
X0349496Y0249100D01*
X0350475Y0249255D01*
X0351418Y0249562D01*
X0352302Y0250012D01*
X0353104Y0250595D01*
X0353805Y0251296D01*
X0354388Y0252098D01*
X0354838Y0252982D01*
X0355145Y0253925D01*
X0355300Y0254904D01*
X0355300Y0255400D01*
X0349000Y0255400D01*
X0349000Y0249100D01*
X0349000Y0255400D01*
X0349000Y0255400D01*
X0342700Y0255400D01*
X0342700Y0254904D01*
X0342855Y0253925D01*
X0343162Y0252982D01*
X0343612Y0252098D01*
X0342700Y0255282D02*
X0337100Y0255282D01*
X0336310Y0258481D02*
X0343499Y0258481D01*
X0349000Y0258481D02*
X0349000Y0258481D01*
X0349000Y0255282D02*
X0349000Y0255282D01*
X0349000Y0252084D02*
X0349000Y0252084D01*
X0354378Y0252084D02*
X0465400Y0252084D01*
X0465400Y0255282D02*
X0355300Y0255282D01*
X0354501Y0258481D02*
X0465400Y0258481D01*
X0465400Y0248885D02*
X0268057Y0248885D01*
X0269025Y0252084D02*
X0281175Y0252084D01*
X0278450Y0255282D02*
X0271750Y0255282D01*
X0272097Y0258481D02*
X0278103Y0258481D01*
X0280036Y0261679D02*
X0270164Y0261679D01*
X0262236Y0261679D02*
X0201850Y0261679D01*
X0201850Y0258481D02*
X0219238Y0258481D01*
X0216040Y0255282D02*
X0201850Y0255282D01*
X0203609Y0252084D02*
X0204007Y0252084D01*
X0193350Y0255282D02*
X0180600Y0255282D01*
X0180600Y0252084D02*
X0188829Y0252084D01*
X0188918Y0248885D02*
X0180600Y0248885D01*
X0180600Y0245687D02*
X0192770Y0245687D01*
X0194600Y0242488D02*
X0180600Y0242488D01*
X0180600Y0239290D02*
X0194600Y0239290D01*
X0194600Y0236091D02*
X0180600Y0236091D01*
X0180600Y0232893D02*
X0194600Y0232893D01*
X0194600Y0229694D02*
X0181200Y0229694D01*
X0177947Y0226496D02*
X0194600Y0226496D01*
X0194600Y0223297D02*
X0180558Y0223297D01*
X0180600Y0220099D02*
X0194600Y0220099D01*
X0194600Y0216900D02*
X0180600Y0216900D01*
X0181040Y0213702D02*
X0194600Y0213702D01*
X0194600Y0210503D02*
X0180594Y0210503D01*
X0174606Y0210503D02*
X0167246Y0210503D01*
X0164971Y0207305D02*
X0194600Y0207305D01*
X0194600Y0204106D02*
X0164745Y0204106D01*
X0165794Y0200908D02*
X0194600Y0200908D01*
X0194600Y0197709D02*
X0165376Y0197709D01*
X0164340Y0194511D02*
X0194000Y0194511D01*
X0206200Y0184915D02*
X0214600Y0184915D01*
X0214600Y0181717D02*
X0203839Y0181717D01*
X0201361Y0181717D02*
X0165794Y0181717D01*
X0165794Y0178518D02*
X0214600Y0178518D01*
X0214600Y0175320D02*
X0162986Y0175320D01*
X0155616Y0172121D02*
X0214600Y0172121D01*
X0214600Y0168923D02*
X0152417Y0168923D01*
X0150600Y0165724D02*
X0155735Y0165724D01*
X0155561Y0165652D02*
X0154548Y0164639D01*
X0154000Y0163316D01*
X0154000Y0161884D01*
X0154548Y0160561D01*
X0155561Y0159548D01*
X0156884Y0159000D01*
X0158316Y0159000D01*
X0159639Y0159548D01*
X0159691Y0159600D01*
X0200697Y0159600D01*
X0201799Y0160057D01*
X0203243Y0161500D01*
X0203316Y0161500D01*
X0204639Y0162048D01*
X0205652Y0163061D01*
X0206200Y0164384D01*
X0206200Y0165816D01*
X0205652Y0167139D01*
X0204639Y0168152D01*
X0203316Y0168700D01*
X0201884Y0168700D01*
X0200561Y0168152D01*
X0199548Y0167139D01*
X0199000Y0165816D01*
X0199000Y0165743D01*
X0198857Y0165600D01*
X0159691Y0165600D01*
X0159639Y0165652D01*
X0158316Y0166200D01*
X0156884Y0166200D01*
X0155561Y0165652D01*
X0154000Y0162526D02*
X0150600Y0162526D01*
X0150600Y0159327D02*
X0156094Y0159327D01*
X0159106Y0159327D02*
X0221630Y0159327D01*
X0224313Y0156129D02*
X0183489Y0156129D01*
X0181711Y0156129D02*
X0168571Y0156129D01*
X0168021Y0152930D02*
X0179000Y0152930D01*
X0179600Y0149732D02*
X0163974Y0149732D01*
X0160776Y0146533D02*
X0179600Y0146533D01*
X0185600Y0146533D02*
X0407567Y0146533D01*
X0407155Y0146704D02*
X0408478Y0146156D01*
X0409911Y0146156D01*
X0411234Y0146704D01*
X0412246Y0147716D01*
X0412538Y0148420D01*
X0413469Y0147489D01*
X0413469Y0147415D01*
X0414017Y0146092D01*
X0415029Y0145080D01*
X0416352Y0144531D01*
X0417785Y0144531D01*
X0419108Y0145080D01*
X0420120Y0146092D01*
X0420668Y0147415D01*
X0420668Y0148848D01*
X0420120Y0150171D01*
X0419108Y0151183D01*
X0417785Y0151731D01*
X0417711Y0151731D01*
X0363700Y0205743D01*
X0363700Y0205816D01*
X0363286Y0206815D01*
X0366643Y0206815D01*
X0380057Y0193401D01*
X0380901Y0192557D01*
X0382003Y0192100D01*
X0395107Y0192100D01*
X0397720Y0189487D01*
X0397720Y0189413D01*
X0398269Y0188090D01*
X0399281Y0187078D01*
X0400604Y0186530D01*
X0402037Y0186530D01*
X0403360Y0187078D01*
X0404372Y0188090D01*
X0404920Y0189413D01*
X0404920Y0190846D01*
X0404372Y0192169D01*
X0403360Y0193181D01*
X0402037Y0193730D01*
X0401963Y0193730D01*
X0398049Y0197643D01*
X0396947Y0198100D01*
X0383843Y0198100D01*
X0370429Y0211514D01*
X0369585Y0212358D01*
X0368482Y0212815D01*
X0344977Y0212815D01*
X0344925Y0212866D01*
X0343602Y0213415D01*
X0342169Y0213415D01*
X0340846Y0212866D01*
X0339834Y0211854D01*
X0339285Y0210531D01*
X0339285Y0209098D01*
X0339834Y0207775D01*
X0340846Y0206763D01*
X0342169Y0206215D01*
X0343602Y0206215D01*
X0344925Y0206763D01*
X0344977Y0206815D01*
X0350664Y0206815D01*
X0350250Y0205816D01*
X0350250Y0204384D01*
X0350798Y0203061D01*
X0351811Y0202048D01*
X0353134Y0201500D01*
X0353207Y0201500D01*
X0405594Y0149113D01*
X0405594Y0149039D01*
X0406143Y0147716D01*
X0407155Y0146704D01*
X0410822Y0146533D02*
X0413834Y0146533D01*
X0420303Y0146533D02*
X0437122Y0146533D01*
X0437122Y0149732D02*
X0420302Y0149732D01*
X0416513Y0152930D02*
X0437122Y0152930D01*
X0437122Y0156129D02*
X0413314Y0156129D01*
X0410116Y0159327D02*
X0437122Y0159327D01*
X0437122Y0162526D02*
X0406917Y0162526D01*
X0403719Y0165724D02*
X0437122Y0165724D01*
X0437122Y0168923D02*
X0400520Y0168923D01*
X0397322Y0172121D02*
X0437122Y0172121D01*
X0437122Y0175320D02*
X0394123Y0175320D01*
X0390925Y0178518D02*
X0437122Y0178518D01*
X0437122Y0181717D02*
X0387726Y0181717D01*
X0384527Y0184915D02*
X0437278Y0184915D01*
X0436163Y0200375D02*
X0439037Y0200375D01*
X0441693Y0201475D01*
X0443725Y0203507D01*
X0444825Y0206163D01*
X0444825Y0209037D01*
X0443725Y0211693D01*
X0441693Y0213725D01*
X0439037Y0214825D01*
X0436163Y0214825D01*
X0433507Y0213725D01*
X0431475Y0211693D01*
X0430375Y0209037D01*
X0430375Y0206163D01*
X0431475Y0203507D01*
X0433507Y0201475D01*
X0436163Y0200375D01*
X0434877Y0200908D02*
X0390323Y0200908D01*
X0389037Y0200375D02*
X0391693Y0201475D01*
X0393725Y0203507D01*
X0394825Y0206163D01*
X0394825Y0209037D01*
X0393725Y0211693D01*
X0391693Y0213725D01*
X0389037Y0214825D01*
X0386163Y0214825D01*
X0383507Y0213725D01*
X0381475Y0211693D01*
X0380375Y0209037D01*
X0380375Y0206163D01*
X0381475Y0203507D01*
X0383507Y0201475D01*
X0386163Y0200375D01*
X0389037Y0200375D01*
X0384877Y0200908D02*
X0381035Y0200908D01*
X0381227Y0204106D02*
X0377836Y0204106D01*
X0380375Y0207305D02*
X0374638Y0207305D01*
X0371439Y0210503D02*
X0380982Y0210503D01*
X0383484Y0213702D02*
X0275600Y0213702D01*
X0275600Y0216900D02*
X0465400Y0216900D01*
X0465400Y0213702D02*
X0441716Y0213702D01*
X0433484Y0213702D02*
X0391716Y0213702D01*
X0394218Y0210503D02*
X0430982Y0210503D01*
X0430375Y0207305D02*
X0394825Y0207305D01*
X0393973Y0204106D02*
X0431227Y0204106D01*
X0440323Y0200908D02*
X0465400Y0200908D01*
X0465400Y0204106D02*
X0443973Y0204106D01*
X0444825Y0207305D02*
X0465400Y0207305D01*
X0465400Y0210503D02*
X0444218Y0210503D01*
X0465400Y0220099D02*
X0275600Y0220099D01*
X0275600Y0223297D02*
X0465400Y0223297D01*
X0465400Y0226496D02*
X0354017Y0226496D01*
X0354002Y0226458D02*
X0354900Y0228626D01*
X0354900Y0230974D01*
X0354002Y0233142D01*
X0352342Y0234802D01*
X0350174Y0235700D01*
X0347826Y0235700D01*
X0345658Y0234802D01*
X0343998Y0233142D01*
X0343100Y0230974D01*
X0343100Y0228626D01*
X0343998Y0226458D01*
X0345658Y0224798D01*
X0347826Y0223900D01*
X0350174Y0223900D01*
X0352342Y0224798D01*
X0354002Y0226458D01*
X0354900Y0229694D02*
X0465400Y0229694D01*
X0465400Y0232893D02*
X0443111Y0232893D01*
X0443725Y0233507D02*
X0444825Y0236163D01*
X0444825Y0239037D01*
X0443725Y0241693D01*
X0441693Y0243725D01*
X0439037Y0244825D01*
X0436163Y0244825D01*
X0433507Y0243725D01*
X0431475Y0241693D01*
X0430375Y0239037D01*
X0430375Y0236163D01*
X0431475Y0233507D01*
X0433507Y0231475D01*
X0436163Y0230375D01*
X0439037Y0230375D01*
X0441693Y0231475D01*
X0443725Y0233507D01*
X0444795Y0236091D02*
X0465400Y0236091D01*
X0465400Y0239290D02*
X0444720Y0239290D01*
X0442929Y0242488D02*
X0465400Y0242488D01*
X0465400Y0245687D02*
X0271256Y0245687D01*
X0274454Y0242488D02*
X0382271Y0242488D01*
X0381475Y0241693D02*
X0380375Y0239037D01*
X0380375Y0236163D01*
X0381475Y0233507D01*
X0383507Y0231475D01*
X0386163Y0230375D01*
X0389037Y0230375D01*
X0391693Y0231475D01*
X0393725Y0233507D01*
X0394825Y0236163D01*
X0394825Y0239037D01*
X0393725Y0241693D01*
X0391693Y0243725D01*
X0389037Y0244825D01*
X0386163Y0244825D01*
X0383507Y0243725D01*
X0381475Y0241693D01*
X0380480Y0239290D02*
X0275600Y0239290D01*
X0275600Y0236091D02*
X0380405Y0236091D01*
X0382089Y0232893D02*
X0354105Y0232893D01*
X0343895Y0232893D02*
X0336305Y0232893D01*
X0336202Y0233142D02*
X0334542Y0234802D01*
X0332374Y0235700D01*
X0330026Y0235700D01*
X0327858Y0234802D01*
X0326198Y0233142D01*
X0325300Y0230974D01*
X0325300Y0228626D01*
X0326198Y0226458D01*
X0327858Y0224798D01*
X0330026Y0223900D01*
X0332374Y0223900D01*
X0334542Y0224798D01*
X0336202Y0226458D01*
X0337100Y0228626D01*
X0337100Y0230974D01*
X0336202Y0233142D01*
X0337100Y0229694D02*
X0343100Y0229694D01*
X0343983Y0226496D02*
X0336217Y0226496D01*
X0326183Y0226496D02*
X0275600Y0226496D01*
X0275600Y0229694D02*
X0325300Y0229694D01*
X0326095Y0232893D02*
X0275600Y0232893D01*
X0254600Y0229694D02*
X0251290Y0229694D01*
X0248910Y0229694D02*
X0218100Y0229694D01*
X0218100Y0226496D02*
X0245591Y0226496D01*
X0245400Y0223297D02*
X0218100Y0223297D01*
X0221442Y0220099D02*
X0245400Y0220099D01*
X0245400Y0216900D02*
X0223792Y0216900D01*
X0225600Y0213702D02*
X0245400Y0213702D01*
X0245400Y0210503D02*
X0225600Y0210503D01*
X0225600Y0207305D02*
X0245400Y0207305D01*
X0245400Y0204106D02*
X0227836Y0204106D01*
X0230513Y0200908D02*
X0236538Y0200908D01*
X0237100Y0197709D02*
X0230600Y0197709D01*
X0230600Y0194511D02*
X0237100Y0194511D01*
X0237100Y0191312D02*
X0230600Y0191312D01*
X0230600Y0188114D02*
X0237100Y0188114D01*
X0237100Y0184915D02*
X0230600Y0184915D01*
X0230600Y0181717D02*
X0237100Y0181717D01*
X0237100Y0178518D02*
X0230600Y0178518D01*
X0230600Y0175320D02*
X0237100Y0175320D01*
X0237100Y0172121D02*
X0232322Y0172121D01*
X0235520Y0168923D02*
X0236751Y0168923D01*
X0243449Y0168923D02*
X0385785Y0168923D01*
X0382586Y0172121D02*
X0243100Y0172121D01*
X0243100Y0175320D02*
X0379388Y0175320D01*
X0376189Y0178518D02*
X0243100Y0178518D01*
X0243100Y0181717D02*
X0372991Y0181717D01*
X0369792Y0184915D02*
X0243100Y0184915D01*
X0243100Y0188114D02*
X0366594Y0188114D01*
X0363395Y0191312D02*
X0243100Y0191312D01*
X0243100Y0194511D02*
X0360197Y0194511D01*
X0356998Y0197709D02*
X0243100Y0197709D01*
X0243662Y0200908D02*
X0245714Y0200908D01*
X0254486Y0200908D02*
X0353800Y0200908D01*
X0350365Y0204106D02*
X0276085Y0204106D01*
X0275600Y0207305D02*
X0340304Y0207305D01*
X0339285Y0210503D02*
X0275600Y0210503D01*
X0253065Y0232893D02*
X0218100Y0232893D01*
X0241810Y0258481D02*
X0260303Y0258481D01*
X0235719Y0274473D02*
X0361475Y0274473D01*
X0361964Y0271275D02*
X0231768Y0271275D01*
X0228569Y0268076D02*
X0360650Y0268076D01*
X0361308Y0264878D02*
X0202871Y0264878D01*
X0193350Y0261679D02*
X0175263Y0261679D01*
X0178462Y0258481D02*
X0193350Y0258481D01*
X0174600Y0252084D02*
X0165794Y0252084D01*
X0165794Y0248885D02*
X0174600Y0248885D01*
X0174600Y0245687D02*
X0163353Y0245687D01*
X0165794Y0242488D02*
X0174600Y0242488D01*
X0174600Y0239290D02*
X0165794Y0239290D01*
X0163758Y0236091D02*
X0174600Y0236091D01*
X0174600Y0232893D02*
X0171550Y0232893D01*
X0174282Y0216900D02*
X0174600Y0216900D01*
X0174160Y0213702D02*
X0170444Y0213702D01*
X0173175Y0255282D02*
X0163568Y0255282D01*
X0268996Y0277672D02*
X0280478Y0277672D01*
X0280698Y0277512D02*
X0281582Y0277062D01*
X0282525Y0276755D01*
X0283504Y0276600D01*
X0284000Y0276600D01*
X0284496Y0276600D01*
X0285475Y0276755D01*
X0286418Y0277062D01*
X0287302Y0277512D01*
X0288104Y0278095D01*
X0288805Y0278796D01*
X0289388Y0279598D01*
X0289838Y0280482D01*
X0290145Y0281425D01*
X0290300Y0282404D01*
X0290300Y0282900D01*
X0284000Y0282900D01*
X0284000Y0282900D01*
X0284000Y0282900D01*
X0277700Y0282900D01*
X0277700Y0283396D01*
X0277855Y0284375D01*
X0278162Y0285318D01*
X0278612Y0286202D01*
X0279195Y0287004D01*
X0279896Y0287705D01*
X0280698Y0288288D01*
X0281582Y0288738D01*
X0282525Y0289045D01*
X0283504Y0289200D01*
X0284000Y0289200D01*
X0284000Y0282900D01*
X0284000Y0276600D01*
X0284000Y0282900D01*
X0284000Y0282900D01*
X0277700Y0282900D01*
X0277700Y0282404D01*
X0277855Y0281425D01*
X0278162Y0280482D01*
X0278612Y0279598D01*
X0279195Y0278796D01*
X0279896Y0278095D01*
X0280698Y0277512D01*
X0284000Y0277672D02*
X0284000Y0277672D01*
X0287522Y0277672D02*
X0360650Y0277672D01*
X0361559Y0280870D02*
X0289965Y0280870D01*
X0284000Y0280870D02*
X0284000Y0280870D01*
X0284000Y0284069D02*
X0284000Y0284069D01*
X0284000Y0287268D02*
X0284000Y0287268D01*
X0279458Y0287268D02*
X0270176Y0287268D01*
X0272100Y0284069D02*
X0277807Y0284069D01*
X0278035Y0280870D02*
X0271745Y0280870D01*
X0370429Y0211514D02*
X0370429Y0211514D01*
X0369351Y0204106D02*
X0365336Y0204106D01*
X0368535Y0200908D02*
X0372550Y0200908D01*
X0371733Y0197709D02*
X0375748Y0197709D01*
X0374932Y0194511D02*
X0378947Y0194511D01*
X0378130Y0191312D02*
X0395895Y0191312D01*
X0398259Y0188114D02*
X0381329Y0188114D01*
X0397890Y0197709D02*
X0465400Y0197709D01*
X0465400Y0194511D02*
X0401182Y0194511D01*
X0404727Y0191312D02*
X0465400Y0191312D01*
X0465400Y0188114D02*
X0404382Y0188114D01*
X0388983Y0165724D02*
X0243220Y0165724D01*
X0237617Y0162526D02*
X0392182Y0162526D01*
X0395380Y0159327D02*
X0231606Y0159327D01*
X0230887Y0156129D02*
X0398579Y0156129D01*
X0401777Y0152930D02*
X0186200Y0152930D01*
X0185600Y0149732D02*
X0404976Y0149732D01*
X0424548Y0139639D02*
X0424000Y0138316D01*
X0424000Y0136884D01*
X0424200Y0136401D01*
X0424200Y0124008D01*
X0418544Y0118352D01*
X0418061Y0118152D01*
X0417048Y0117139D01*
X0416500Y0115816D01*
X0416500Y0114384D01*
X0417048Y0113061D01*
X0418061Y0112048D01*
X0419384Y0111500D01*
X0420816Y0111500D01*
X0422139Y0112048D01*
X0423152Y0113061D01*
X0423352Y0113544D01*
X0429526Y0119718D01*
X0430482Y0120674D01*
X0431000Y0121924D01*
X0431000Y0136401D01*
X0431200Y0136884D01*
X0431200Y0138316D01*
X0430652Y0139639D01*
X0429639Y0140652D01*
X0428316Y0141200D01*
X0426884Y0141200D01*
X0425561Y0140652D01*
X0424548Y0139639D01*
X0425045Y0140136D02*
X0185600Y0140136D01*
X0185600Y0143334D02*
X0437122Y0143334D01*
X0437122Y0140136D02*
X0430155Y0140136D01*
X0431200Y0136937D02*
X0437122Y0136937D01*
X0437122Y0133739D02*
X0431000Y0133739D01*
X0431000Y0130540D02*
X0437122Y0130540D01*
X0437122Y0127342D02*
X0431000Y0127342D01*
X0431000Y0124143D02*
X0437122Y0124143D01*
X0437122Y0120945D02*
X0430595Y0120945D01*
X0427555Y0117746D02*
X0465400Y0117746D01*
X0465400Y0114548D02*
X0424356Y0114548D01*
X0421137Y0120945D02*
X0327489Y0120945D01*
X0327338Y0120482D02*
X0327645Y0121425D01*
X0327800Y0122404D01*
X0327800Y0122900D01*
X0327800Y0123396D01*
X0327645Y0124375D01*
X0327338Y0125318D01*
X0326888Y0126202D01*
X0326305Y0127004D01*
X0325604Y0127705D01*
X0324802Y0128288D01*
X0323918Y0128738D01*
X0322975Y0129045D01*
X0321996Y0129200D01*
X0321500Y0129200D01*
X0321500Y0122900D01*
X0321500Y0122900D01*
X0327800Y0122900D01*
X0321500Y0122900D01*
X0321500Y0122900D01*
X0321500Y0122900D01*
X0315200Y0122900D01*
X0315200Y0123396D01*
X0315355Y0124375D01*
X0315662Y0125318D01*
X0316112Y0126202D01*
X0316695Y0127004D01*
X0317396Y0127705D01*
X0318198Y0128288D01*
X0319082Y0128738D01*
X0320025Y0129045D01*
X0321004Y0129200D01*
X0321500Y0129200D01*
X0321500Y0122900D01*
X0321500Y0116600D01*
X0321996Y0116600D01*
X0322975Y0116755D01*
X0323918Y0117062D01*
X0324802Y0117512D01*
X0325604Y0118095D01*
X0326305Y0118796D01*
X0326888Y0119598D01*
X0327338Y0120482D01*
X0325125Y0117746D02*
X0417655Y0117746D01*
X0416500Y0114548D02*
X0185600Y0114548D01*
X0185600Y0117746D02*
X0300724Y0117746D01*
X0300358Y0117898D02*
X0302526Y0117000D01*
X0304874Y0117000D01*
X0307042Y0117898D01*
X0308702Y0119558D01*
X0309600Y0121726D01*
X0309600Y0124074D01*
X0308702Y0126242D01*
X0307042Y0127902D01*
X0304874Y0128800D01*
X0302526Y0128800D01*
X0300358Y0127902D01*
X0298698Y0126242D01*
X0297800Y0124074D01*
X0297800Y0121726D01*
X0298698Y0119558D01*
X0300358Y0117898D01*
X0298124Y0120945D02*
X0185600Y0120945D01*
X0185600Y0124143D02*
X0297829Y0124143D01*
X0299798Y0127342D02*
X0185600Y0127342D01*
X0185600Y0130540D02*
X0424200Y0130540D01*
X0424200Y0127342D02*
X0325968Y0127342D01*
X0327682Y0124143D02*
X0424200Y0124143D01*
X0424200Y0133739D02*
X0185600Y0133739D01*
X0185600Y0136937D02*
X0424000Y0136937D01*
X0465400Y0111349D02*
X0185600Y0111349D01*
X0185600Y0108151D02*
X0465400Y0108151D01*
X0465400Y0104952D02*
X0230339Y0104952D01*
X0230652Y0104639D02*
X0229639Y0105652D01*
X0228316Y0106200D01*
X0226884Y0106200D01*
X0225561Y0105652D01*
X0224548Y0104639D01*
X0224000Y0103316D01*
X0224000Y0101884D01*
X0224548Y0100561D01*
X0224600Y0100509D01*
X0224600Y0090995D01*
X0222382Y0087610D01*
X0221762Y0087353D01*
X0220749Y0086340D01*
X0220201Y0085017D01*
X0220201Y0083585D01*
X0220319Y0083300D01*
X0211425Y0083300D01*
X0210949Y0083777D01*
X0211200Y0084384D01*
X0211200Y0085816D01*
X0210652Y0087139D01*
X0209639Y0088152D01*
X0208316Y0088700D01*
X0206884Y0088700D01*
X0205561Y0088152D01*
X0204548Y0087139D01*
X0204000Y0085816D01*
X0204000Y0084384D01*
X0204400Y0083418D01*
X0204400Y0081963D01*
X0204887Y0080787D01*
X0207387Y0078287D01*
X0208287Y0077387D01*
X0209463Y0076900D01*
X0243418Y0076900D01*
X0244384Y0076500D01*
X0245816Y0076500D01*
X0247139Y0077048D01*
X0248152Y0078061D01*
X0248700Y0079384D01*
X0248700Y0080816D01*
X0248152Y0082139D01*
X0247139Y0083152D01*
X0245816Y0083700D01*
X0244384Y0083700D01*
X0243418Y0083300D01*
X0227283Y0083300D01*
X0227401Y0083585D01*
X0227401Y0084321D01*
X0229940Y0088197D01*
X0230143Y0088401D01*
X0230264Y0088692D01*
X0230436Y0088955D01*
X0230490Y0089238D01*
X0230600Y0089503D01*
X0230600Y0089818D01*
X0230659Y0090128D01*
X0230600Y0090409D01*
X0230600Y0100509D01*
X0230652Y0100561D01*
X0231200Y0101884D01*
X0231200Y0103316D01*
X0230652Y0104639D01*
X0231146Y0101754D02*
X0299810Y0101754D01*
X0300358Y0102302D02*
X0298698Y0100642D01*
X0297800Y0098474D01*
X0297800Y0096126D01*
X0298698Y0093958D01*
X0300358Y0092298D01*
X0302526Y0091400D01*
X0304874Y0091400D01*
X0307042Y0092298D01*
X0308702Y0093958D01*
X0309600Y0096126D01*
X0309600Y0098474D01*
X0308702Y0100642D01*
X0307042Y0102302D01*
X0304874Y0103200D01*
X0302526Y0103200D01*
X0300358Y0102302D01*
X0297834Y0098555D02*
X0230600Y0098555D01*
X0230600Y0095357D02*
X0298119Y0095357D01*
X0300696Y0092158D02*
X0230600Y0092158D01*
X0230437Y0088960D02*
X0261416Y0088960D01*
X0261198Y0088742D02*
X0260300Y0086574D01*
X0260300Y0084226D01*
X0261198Y0082058D01*
X0262858Y0080398D01*
X0265026Y0079500D01*
X0267374Y0079500D01*
X0269542Y0080398D01*
X0271202Y0082058D01*
X0272100Y0084226D01*
X0272100Y0086574D01*
X0271202Y0088742D01*
X0269542Y0090402D01*
X0267374Y0091300D01*
X0265026Y0091300D01*
X0262858Y0090402D01*
X0261198Y0088742D01*
X0260300Y0085761D02*
X0228344Y0085761D01*
X0223267Y0088960D02*
X0185600Y0088960D01*
X0185600Y0092158D02*
X0224600Y0092158D01*
X0224600Y0095357D02*
X0185600Y0095357D01*
X0185600Y0098555D02*
X0224600Y0098555D01*
X0224054Y0101754D02*
X0185600Y0101754D01*
X0185600Y0104952D02*
X0224861Y0104952D01*
X0220509Y0085761D02*
X0211200Y0085761D01*
X0204000Y0085761D02*
X0185600Y0085761D01*
X0185600Y0082563D02*
X0204400Y0082563D01*
X0206310Y0079364D02*
X0185600Y0079364D01*
X0179600Y0079364D02*
X0176192Y0079364D01*
X0175228Y0082563D02*
X0179600Y0082563D01*
X0179600Y0085761D02*
X0170600Y0085761D01*
X0170600Y0088960D02*
X0179600Y0088960D01*
X0179600Y0092158D02*
X0170600Y0092158D01*
X0170600Y0095357D02*
X0179600Y0095357D01*
X0179600Y0098555D02*
X0170139Y0098555D01*
X0166941Y0101754D02*
X0179600Y0101754D01*
X0179600Y0104952D02*
X0165794Y0104952D01*
X0164716Y0108151D02*
X0179600Y0108151D01*
X0179600Y0111349D02*
X0165000Y0111349D01*
X0165794Y0114548D02*
X0179600Y0114548D01*
X0179600Y0117746D02*
X0165120Y0117746D01*
X0164596Y0120945D02*
X0179600Y0120945D01*
X0179600Y0124143D02*
X0165794Y0124143D01*
X0165525Y0127342D02*
X0179600Y0127342D01*
X0179600Y0130540D02*
X0162326Y0130540D01*
X0157362Y0130540D02*
X0150600Y0130540D01*
X0150600Y0127342D02*
X0154164Y0127342D01*
X0153894Y0124143D02*
X0150600Y0124143D01*
X0150600Y0120945D02*
X0155092Y0120945D01*
X0154568Y0117746D02*
X0150600Y0117746D01*
X0150600Y0114548D02*
X0153894Y0114548D01*
X0154688Y0111349D02*
X0150600Y0111349D01*
X0150600Y0108151D02*
X0154973Y0108151D01*
X0153894Y0104952D02*
X0150600Y0104952D01*
X0150600Y0101754D02*
X0154284Y0101754D01*
X0155377Y0098555D02*
X0150600Y0098555D01*
X0150600Y0095357D02*
X0153894Y0095357D01*
X0153894Y0092158D02*
X0150600Y0092158D01*
X0150600Y0088960D02*
X0155781Y0088960D01*
X0153894Y0085761D02*
X0150600Y0085761D01*
X0150600Y0082563D02*
X0153894Y0082563D01*
X0156186Y0079364D02*
X0150600Y0079364D01*
X0150600Y0076166D02*
X0153894Y0076166D01*
X0153894Y0072967D02*
X0150600Y0072967D01*
X0150600Y0069769D02*
X0156269Y0069769D01*
X0153894Y0066570D02*
X0152124Y0066570D01*
X0164228Y0050578D02*
X0164600Y0050578D01*
X0180600Y0050578D02*
X0196047Y0050578D01*
X0195561Y0050376D02*
X0194548Y0049364D01*
X0194000Y0048040D01*
X0194000Y0046608D01*
X0194548Y0045285D01*
X0195561Y0044272D01*
X0196884Y0043724D01*
X0198316Y0043724D01*
X0199639Y0044272D01*
X0199691Y0044324D01*
X0217022Y0044324D01*
X0217048Y0044262D01*
X0218061Y0043249D01*
X0219384Y0042701D01*
X0220816Y0042701D01*
X0222139Y0043249D01*
X0223152Y0044262D01*
X0223700Y0045585D01*
X0223700Y0047017D01*
X0223152Y0048340D01*
X0222139Y0049353D01*
X0221542Y0049600D01*
X0231357Y0049600D01*
X0232100Y0048857D01*
X0232100Y0044691D01*
X0232048Y0044639D01*
X0231500Y0043316D01*
X0231500Y0041884D01*
X0232048Y0040561D01*
X0233061Y0039548D01*
X0234384Y0039000D01*
X0235816Y0039000D01*
X0237139Y0039548D01*
X0238152Y0040561D01*
X0238700Y0041884D01*
X0238700Y0043316D01*
X0238152Y0044639D01*
X0238100Y0044691D01*
X0238100Y0050697D01*
X0237643Y0051799D01*
X0235143Y0054299D01*
X0234299Y0055143D01*
X0233197Y0055600D01*
X0211343Y0055600D01*
X0211200Y0055743D01*
X0211200Y0055816D01*
X0210652Y0057139D01*
X0209639Y0058152D01*
X0208316Y0058700D01*
X0206884Y0058700D01*
X0205561Y0058152D01*
X0204548Y0057139D01*
X0204000Y0055816D01*
X0204000Y0054384D01*
X0204548Y0053061D01*
X0205561Y0052048D01*
X0206884Y0051500D01*
X0206957Y0051500D01*
X0208133Y0050324D01*
X0199691Y0050324D01*
X0199639Y0050376D01*
X0198316Y0050924D01*
X0196884Y0050924D01*
X0195561Y0050376D01*
X0194000Y0047379D02*
X0180600Y0047379D01*
X0182125Y0044181D02*
X0195782Y0044181D01*
X0199418Y0044181D02*
X0217129Y0044181D01*
X0223071Y0044181D02*
X0231858Y0044181D01*
X0231874Y0040982D02*
X0180225Y0040982D01*
X0175756Y0037784D02*
X0364297Y0037784D01*
X0364200Y0034585D02*
X0172930Y0034585D01*
X0172593Y0037784D02*
X0170600Y0037784D01*
X0173608Y0031387D02*
X0364200Y0031387D01*
X0364200Y0028188D02*
X0322702Y0028188D01*
X0320298Y0028188D02*
X0304902Y0028188D01*
X0308972Y0024990D02*
X0316228Y0024990D01*
X0315600Y0021791D02*
X0309600Y0021791D01*
X0308336Y0018593D02*
X0316864Y0018593D01*
X0326772Y0024990D02*
X0364267Y0024990D01*
X0371000Y0031387D02*
X0465400Y0031387D01*
X0465400Y0034585D02*
X0371000Y0034585D01*
X0370903Y0037784D02*
X0465400Y0037784D01*
X0465400Y0040982D02*
X0238326Y0040982D01*
X0238342Y0044181D02*
X0299075Y0044181D01*
X0298698Y0044558D02*
X0300358Y0042898D01*
X0302526Y0042000D01*
X0304874Y0042000D01*
X0307042Y0042898D01*
X0308702Y0044558D01*
X0309600Y0046726D01*
X0309600Y0049074D01*
X0308702Y0051242D01*
X0307042Y0052902D01*
X0304874Y0053800D01*
X0302526Y0053800D01*
X0300358Y0052902D01*
X0298698Y0051242D01*
X0297800Y0049074D01*
X0297800Y0046726D01*
X0298698Y0044558D01*
X0297800Y0047379D02*
X0238100Y0047379D01*
X0238100Y0050578D02*
X0298423Y0050578D01*
X0302469Y0053776D02*
X0235666Y0053776D01*
X0232100Y0047379D02*
X0223550Y0047379D01*
X0207880Y0050578D02*
X0199153Y0050578D01*
X0204252Y0053776D02*
X0180600Y0053776D01*
X0180600Y0056975D02*
X0204480Y0056975D01*
X0210720Y0056975D02*
X0260984Y0056975D01*
X0261198Y0056458D02*
X0262858Y0054798D01*
X0265026Y0053900D01*
X0267374Y0053900D01*
X0269542Y0054798D01*
X0271202Y0056458D01*
X0272100Y0058626D01*
X0272100Y0060974D01*
X0271202Y0063142D01*
X0269542Y0064802D01*
X0267374Y0065700D01*
X0265026Y0065700D01*
X0262858Y0064802D01*
X0261198Y0063142D01*
X0260300Y0060974D01*
X0260300Y0058626D01*
X0261198Y0056458D01*
X0260300Y0060173D02*
X0180600Y0060173D01*
X0180600Y0063372D02*
X0255487Y0063372D01*
X0255561Y0063298D02*
X0256884Y0062750D01*
X0258316Y0062750D01*
X0259639Y0063298D01*
X0260652Y0064311D01*
X0261200Y0065634D01*
X0261200Y0067066D01*
X0260652Y0068389D01*
X0260600Y0068441D01*
X0260600Y0076759D01*
X0260652Y0076811D01*
X0261200Y0078134D01*
X0261200Y0079566D01*
X0260652Y0080889D01*
X0259639Y0081902D01*
X0258316Y0082450D01*
X0256884Y0082450D01*
X0255561Y0081902D01*
X0254548Y0080889D01*
X0254000Y0079566D01*
X0254000Y0078134D01*
X0254548Y0076811D01*
X0254600Y0076759D01*
X0254600Y0068441D01*
X0254548Y0068389D01*
X0254000Y0067066D01*
X0254000Y0065634D01*
X0254548Y0064311D01*
X0255561Y0063298D01*
X0254000Y0066570D02*
X0183486Y0066570D01*
X0181714Y0066570D02*
X0180600Y0066570D01*
X0186200Y0069769D02*
X0254600Y0069769D01*
X0254600Y0072967D02*
X0185600Y0072967D01*
X0185600Y0076166D02*
X0254600Y0076166D01*
X0260600Y0076166D02*
X0465400Y0076166D01*
X0465400Y0072967D02*
X0443016Y0072967D01*
X0443345Y0072638D02*
X0442638Y0073345D01*
X0441845Y0073954D01*
X0440980Y0074453D01*
X0440056Y0074836D01*
X0439091Y0075095D01*
X0438100Y0075225D01*
X0437675Y0075225D01*
X0437675Y0067675D01*
X0437525Y0067675D01*
X0437525Y0075225D01*
X0437100Y0075225D01*
X0436109Y0075095D01*
X0435144Y0074836D01*
X0434220Y0074453D01*
X0433355Y0073954D01*
X0432562Y0073345D01*
X0431855Y0072638D01*
X0431246Y0071845D01*
X0430747Y0070980D01*
X0430364Y0070056D01*
X0430105Y0069091D01*
X0429975Y0068100D01*
X0429975Y0067675D01*
X0437525Y0067675D01*
X0437525Y0067525D01*
X0429975Y0067525D01*
X0429975Y0067100D01*
X0430105Y0066109D01*
X0430364Y0065144D01*
X0430747Y0064220D01*
X0431246Y0063355D01*
X0431855Y0062562D01*
X0432562Y0061855D01*
X0433355Y0061246D01*
X0434220Y0060747D01*
X0435144Y0060364D01*
X0436109Y0060105D01*
X0437100Y0059975D01*
X0437525Y0059975D01*
X0437525Y0067525D01*
X0437675Y0067525D01*
X0437675Y0067675D01*
X0445225Y0067675D01*
X0445225Y0068100D01*
X0445095Y0069091D01*
X0444836Y0070056D01*
X0444453Y0070980D01*
X0443954Y0071845D01*
X0443345Y0072638D01*
X0444913Y0069769D02*
X0465400Y0069769D01*
X0465400Y0066570D02*
X0445155Y0066570D01*
X0445095Y0066109D02*
X0445225Y0067100D01*
X0445225Y0067525D01*
X0437675Y0067525D01*
X0437675Y0059975D01*
X0438100Y0059975D01*
X0439091Y0060105D01*
X0440056Y0060364D01*
X0440980Y0060747D01*
X0441845Y0061246D01*
X0442638Y0061855D01*
X0443345Y0062562D01*
X0443954Y0063355D01*
X0444453Y0064220D01*
X0444836Y0065144D01*
X0445095Y0066109D01*
X0443963Y0063372D02*
X0465400Y0063372D01*
X0465400Y0060173D02*
X0439344Y0060173D01*
X0437675Y0060173D02*
X0437525Y0060173D01*
X0435856Y0060173D02*
X0364900Y0060173D01*
X0364900Y0060974D02*
X0364002Y0063142D01*
X0362342Y0064802D01*
X0360174Y0065700D01*
X0357826Y0065700D01*
X0355658Y0064802D01*
X0353998Y0063142D01*
X0353100Y0060974D01*
X0353100Y0058626D01*
X0353998Y0056458D01*
X0355658Y0054798D01*
X0357826Y0053900D01*
X0360174Y0053900D01*
X0362342Y0054798D01*
X0364002Y0056458D01*
X0364900Y0058626D01*
X0364900Y0060974D01*
X0363772Y0063372D02*
X0381611Y0063372D01*
X0381475Y0063507D02*
X0383507Y0061475D01*
X0386163Y0060375D01*
X0389037Y0060375D01*
X0391693Y0061475D01*
X0393725Y0063507D01*
X0394825Y0066163D01*
X0394825Y0069037D01*
X0393725Y0071693D01*
X0391693Y0073725D01*
X0389037Y0074825D01*
X0386163Y0074825D01*
X0383507Y0073725D01*
X0381475Y0071693D01*
X0380375Y0069037D01*
X0380375Y0066163D01*
X0381475Y0063507D01*
X0380375Y0066570D02*
X0261200Y0066570D01*
X0261428Y0063372D02*
X0259713Y0063372D01*
X0260600Y0069769D02*
X0380678Y0069769D01*
X0382750Y0072967D02*
X0260600Y0072967D01*
X0261200Y0079364D02*
X0282189Y0079364D01*
X0282525Y0079255D02*
X0283504Y0079100D01*
X0284000Y0079100D01*
X0284496Y0079100D01*
X0285475Y0079255D01*
X0286418Y0079562D01*
X0287302Y0080012D01*
X0288104Y0080595D01*
X0288805Y0081296D01*
X0289388Y0082098D01*
X0289838Y0082982D01*
X0290145Y0083925D01*
X0290300Y0084904D01*
X0290300Y0085400D01*
X0290300Y0085896D01*
X0290145Y0086875D01*
X0289838Y0087818D01*
X0289388Y0088702D01*
X0288805Y0089504D01*
X0288104Y0090205D01*
X0287302Y0090788D01*
X0286418Y0091238D01*
X0285475Y0091545D01*
X0284496Y0091700D01*
X0284000Y0091700D01*
X0284000Y0085400D01*
X0284000Y0085400D01*
X0290300Y0085400D01*
X0284000Y0085400D01*
X0284000Y0085400D01*
X0284000Y0085400D01*
X0277700Y0085400D01*
X0277700Y0085896D01*
X0277855Y0086875D01*
X0278162Y0087818D01*
X0278612Y0088702D01*
X0279195Y0089504D01*
X0279896Y0090205D01*
X0280698Y0090788D01*
X0281582Y0091238D01*
X0282525Y0091545D01*
X0283504Y0091700D01*
X0284000Y0091700D01*
X0284000Y0085400D01*
X0284000Y0079100D01*
X0284000Y0085400D01*
X0284000Y0085400D01*
X0277700Y0085400D01*
X0277700Y0084904D01*
X0277855Y0083925D01*
X0278162Y0082982D01*
X0278612Y0082098D01*
X0279195Y0081296D01*
X0279896Y0080595D01*
X0280698Y0080012D01*
X0281582Y0079562D01*
X0282525Y0079255D01*
X0284000Y0079364D02*
X0284000Y0079364D01*
X0285811Y0079364D02*
X0357189Y0079364D01*
X0357525Y0079255D02*
X0356582Y0079562D01*
X0355698Y0080012D01*
X0354896Y0080595D01*
X0354195Y0081296D01*
X0353612Y0082098D01*
X0353162Y0082982D01*
X0352855Y0083925D01*
X0352700Y0084904D01*
X0352700Y0085400D01*
X0359000Y0085400D01*
X0359000Y0085400D01*
X0359000Y0091700D01*
X0359496Y0091700D01*
X0360475Y0091545D01*
X0361418Y0091238D01*
X0362302Y0090788D01*
X0363104Y0090205D01*
X0363805Y0089504D01*
X0364388Y0088702D01*
X0364838Y0087818D01*
X0365145Y0086875D01*
X0365300Y0085896D01*
X0365300Y0085400D01*
X0359000Y0085400D01*
X0359000Y0085400D01*
X0359000Y0085400D01*
X0359000Y0091700D01*
X0358504Y0091700D01*
X0357525Y0091545D01*
X0356582Y0091238D01*
X0355698Y0090788D01*
X0354896Y0090205D01*
X0354195Y0089504D01*
X0353612Y0088702D01*
X0353162Y0087818D01*
X0352855Y0086875D01*
X0352700Y0085896D01*
X0352700Y0085400D01*
X0359000Y0085400D01*
X0365300Y0085400D01*
X0365300Y0084904D01*
X0365145Y0083925D01*
X0364838Y0082982D01*
X0364388Y0082098D01*
X0363805Y0081296D01*
X0363104Y0080595D01*
X0362302Y0080012D01*
X0361418Y0079562D01*
X0360475Y0079255D01*
X0359496Y0079100D01*
X0359000Y0079100D01*
X0359000Y0085400D01*
X0359000Y0085400D01*
X0359000Y0079100D01*
X0358504Y0079100D01*
X0357525Y0079255D01*
X0359000Y0079364D02*
X0359000Y0079364D01*
X0360811Y0079364D02*
X0465400Y0079364D01*
X0465400Y0082563D02*
X0364625Y0082563D01*
X0365300Y0085761D02*
X0465400Y0085761D01*
X0465400Y0088960D02*
X0364201Y0088960D01*
X0359000Y0088960D02*
X0359000Y0088960D01*
X0359000Y0085761D02*
X0359000Y0085761D01*
X0359000Y0082563D02*
X0359000Y0082563D01*
X0353375Y0082563D02*
X0346411Y0082563D01*
X0346202Y0082058D02*
X0347100Y0084226D01*
X0347100Y0086574D01*
X0346202Y0088742D01*
X0344542Y0090402D01*
X0342374Y0091300D01*
X0340026Y0091300D01*
X0337858Y0090402D01*
X0336198Y0088742D01*
X0335300Y0086574D01*
X0335300Y0084226D01*
X0336198Y0082058D01*
X0337858Y0080398D01*
X0340026Y0079500D01*
X0342374Y0079500D01*
X0344542Y0080398D01*
X0346202Y0082058D01*
X0347100Y0085761D02*
X0352700Y0085761D01*
X0353799Y0088960D02*
X0345984Y0088960D01*
X0336416Y0088960D02*
X0289201Y0088960D01*
X0290300Y0085761D02*
X0335300Y0085761D01*
X0335989Y0082563D02*
X0289625Y0082563D01*
X0284000Y0082563D02*
X0284000Y0082563D01*
X0284000Y0085761D02*
X0284000Y0085761D01*
X0284000Y0088960D02*
X0284000Y0088960D01*
X0278799Y0088960D02*
X0270984Y0088960D01*
X0272100Y0085761D02*
X0277700Y0085761D01*
X0278375Y0082563D02*
X0271411Y0082563D01*
X0260989Y0082563D02*
X0247728Y0082563D01*
X0248692Y0079364D02*
X0254000Y0079364D01*
X0278998Y0063142D02*
X0280658Y0064802D01*
X0282826Y0065700D01*
X0285174Y0065700D01*
X0287342Y0064802D01*
X0289002Y0063142D01*
X0289900Y0060974D01*
X0289900Y0058626D01*
X0289002Y0056458D01*
X0287342Y0054798D01*
X0285174Y0053900D01*
X0282826Y0053900D01*
X0280658Y0054798D01*
X0278998Y0056458D01*
X0278100Y0058626D01*
X0278100Y0060974D01*
X0278998Y0063142D01*
X0279228Y0063372D02*
X0270972Y0063372D01*
X0272100Y0060173D02*
X0278100Y0060173D01*
X0278784Y0056975D02*
X0271416Y0056975D01*
X0289216Y0056975D02*
X0335984Y0056975D01*
X0336198Y0056458D02*
X0337858Y0054798D01*
X0340026Y0053900D01*
X0342374Y0053900D01*
X0344542Y0054798D01*
X0346202Y0056458D01*
X0347100Y0058626D01*
X0347100Y0060974D01*
X0346202Y0063142D01*
X0344542Y0064802D01*
X0342374Y0065700D01*
X0340026Y0065700D01*
X0337858Y0064802D01*
X0336198Y0063142D01*
X0335300Y0060974D01*
X0335300Y0058626D01*
X0336198Y0056458D01*
X0335300Y0060173D02*
X0289900Y0060173D01*
X0288772Y0063372D02*
X0336428Y0063372D01*
X0345972Y0063372D02*
X0354228Y0063372D01*
X0353100Y0060173D02*
X0347100Y0060173D01*
X0346416Y0056975D02*
X0353784Y0056975D01*
X0364216Y0056975D02*
X0465400Y0056975D01*
X0465400Y0053776D02*
X0323802Y0053776D01*
X0323918Y0053738D02*
X0322975Y0054045D01*
X0321996Y0054200D01*
X0321500Y0054200D01*
X0321500Y0047900D01*
X0321500Y0047900D01*
X0327800Y0047900D01*
X0327800Y0048396D01*
X0327645Y0049375D01*
X0327338Y0050318D01*
X0326888Y0051202D01*
X0326305Y0052004D01*
X0325604Y0052705D01*
X0324802Y0053288D01*
X0323918Y0053738D01*
X0321500Y0053776D02*
X0321500Y0053776D01*
X0321500Y0054200D02*
X0321004Y0054200D01*
X0320025Y0054045D01*
X0319082Y0053738D01*
X0318198Y0053288D01*
X0317396Y0052705D01*
X0316695Y0052004D01*
X0316112Y0051202D01*
X0315662Y0050318D01*
X0315355Y0049375D01*
X0315200Y0048396D01*
X0315200Y0047900D01*
X0321500Y0047900D01*
X0321500Y0047900D01*
X0321500Y0047900D01*
X0321500Y0054200D01*
X0319198Y0053776D02*
X0304931Y0053776D01*
X0308977Y0050578D02*
X0315794Y0050578D01*
X0315200Y0047900D02*
X0315200Y0047404D01*
X0315355Y0046425D01*
X0315662Y0045482D01*
X0316112Y0044598D01*
X0316695Y0043796D01*
X0317396Y0043095D01*
X0318198Y0042512D01*
X0319082Y0042062D01*
X0320025Y0041755D01*
X0321004Y0041600D01*
X0321500Y0041600D01*
X0321996Y0041600D01*
X0322975Y0041755D01*
X0323918Y0042062D01*
X0324802Y0042512D01*
X0325604Y0043095D01*
X0326305Y0043796D01*
X0326888Y0044598D01*
X0327338Y0045482D01*
X0327645Y0046425D01*
X0327800Y0047404D01*
X0327800Y0047900D01*
X0321500Y0047900D01*
X0321500Y0041600D01*
X0321500Y0047900D01*
X0321500Y0047900D01*
X0315200Y0047900D01*
X0315204Y0047379D02*
X0309600Y0047379D01*
X0308325Y0044181D02*
X0316415Y0044181D01*
X0321500Y0044181D02*
X0321500Y0044181D01*
X0321500Y0047379D02*
X0321500Y0047379D01*
X0321500Y0050578D02*
X0321500Y0050578D01*
X0327206Y0050578D02*
X0465400Y0050578D01*
X0465400Y0047379D02*
X0327796Y0047379D01*
X0326585Y0044181D02*
X0465400Y0044181D01*
X0437675Y0063372D02*
X0437525Y0063372D01*
X0437525Y0066570D02*
X0437675Y0066570D01*
X0437675Y0069769D02*
X0437525Y0069769D01*
X0437525Y0072967D02*
X0437675Y0072967D01*
X0432184Y0072967D02*
X0392450Y0072967D01*
X0394522Y0069769D02*
X0430287Y0069769D01*
X0430045Y0066570D02*
X0394825Y0066570D01*
X0393589Y0063372D02*
X0431237Y0063372D01*
X0436163Y0090375D02*
X0439037Y0090375D01*
X0441693Y0091475D01*
X0443725Y0093507D01*
X0444825Y0096163D01*
X0444825Y0099037D01*
X0443725Y0101693D01*
X0441693Y0103725D01*
X0439037Y0104825D01*
X0436163Y0104825D01*
X0433507Y0103725D01*
X0431475Y0101693D01*
X0430375Y0099037D01*
X0430375Y0096163D01*
X0431475Y0093507D01*
X0433507Y0091475D01*
X0436163Y0090375D01*
X0432824Y0092158D02*
X0392376Y0092158D01*
X0391693Y0091475D02*
X0393725Y0093507D01*
X0394825Y0096163D01*
X0394825Y0099037D01*
X0393725Y0101693D01*
X0391693Y0103725D01*
X0389037Y0104825D01*
X0386163Y0104825D01*
X0383507Y0103725D01*
X0381475Y0101693D01*
X0380375Y0099037D01*
X0380375Y0096163D01*
X0381475Y0093507D01*
X0383507Y0091475D01*
X0386163Y0090375D01*
X0389037Y0090375D01*
X0391693Y0091475D01*
X0394491Y0095357D02*
X0430709Y0095357D01*
X0430375Y0098555D02*
X0394825Y0098555D01*
X0393664Y0101754D02*
X0431536Y0101754D01*
X0443664Y0101754D02*
X0465400Y0101754D01*
X0465400Y0098555D02*
X0444825Y0098555D01*
X0444491Y0095357D02*
X0465400Y0095357D01*
X0465400Y0092158D02*
X0442376Y0092158D01*
X0382824Y0092158D02*
X0324504Y0092158D01*
X0324842Y0092298D02*
X0326502Y0093958D01*
X0327400Y0096126D01*
X0327400Y0098474D01*
X0326502Y0100642D01*
X0324842Y0102302D01*
X0322674Y0103200D01*
X0320326Y0103200D01*
X0318158Y0102302D01*
X0316498Y0100642D01*
X0315600Y0098474D01*
X0315600Y0096126D01*
X0316498Y0093958D01*
X0318158Y0092298D01*
X0320326Y0091400D01*
X0322674Y0091400D01*
X0324842Y0092298D01*
X0327081Y0095357D02*
X0380709Y0095357D01*
X0380375Y0098555D02*
X0327366Y0098555D01*
X0325390Y0101754D02*
X0381536Y0101754D01*
X0321500Y0116600D02*
X0321500Y0122900D01*
X0321500Y0122900D01*
X0315200Y0122900D01*
X0315200Y0122404D01*
X0315355Y0121425D01*
X0315662Y0120482D01*
X0316112Y0119598D01*
X0316695Y0118796D01*
X0317396Y0118095D01*
X0318198Y0117512D01*
X0319082Y0117062D01*
X0320025Y0116755D01*
X0321004Y0116600D01*
X0321500Y0116600D01*
X0321500Y0117746D02*
X0321500Y0117746D01*
X0321500Y0120945D02*
X0321500Y0120945D01*
X0321500Y0124143D02*
X0321500Y0124143D01*
X0321500Y0127342D02*
X0321500Y0127342D01*
X0317032Y0127342D02*
X0307602Y0127342D01*
X0309571Y0124143D02*
X0315318Y0124143D01*
X0315511Y0120945D02*
X0309276Y0120945D01*
X0306676Y0117746D02*
X0317875Y0117746D01*
X0317610Y0101754D02*
X0307590Y0101754D01*
X0309566Y0098555D02*
X0315634Y0098555D01*
X0315919Y0095357D02*
X0309281Y0095357D01*
X0306704Y0092158D02*
X0318496Y0092158D01*
X0218432Y0162526D02*
X0205117Y0162526D01*
X0206200Y0165724D02*
X0215233Y0165724D01*
X0215901Y0165057D02*
X0215901Y0165057D01*
X0198981Y0165724D02*
X0159465Y0165724D01*
X0147130Y0172121D02*
X0050600Y0172121D01*
X0050600Y0168923D02*
X0144600Y0168923D01*
X0144600Y0165724D02*
X0050600Y0165724D01*
X0050600Y0162526D02*
X0144600Y0162526D01*
X0144600Y0159327D02*
X0050600Y0159327D01*
X0050600Y0156129D02*
X0144600Y0156129D01*
X0144600Y0152930D02*
X0050600Y0152930D01*
X0050600Y0149732D02*
X0144600Y0149732D01*
X0144600Y0146533D02*
X0050600Y0146533D01*
X0044600Y0146533D02*
X0034800Y0146533D01*
X0034800Y0149732D02*
X0044600Y0149732D01*
X0044600Y0152930D02*
X0034800Y0152930D01*
X0034800Y0156129D02*
X0044600Y0156129D01*
X0044600Y0159327D02*
X0034800Y0159327D01*
X0034800Y0162526D02*
X0044600Y0162526D01*
X0044600Y0165724D02*
X0034800Y0165724D01*
X0034800Y0168923D02*
X0044600Y0168923D01*
X0044600Y0172121D02*
X0034800Y0172121D01*
X0034433Y0175320D02*
X0044600Y0175320D01*
X0044600Y0178518D02*
X0032797Y0178518D01*
X0033630Y0177525D02*
X0033630Y0177525D01*
X0031431Y0180145D02*
X0031431Y0180145D01*
X0031431Y0180145D01*
X0150600Y0156129D02*
X0161629Y0156129D01*
X0158687Y0152930D02*
X0150600Y0152930D01*
X0150600Y0149732D02*
X0155489Y0149732D01*
X0152290Y0146533D02*
X0150600Y0146533D01*
X0157577Y0143334D02*
X0179600Y0143334D01*
X0179600Y0140136D02*
X0155188Y0140136D01*
X0150600Y0136937D02*
X0179600Y0136937D01*
X0179600Y0133739D02*
X0150600Y0133739D01*
X0175600Y0076166D02*
X0176801Y0076166D01*
X0178399Y0076166D02*
X0179600Y0076166D01*
X0393111Y0232893D02*
X0432089Y0232893D01*
X0430405Y0236091D02*
X0394795Y0236091D01*
X0394720Y0239290D02*
X0430480Y0239290D01*
X0432271Y0242488D02*
X0392929Y0242488D01*
X0461400Y0293665D02*
X0008800Y0293665D01*
X0012116Y0296863D02*
X0458084Y0296863D01*
X0450585Y0300062D02*
X0019615Y0300062D01*
X0436350Y0015394D02*
X0436350Y0015394D01*
X0436350Y0012196D02*
X0436350Y0012196D01*
M02*
