G75*
%MOIN*%
%OFA0B0*%
%FSLAX25Y25*%
%IPPOS*%
%LPD*%
%AMOC8*
5,1,8,0,0,1.08239X$1,22.5*
%
%ADD10OC8,0.07500*%
%ADD11C,0.07400*%
%ADD12C,0.07000*%
%ADD13R,0.01500X0.05000*%
%ADD14C,0.10050*%
%ADD15C,0.02800*%
%ADD16C,0.01600*%
%ADD17C,0.05000*%
%ADD18C,0.02000*%
%ADD19C,0.03200*%
D10*
X0065356Y0087108D03*
X0065356Y0097108D03*
X0065356Y0107108D03*
X0065356Y0117108D03*
X0065356Y0127108D03*
X0065356Y0137108D03*
X0065356Y0147108D03*
X0065356Y0157108D03*
X0065356Y0213092D03*
X0065356Y0223092D03*
X0065356Y0233092D03*
X0065356Y0243092D03*
X0065356Y0253092D03*
X0065356Y0263092D03*
X0065356Y0273092D03*
X0065356Y0283092D03*
X0159844Y0283092D03*
X0159844Y0273092D03*
X0159844Y0263092D03*
X0159844Y0253092D03*
X0159844Y0243092D03*
X0159844Y0233092D03*
X0159844Y0223092D03*
X0159844Y0213092D03*
X0159844Y0157108D03*
X0159844Y0147108D03*
X0159844Y0137108D03*
X0159844Y0127108D03*
X0159844Y0117108D03*
X0159844Y0107108D03*
X0159844Y0097108D03*
X0159844Y0087108D03*
D11*
X0256200Y0099800D03*
X0274000Y0099800D03*
X0303700Y0077900D03*
X0321500Y0077900D03*
X0351200Y0099800D03*
X0369000Y0099800D03*
X0369000Y0125400D03*
X0351200Y0125400D03*
X0321500Y0147300D03*
X0303700Y0147300D03*
X0274000Y0125400D03*
X0256200Y0125400D03*
X0303700Y0172900D03*
X0321500Y0172900D03*
X0331200Y0269800D03*
X0349000Y0269800D03*
X0349000Y0295400D03*
X0331200Y0295400D03*
X0284000Y0297300D03*
X0266200Y0297300D03*
X0266200Y0322900D03*
X0284000Y0322900D03*
X0137600Y0367600D03*
X0127600Y0367600D03*
X0117600Y0367600D03*
X0107600Y0367600D03*
X0097600Y0367600D03*
X0087600Y0367600D03*
X0303700Y0052300D03*
X0321500Y0052300D03*
D12*
X0375100Y0312600D03*
X0375100Y0322600D03*
D13*
X0375100Y0317600D03*
D14*
X0427600Y0267600D03*
X0462600Y0267600D03*
X0462600Y0237600D03*
X0427600Y0237600D03*
X0427600Y0127600D03*
X0462600Y0127600D03*
X0462600Y0097600D03*
X0427600Y0097600D03*
D15*
X0400100Y0097600D03*
X0390100Y0067600D03*
X0265100Y0080100D03*
X0265100Y0095100D03*
X0245100Y0112600D03*
X0223801Y0116801D03*
X0207600Y0117600D03*
X0207600Y0127600D03*
X0227600Y0135100D03*
X0182600Y0102600D03*
X0177600Y0105100D03*
X0172600Y0112600D03*
X0207600Y0087600D03*
X0197600Y0079824D03*
X0178525Y0076675D03*
X0174175Y0073525D03*
X0170100Y0064824D03*
X0210946Y0058446D03*
X0235100Y0075100D03*
X0220100Y0078801D03*
X0230100Y0096350D03*
X0227600Y0172600D03*
X0227600Y0190100D03*
X0230100Y0195100D03*
X0235100Y0197600D03*
X0240100Y0200100D03*
X0235100Y0220100D03*
X0240100Y0232600D03*
X0250100Y0235100D03*
X0257600Y0240100D03*
X0262600Y0240100D03*
X0267600Y0240100D03*
X0272600Y0240100D03*
X0250100Y0257600D03*
X0225100Y0262600D03*
X0218850Y0250100D03*
X0211350Y0252600D03*
X0215100Y0242600D03*
X0207600Y0232600D03*
X0202600Y0227600D03*
X0197600Y0227600D03*
X0202600Y0217600D03*
X0212600Y0222600D03*
X0217600Y0227600D03*
X0192600Y0212600D03*
X0202600Y0197600D03*
X0182600Y0185100D03*
X0165100Y0187600D03*
X0157600Y0195100D03*
X0152108Y0174608D03*
X0177600Y0245100D03*
X0172600Y0252600D03*
X0177600Y0262600D03*
X0202600Y0273092D03*
X0207600Y0267600D03*
X0215100Y0275100D03*
X0220100Y0280100D03*
X0222600Y0275100D03*
X0225100Y0285100D03*
X0238850Y0288850D03*
X0237600Y0295946D03*
X0223801Y0306301D03*
X0232600Y0308850D03*
X0208550Y0320100D03*
X0207600Y0283850D03*
X0192108Y0283092D03*
X0345100Y0337600D03*
X0365100Y0330100D03*
X0385100Y0312600D03*
X0390100Y0310100D03*
X0382600Y0293850D03*
X0386822Y0290572D03*
X0367600Y0305100D03*
X0361350Y0297600D03*
X0363850Y0293850D03*
X0362600Y0285100D03*
X0382600Y0272600D03*
X0408850Y0258850D03*
X0383850Y0225100D03*
X0390100Y0210100D03*
X0350100Y0238850D03*
X0350100Y0252600D03*
X0415100Y0301350D03*
X0418850Y0297600D03*
X0427600Y0305100D03*
X0415100Y0310100D03*
X0412600Y0330100D03*
X0410100Y0337600D03*
X0390100Y0341350D03*
X0390100Y0351350D03*
X0465100Y0282600D03*
X0095376Y0079824D03*
X0052600Y0132600D03*
D16*
X0058092Y0127108D01*
X0065356Y0127108D01*
X0065356Y0117108D02*
X0077600Y0104864D01*
X0077600Y0097600D01*
X0095376Y0079824D01*
X0147600Y0099352D02*
X0147600Y0200848D01*
X0159844Y0213092D01*
X0164352Y0217600D01*
X0202600Y0217600D01*
X0212108Y0223092D02*
X0212600Y0222600D01*
X0212108Y0223092D02*
X0159844Y0223092D01*
X0159844Y0243092D02*
X0163092Y0243092D01*
X0172600Y0252600D01*
X0177600Y0255100D02*
X0169608Y0263092D01*
X0159844Y0263092D01*
X0177600Y0262600D02*
X0177600Y0287600D01*
X0172600Y0292600D01*
X0082600Y0292600D01*
X0077600Y0287600D01*
X0077600Y0252600D01*
X0068092Y0243092D01*
X0065356Y0243092D01*
X0047600Y0272600D02*
X0058092Y0283092D01*
X0065356Y0283092D01*
X0047600Y0272600D02*
X0047600Y0167600D01*
X0058092Y0157108D01*
X0065356Y0157108D01*
X0147600Y0099352D02*
X0159844Y0087108D01*
X0172600Y0075100D02*
X0172600Y0112600D01*
X0177600Y0105100D02*
X0177600Y0077600D01*
X0178525Y0076675D01*
X0174175Y0073525D02*
X0172600Y0075100D01*
X0167600Y0067600D02*
X0167600Y0129352D01*
X0159844Y0137108D01*
X0182600Y0102600D02*
X0182600Y0185100D01*
X0165100Y0187600D02*
X0152108Y0174608D01*
X0157600Y0195100D02*
X0200100Y0195100D01*
X0202600Y0197600D01*
X0217600Y0200100D02*
X0217600Y0227600D01*
X0222600Y0230100D02*
X0217600Y0235100D01*
X0217600Y0240100D01*
X0215100Y0242600D01*
X0215100Y0268850D01*
X0198850Y0285100D01*
X0198850Y0297600D01*
X0203850Y0302600D01*
X0226350Y0302600D01*
X0232600Y0308850D01*
X0223801Y0306301D02*
X0222600Y0305100D01*
X0201350Y0305100D01*
X0196350Y0300100D01*
X0196350Y0283850D01*
X0211350Y0268850D01*
X0211350Y0252600D01*
X0218850Y0250100D02*
X0222600Y0246350D01*
X0222600Y0237600D01*
X0227600Y0232600D01*
X0227600Y0205100D01*
X0235100Y0197600D01*
X0230100Y0195100D02*
X0222600Y0202600D01*
X0222600Y0230100D01*
X0207600Y0232600D02*
X0207600Y0267600D01*
X0202600Y0273092D02*
X0202600Y0227600D01*
X0197600Y0227600D02*
X0197600Y0277600D01*
X0192108Y0283092D01*
X0207600Y0283850D02*
X0216350Y0283850D01*
X0221350Y0288850D01*
X0238850Y0288850D01*
X0225100Y0285100D02*
X0260100Y0285100D01*
X0272600Y0272600D01*
X0272600Y0240100D01*
X0267600Y0240100D02*
X0267600Y0270100D01*
X0257600Y0280100D01*
X0220100Y0280100D01*
X0222600Y0275100D02*
X0255100Y0275100D01*
X0262600Y0267600D01*
X0262600Y0240100D01*
X0257600Y0240100D02*
X0257600Y0265100D01*
X0252600Y0270100D01*
X0220100Y0270100D01*
X0215100Y0275100D01*
X0177600Y0255100D02*
X0177600Y0245100D01*
X0217600Y0200100D02*
X0227600Y0190100D01*
X0240100Y0200100D02*
X0240100Y0232600D01*
X0350100Y0238850D02*
X0350100Y0252600D01*
X0362600Y0285100D02*
X0368072Y0290572D01*
X0386822Y0290572D01*
X0382600Y0293850D02*
X0363850Y0293850D01*
X0361350Y0297600D02*
X0418850Y0297600D01*
X0390100Y0317600D02*
X0385100Y0312600D01*
X0381350Y0301350D02*
X0377600Y0301350D01*
X0408850Y0258850D02*
X0408850Y0212600D01*
X0406350Y0210100D01*
X0390100Y0210100D01*
X0265100Y0095100D02*
X0265100Y0080100D01*
X0235100Y0082600D02*
X0235100Y0075100D01*
X0235100Y0082600D02*
X0232600Y0085100D01*
X0210100Y0085100D01*
X0207600Y0087600D01*
X0197600Y0079824D02*
X0219076Y0079824D01*
X0220100Y0078801D01*
X0223801Y0116801D02*
X0227600Y0122600D01*
X0227600Y0135100D01*
X0167600Y0067600D02*
X0170100Y0065100D01*
X0170100Y0064824D01*
D17*
X0250100Y0235100D02*
X0250100Y0257600D01*
D18*
X0345100Y0337600D02*
X0410100Y0337600D01*
X0412600Y0330100D02*
X0365100Y0330100D01*
X0390100Y0341350D02*
X0390100Y0351350D01*
X0390100Y0317600D02*
X0415100Y0317600D01*
X0427600Y0305100D01*
X0415100Y0301350D02*
X0381350Y0301350D01*
X0371350Y0301350D01*
X0367600Y0305100D01*
X0390100Y0310100D02*
X0415100Y0310100D01*
X0207600Y0117600D02*
X0207600Y0115100D01*
X0210100Y0112600D01*
X0245100Y0112600D01*
D19*
X0010013Y0010013D02*
X0007528Y0013130D01*
X0005799Y0016721D01*
X0004912Y0020607D01*
X0004800Y0022600D01*
X0004800Y0352600D01*
X0004912Y0354593D01*
X0005799Y0358479D01*
X0007528Y0362070D01*
X0010013Y0365187D01*
X0013130Y0367672D01*
X0016721Y0369401D01*
X0020607Y0370288D01*
X0022600Y0370400D01*
X0081956Y0370400D01*
X0081762Y0370018D01*
X0081455Y0369075D01*
X0081300Y0368096D01*
X0081300Y0367600D01*
X0087600Y0367600D01*
X0087600Y0367600D01*
X0087600Y0361300D01*
X0088096Y0361300D01*
X0089075Y0361455D01*
X0090018Y0361762D01*
X0090902Y0362212D01*
X0091704Y0362795D01*
X0092405Y0363496D01*
X0092807Y0364049D01*
X0094258Y0362598D01*
X0096426Y0361700D01*
X0098774Y0361700D01*
X0100942Y0362598D01*
X0102600Y0364256D01*
X0104258Y0362598D01*
X0106426Y0361700D01*
X0108774Y0361700D01*
X0110942Y0362598D01*
X0112600Y0364256D01*
X0114258Y0362598D01*
X0116426Y0361700D01*
X0118774Y0361700D01*
X0120942Y0362598D01*
X0122600Y0364256D01*
X0124258Y0362598D01*
X0126426Y0361700D01*
X0128774Y0361700D01*
X0130942Y0362598D01*
X0132600Y0364256D01*
X0134258Y0362598D01*
X0136426Y0361700D01*
X0138774Y0361700D01*
X0140942Y0362598D01*
X0142602Y0364258D01*
X0143500Y0366426D01*
X0143500Y0368774D01*
X0142826Y0370400D01*
X0394504Y0370400D01*
X0394504Y0343059D01*
X0395441Y0342122D01*
X0459759Y0342122D01*
X0460696Y0343059D01*
X0460696Y0370400D01*
X0472600Y0370400D01*
X0474593Y0370288D01*
X0478479Y0369401D01*
X0482070Y0367672D01*
X0485186Y0365186D01*
X0487672Y0362070D01*
X0489401Y0358479D01*
X0490288Y0354593D01*
X0490400Y0352600D01*
X0490400Y0022600D01*
X0490288Y0020607D01*
X0489401Y0016721D01*
X0487672Y0013130D01*
X0485186Y0010013D01*
X0482070Y0007528D01*
X0478479Y0005799D01*
X0474593Y0004912D01*
X0472600Y0004800D01*
X0022600Y0004800D01*
X0020607Y0004912D01*
X0016721Y0005799D01*
X0013130Y0007528D01*
X0010013Y0010013D01*
X0011288Y0008997D02*
X0483912Y0008997D01*
X0486927Y0012196D02*
X0008273Y0012196D01*
X0006438Y0015394D02*
X0488762Y0015394D01*
X0489828Y0018593D02*
X0005372Y0018593D01*
X0004845Y0021791D02*
X0490355Y0021791D01*
X0490400Y0024990D02*
X0004800Y0024990D01*
X0004800Y0028188D02*
X0490400Y0028188D01*
X0490400Y0031387D02*
X0004800Y0031387D01*
X0004800Y0034585D02*
X0490400Y0034585D01*
X0490400Y0037784D02*
X0004800Y0037784D01*
X0004800Y0040982D02*
X0490400Y0040982D01*
X0490400Y0044181D02*
X0004800Y0044181D01*
X0004800Y0047379D02*
X0299755Y0047379D01*
X0299596Y0047495D02*
X0300398Y0046912D01*
X0301282Y0046462D01*
X0302225Y0046155D01*
X0303204Y0046000D01*
X0303700Y0046000D01*
X0304196Y0046000D01*
X0305175Y0046155D01*
X0306118Y0046462D01*
X0307002Y0046912D01*
X0307804Y0047495D01*
X0308505Y0048196D01*
X0309088Y0048998D01*
X0309538Y0049882D01*
X0309845Y0050825D01*
X0310000Y0051804D01*
X0310000Y0052300D01*
X0310000Y0052796D01*
X0309845Y0053775D01*
X0309538Y0054718D01*
X0309088Y0055602D01*
X0308505Y0056404D01*
X0307804Y0057105D01*
X0307002Y0057688D01*
X0306118Y0058138D01*
X0305175Y0058445D01*
X0304196Y0058600D01*
X0303700Y0058600D01*
X0303700Y0052300D01*
X0303700Y0052300D01*
X0310000Y0052300D01*
X0303700Y0052300D01*
X0303700Y0052300D01*
X0303700Y0052300D01*
X0297400Y0052300D01*
X0297400Y0052796D01*
X0297555Y0053775D01*
X0297862Y0054718D01*
X0298312Y0055602D01*
X0298895Y0056404D01*
X0299596Y0057105D01*
X0300398Y0057688D01*
X0301282Y0058138D01*
X0302225Y0058445D01*
X0303204Y0058600D01*
X0303700Y0058600D01*
X0303700Y0052300D01*
X0303700Y0046000D01*
X0303700Y0052300D01*
X0303700Y0052300D01*
X0297400Y0052300D01*
X0297400Y0051804D01*
X0297555Y0050825D01*
X0297862Y0049882D01*
X0298312Y0048998D01*
X0298895Y0048196D01*
X0299596Y0047495D01*
X0297635Y0050578D02*
X0004800Y0050578D01*
X0004800Y0053776D02*
X0297555Y0053776D01*
X0299465Y0056975D02*
X0004800Y0056975D01*
X0004800Y0060173D02*
X0490400Y0060173D01*
X0490400Y0056975D02*
X0325169Y0056975D01*
X0324842Y0057302D02*
X0322674Y0058200D01*
X0320326Y0058200D01*
X0318158Y0057302D01*
X0316498Y0055642D01*
X0315600Y0053474D01*
X0315600Y0051126D01*
X0316498Y0048958D01*
X0318158Y0047298D01*
X0320326Y0046400D01*
X0322674Y0046400D01*
X0324842Y0047298D01*
X0326502Y0048958D01*
X0327400Y0051126D01*
X0327400Y0053474D01*
X0326502Y0055642D01*
X0324842Y0057302D01*
X0327275Y0053776D02*
X0490400Y0053776D01*
X0490400Y0050578D02*
X0327173Y0050578D01*
X0324923Y0047379D02*
X0490400Y0047379D01*
X0490400Y0063372D02*
X0173395Y0063372D01*
X0173152Y0062785D02*
X0173700Y0064108D01*
X0173700Y0065540D01*
X0173152Y0066864D01*
X0172139Y0067876D01*
X0171161Y0068281D01*
X0170600Y0068843D01*
X0170600Y0072748D01*
X0171123Y0071486D01*
X0172136Y0070473D01*
X0173459Y0069925D01*
X0174891Y0069925D01*
X0176214Y0070473D01*
X0177227Y0071486D01*
X0177775Y0072809D01*
X0177775Y0073089D01*
X0177809Y0073075D01*
X0179241Y0073075D01*
X0180564Y0073623D01*
X0181577Y0074636D01*
X0182125Y0075959D01*
X0182125Y0077391D01*
X0181577Y0078714D01*
X0180600Y0079691D01*
X0180600Y0099532D01*
X0181884Y0099000D01*
X0183316Y0099000D01*
X0184639Y0099548D01*
X0185652Y0100561D01*
X0186200Y0101884D01*
X0186200Y0103316D01*
X0185652Y0104639D01*
X0185600Y0104691D01*
X0185600Y0183009D01*
X0185652Y0183061D01*
X0186200Y0184384D01*
X0186200Y0185816D01*
X0185652Y0187139D01*
X0184639Y0188152D01*
X0183316Y0188700D01*
X0181884Y0188700D01*
X0180561Y0188152D01*
X0179548Y0187139D01*
X0179000Y0185816D01*
X0179000Y0184384D01*
X0179548Y0183061D01*
X0179600Y0183009D01*
X0179600Y0108168D01*
X0178316Y0108700D01*
X0176884Y0108700D01*
X0175600Y0108168D01*
X0175600Y0110509D01*
X0175652Y0110561D01*
X0176200Y0111884D01*
X0176200Y0113316D01*
X0175652Y0114639D01*
X0174639Y0115652D01*
X0173316Y0116200D01*
X0171884Y0116200D01*
X0170600Y0115668D01*
X0170600Y0129949D01*
X0170143Y0131051D01*
X0165794Y0135401D01*
X0165794Y0139572D01*
X0163259Y0142108D01*
X0165794Y0144643D01*
X0165794Y0149572D01*
X0163259Y0152108D01*
X0165794Y0154643D01*
X0165794Y0159572D01*
X0162309Y0163058D01*
X0157380Y0163058D01*
X0153894Y0159572D01*
X0153894Y0154643D01*
X0156430Y0152108D01*
X0153894Y0149572D01*
X0153894Y0144643D01*
X0156430Y0142108D01*
X0153894Y0139572D01*
X0153894Y0134643D01*
X0156430Y0132108D01*
X0153894Y0129572D01*
X0153894Y0124643D01*
X0156430Y0122108D01*
X0153894Y0119572D01*
X0153894Y0114643D01*
X0156430Y0112108D01*
X0153894Y0109572D01*
X0153894Y0104643D01*
X0156430Y0102108D01*
X0153894Y0099572D01*
X0153894Y0097300D01*
X0150600Y0100595D01*
X0150600Y0171336D01*
X0151392Y0171008D01*
X0152824Y0171008D01*
X0154147Y0171556D01*
X0155160Y0172569D01*
X0155708Y0173892D01*
X0155708Y0173965D01*
X0165743Y0184000D01*
X0165816Y0184000D01*
X0167139Y0184548D01*
X0168152Y0185561D01*
X0168700Y0186884D01*
X0168700Y0188316D01*
X0168152Y0189639D01*
X0167139Y0190652D01*
X0165816Y0191200D01*
X0164384Y0191200D01*
X0163061Y0190652D01*
X0162048Y0189639D01*
X0161500Y0188316D01*
X0161500Y0188243D01*
X0151465Y0178208D01*
X0151392Y0178208D01*
X0150600Y0177880D01*
X0150600Y0199605D01*
X0158137Y0207142D01*
X0162309Y0207142D01*
X0165794Y0210628D01*
X0165794Y0214600D01*
X0200509Y0214600D01*
X0200561Y0214548D01*
X0201884Y0214000D01*
X0203316Y0214000D01*
X0204639Y0214548D01*
X0205652Y0215561D01*
X0206200Y0216884D01*
X0206200Y0218316D01*
X0205652Y0219639D01*
X0205199Y0220092D01*
X0210017Y0220092D01*
X0210561Y0219548D01*
X0211884Y0219000D01*
X0213316Y0219000D01*
X0214600Y0219532D01*
X0214600Y0199503D01*
X0215057Y0198401D01*
X0215901Y0197557D01*
X0224000Y0189457D01*
X0224000Y0189384D01*
X0224548Y0188061D01*
X0225561Y0187048D01*
X0226884Y0186500D01*
X0228316Y0186500D01*
X0229639Y0187048D01*
X0230652Y0188061D01*
X0231200Y0189384D01*
X0231200Y0190816D01*
X0230902Y0191536D01*
X0232139Y0192048D01*
X0233152Y0193061D01*
X0233664Y0194298D01*
X0234384Y0194000D01*
X0235816Y0194000D01*
X0237139Y0194548D01*
X0238152Y0195561D01*
X0238664Y0196798D01*
X0239384Y0196500D01*
X0240816Y0196500D01*
X0242139Y0197048D01*
X0243152Y0198061D01*
X0243700Y0199384D01*
X0243700Y0200816D01*
X0243152Y0202139D01*
X0243100Y0202191D01*
X0243100Y0230509D01*
X0243152Y0230561D01*
X0243700Y0231884D01*
X0243700Y0233316D01*
X0243152Y0234639D01*
X0242139Y0235652D01*
X0240816Y0236200D01*
X0239384Y0236200D01*
X0238061Y0235652D01*
X0237048Y0234639D01*
X0236500Y0233316D01*
X0236500Y0231884D01*
X0237048Y0230561D01*
X0237100Y0230509D01*
X0237100Y0202191D01*
X0237048Y0202139D01*
X0236536Y0200902D01*
X0235816Y0201200D01*
X0235743Y0201200D01*
X0230600Y0206343D01*
X0230600Y0233197D01*
X0230143Y0234299D01*
X0225600Y0238843D01*
X0225600Y0246947D01*
X0225143Y0248049D01*
X0222450Y0250743D01*
X0222450Y0250816D01*
X0221902Y0252139D01*
X0220889Y0253152D01*
X0219566Y0253700D01*
X0218134Y0253700D01*
X0218100Y0253686D01*
X0218100Y0267857D01*
X0218401Y0267557D01*
X0219503Y0267100D01*
X0251357Y0267100D01*
X0254600Y0263857D01*
X0254600Y0259018D01*
X0254084Y0260262D01*
X0252762Y0261584D01*
X0251035Y0262300D01*
X0249165Y0262300D01*
X0247438Y0261584D01*
X0246116Y0260262D01*
X0245400Y0258535D01*
X0245400Y0234165D01*
X0246116Y0232438D01*
X0247438Y0231116D01*
X0249165Y0230400D01*
X0251035Y0230400D01*
X0252762Y0231116D01*
X0254084Y0232438D01*
X0254800Y0234165D01*
X0254800Y0237809D01*
X0255561Y0237048D01*
X0256884Y0236500D01*
X0258316Y0236500D01*
X0259639Y0237048D01*
X0260100Y0237509D01*
X0260561Y0237048D01*
X0261884Y0236500D01*
X0263316Y0236500D01*
X0264639Y0237048D01*
X0265100Y0237509D01*
X0265561Y0237048D01*
X0266884Y0236500D01*
X0268316Y0236500D01*
X0269639Y0237048D01*
X0270100Y0237509D01*
X0270561Y0237048D01*
X0271884Y0236500D01*
X0273316Y0236500D01*
X0274639Y0237048D01*
X0275652Y0238061D01*
X0276200Y0239384D01*
X0276200Y0240816D01*
X0275652Y0242139D01*
X0275600Y0242191D01*
X0275600Y0273197D01*
X0275143Y0274299D01*
X0274299Y0275143D01*
X0261799Y0287643D01*
X0260697Y0288100D01*
X0242436Y0288100D01*
X0242450Y0288134D01*
X0242450Y0289566D01*
X0241902Y0290889D01*
X0240889Y0291902D01*
X0239566Y0292450D01*
X0238134Y0292450D01*
X0236811Y0291902D01*
X0236759Y0291850D01*
X0220753Y0291850D01*
X0219651Y0291393D01*
X0218807Y0290549D01*
X0215107Y0286850D01*
X0209691Y0286850D01*
X0209639Y0286902D01*
X0208316Y0287450D01*
X0206884Y0287450D01*
X0205561Y0286902D01*
X0204548Y0285889D01*
X0204000Y0284566D01*
X0204000Y0284193D01*
X0201850Y0286343D01*
X0201850Y0296357D01*
X0205093Y0299600D01*
X0226947Y0299600D01*
X0228049Y0300057D01*
X0228893Y0300901D01*
X0233243Y0305250D01*
X0233316Y0305250D01*
X0234639Y0305798D01*
X0235652Y0306811D01*
X0236200Y0308134D01*
X0236200Y0309566D01*
X0235652Y0310889D01*
X0234639Y0311902D01*
X0233316Y0312450D01*
X0231884Y0312450D01*
X0230561Y0311902D01*
X0229548Y0310889D01*
X0229000Y0309566D01*
X0229000Y0309493D01*
X0227144Y0307637D01*
X0226853Y0308340D01*
X0225840Y0309353D01*
X0224517Y0309901D01*
X0223085Y0309901D01*
X0221762Y0309353D01*
X0220749Y0308340D01*
X0220649Y0308100D01*
X0200753Y0308100D01*
X0199651Y0307643D01*
X0198807Y0306799D01*
X0193807Y0301799D01*
X0193350Y0300697D01*
X0193350Y0286474D01*
X0192824Y0286692D01*
X0191392Y0286692D01*
X0190069Y0286144D01*
X0189056Y0285131D01*
X0188508Y0283808D01*
X0188508Y0282376D01*
X0189056Y0281053D01*
X0190069Y0280040D01*
X0191392Y0279492D01*
X0191465Y0279492D01*
X0194600Y0276357D01*
X0194600Y0229691D01*
X0194548Y0229639D01*
X0194000Y0228316D01*
X0194000Y0226884D01*
X0194328Y0226092D01*
X0165259Y0226092D01*
X0163259Y0228092D01*
X0165794Y0230628D01*
X0165794Y0235557D01*
X0163259Y0238092D01*
X0165794Y0240628D01*
X0165794Y0241551D01*
X0173243Y0249000D01*
X0173316Y0249000D01*
X0174600Y0249532D01*
X0174600Y0247191D01*
X0174548Y0247139D01*
X0174000Y0245816D01*
X0174000Y0244384D01*
X0174548Y0243061D01*
X0175561Y0242048D01*
X0176884Y0241500D01*
X0178316Y0241500D01*
X0179639Y0242048D01*
X0180652Y0243061D01*
X0181200Y0244384D01*
X0181200Y0245816D01*
X0180652Y0247139D01*
X0180600Y0247191D01*
X0180600Y0255697D01*
X0180143Y0256799D01*
X0177943Y0259000D01*
X0178316Y0259000D01*
X0179639Y0259548D01*
X0180652Y0260561D01*
X0181200Y0261884D01*
X0181200Y0263316D01*
X0180652Y0264639D01*
X0180600Y0264691D01*
X0180600Y0288197D01*
X0180143Y0289299D01*
X0179299Y0290143D01*
X0174299Y0295143D01*
X0173197Y0295600D01*
X0082003Y0295600D01*
X0080901Y0295143D01*
X0080057Y0294299D01*
X0075057Y0289299D01*
X0074600Y0288197D01*
X0074600Y0253843D01*
X0068810Y0248053D01*
X0068770Y0248092D01*
X0071306Y0250628D01*
X0071306Y0255557D01*
X0068770Y0258092D01*
X0071306Y0260628D01*
X0071306Y0265557D01*
X0068770Y0268092D01*
X0071306Y0270628D01*
X0071306Y0275557D01*
X0068770Y0278092D01*
X0071306Y0280628D01*
X0071306Y0285557D01*
X0067820Y0289042D01*
X0062891Y0289042D01*
X0059941Y0286092D01*
X0057495Y0286092D01*
X0056393Y0285635D01*
X0045057Y0274299D01*
X0044600Y0273197D01*
X0044600Y0167003D01*
X0045057Y0165901D01*
X0055549Y0155409D01*
X0056393Y0154565D01*
X0057495Y0154108D01*
X0059941Y0154108D01*
X0061941Y0152108D01*
X0059406Y0149572D01*
X0059406Y0144643D01*
X0061941Y0142108D01*
X0059406Y0139572D01*
X0059406Y0134643D01*
X0061941Y0132108D01*
X0059941Y0130108D01*
X0059335Y0130108D01*
X0056200Y0133243D01*
X0056200Y0133316D01*
X0055652Y0134639D01*
X0054639Y0135652D01*
X0053316Y0136200D01*
X0051884Y0136200D01*
X0050561Y0135652D01*
X0049548Y0134639D01*
X0049000Y0133316D01*
X0049000Y0131884D01*
X0049548Y0130561D01*
X0050561Y0129548D01*
X0051884Y0129000D01*
X0051957Y0129000D01*
X0055549Y0125409D01*
X0056393Y0124565D01*
X0057495Y0124108D01*
X0059941Y0124108D01*
X0061941Y0122108D01*
X0059406Y0119572D01*
X0059406Y0114643D01*
X0061941Y0112108D01*
X0059406Y0109572D01*
X0059406Y0104643D01*
X0061941Y0102108D01*
X0059406Y0099572D01*
X0059406Y0094643D01*
X0061941Y0092108D01*
X0059406Y0089572D01*
X0059406Y0084643D01*
X0062891Y0081158D01*
X0067820Y0081158D01*
X0071306Y0084643D01*
X0071306Y0089572D01*
X0068770Y0092108D01*
X0071306Y0094643D01*
X0071306Y0099572D01*
X0068770Y0102108D01*
X0071306Y0104643D01*
X0071306Y0106915D01*
X0074600Y0103621D01*
X0074600Y0097003D01*
X0075057Y0095901D01*
X0091776Y0079182D01*
X0091776Y0079108D01*
X0092324Y0077785D01*
X0093336Y0076772D01*
X0094659Y0076224D01*
X0096092Y0076224D01*
X0097415Y0076772D01*
X0098428Y0077785D01*
X0098976Y0079108D01*
X0098976Y0080540D01*
X0098428Y0081864D01*
X0097415Y0082876D01*
X0096092Y0083424D01*
X0096018Y0083424D01*
X0080600Y0098843D01*
X0080600Y0105461D01*
X0080143Y0106563D01*
X0079299Y0107407D01*
X0071306Y0115401D01*
X0071306Y0119572D01*
X0068770Y0122108D01*
X0071306Y0124643D01*
X0071306Y0129572D01*
X0068770Y0132108D01*
X0071306Y0134643D01*
X0071306Y0139572D01*
X0068770Y0142108D01*
X0071306Y0144643D01*
X0071306Y0149572D01*
X0068770Y0152108D01*
X0071306Y0154643D01*
X0071306Y0159572D01*
X0067820Y0163058D01*
X0062891Y0163058D01*
X0059941Y0160108D01*
X0059335Y0160108D01*
X0050600Y0168843D01*
X0050600Y0271357D01*
X0059335Y0280092D01*
X0059941Y0280092D01*
X0061941Y0278092D01*
X0059406Y0275557D01*
X0059406Y0270628D01*
X0061941Y0268092D01*
X0059406Y0265557D01*
X0059406Y0260628D01*
X0061941Y0258092D01*
X0059406Y0255557D01*
X0059406Y0250628D01*
X0061941Y0248092D01*
X0059406Y0245557D01*
X0059406Y0240628D01*
X0061941Y0238092D01*
X0059406Y0235557D01*
X0059406Y0230628D01*
X0061941Y0228092D01*
X0059406Y0225557D01*
X0059406Y0220628D01*
X0061941Y0218092D01*
X0059406Y0215557D01*
X0059406Y0210628D01*
X0062891Y0207142D01*
X0067820Y0207142D01*
X0071306Y0210628D01*
X0071306Y0215557D01*
X0068770Y0218092D01*
X0071306Y0220628D01*
X0071306Y0225557D01*
X0068770Y0228092D01*
X0071306Y0230628D01*
X0071306Y0235557D01*
X0068770Y0238092D01*
X0071306Y0240628D01*
X0071306Y0242063D01*
X0079299Y0250057D01*
X0080143Y0250901D01*
X0080600Y0252003D01*
X0080600Y0286357D01*
X0083843Y0289600D01*
X0171357Y0289600D01*
X0174600Y0286357D01*
X0174600Y0264691D01*
X0174548Y0264639D01*
X0174000Y0263316D01*
X0174000Y0262943D01*
X0172151Y0264791D01*
X0171307Y0265635D01*
X0170205Y0266092D01*
X0165259Y0266092D01*
X0163259Y0268092D01*
X0165794Y0270628D01*
X0165794Y0275557D01*
X0163259Y0278092D01*
X0165794Y0280628D01*
X0165794Y0285557D01*
X0162309Y0289042D01*
X0157380Y0289042D01*
X0153894Y0285557D01*
X0153894Y0280628D01*
X0156430Y0278092D01*
X0153894Y0275557D01*
X0153894Y0270628D01*
X0156430Y0268092D01*
X0153894Y0265557D01*
X0153894Y0260628D01*
X0156430Y0258092D01*
X0153894Y0255557D01*
X0153894Y0250628D01*
X0156430Y0248092D01*
X0153894Y0245557D01*
X0153894Y0240628D01*
X0156430Y0238092D01*
X0153894Y0235557D01*
X0153894Y0230628D01*
X0156430Y0228092D01*
X0153894Y0225557D01*
X0153894Y0220628D01*
X0156430Y0218092D01*
X0153894Y0215557D01*
X0153894Y0211385D01*
X0145057Y0202547D01*
X0144600Y0201445D01*
X0144600Y0098755D01*
X0145057Y0097653D01*
X0145901Y0096809D01*
X0153894Y0088815D01*
X0153894Y0084643D01*
X0157380Y0081158D01*
X0162309Y0081158D01*
X0164600Y0083449D01*
X0164600Y0067003D01*
X0165057Y0065901D01*
X0166500Y0064457D01*
X0166500Y0064108D01*
X0167048Y0062785D01*
X0168061Y0061772D01*
X0169384Y0061224D01*
X0170816Y0061224D01*
X0172139Y0061772D01*
X0173152Y0062785D01*
X0173273Y0066570D02*
X0490400Y0066570D01*
X0490400Y0069769D02*
X0170600Y0069769D01*
X0164600Y0069769D02*
X0004800Y0069769D01*
X0004800Y0072967D02*
X0164600Y0072967D01*
X0164600Y0076166D02*
X0004800Y0076166D01*
X0004800Y0079364D02*
X0091593Y0079364D01*
X0088395Y0082563D02*
X0069225Y0082563D01*
X0071306Y0085761D02*
X0085196Y0085761D01*
X0081998Y0088960D02*
X0071306Y0088960D01*
X0068821Y0092158D02*
X0078799Y0092158D01*
X0075601Y0095357D02*
X0071306Y0095357D01*
X0071306Y0098555D02*
X0074600Y0098555D01*
X0074600Y0101754D02*
X0069124Y0101754D01*
X0071306Y0104952D02*
X0073269Y0104952D01*
X0078556Y0108151D02*
X0144600Y0108151D01*
X0144600Y0111349D02*
X0075357Y0111349D01*
X0072159Y0114548D02*
X0144600Y0114548D01*
X0144600Y0117746D02*
X0071306Y0117746D01*
X0069933Y0120945D02*
X0144600Y0120945D01*
X0144600Y0124143D02*
X0070806Y0124143D01*
X0071306Y0127342D02*
X0144600Y0127342D01*
X0144600Y0130540D02*
X0070338Y0130540D01*
X0070402Y0133739D02*
X0144600Y0133739D01*
X0144600Y0136937D02*
X0071306Y0136937D01*
X0070742Y0140136D02*
X0144600Y0140136D01*
X0144600Y0143334D02*
X0069997Y0143334D01*
X0071306Y0146533D02*
X0144600Y0146533D01*
X0144600Y0149732D02*
X0071147Y0149732D01*
X0069593Y0152930D02*
X0144600Y0152930D01*
X0144600Y0156129D02*
X0071306Y0156129D01*
X0071306Y0159327D02*
X0144600Y0159327D01*
X0144600Y0162526D02*
X0068353Y0162526D01*
X0062359Y0162526D02*
X0056917Y0162526D01*
X0053719Y0165724D02*
X0144600Y0165724D01*
X0144600Y0168923D02*
X0050600Y0168923D01*
X0050600Y0172121D02*
X0144600Y0172121D01*
X0144600Y0175320D02*
X0050600Y0175320D01*
X0050600Y0178518D02*
X0144600Y0178518D01*
X0144600Y0181717D02*
X0050600Y0181717D01*
X0050600Y0184915D02*
X0144600Y0184915D01*
X0144600Y0188114D02*
X0050600Y0188114D01*
X0050600Y0191312D02*
X0144600Y0191312D01*
X0144600Y0194511D02*
X0050600Y0194511D01*
X0050600Y0197709D02*
X0144600Y0197709D01*
X0144600Y0200908D02*
X0050600Y0200908D01*
X0050600Y0204106D02*
X0146616Y0204106D01*
X0149814Y0207305D02*
X0067983Y0207305D01*
X0071182Y0210503D02*
X0153013Y0210503D01*
X0153894Y0213702D02*
X0071306Y0213702D01*
X0069962Y0216900D02*
X0155238Y0216900D01*
X0154423Y0220099D02*
X0070777Y0220099D01*
X0071306Y0223297D02*
X0153894Y0223297D01*
X0154833Y0226496D02*
X0070367Y0226496D01*
X0070373Y0229694D02*
X0154827Y0229694D01*
X0153894Y0232893D02*
X0071306Y0232893D01*
X0070771Y0236091D02*
X0154429Y0236091D01*
X0155232Y0239290D02*
X0069968Y0239290D01*
X0071731Y0242488D02*
X0153894Y0242488D01*
X0154024Y0245687D02*
X0074929Y0245687D01*
X0078128Y0248885D02*
X0155636Y0248885D01*
X0153894Y0252084D02*
X0080600Y0252084D01*
X0080600Y0255282D02*
X0153894Y0255282D01*
X0156041Y0258481D02*
X0080600Y0258481D01*
X0080600Y0261679D02*
X0153894Y0261679D01*
X0153894Y0264878D02*
X0080600Y0264878D01*
X0080600Y0268076D02*
X0156414Y0268076D01*
X0153894Y0271275D02*
X0080600Y0271275D01*
X0080600Y0274473D02*
X0153894Y0274473D01*
X0156009Y0277672D02*
X0080600Y0277672D01*
X0080600Y0280870D02*
X0153894Y0280870D01*
X0153894Y0284069D02*
X0080600Y0284069D01*
X0081510Y0287268D02*
X0155605Y0287268D01*
X0164083Y0287268D02*
X0173690Y0287268D01*
X0174600Y0284069D02*
X0165794Y0284069D01*
X0165794Y0280870D02*
X0174600Y0280870D01*
X0174600Y0277672D02*
X0163679Y0277672D01*
X0165794Y0274473D02*
X0174600Y0274473D01*
X0174600Y0271275D02*
X0165794Y0271275D01*
X0163274Y0268076D02*
X0174600Y0268076D01*
X0174600Y0264878D02*
X0172065Y0264878D01*
X0180600Y0264878D02*
X0194600Y0264878D01*
X0194600Y0268076D02*
X0180600Y0268076D01*
X0180600Y0271275D02*
X0194600Y0271275D01*
X0194600Y0274473D02*
X0180600Y0274473D01*
X0180600Y0277672D02*
X0193285Y0277672D01*
X0189238Y0280870D02*
X0180600Y0280870D01*
X0180600Y0284069D02*
X0188616Y0284069D01*
X0193350Y0287268D02*
X0180600Y0287268D01*
X0178977Y0290466D02*
X0193350Y0290466D01*
X0193350Y0293665D02*
X0175778Y0293665D01*
X0193350Y0296863D02*
X0004800Y0296863D01*
X0004800Y0293665D02*
X0079422Y0293665D01*
X0076223Y0290466D02*
X0004800Y0290466D01*
X0004800Y0287268D02*
X0061117Y0287268D01*
X0054826Y0284069D02*
X0004800Y0284069D01*
X0004800Y0280870D02*
X0051628Y0280870D01*
X0048429Y0277672D02*
X0004800Y0277672D01*
X0004800Y0274473D02*
X0045231Y0274473D01*
X0044600Y0271275D02*
X0004800Y0271275D01*
X0004800Y0268076D02*
X0044600Y0268076D01*
X0044600Y0264878D02*
X0004800Y0264878D01*
X0004800Y0261679D02*
X0044600Y0261679D01*
X0044600Y0258481D02*
X0004800Y0258481D01*
X0004800Y0255282D02*
X0044600Y0255282D01*
X0044600Y0252084D02*
X0004800Y0252084D01*
X0004800Y0248885D02*
X0044600Y0248885D01*
X0044600Y0245687D02*
X0004800Y0245687D01*
X0004800Y0242488D02*
X0044600Y0242488D01*
X0044600Y0239290D02*
X0004800Y0239290D01*
X0004800Y0236091D02*
X0044600Y0236091D01*
X0044600Y0232893D02*
X0004800Y0232893D01*
X0004800Y0229694D02*
X0044600Y0229694D01*
X0044600Y0226496D02*
X0004800Y0226496D01*
X0004800Y0223297D02*
X0044600Y0223297D01*
X0044600Y0220099D02*
X0004800Y0220099D01*
X0004800Y0216900D02*
X0044600Y0216900D01*
X0044600Y0213702D02*
X0004800Y0213702D01*
X0004800Y0210503D02*
X0019389Y0210503D01*
X0018769Y0210145D02*
X0018769Y0210145D01*
X0016570Y0207525D01*
X0016570Y0207525D01*
X0015400Y0204310D01*
X0015400Y0165890D01*
X0016570Y0162675D01*
X0018769Y0160055D01*
X0018769Y0160055D01*
X0021731Y0158344D01*
X0025100Y0157750D01*
X0028469Y0158344D01*
X0031431Y0160055D01*
X0031431Y0160055D01*
X0033630Y0162675D01*
X0033630Y0162675D01*
X0034800Y0165890D01*
X0034800Y0168511D01*
X0034800Y0201689D01*
X0034800Y0204310D01*
X0033630Y0207525D01*
X0031431Y0210145D01*
X0028469Y0211856D01*
X0028469Y0211856D01*
X0025100Y0212450D01*
X0021731Y0211856D01*
X0018769Y0210145D01*
X0021731Y0211856D02*
X0021731Y0211856D01*
X0025100Y0212450D02*
X0025100Y0212450D01*
X0030811Y0210503D02*
X0044600Y0210503D01*
X0044600Y0207305D02*
X0033710Y0207305D01*
X0033630Y0207525D02*
X0033630Y0207525D01*
X0031431Y0210145D02*
X0031431Y0210145D01*
X0031431Y0210145D01*
X0034800Y0204106D02*
X0044600Y0204106D01*
X0044600Y0200908D02*
X0034800Y0200908D01*
X0034800Y0197709D02*
X0044600Y0197709D01*
X0044600Y0194511D02*
X0034800Y0194511D01*
X0034800Y0191312D02*
X0044600Y0191312D01*
X0044600Y0188114D02*
X0034800Y0188114D01*
X0034800Y0184915D02*
X0044600Y0184915D01*
X0044600Y0181717D02*
X0034800Y0181717D01*
X0034800Y0178518D02*
X0044600Y0178518D01*
X0044600Y0175320D02*
X0034800Y0175320D01*
X0034800Y0172121D02*
X0044600Y0172121D01*
X0044600Y0168923D02*
X0034800Y0168923D01*
X0034740Y0165724D02*
X0045233Y0165724D01*
X0048432Y0162526D02*
X0033504Y0162526D01*
X0030171Y0159327D02*
X0051630Y0159327D01*
X0054829Y0156129D02*
X0004800Y0156129D01*
X0004800Y0159327D02*
X0020029Y0159327D01*
X0018769Y0160055D02*
X0018769Y0160055D01*
X0016695Y0162526D02*
X0004800Y0162526D01*
X0004800Y0165724D02*
X0015460Y0165724D01*
X0015400Y0168923D02*
X0004800Y0168923D01*
X0004800Y0172121D02*
X0015400Y0172121D01*
X0015400Y0175320D02*
X0004800Y0175320D01*
X0004800Y0178518D02*
X0015400Y0178518D01*
X0015400Y0181717D02*
X0004800Y0181717D01*
X0004800Y0184915D02*
X0015400Y0184915D01*
X0015400Y0188114D02*
X0004800Y0188114D01*
X0004800Y0191312D02*
X0015400Y0191312D01*
X0015400Y0194511D02*
X0004800Y0194511D01*
X0004800Y0197709D02*
X0015400Y0197709D01*
X0015400Y0200908D02*
X0004800Y0200908D01*
X0004800Y0204106D02*
X0015400Y0204106D01*
X0016490Y0207305D02*
X0004800Y0207305D01*
X0050600Y0207305D02*
X0062729Y0207305D01*
X0059530Y0210503D02*
X0050600Y0210503D01*
X0050600Y0213702D02*
X0059406Y0213702D01*
X0060749Y0216900D02*
X0050600Y0216900D01*
X0050600Y0220099D02*
X0059935Y0220099D01*
X0059406Y0223297D02*
X0050600Y0223297D01*
X0050600Y0226496D02*
X0060345Y0226496D01*
X0060339Y0229694D02*
X0050600Y0229694D01*
X0050600Y0232893D02*
X0059406Y0232893D01*
X0059941Y0236091D02*
X0050600Y0236091D01*
X0050600Y0239290D02*
X0060744Y0239290D01*
X0059406Y0242488D02*
X0050600Y0242488D01*
X0050600Y0245687D02*
X0059536Y0245687D01*
X0061148Y0248885D02*
X0050600Y0248885D01*
X0050600Y0252084D02*
X0059406Y0252084D01*
X0059406Y0255282D02*
X0050600Y0255282D01*
X0050600Y0258481D02*
X0061553Y0258481D01*
X0059406Y0261679D02*
X0050600Y0261679D01*
X0050600Y0264878D02*
X0059406Y0264878D01*
X0061926Y0268076D02*
X0050600Y0268076D01*
X0050600Y0271275D02*
X0059406Y0271275D01*
X0059406Y0274473D02*
X0053716Y0274473D01*
X0056915Y0277672D02*
X0061521Y0277672D01*
X0069191Y0277672D02*
X0074600Y0277672D01*
X0074600Y0280870D02*
X0071306Y0280870D01*
X0071306Y0284069D02*
X0074600Y0284069D01*
X0074600Y0287268D02*
X0069595Y0287268D01*
X0071306Y0274473D02*
X0074600Y0274473D01*
X0074600Y0271275D02*
X0071306Y0271275D01*
X0068786Y0268076D02*
X0074600Y0268076D01*
X0074600Y0264878D02*
X0071306Y0264878D01*
X0071306Y0261679D02*
X0074600Y0261679D01*
X0074600Y0258481D02*
X0069159Y0258481D01*
X0071306Y0255282D02*
X0074600Y0255282D01*
X0072841Y0252084D02*
X0071306Y0252084D01*
X0069643Y0248885D02*
X0069564Y0248885D01*
X0004800Y0300062D02*
X0193350Y0300062D01*
X0195267Y0303260D02*
X0004800Y0303260D01*
X0004800Y0306459D02*
X0198466Y0306459D01*
X0198807Y0306799D02*
X0198807Y0306799D01*
X0202356Y0296863D02*
X0259900Y0296863D01*
X0259900Y0296804D02*
X0260055Y0295825D01*
X0260362Y0294882D01*
X0260812Y0293998D01*
X0261395Y0293196D01*
X0262096Y0292495D01*
X0262898Y0291912D01*
X0263782Y0291462D01*
X0264725Y0291155D01*
X0265704Y0291000D01*
X0266200Y0291000D01*
X0266696Y0291000D01*
X0267675Y0291155D01*
X0268618Y0291462D01*
X0269502Y0291912D01*
X0270304Y0292495D01*
X0271005Y0293196D01*
X0271588Y0293998D01*
X0272038Y0294882D01*
X0272345Y0295825D01*
X0272500Y0296804D01*
X0272500Y0297300D01*
X0272500Y0297796D01*
X0272345Y0298775D01*
X0272038Y0299718D01*
X0271588Y0300602D01*
X0271005Y0301404D01*
X0270304Y0302105D01*
X0269502Y0302688D01*
X0268618Y0303138D01*
X0267675Y0303445D01*
X0266696Y0303600D01*
X0266200Y0303600D01*
X0266200Y0297300D01*
X0266200Y0297300D01*
X0272500Y0297300D01*
X0266200Y0297300D01*
X0266200Y0297300D01*
X0266200Y0297300D01*
X0259900Y0297300D01*
X0259900Y0297796D01*
X0260055Y0298775D01*
X0260362Y0299718D01*
X0260812Y0300602D01*
X0261395Y0301404D01*
X0262096Y0302105D01*
X0262898Y0302688D01*
X0263782Y0303138D01*
X0264725Y0303445D01*
X0265704Y0303600D01*
X0266200Y0303600D01*
X0266200Y0297300D01*
X0266200Y0291000D01*
X0266200Y0297300D01*
X0266200Y0297300D01*
X0259900Y0297300D01*
X0259900Y0296804D01*
X0260536Y0300062D02*
X0228054Y0300062D01*
X0231253Y0303260D02*
X0264156Y0303260D01*
X0266200Y0303260D02*
X0266200Y0303260D01*
X0268244Y0303260D02*
X0364466Y0303260D01*
X0364548Y0303061D02*
X0365561Y0302048D01*
X0366526Y0301648D01*
X0367575Y0300600D01*
X0363441Y0300600D01*
X0363389Y0300652D01*
X0362066Y0301200D01*
X0360634Y0301200D01*
X0359311Y0300652D01*
X0358298Y0299639D01*
X0357750Y0298316D01*
X0357750Y0296884D01*
X0358298Y0295561D01*
X0359311Y0294548D01*
X0360250Y0294159D01*
X0360250Y0293134D01*
X0360798Y0291811D01*
X0361811Y0290798D01*
X0363134Y0290250D01*
X0363507Y0290250D01*
X0361957Y0288700D01*
X0361884Y0288700D01*
X0360561Y0288152D01*
X0359548Y0287139D01*
X0359000Y0285816D01*
X0359000Y0284384D01*
X0359548Y0283061D01*
X0360561Y0282048D01*
X0361884Y0281500D01*
X0363316Y0281500D01*
X0364639Y0282048D01*
X0365652Y0283061D01*
X0366200Y0284384D01*
X0366200Y0284457D01*
X0369315Y0287572D01*
X0384731Y0287572D01*
X0384783Y0287521D01*
X0386106Y0286972D01*
X0387539Y0286972D01*
X0388862Y0287521D01*
X0389874Y0288533D01*
X0390422Y0289856D01*
X0390422Y0291289D01*
X0389874Y0292612D01*
X0388862Y0293624D01*
X0387539Y0294172D01*
X0386200Y0294172D01*
X0386200Y0294566D01*
X0386186Y0294600D01*
X0416759Y0294600D01*
X0416811Y0294548D01*
X0418134Y0294000D01*
X0419566Y0294000D01*
X0420889Y0294548D01*
X0421902Y0295561D01*
X0422450Y0296884D01*
X0422450Y0298316D01*
X0421902Y0299639D01*
X0420889Y0300652D01*
X0419566Y0301200D01*
X0418700Y0301200D01*
X0418700Y0302066D01*
X0418152Y0303389D01*
X0417139Y0304402D01*
X0415816Y0304950D01*
X0414384Y0304950D01*
X0413418Y0304550D01*
X0372675Y0304550D01*
X0371052Y0306174D01*
X0370652Y0307139D01*
X0369639Y0308152D01*
X0368316Y0308700D01*
X0366884Y0308700D01*
X0365561Y0308152D01*
X0364548Y0307139D01*
X0364000Y0305816D01*
X0364000Y0304384D01*
X0364548Y0303061D01*
X0364266Y0306459D02*
X0235300Y0306459D01*
X0236162Y0309657D02*
X0370149Y0309657D01*
X0370268Y0309371D02*
X0371871Y0307768D01*
X0373966Y0306900D01*
X0376234Y0306900D01*
X0378329Y0307768D01*
X0379932Y0309371D01*
X0380800Y0311466D01*
X0380800Y0313734D01*
X0379932Y0315829D01*
X0378329Y0317432D01*
X0378050Y0317548D01*
X0378050Y0317652D01*
X0378329Y0317768D01*
X0379932Y0319371D01*
X0380800Y0321466D01*
X0380800Y0323734D01*
X0379932Y0325829D01*
X0378861Y0326900D01*
X0410918Y0326900D01*
X0411884Y0326500D01*
X0413316Y0326500D01*
X0414639Y0327048D01*
X0415652Y0328061D01*
X0416200Y0329384D01*
X0416200Y0330816D01*
X0415652Y0332139D01*
X0414639Y0333152D01*
X0413316Y0333700D01*
X0411884Y0333700D01*
X0410918Y0333300D01*
X0366782Y0333300D01*
X0365816Y0333700D01*
X0364384Y0333700D01*
X0363061Y0333152D01*
X0362048Y0332139D01*
X0361500Y0330816D01*
X0361500Y0329384D01*
X0362048Y0328061D01*
X0363061Y0327048D01*
X0364384Y0326500D01*
X0365816Y0326500D01*
X0366782Y0326900D01*
X0371339Y0326900D01*
X0370268Y0325829D01*
X0369400Y0323734D01*
X0369400Y0321466D01*
X0370268Y0319371D01*
X0371871Y0317768D01*
X0372150Y0317652D01*
X0372150Y0317548D01*
X0371871Y0317432D01*
X0370268Y0315829D01*
X0369400Y0313734D01*
X0369400Y0311466D01*
X0370268Y0309371D01*
X0370934Y0306459D02*
X0421716Y0306459D01*
X0424148Y0304026D02*
X0424548Y0303061D01*
X0425561Y0302048D01*
X0426884Y0301500D01*
X0428316Y0301500D01*
X0429639Y0302048D01*
X0430652Y0303061D01*
X0431200Y0304384D01*
X0431200Y0305816D01*
X0430652Y0307139D01*
X0429639Y0308152D01*
X0428674Y0308552D01*
X0416913Y0320313D01*
X0415737Y0320800D01*
X0414463Y0320800D01*
X0389463Y0320800D01*
X0388287Y0320313D01*
X0387387Y0319413D01*
X0387187Y0318930D01*
X0384457Y0316200D01*
X0384384Y0316200D01*
X0383061Y0315652D01*
X0382048Y0314639D01*
X0381500Y0313316D01*
X0381500Y0311884D01*
X0382048Y0310561D01*
X0383061Y0309548D01*
X0384384Y0309000D01*
X0385816Y0309000D01*
X0386536Y0309298D01*
X0387048Y0308061D01*
X0388061Y0307048D01*
X0389384Y0306500D01*
X0390816Y0306500D01*
X0391782Y0306900D01*
X0413418Y0306900D01*
X0414384Y0306500D01*
X0415816Y0306500D01*
X0417139Y0307048D01*
X0418152Y0308061D01*
X0418700Y0309384D01*
X0418700Y0309475D01*
X0424148Y0304026D01*
X0424466Y0303260D02*
X0418205Y0303260D01*
X0421480Y0300062D02*
X0490400Y0300062D01*
X0490400Y0303260D02*
X0430734Y0303260D01*
X0430934Y0306459D02*
X0490400Y0306459D01*
X0490400Y0309657D02*
X0427568Y0309657D01*
X0424370Y0312856D02*
X0490400Y0312856D01*
X0490400Y0316054D02*
X0421171Y0316054D01*
X0417973Y0319253D02*
X0490400Y0319253D01*
X0490400Y0322451D02*
X0380800Y0322451D01*
X0380006Y0325650D02*
X0490400Y0325650D01*
X0490400Y0328848D02*
X0415978Y0328848D01*
X0415690Y0332047D02*
X0490400Y0332047D01*
X0490400Y0335245D02*
X0412836Y0335245D01*
X0413152Y0335561D02*
X0413700Y0336884D01*
X0413700Y0338316D01*
X0413152Y0339639D01*
X0412139Y0340652D01*
X0410816Y0341200D01*
X0409384Y0341200D01*
X0408418Y0340800D01*
X0393700Y0340800D01*
X0393700Y0342066D01*
X0393300Y0343032D01*
X0393300Y0349668D01*
X0393700Y0350634D01*
X0393700Y0352066D01*
X0393152Y0353389D01*
X0392139Y0354402D01*
X0390816Y0354950D01*
X0389384Y0354950D01*
X0388061Y0354402D01*
X0387048Y0353389D01*
X0386500Y0352066D01*
X0386500Y0350634D01*
X0386900Y0349668D01*
X0386900Y0343032D01*
X0386500Y0342066D01*
X0386500Y0340800D01*
X0346782Y0340800D01*
X0345816Y0341200D01*
X0344384Y0341200D01*
X0343061Y0340652D01*
X0342048Y0339639D01*
X0341500Y0338316D01*
X0341500Y0336884D01*
X0342048Y0335561D01*
X0343061Y0334548D01*
X0344384Y0334000D01*
X0345816Y0334000D01*
X0346782Y0334400D01*
X0408418Y0334400D01*
X0409384Y0334000D01*
X0410816Y0334000D01*
X0412139Y0334548D01*
X0413152Y0335561D01*
X0413647Y0338444D02*
X0490400Y0338444D01*
X0490400Y0341642D02*
X0393700Y0341642D01*
X0393300Y0344841D02*
X0394504Y0344841D01*
X0394504Y0348039D02*
X0393300Y0348039D01*
X0393700Y0351238D02*
X0394504Y0351238D01*
X0394504Y0354436D02*
X0392056Y0354436D01*
X0388144Y0354436D02*
X0004903Y0354436D01*
X0004800Y0351238D02*
X0386500Y0351238D01*
X0386900Y0348039D02*
X0004800Y0348039D01*
X0004800Y0344841D02*
X0386900Y0344841D01*
X0386500Y0341642D02*
X0004800Y0341642D01*
X0004800Y0338444D02*
X0341553Y0338444D01*
X0342364Y0335245D02*
X0004800Y0335245D01*
X0004800Y0332047D02*
X0362010Y0332047D01*
X0361722Y0328848D02*
X0004800Y0328848D01*
X0004800Y0325650D02*
X0260953Y0325650D01*
X0261198Y0326242D02*
X0260300Y0324074D01*
X0260300Y0321726D01*
X0261198Y0319558D01*
X0262858Y0317898D01*
X0265026Y0317000D01*
X0267374Y0317000D01*
X0269542Y0317898D01*
X0271202Y0319558D01*
X0272100Y0321726D01*
X0272100Y0324074D01*
X0271202Y0326242D01*
X0269542Y0327902D01*
X0267374Y0328800D01*
X0265026Y0328800D01*
X0262858Y0327902D01*
X0261198Y0326242D01*
X0260300Y0322451D02*
X0004800Y0322451D01*
X0004800Y0319253D02*
X0261504Y0319253D01*
X0270896Y0319253D02*
X0279304Y0319253D01*
X0278998Y0319558D02*
X0280658Y0317898D01*
X0282826Y0317000D01*
X0285174Y0317000D01*
X0287342Y0317898D01*
X0289002Y0319558D01*
X0289900Y0321726D01*
X0289900Y0324074D01*
X0289002Y0326242D01*
X0287342Y0327902D01*
X0285174Y0328800D01*
X0282826Y0328800D01*
X0280658Y0327902D01*
X0278998Y0326242D01*
X0278100Y0324074D01*
X0278100Y0321726D01*
X0278998Y0319558D01*
X0278100Y0322451D02*
X0272100Y0322451D01*
X0271447Y0325650D02*
X0278753Y0325650D01*
X0289247Y0325650D02*
X0370194Y0325650D01*
X0369400Y0322451D02*
X0289900Y0322451D01*
X0288696Y0319253D02*
X0370386Y0319253D01*
X0370493Y0316054D02*
X0004800Y0316054D01*
X0004800Y0312856D02*
X0369400Y0312856D01*
X0379707Y0316054D02*
X0384032Y0316054D01*
X0381500Y0312856D02*
X0380800Y0312856D01*
X0380051Y0309657D02*
X0382952Y0309657D01*
X0379814Y0319253D02*
X0387321Y0319253D01*
X0358720Y0300062D02*
X0353248Y0300062D01*
X0353104Y0300205D02*
X0353805Y0299504D01*
X0354388Y0298702D01*
X0354838Y0297818D01*
X0355145Y0296875D01*
X0355300Y0295896D01*
X0355300Y0295400D01*
X0349000Y0295400D01*
X0349000Y0295400D01*
X0349000Y0301700D01*
X0349496Y0301700D01*
X0350475Y0301545D01*
X0351418Y0301238D01*
X0352302Y0300788D01*
X0353104Y0300205D01*
X0355147Y0296863D02*
X0357759Y0296863D01*
X0355300Y0295400D02*
X0349000Y0295400D01*
X0349000Y0295400D01*
X0349000Y0295400D01*
X0342700Y0295400D01*
X0342700Y0295896D01*
X0342855Y0296875D01*
X0343162Y0297818D01*
X0343612Y0298702D01*
X0344195Y0299504D01*
X0344896Y0300205D01*
X0345698Y0300788D01*
X0346582Y0301238D01*
X0347525Y0301545D01*
X0348504Y0301700D01*
X0349000Y0301700D01*
X0349000Y0295400D01*
X0349000Y0289100D01*
X0349496Y0289100D01*
X0350475Y0289255D01*
X0351418Y0289562D01*
X0352302Y0290012D01*
X0353104Y0290595D01*
X0353805Y0291296D01*
X0354388Y0292098D01*
X0354838Y0292982D01*
X0355145Y0293925D01*
X0355300Y0294904D01*
X0355300Y0295400D01*
X0355060Y0293665D02*
X0360250Y0293665D01*
X0362612Y0290466D02*
X0352927Y0290466D01*
X0349000Y0290466D02*
X0349000Y0290466D01*
X0349000Y0289100D02*
X0349000Y0295400D01*
X0349000Y0295400D01*
X0342700Y0295400D01*
X0342700Y0294904D01*
X0342855Y0293925D01*
X0343162Y0292982D01*
X0343612Y0292098D01*
X0344195Y0291296D01*
X0344896Y0290595D01*
X0345698Y0290012D01*
X0346582Y0289562D01*
X0347525Y0289255D01*
X0348504Y0289100D01*
X0349000Y0289100D01*
X0345073Y0290466D02*
X0334610Y0290466D01*
X0334542Y0290398D02*
X0336202Y0292058D01*
X0337100Y0294226D01*
X0337100Y0296574D01*
X0336202Y0298742D01*
X0334542Y0300402D01*
X0332374Y0301300D01*
X0330026Y0301300D01*
X0327858Y0300402D01*
X0326198Y0298742D01*
X0325300Y0296574D01*
X0325300Y0294226D01*
X0326198Y0292058D01*
X0327858Y0290398D01*
X0330026Y0289500D01*
X0332374Y0289500D01*
X0334542Y0290398D01*
X0336867Y0293665D02*
X0342940Y0293665D01*
X0342853Y0296863D02*
X0336980Y0296863D01*
X0334882Y0300062D02*
X0344752Y0300062D01*
X0349000Y0300062D02*
X0349000Y0300062D01*
X0349000Y0296863D02*
X0349000Y0296863D01*
X0349000Y0293665D02*
X0349000Y0293665D01*
X0359676Y0287268D02*
X0262175Y0287268D01*
X0265374Y0284069D02*
X0359130Y0284069D01*
X0366070Y0284069D02*
X0490400Y0284069D01*
X0490400Y0280870D02*
X0268572Y0280870D01*
X0271771Y0277672D02*
X0490400Y0277672D01*
X0490400Y0274473D02*
X0464886Y0274473D01*
X0464037Y0274825D02*
X0461163Y0274825D01*
X0458507Y0273725D01*
X0456475Y0271693D01*
X0455375Y0269037D01*
X0455375Y0266163D01*
X0456475Y0263507D01*
X0458507Y0261475D01*
X0461163Y0260375D01*
X0464037Y0260375D01*
X0466693Y0261475D01*
X0468725Y0263507D01*
X0469825Y0266163D01*
X0469825Y0269037D01*
X0468725Y0271693D01*
X0466693Y0273725D01*
X0464037Y0274825D01*
X0460314Y0274473D02*
X0429886Y0274473D01*
X0429037Y0274825D02*
X0426163Y0274825D01*
X0423507Y0273725D01*
X0421475Y0271693D01*
X0420375Y0269037D01*
X0420375Y0266163D01*
X0421475Y0263507D01*
X0423507Y0261475D01*
X0426163Y0260375D01*
X0429037Y0260375D01*
X0431693Y0261475D01*
X0433725Y0263507D01*
X0434825Y0266163D01*
X0434825Y0269037D01*
X0433725Y0271693D01*
X0431693Y0273725D01*
X0429037Y0274825D01*
X0425314Y0274473D02*
X0352670Y0274473D01*
X0352342Y0274802D02*
X0350174Y0275700D01*
X0347826Y0275700D01*
X0345658Y0274802D01*
X0343998Y0273142D01*
X0343100Y0270974D01*
X0343100Y0268626D01*
X0343998Y0266458D01*
X0345658Y0264798D01*
X0347826Y0263900D01*
X0350174Y0263900D01*
X0352342Y0264798D01*
X0354002Y0266458D01*
X0354900Y0268626D01*
X0354900Y0270974D01*
X0354002Y0273142D01*
X0352342Y0274802D01*
X0354775Y0271275D02*
X0421302Y0271275D01*
X0420375Y0268076D02*
X0354672Y0268076D01*
X0352422Y0264878D02*
X0420907Y0264878D01*
X0423303Y0261679D02*
X0411112Y0261679D01*
X0410889Y0261902D02*
X0411902Y0260889D01*
X0412450Y0259566D01*
X0412450Y0258134D01*
X0411902Y0256811D01*
X0411850Y0256759D01*
X0411850Y0212003D01*
X0411393Y0210901D01*
X0410549Y0210057D01*
X0408049Y0207557D01*
X0406947Y0207100D01*
X0392191Y0207100D01*
X0392139Y0207048D01*
X0390816Y0206500D01*
X0389384Y0206500D01*
X0388061Y0207048D01*
X0387048Y0208061D01*
X0386500Y0209384D01*
X0386500Y0210816D01*
X0387048Y0212139D01*
X0388061Y0213152D01*
X0389384Y0213700D01*
X0390816Y0213700D01*
X0392139Y0213152D01*
X0392191Y0213100D01*
X0405107Y0213100D01*
X0405850Y0213843D01*
X0405850Y0256759D01*
X0405798Y0256811D01*
X0405250Y0258134D01*
X0405250Y0259566D01*
X0405798Y0260889D01*
X0406811Y0261902D01*
X0408134Y0262450D01*
X0409566Y0262450D01*
X0410889Y0261902D01*
X0412450Y0258481D02*
X0490400Y0258481D01*
X0490400Y0261679D02*
X0466897Y0261679D01*
X0469293Y0264878D02*
X0490400Y0264878D01*
X0490400Y0268076D02*
X0469825Y0268076D01*
X0468898Y0271275D02*
X0490400Y0271275D01*
X0490400Y0287268D02*
X0388251Y0287268D01*
X0385394Y0287268D02*
X0369010Y0287268D01*
X0388765Y0293665D02*
X0490400Y0293665D01*
X0490400Y0296863D02*
X0422441Y0296863D01*
X0433898Y0271275D02*
X0456302Y0271275D01*
X0455375Y0268076D02*
X0434825Y0268076D01*
X0434293Y0264878D02*
X0455907Y0264878D01*
X0458303Y0261679D02*
X0431897Y0261679D01*
X0429037Y0244825D02*
X0426163Y0244825D01*
X0423507Y0243725D01*
X0421475Y0241693D01*
X0420375Y0239037D01*
X0420375Y0236163D01*
X0421475Y0233507D01*
X0423507Y0231475D01*
X0426163Y0230375D01*
X0429037Y0230375D01*
X0431693Y0231475D01*
X0433725Y0233507D01*
X0434825Y0236163D01*
X0434825Y0239037D01*
X0433725Y0241693D01*
X0431693Y0243725D01*
X0429037Y0244825D01*
X0432929Y0242488D02*
X0457271Y0242488D01*
X0456475Y0241693D02*
X0455375Y0239037D01*
X0455375Y0236163D01*
X0456475Y0233507D01*
X0458507Y0231475D01*
X0461163Y0230375D01*
X0464037Y0230375D01*
X0466693Y0231475D01*
X0468725Y0233507D01*
X0469825Y0236163D01*
X0469825Y0239037D01*
X0468725Y0241693D01*
X0466693Y0243725D01*
X0464037Y0244825D01*
X0461163Y0244825D01*
X0458507Y0243725D01*
X0456475Y0241693D01*
X0455480Y0239290D02*
X0434720Y0239290D01*
X0434795Y0236091D02*
X0455405Y0236091D01*
X0457089Y0232893D02*
X0433111Y0232893D01*
X0422089Y0232893D02*
X0411850Y0232893D01*
X0411850Y0236091D02*
X0420405Y0236091D01*
X0420480Y0239290D02*
X0411850Y0239290D01*
X0411850Y0242488D02*
X0422271Y0242488D01*
X0411850Y0245687D02*
X0490400Y0245687D01*
X0490400Y0248885D02*
X0411850Y0248885D01*
X0411850Y0252084D02*
X0490400Y0252084D01*
X0490400Y0255282D02*
X0411850Y0255282D01*
X0406588Y0261679D02*
X0275600Y0261679D01*
X0275600Y0258481D02*
X0405250Y0258481D01*
X0405850Y0255282D02*
X0352509Y0255282D01*
X0352139Y0255652D02*
X0350816Y0256200D01*
X0349384Y0256200D01*
X0348061Y0255652D01*
X0347048Y0254639D01*
X0346500Y0253316D01*
X0346500Y0251884D01*
X0347048Y0250561D01*
X0347100Y0250509D01*
X0347100Y0240941D01*
X0347048Y0240889D01*
X0346500Y0239566D01*
X0346500Y0238134D01*
X0347048Y0236811D01*
X0348061Y0235798D01*
X0349384Y0235250D01*
X0350816Y0235250D01*
X0352139Y0235798D01*
X0353152Y0236811D01*
X0353700Y0238134D01*
X0353700Y0239566D01*
X0353152Y0240889D01*
X0353100Y0240941D01*
X0353100Y0250509D01*
X0353152Y0250561D01*
X0353700Y0251884D01*
X0353700Y0253316D01*
X0353152Y0254639D01*
X0352139Y0255652D01*
X0353700Y0252084D02*
X0405850Y0252084D01*
X0405850Y0248885D02*
X0353100Y0248885D01*
X0353100Y0245687D02*
X0405850Y0245687D01*
X0405850Y0242488D02*
X0353100Y0242488D01*
X0353700Y0239290D02*
X0405850Y0239290D01*
X0405850Y0236091D02*
X0352432Y0236091D01*
X0347767Y0236091D02*
X0254800Y0236091D01*
X0254273Y0232893D02*
X0405850Y0232893D01*
X0405850Y0229694D02*
X0243100Y0229694D01*
X0243100Y0226496D02*
X0405850Y0226496D01*
X0405850Y0223297D02*
X0243100Y0223297D01*
X0243100Y0220099D02*
X0405850Y0220099D01*
X0405850Y0216900D02*
X0243100Y0216900D01*
X0243100Y0213702D02*
X0405709Y0213702D01*
X0410996Y0210503D02*
X0490400Y0210503D01*
X0490400Y0207305D02*
X0407441Y0207305D01*
X0411850Y0213702D02*
X0490400Y0213702D01*
X0490400Y0216900D02*
X0411850Y0216900D01*
X0411850Y0220099D02*
X0490400Y0220099D01*
X0490400Y0223297D02*
X0411850Y0223297D01*
X0411850Y0226496D02*
X0490400Y0226496D01*
X0490400Y0229694D02*
X0411850Y0229694D01*
X0386500Y0210503D02*
X0243100Y0210503D01*
X0243100Y0207305D02*
X0387804Y0207305D01*
X0346500Y0239290D02*
X0276161Y0239290D01*
X0275600Y0242488D02*
X0347100Y0242488D01*
X0347100Y0245687D02*
X0275600Y0245687D01*
X0275600Y0248885D02*
X0347100Y0248885D01*
X0346500Y0252084D02*
X0275600Y0252084D01*
X0275600Y0255282D02*
X0347691Y0255282D01*
X0345578Y0264878D02*
X0334622Y0264878D01*
X0334542Y0264798D02*
X0336202Y0266458D01*
X0337100Y0268626D01*
X0337100Y0270974D01*
X0336202Y0273142D01*
X0334542Y0274802D01*
X0332374Y0275700D01*
X0330026Y0275700D01*
X0327858Y0274802D01*
X0326198Y0273142D01*
X0325300Y0270974D01*
X0325300Y0268626D01*
X0326198Y0266458D01*
X0327858Y0264798D01*
X0330026Y0263900D01*
X0332374Y0263900D01*
X0334542Y0264798D01*
X0336872Y0268076D02*
X0343328Y0268076D01*
X0343225Y0271275D02*
X0336975Y0271275D01*
X0334870Y0274473D02*
X0345330Y0274473D01*
X0327530Y0274473D02*
X0274969Y0274473D01*
X0275600Y0271275D02*
X0325425Y0271275D01*
X0325528Y0268076D02*
X0275600Y0268076D01*
X0275600Y0264878D02*
X0327778Y0264878D01*
X0327790Y0290466D02*
X0242077Y0290466D01*
X0261054Y0293665D02*
X0201850Y0293665D01*
X0201850Y0290466D02*
X0218723Y0290466D01*
X0215525Y0287268D02*
X0208757Y0287268D01*
X0206443Y0287268D02*
X0201850Y0287268D01*
X0218100Y0264878D02*
X0253579Y0264878D01*
X0254600Y0261679D02*
X0252533Y0261679D01*
X0247667Y0261679D02*
X0218100Y0261679D01*
X0218100Y0258481D02*
X0245400Y0258481D01*
X0245400Y0255282D02*
X0218100Y0255282D01*
X0221925Y0252084D02*
X0245400Y0252084D01*
X0245400Y0248885D02*
X0224307Y0248885D01*
X0225600Y0245687D02*
X0245400Y0245687D01*
X0245400Y0242488D02*
X0225600Y0242488D01*
X0225600Y0239290D02*
X0245400Y0239290D01*
X0245400Y0236091D02*
X0241078Y0236091D01*
X0239122Y0236091D02*
X0228351Y0236091D01*
X0230600Y0232893D02*
X0236500Y0232893D01*
X0237100Y0229694D02*
X0230600Y0229694D01*
X0230600Y0226496D02*
X0237100Y0226496D01*
X0237100Y0223297D02*
X0230600Y0223297D01*
X0230600Y0220099D02*
X0237100Y0220099D01*
X0237100Y0216900D02*
X0230600Y0216900D01*
X0230600Y0213702D02*
X0237100Y0213702D01*
X0237100Y0210503D02*
X0230600Y0210503D01*
X0230600Y0207305D02*
X0237100Y0207305D01*
X0237100Y0204106D02*
X0232836Y0204106D01*
X0236522Y0200908D02*
X0236538Y0200908D01*
X0237049Y0194511D02*
X0490400Y0194511D01*
X0490400Y0197709D02*
X0242800Y0197709D01*
X0243662Y0200908D02*
X0490400Y0200908D01*
X0490400Y0204106D02*
X0243100Y0204106D01*
X0230995Y0191312D02*
X0490400Y0191312D01*
X0490400Y0188114D02*
X0230674Y0188114D01*
X0224526Y0188114D02*
X0184677Y0188114D01*
X0186200Y0184915D02*
X0490400Y0184915D01*
X0490400Y0181717D02*
X0185600Y0181717D01*
X0185600Y0178518D02*
X0301846Y0178518D01*
X0302526Y0178800D02*
X0300358Y0177902D01*
X0298698Y0176242D01*
X0297800Y0174074D01*
X0297800Y0171726D01*
X0298698Y0169558D01*
X0300358Y0167898D01*
X0302526Y0167000D01*
X0304874Y0167000D01*
X0307042Y0167898D01*
X0308702Y0169558D01*
X0309600Y0171726D01*
X0309600Y0174074D01*
X0308702Y0176242D01*
X0307042Y0177902D01*
X0304874Y0178800D01*
X0302526Y0178800D01*
X0305554Y0178518D02*
X0319646Y0178518D01*
X0320326Y0178800D02*
X0318158Y0177902D01*
X0316498Y0176242D01*
X0315600Y0174074D01*
X0315600Y0171726D01*
X0316498Y0169558D01*
X0318158Y0167898D01*
X0320326Y0167000D01*
X0322674Y0167000D01*
X0324842Y0167898D01*
X0326502Y0169558D01*
X0327400Y0171726D01*
X0327400Y0174074D01*
X0326502Y0176242D01*
X0324842Y0177902D01*
X0322674Y0178800D01*
X0320326Y0178800D01*
X0323354Y0178518D02*
X0490400Y0178518D01*
X0490400Y0175320D02*
X0326884Y0175320D01*
X0327400Y0172121D02*
X0490400Y0172121D01*
X0490400Y0168923D02*
X0325866Y0168923D01*
X0317134Y0168923D02*
X0308066Y0168923D01*
X0309600Y0172121D02*
X0315600Y0172121D01*
X0316116Y0175320D02*
X0309084Y0175320D01*
X0298316Y0175320D02*
X0185600Y0175320D01*
X0185600Y0172121D02*
X0297800Y0172121D01*
X0299334Y0168923D02*
X0185600Y0168923D01*
X0185600Y0165724D02*
X0490400Y0165724D01*
X0490400Y0162526D02*
X0185600Y0162526D01*
X0185600Y0159327D02*
X0490400Y0159327D01*
X0490400Y0156129D02*
X0185600Y0156129D01*
X0185600Y0152930D02*
X0300873Y0152930D01*
X0301282Y0153138D02*
X0300398Y0152688D01*
X0299596Y0152105D01*
X0298895Y0151404D01*
X0298312Y0150602D01*
X0297862Y0149718D01*
X0297555Y0148775D01*
X0297400Y0147796D01*
X0297400Y0147300D01*
X0303700Y0147300D01*
X0303700Y0147300D01*
X0303700Y0153600D01*
X0304196Y0153600D01*
X0305175Y0153445D01*
X0306118Y0153138D01*
X0307002Y0152688D01*
X0307804Y0152105D01*
X0308505Y0151404D01*
X0309088Y0150602D01*
X0309538Y0149718D01*
X0309845Y0148775D01*
X0310000Y0147796D01*
X0310000Y0147300D01*
X0303700Y0147300D01*
X0303700Y0147300D01*
X0303700Y0147300D01*
X0303700Y0153600D01*
X0303204Y0153600D01*
X0302225Y0153445D01*
X0301282Y0153138D01*
X0303700Y0152930D02*
X0303700Y0152930D01*
X0306527Y0152930D02*
X0319675Y0152930D01*
X0320326Y0153200D02*
X0318158Y0152302D01*
X0316498Y0150642D01*
X0315600Y0148474D01*
X0315600Y0146126D01*
X0316498Y0143958D01*
X0318158Y0142298D01*
X0320326Y0141400D01*
X0322674Y0141400D01*
X0324842Y0142298D01*
X0326502Y0143958D01*
X0327400Y0146126D01*
X0327400Y0148474D01*
X0326502Y0150642D01*
X0324842Y0152302D01*
X0322674Y0153200D01*
X0320326Y0153200D01*
X0323325Y0152930D02*
X0490400Y0152930D01*
X0490400Y0149732D02*
X0326879Y0149732D01*
X0327400Y0146533D02*
X0490400Y0146533D01*
X0490400Y0143334D02*
X0325878Y0143334D01*
X0317122Y0143334D02*
X0308606Y0143334D01*
X0308505Y0143196D02*
X0309088Y0143998D01*
X0309538Y0144882D01*
X0309845Y0145825D01*
X0310000Y0146804D01*
X0310000Y0147300D01*
X0303700Y0147300D01*
X0303700Y0141000D01*
X0304196Y0141000D01*
X0305175Y0141155D01*
X0306118Y0141462D01*
X0307002Y0141912D01*
X0307804Y0142495D01*
X0308505Y0143196D01*
X0309957Y0146533D02*
X0315600Y0146533D01*
X0316121Y0149732D02*
X0309532Y0149732D01*
X0303700Y0149732D02*
X0303700Y0149732D01*
X0303700Y0147300D02*
X0297400Y0147300D01*
X0297400Y0146804D01*
X0297555Y0145825D01*
X0297862Y0144882D01*
X0298312Y0143998D01*
X0298895Y0143196D01*
X0299596Y0142495D01*
X0300398Y0141912D01*
X0301282Y0141462D01*
X0302225Y0141155D01*
X0303204Y0141000D01*
X0303700Y0141000D01*
X0303700Y0147300D01*
X0303700Y0147300D01*
X0303700Y0146533D02*
X0303700Y0146533D01*
X0303700Y0143334D02*
X0303700Y0143334D01*
X0298794Y0143334D02*
X0185600Y0143334D01*
X0185600Y0140136D02*
X0490400Y0140136D01*
X0490400Y0136937D02*
X0230735Y0136937D01*
X0230652Y0137139D02*
X0229639Y0138152D01*
X0228316Y0138700D01*
X0226884Y0138700D01*
X0225561Y0138152D01*
X0224548Y0137139D01*
X0224000Y0135816D01*
X0224000Y0134384D01*
X0224548Y0133061D01*
X0224600Y0133009D01*
X0224600Y0123495D01*
X0222382Y0120110D01*
X0221762Y0119853D01*
X0220749Y0118840D01*
X0220201Y0117517D01*
X0220201Y0116085D01*
X0220319Y0115800D01*
X0211425Y0115800D01*
X0210949Y0116277D01*
X0211200Y0116884D01*
X0211200Y0118316D01*
X0210652Y0119639D01*
X0209639Y0120652D01*
X0208316Y0121200D01*
X0206884Y0121200D01*
X0205561Y0120652D01*
X0204548Y0119639D01*
X0204000Y0118316D01*
X0204000Y0116884D01*
X0204400Y0115918D01*
X0204400Y0114463D01*
X0204887Y0113287D01*
X0207387Y0110787D01*
X0208287Y0109887D01*
X0209463Y0109400D01*
X0243418Y0109400D01*
X0244384Y0109000D01*
X0245816Y0109000D01*
X0247139Y0109548D01*
X0248152Y0110561D01*
X0248700Y0111884D01*
X0248700Y0113316D01*
X0248152Y0114639D01*
X0247139Y0115652D01*
X0245816Y0116200D01*
X0244384Y0116200D01*
X0243418Y0115800D01*
X0227283Y0115800D01*
X0227401Y0116085D01*
X0227401Y0116821D01*
X0229940Y0120697D01*
X0230143Y0120901D01*
X0230264Y0121192D01*
X0230436Y0121455D01*
X0230490Y0121738D01*
X0230600Y0122003D01*
X0230600Y0122318D01*
X0230659Y0122628D01*
X0230600Y0122909D01*
X0230600Y0133009D01*
X0230652Y0133061D01*
X0231200Y0134384D01*
X0231200Y0135816D01*
X0230652Y0137139D01*
X0230933Y0133739D02*
X0423541Y0133739D01*
X0423507Y0133725D02*
X0421475Y0131693D01*
X0420375Y0129037D01*
X0420375Y0126163D01*
X0421475Y0123507D01*
X0423507Y0121475D01*
X0426163Y0120375D01*
X0429037Y0120375D01*
X0431693Y0121475D01*
X0433725Y0123507D01*
X0434825Y0126163D01*
X0434825Y0129037D01*
X0433725Y0131693D01*
X0431693Y0133725D01*
X0429037Y0134825D01*
X0426163Y0134825D01*
X0423507Y0133725D01*
X0420998Y0130540D02*
X0372007Y0130540D01*
X0372342Y0130402D02*
X0370174Y0131300D01*
X0367826Y0131300D01*
X0365658Y0130402D01*
X0363998Y0128742D01*
X0363100Y0126574D01*
X0363100Y0124226D01*
X0363998Y0122058D01*
X0365658Y0120398D01*
X0367826Y0119500D01*
X0370174Y0119500D01*
X0372342Y0120398D01*
X0374002Y0122058D01*
X0374900Y0124226D01*
X0374900Y0126574D01*
X0374002Y0128742D01*
X0372342Y0130402D01*
X0374582Y0127342D02*
X0420375Y0127342D01*
X0421211Y0124143D02*
X0374866Y0124143D01*
X0372889Y0120945D02*
X0424787Y0120945D01*
X0430413Y0120945D02*
X0459787Y0120945D01*
X0458507Y0121475D02*
X0461163Y0120375D01*
X0464037Y0120375D01*
X0466693Y0121475D01*
X0468725Y0123507D01*
X0469825Y0126163D01*
X0469825Y0129037D01*
X0468725Y0131693D01*
X0466693Y0133725D01*
X0464037Y0134825D01*
X0461163Y0134825D01*
X0458507Y0133725D01*
X0456475Y0131693D01*
X0455375Y0129037D01*
X0455375Y0126163D01*
X0456475Y0123507D01*
X0458507Y0121475D01*
X0456211Y0124143D02*
X0433989Y0124143D01*
X0434825Y0127342D02*
X0455375Y0127342D01*
X0455998Y0130540D02*
X0434202Y0130540D01*
X0431659Y0133739D02*
X0458541Y0133739D01*
X0466659Y0133739D02*
X0490400Y0133739D01*
X0490400Y0130540D02*
X0469202Y0130540D01*
X0469825Y0127342D02*
X0490400Y0127342D01*
X0490400Y0124143D02*
X0468989Y0124143D01*
X0465413Y0120945D02*
X0490400Y0120945D01*
X0490400Y0117746D02*
X0228007Y0117746D01*
X0230162Y0120945D02*
X0252311Y0120945D01*
X0252858Y0120398D02*
X0251198Y0122058D01*
X0250300Y0124226D01*
X0250300Y0126574D01*
X0251198Y0128742D01*
X0252858Y0130402D01*
X0255026Y0131300D01*
X0257374Y0131300D01*
X0259542Y0130402D01*
X0261202Y0128742D01*
X0262100Y0126574D01*
X0262100Y0124226D01*
X0261202Y0122058D01*
X0259542Y0120398D01*
X0257374Y0119500D01*
X0255026Y0119500D01*
X0252858Y0120398D01*
X0250334Y0124143D02*
X0230600Y0124143D01*
X0230600Y0127342D02*
X0250618Y0127342D01*
X0253193Y0130540D02*
X0230600Y0130540D01*
X0224600Y0130540D02*
X0185600Y0130540D01*
X0185600Y0127342D02*
X0224600Y0127342D01*
X0224600Y0124143D02*
X0185600Y0124143D01*
X0185600Y0120945D02*
X0206268Y0120945D01*
X0208932Y0120945D02*
X0222929Y0120945D01*
X0220296Y0117746D02*
X0211200Y0117746D01*
X0204000Y0117746D02*
X0185600Y0117746D01*
X0185600Y0114548D02*
X0204400Y0114548D01*
X0206825Y0111349D02*
X0185600Y0111349D01*
X0185600Y0108151D02*
X0490400Y0108151D01*
X0490400Y0111349D02*
X0248479Y0111349D01*
X0248190Y0114548D02*
X0490400Y0114548D01*
X0490400Y0104952D02*
X0464621Y0104952D01*
X0465056Y0104836D02*
X0464091Y0105095D01*
X0463100Y0105225D01*
X0462675Y0105225D01*
X0462675Y0097675D01*
X0462525Y0097675D01*
X0462525Y0105225D01*
X0462100Y0105225D01*
X0461109Y0105095D01*
X0460144Y0104836D01*
X0459220Y0104453D01*
X0458355Y0103954D01*
X0457562Y0103345D01*
X0456855Y0102638D01*
X0456246Y0101845D01*
X0455747Y0100980D01*
X0455364Y0100056D01*
X0455105Y0099091D01*
X0454975Y0098100D01*
X0454975Y0097675D01*
X0462525Y0097675D01*
X0462525Y0097525D01*
X0454975Y0097525D01*
X0454975Y0097100D01*
X0455105Y0096109D01*
X0455364Y0095144D01*
X0455747Y0094220D01*
X0456246Y0093355D01*
X0456855Y0092562D01*
X0457562Y0091855D01*
X0458355Y0091246D01*
X0459220Y0090747D01*
X0460144Y0090364D01*
X0461109Y0090105D01*
X0462100Y0089975D01*
X0462525Y0089975D01*
X0462525Y0097525D01*
X0462675Y0097525D01*
X0462675Y0097675D01*
X0470225Y0097675D01*
X0470225Y0098100D01*
X0470095Y0099091D01*
X0469836Y0100056D01*
X0469453Y0100980D01*
X0468954Y0101845D01*
X0468345Y0102638D01*
X0467638Y0103345D01*
X0466845Y0103954D01*
X0465980Y0104453D01*
X0465056Y0104836D01*
X0462675Y0104952D02*
X0462525Y0104952D01*
X0460579Y0104952D02*
X0371979Y0104952D01*
X0372342Y0104802D02*
X0370174Y0105700D01*
X0367826Y0105700D01*
X0365658Y0104802D01*
X0363998Y0103142D01*
X0363100Y0100974D01*
X0363100Y0098626D01*
X0363998Y0096458D01*
X0365658Y0094798D01*
X0367826Y0093900D01*
X0370174Y0093900D01*
X0372342Y0094798D01*
X0374002Y0096458D01*
X0374900Y0098626D01*
X0374900Y0100974D01*
X0374002Y0103142D01*
X0372342Y0104802D01*
X0374577Y0101754D02*
X0421536Y0101754D01*
X0421475Y0101693D02*
X0420375Y0099037D01*
X0420375Y0096163D01*
X0421475Y0093507D01*
X0423507Y0091475D01*
X0426163Y0090375D01*
X0429037Y0090375D01*
X0431693Y0091475D01*
X0433725Y0093507D01*
X0434825Y0096163D01*
X0434825Y0099037D01*
X0433725Y0101693D01*
X0431693Y0103725D01*
X0429037Y0104825D01*
X0426163Y0104825D01*
X0423507Y0103725D01*
X0421475Y0101693D01*
X0420375Y0098555D02*
X0374871Y0098555D01*
X0372901Y0095357D02*
X0420709Y0095357D01*
X0422824Y0092158D02*
X0268100Y0092158D01*
X0268100Y0093009D02*
X0268152Y0093061D01*
X0268700Y0094384D01*
X0268700Y0095816D01*
X0268152Y0097139D01*
X0267139Y0098152D01*
X0265816Y0098700D01*
X0264384Y0098700D01*
X0263061Y0098152D01*
X0262048Y0097139D01*
X0261500Y0095816D01*
X0261500Y0094384D01*
X0262048Y0093061D01*
X0262100Y0093009D01*
X0262100Y0082191D01*
X0262048Y0082139D01*
X0261500Y0080816D01*
X0261500Y0079384D01*
X0262048Y0078061D01*
X0263061Y0077048D01*
X0264384Y0076500D01*
X0265816Y0076500D01*
X0267139Y0077048D01*
X0268152Y0078061D01*
X0268700Y0079384D01*
X0268700Y0080816D01*
X0268152Y0082139D01*
X0268100Y0082191D01*
X0268100Y0093009D01*
X0268700Y0095357D02*
X0270099Y0095357D01*
X0270658Y0094798D02*
X0272826Y0093900D01*
X0275174Y0093900D01*
X0277342Y0094798D01*
X0279002Y0096458D01*
X0279900Y0098626D01*
X0279900Y0100974D01*
X0279002Y0103142D01*
X0277342Y0104802D01*
X0275174Y0105700D01*
X0272826Y0105700D01*
X0270658Y0104802D01*
X0268998Y0103142D01*
X0268100Y0100974D01*
X0268100Y0098626D01*
X0268998Y0096458D01*
X0270658Y0094798D01*
X0268129Y0098555D02*
X0266165Y0098555D01*
X0264035Y0098555D02*
X0262381Y0098555D01*
X0262345Y0098325D02*
X0262500Y0099304D01*
X0262500Y0099800D01*
X0262500Y0100296D01*
X0262345Y0101275D01*
X0262038Y0102218D01*
X0261588Y0103102D01*
X0261005Y0103904D01*
X0260304Y0104605D01*
X0259502Y0105188D01*
X0258618Y0105638D01*
X0257675Y0105945D01*
X0256696Y0106100D01*
X0256200Y0106100D01*
X0256200Y0099800D01*
X0256200Y0099800D01*
X0262500Y0099800D01*
X0256200Y0099800D01*
X0256200Y0099800D01*
X0256200Y0099800D01*
X0249900Y0099800D01*
X0249900Y0100296D01*
X0250055Y0101275D01*
X0250362Y0102218D01*
X0250812Y0103102D01*
X0251395Y0103904D01*
X0252096Y0104605D01*
X0252898Y0105188D01*
X0253782Y0105638D01*
X0254725Y0105945D01*
X0255704Y0106100D01*
X0256200Y0106100D01*
X0256200Y0099800D01*
X0256200Y0093500D01*
X0256696Y0093500D01*
X0257675Y0093655D01*
X0258618Y0093962D01*
X0259502Y0094412D01*
X0260304Y0094995D01*
X0261005Y0095696D01*
X0261588Y0096498D01*
X0262038Y0097382D01*
X0262345Y0098325D01*
X0261500Y0095357D02*
X0260666Y0095357D01*
X0262100Y0092158D02*
X0180600Y0092158D01*
X0180600Y0088960D02*
X0204267Y0088960D01*
X0204000Y0088316D02*
X0204000Y0086884D01*
X0204548Y0085561D01*
X0205561Y0084548D01*
X0206884Y0084000D01*
X0206957Y0084000D01*
X0208133Y0082824D01*
X0199691Y0082824D01*
X0199639Y0082876D01*
X0198316Y0083424D01*
X0196884Y0083424D01*
X0195561Y0082876D01*
X0194548Y0081864D01*
X0194000Y0080540D01*
X0194000Y0079108D01*
X0194548Y0077785D01*
X0195561Y0076772D01*
X0196884Y0076224D01*
X0198316Y0076224D01*
X0199639Y0076772D01*
X0199691Y0076824D01*
X0217022Y0076824D01*
X0217048Y0076762D01*
X0218061Y0075749D01*
X0219384Y0075201D01*
X0220816Y0075201D01*
X0222139Y0075749D01*
X0223152Y0076762D01*
X0223700Y0078085D01*
X0223700Y0079517D01*
X0223152Y0080840D01*
X0222139Y0081853D01*
X0221542Y0082100D01*
X0231357Y0082100D01*
X0232100Y0081357D01*
X0232100Y0077191D01*
X0232048Y0077139D01*
X0231500Y0075816D01*
X0231500Y0074384D01*
X0232048Y0073061D01*
X0233061Y0072048D01*
X0234384Y0071500D01*
X0235816Y0071500D01*
X0237139Y0072048D01*
X0238152Y0073061D01*
X0238700Y0074384D01*
X0238700Y0075816D01*
X0238152Y0077139D01*
X0238100Y0077191D01*
X0238100Y0083197D01*
X0237643Y0084299D01*
X0235143Y0086799D01*
X0234299Y0087643D01*
X0233197Y0088100D01*
X0211343Y0088100D01*
X0211200Y0088243D01*
X0211200Y0088316D01*
X0210652Y0089639D01*
X0209639Y0090652D01*
X0208316Y0091200D01*
X0206884Y0091200D01*
X0205561Y0090652D01*
X0204548Y0089639D01*
X0204000Y0088316D01*
X0204465Y0085761D02*
X0180600Y0085761D01*
X0180600Y0082563D02*
X0195247Y0082563D01*
X0194000Y0079364D02*
X0180927Y0079364D01*
X0182125Y0076166D02*
X0217644Y0076166D01*
X0222556Y0076166D02*
X0231645Y0076166D01*
X0232100Y0079364D02*
X0223700Y0079364D01*
X0232142Y0072967D02*
X0177775Y0072967D01*
X0164779Y0066570D02*
X0004800Y0066570D01*
X0004800Y0063372D02*
X0166805Y0063372D01*
X0164600Y0079364D02*
X0098976Y0079364D01*
X0097728Y0082563D02*
X0155975Y0082563D01*
X0153894Y0085761D02*
X0093681Y0085761D01*
X0090483Y0088960D02*
X0153750Y0088960D01*
X0150551Y0092158D02*
X0087284Y0092158D01*
X0084086Y0095357D02*
X0147352Y0095357D01*
X0144683Y0098555D02*
X0080887Y0098555D01*
X0080600Y0101754D02*
X0144600Y0101754D01*
X0144600Y0104952D02*
X0080600Y0104952D01*
X0061587Y0101754D02*
X0004800Y0101754D01*
X0004800Y0104952D02*
X0059406Y0104952D01*
X0059406Y0108151D02*
X0004800Y0108151D01*
X0004800Y0111349D02*
X0061183Y0111349D01*
X0059501Y0114548D02*
X0004800Y0114548D01*
X0004800Y0117746D02*
X0059406Y0117746D01*
X0060778Y0120945D02*
X0004800Y0120945D01*
X0004800Y0124143D02*
X0057410Y0124143D01*
X0053615Y0127342D02*
X0004800Y0127342D01*
X0004800Y0130540D02*
X0049568Y0130540D01*
X0049175Y0133739D02*
X0004800Y0133739D01*
X0004800Y0136937D02*
X0059406Y0136937D01*
X0059969Y0140136D02*
X0004800Y0140136D01*
X0004800Y0143334D02*
X0060715Y0143334D01*
X0059406Y0146533D02*
X0004800Y0146533D01*
X0004800Y0149732D02*
X0059565Y0149732D01*
X0061119Y0152930D02*
X0004800Y0152930D01*
X0016570Y0162675D02*
X0016570Y0162675D01*
X0021731Y0158344D02*
X0021731Y0158344D01*
X0025100Y0157750D02*
X0025100Y0157750D01*
X0028469Y0158344D02*
X0028469Y0158344D01*
X0056025Y0133739D02*
X0060310Y0133739D01*
X0060374Y0130540D02*
X0058902Y0130540D01*
X0059406Y0098555D02*
X0004800Y0098555D01*
X0004800Y0095357D02*
X0059406Y0095357D01*
X0061891Y0092158D02*
X0004800Y0092158D01*
X0004800Y0088960D02*
X0059406Y0088960D01*
X0059406Y0085761D02*
X0004800Y0085761D01*
X0004800Y0082563D02*
X0061486Y0082563D01*
X0150600Y0101754D02*
X0156076Y0101754D01*
X0153894Y0104952D02*
X0150600Y0104952D01*
X0150600Y0108151D02*
X0153894Y0108151D01*
X0155671Y0111349D02*
X0150600Y0111349D01*
X0150600Y0114548D02*
X0153990Y0114548D01*
X0153894Y0117746D02*
X0150600Y0117746D01*
X0150600Y0120945D02*
X0155267Y0120945D01*
X0154394Y0124143D02*
X0150600Y0124143D01*
X0150600Y0127342D02*
X0153894Y0127342D01*
X0154862Y0130540D02*
X0150600Y0130540D01*
X0150600Y0133739D02*
X0154798Y0133739D01*
X0153894Y0136937D02*
X0150600Y0136937D01*
X0150600Y0140136D02*
X0154458Y0140136D01*
X0155203Y0143334D02*
X0150600Y0143334D01*
X0150600Y0146533D02*
X0153894Y0146533D01*
X0154053Y0149732D02*
X0150600Y0149732D01*
X0150600Y0152930D02*
X0155607Y0152930D01*
X0153894Y0156129D02*
X0150600Y0156129D01*
X0150600Y0159327D02*
X0153894Y0159327D01*
X0156847Y0162526D02*
X0150600Y0162526D01*
X0150600Y0165724D02*
X0179600Y0165724D01*
X0179600Y0162526D02*
X0162841Y0162526D01*
X0165794Y0159327D02*
X0179600Y0159327D01*
X0179600Y0156129D02*
X0165794Y0156129D01*
X0164081Y0152930D02*
X0179600Y0152930D01*
X0179600Y0149732D02*
X0165635Y0149732D01*
X0165794Y0146533D02*
X0179600Y0146533D01*
X0179600Y0143334D02*
X0164485Y0143334D01*
X0165231Y0140136D02*
X0179600Y0140136D01*
X0179600Y0136937D02*
X0165794Y0136937D01*
X0167456Y0133739D02*
X0179600Y0133739D01*
X0179600Y0130540D02*
X0170355Y0130540D01*
X0170600Y0127342D02*
X0179600Y0127342D01*
X0179600Y0124143D02*
X0170600Y0124143D01*
X0170600Y0120945D02*
X0179600Y0120945D01*
X0179600Y0117746D02*
X0170600Y0117746D01*
X0175690Y0114548D02*
X0179600Y0114548D01*
X0179600Y0111349D02*
X0175979Y0111349D01*
X0185600Y0104952D02*
X0252573Y0104952D01*
X0256200Y0104952D02*
X0256200Y0104952D01*
X0256200Y0101754D02*
X0256200Y0101754D01*
X0256200Y0099800D02*
X0249900Y0099800D01*
X0249900Y0099304D01*
X0250055Y0098325D01*
X0250362Y0097382D01*
X0250812Y0096498D01*
X0251395Y0095696D01*
X0252096Y0094995D01*
X0252898Y0094412D01*
X0253782Y0093962D01*
X0254725Y0093655D01*
X0255704Y0093500D01*
X0256200Y0093500D01*
X0256200Y0099800D01*
X0256200Y0099800D01*
X0256200Y0098555D02*
X0256200Y0098555D01*
X0256200Y0095357D02*
X0256200Y0095357D01*
X0251734Y0095357D02*
X0180600Y0095357D01*
X0180600Y0098555D02*
X0250019Y0098555D01*
X0250211Y0101754D02*
X0186146Y0101754D01*
X0210933Y0088960D02*
X0262100Y0088960D01*
X0262100Y0085761D02*
X0236181Y0085761D01*
X0238100Y0082563D02*
X0262100Y0082563D01*
X0261508Y0079364D02*
X0238100Y0079364D01*
X0238555Y0076166D02*
X0298032Y0076166D01*
X0297800Y0076726D02*
X0298698Y0074558D01*
X0300358Y0072898D01*
X0302526Y0072000D01*
X0304874Y0072000D01*
X0307042Y0072898D01*
X0308702Y0074558D01*
X0309600Y0076726D01*
X0309600Y0079074D01*
X0308702Y0081242D01*
X0307042Y0082902D01*
X0304874Y0083800D01*
X0302526Y0083800D01*
X0300358Y0082902D01*
X0298698Y0081242D01*
X0297800Y0079074D01*
X0297800Y0076726D01*
X0297920Y0079364D02*
X0268692Y0079364D01*
X0268100Y0082563D02*
X0300019Y0082563D01*
X0307381Y0082563D02*
X0317819Y0082563D01*
X0318158Y0082902D02*
X0316498Y0081242D01*
X0315600Y0079074D01*
X0315600Y0076726D01*
X0316498Y0074558D01*
X0318158Y0072898D01*
X0320326Y0072000D01*
X0322674Y0072000D01*
X0324842Y0072898D01*
X0326502Y0074558D01*
X0327400Y0076726D01*
X0327400Y0079074D01*
X0326502Y0081242D01*
X0324842Y0082902D01*
X0322674Y0083800D01*
X0320326Y0083800D01*
X0318158Y0082902D01*
X0315720Y0079364D02*
X0309480Y0079364D01*
X0309368Y0076166D02*
X0315832Y0076166D01*
X0318089Y0072967D02*
X0307111Y0072967D01*
X0300289Y0072967D02*
X0238058Y0072967D01*
X0268100Y0085761D02*
X0490400Y0085761D01*
X0490400Y0082563D02*
X0325181Y0082563D01*
X0327280Y0079364D02*
X0490400Y0079364D01*
X0490400Y0076166D02*
X0327168Y0076166D01*
X0324911Y0072967D02*
X0490400Y0072967D01*
X0490400Y0088960D02*
X0268100Y0088960D01*
X0277901Y0095357D02*
X0346734Y0095357D01*
X0346395Y0095696D02*
X0347096Y0094995D01*
X0347898Y0094412D01*
X0348782Y0093962D01*
X0349725Y0093655D01*
X0350704Y0093500D01*
X0351200Y0093500D01*
X0351696Y0093500D01*
X0352675Y0093655D01*
X0353618Y0093962D01*
X0354502Y0094412D01*
X0355304Y0094995D01*
X0356005Y0095696D01*
X0356588Y0096498D01*
X0357038Y0097382D01*
X0357345Y0098325D01*
X0357500Y0099304D01*
X0357500Y0099800D01*
X0357500Y0100296D01*
X0357345Y0101275D01*
X0357038Y0102218D01*
X0356588Y0103102D01*
X0356005Y0103904D01*
X0355304Y0104605D01*
X0354502Y0105188D01*
X0353618Y0105638D01*
X0352675Y0105945D01*
X0351696Y0106100D01*
X0351200Y0106100D01*
X0351200Y0099800D01*
X0351200Y0099800D01*
X0357500Y0099800D01*
X0351200Y0099800D01*
X0351200Y0099800D01*
X0351200Y0099800D01*
X0344900Y0099800D01*
X0344900Y0100296D01*
X0345055Y0101275D01*
X0345362Y0102218D01*
X0345812Y0103102D01*
X0346395Y0103904D01*
X0347096Y0104605D01*
X0347898Y0105188D01*
X0348782Y0105638D01*
X0349725Y0105945D01*
X0350704Y0106100D01*
X0351200Y0106100D01*
X0351200Y0099800D01*
X0351200Y0093500D01*
X0351200Y0099800D01*
X0351200Y0099800D01*
X0344900Y0099800D01*
X0344900Y0099304D01*
X0345055Y0098325D01*
X0345362Y0097382D01*
X0345812Y0096498D01*
X0346395Y0095696D01*
X0345019Y0098555D02*
X0279871Y0098555D01*
X0279577Y0101754D02*
X0345211Y0101754D01*
X0347573Y0104952D02*
X0276979Y0104952D01*
X0271021Y0104952D02*
X0259827Y0104952D01*
X0262189Y0101754D02*
X0268423Y0101754D01*
X0272826Y0119500D02*
X0275174Y0119500D01*
X0277342Y0120398D01*
X0279002Y0122058D01*
X0279900Y0124226D01*
X0279900Y0126574D01*
X0279002Y0128742D01*
X0277342Y0130402D01*
X0275174Y0131300D01*
X0272826Y0131300D01*
X0270658Y0130402D01*
X0268998Y0128742D01*
X0268100Y0126574D01*
X0268100Y0124226D01*
X0268998Y0122058D01*
X0270658Y0120398D01*
X0272826Y0119500D01*
X0270111Y0120945D02*
X0260089Y0120945D01*
X0262066Y0124143D02*
X0268134Y0124143D01*
X0268418Y0127342D02*
X0261782Y0127342D01*
X0259207Y0130540D02*
X0270993Y0130540D01*
X0277007Y0130540D02*
X0348193Y0130540D01*
X0347858Y0130402D02*
X0346198Y0128742D01*
X0345300Y0126574D01*
X0345300Y0124226D01*
X0346198Y0122058D01*
X0347858Y0120398D01*
X0350026Y0119500D01*
X0352374Y0119500D01*
X0354542Y0120398D01*
X0356202Y0122058D01*
X0357100Y0124226D01*
X0357100Y0126574D01*
X0356202Y0128742D01*
X0354542Y0130402D01*
X0352374Y0131300D01*
X0350026Y0131300D01*
X0347858Y0130402D01*
X0345618Y0127342D02*
X0279582Y0127342D01*
X0279866Y0124143D02*
X0345334Y0124143D01*
X0347311Y0120945D02*
X0277889Y0120945D01*
X0297443Y0146533D02*
X0185600Y0146533D01*
X0185600Y0149732D02*
X0297868Y0149732D01*
X0354207Y0130540D02*
X0365993Y0130540D01*
X0363418Y0127342D02*
X0356782Y0127342D01*
X0357066Y0124143D02*
X0363134Y0124143D01*
X0365111Y0120945D02*
X0355089Y0120945D01*
X0354827Y0104952D02*
X0366021Y0104952D01*
X0363423Y0101754D02*
X0357189Y0101754D01*
X0357381Y0098555D02*
X0363129Y0098555D01*
X0365099Y0095357D02*
X0355666Y0095357D01*
X0351200Y0095357D02*
X0351200Y0095357D01*
X0351200Y0098555D02*
X0351200Y0098555D01*
X0351200Y0101754D02*
X0351200Y0101754D01*
X0351200Y0104952D02*
X0351200Y0104952D01*
X0317831Y0056975D02*
X0307935Y0056975D01*
X0309845Y0053776D02*
X0315725Y0053776D01*
X0315827Y0050578D02*
X0309765Y0050578D01*
X0307645Y0047379D02*
X0318077Y0047379D01*
X0303700Y0047379D02*
X0303700Y0047379D01*
X0303700Y0050578D02*
X0303700Y0050578D01*
X0303700Y0053776D02*
X0303700Y0053776D01*
X0303700Y0056975D02*
X0303700Y0056975D01*
X0224267Y0133739D02*
X0185600Y0133739D01*
X0185600Y0136937D02*
X0224465Y0136937D01*
X0179600Y0168923D02*
X0150600Y0168923D01*
X0154712Y0172121D02*
X0179600Y0172121D01*
X0179600Y0175320D02*
X0157062Y0175320D01*
X0160261Y0178518D02*
X0179600Y0178518D01*
X0179600Y0181717D02*
X0163459Y0181717D01*
X0167506Y0184915D02*
X0179000Y0184915D01*
X0180522Y0188114D02*
X0168700Y0188114D01*
X0161371Y0188114D02*
X0150600Y0188114D01*
X0150600Y0191312D02*
X0222145Y0191312D01*
X0218947Y0194511D02*
X0204549Y0194511D01*
X0204639Y0194548D02*
X0205652Y0195561D01*
X0206200Y0196884D01*
X0206200Y0198316D01*
X0205652Y0199639D01*
X0204639Y0200652D01*
X0203316Y0201200D01*
X0201884Y0201200D01*
X0200561Y0200652D01*
X0199548Y0199639D01*
X0199000Y0198316D01*
X0199000Y0198243D01*
X0198857Y0198100D01*
X0159691Y0198100D01*
X0159639Y0198152D01*
X0158316Y0198700D01*
X0156884Y0198700D01*
X0155561Y0198152D01*
X0154548Y0197139D01*
X0154000Y0195816D01*
X0154000Y0194384D01*
X0154548Y0193061D01*
X0155561Y0192048D01*
X0156884Y0191500D01*
X0158316Y0191500D01*
X0159639Y0192048D01*
X0159691Y0192100D01*
X0200697Y0192100D01*
X0201799Y0192557D01*
X0203243Y0194000D01*
X0203316Y0194000D01*
X0204639Y0194548D01*
X0206200Y0197709D02*
X0215748Y0197709D01*
X0214600Y0200908D02*
X0204022Y0200908D01*
X0201178Y0200908D02*
X0151902Y0200908D01*
X0150600Y0197709D02*
X0155118Y0197709D01*
X0154000Y0194511D02*
X0150600Y0194511D01*
X0150600Y0184915D02*
X0158173Y0184915D01*
X0154974Y0181717D02*
X0150600Y0181717D01*
X0150600Y0178518D02*
X0151775Y0178518D01*
X0155101Y0204106D02*
X0214600Y0204106D01*
X0214600Y0207305D02*
X0162471Y0207305D01*
X0165670Y0210503D02*
X0214600Y0210503D01*
X0214600Y0213702D02*
X0165794Y0213702D01*
X0164855Y0226496D02*
X0194161Y0226496D01*
X0194600Y0229694D02*
X0164861Y0229694D01*
X0165794Y0232893D02*
X0194600Y0232893D01*
X0194600Y0236091D02*
X0165259Y0236091D01*
X0164456Y0239290D02*
X0194600Y0239290D01*
X0194600Y0242488D02*
X0180080Y0242488D01*
X0181200Y0245687D02*
X0194600Y0245687D01*
X0194600Y0248885D02*
X0180600Y0248885D01*
X0180600Y0252084D02*
X0194600Y0252084D01*
X0194600Y0255282D02*
X0180600Y0255282D01*
X0178462Y0258481D02*
X0194600Y0258481D01*
X0194600Y0261679D02*
X0181115Y0261679D01*
X0174600Y0248885D02*
X0173128Y0248885D01*
X0174000Y0245687D02*
X0169930Y0245687D01*
X0166731Y0242488D02*
X0175120Y0242488D01*
X0206200Y0216900D02*
X0214600Y0216900D01*
X0243700Y0232893D02*
X0245927Y0232893D01*
X0280658Y0292298D02*
X0282826Y0291400D01*
X0285174Y0291400D01*
X0287342Y0292298D01*
X0289002Y0293958D01*
X0289900Y0296126D01*
X0289900Y0298474D01*
X0289002Y0300642D01*
X0287342Y0302302D01*
X0285174Y0303200D01*
X0282826Y0303200D01*
X0280658Y0302302D01*
X0278998Y0300642D01*
X0278100Y0298474D01*
X0278100Y0296126D01*
X0278998Y0293958D01*
X0280658Y0292298D01*
X0279292Y0293665D02*
X0271346Y0293665D01*
X0272500Y0296863D02*
X0278100Y0296863D01*
X0278758Y0300062D02*
X0271864Y0300062D01*
X0266200Y0300062D02*
X0266200Y0300062D01*
X0266200Y0296863D02*
X0266200Y0296863D01*
X0266200Y0293665D02*
X0266200Y0293665D01*
X0288708Y0293665D02*
X0325533Y0293665D01*
X0325420Y0296863D02*
X0289900Y0296863D01*
X0289242Y0300062D02*
X0327518Y0300062D01*
X0390422Y0290466D02*
X0490400Y0290466D01*
X0490400Y0242488D02*
X0467929Y0242488D01*
X0469720Y0239290D02*
X0490400Y0239290D01*
X0490400Y0236091D02*
X0469795Y0236091D01*
X0468111Y0232893D02*
X0490400Y0232893D01*
X0490400Y0344841D02*
X0460696Y0344841D01*
X0460696Y0348039D02*
X0490400Y0348039D01*
X0490400Y0351238D02*
X0460696Y0351238D01*
X0460696Y0354436D02*
X0490297Y0354436D01*
X0489594Y0357635D02*
X0460696Y0357635D01*
X0460696Y0360833D02*
X0488267Y0360833D01*
X0486107Y0364032D02*
X0460696Y0364032D01*
X0460696Y0367230D02*
X0482624Y0367230D01*
X0394504Y0367230D02*
X0143500Y0367230D01*
X0142376Y0364032D02*
X0394504Y0364032D01*
X0394504Y0360833D02*
X0006933Y0360833D01*
X0005606Y0357635D02*
X0394504Y0357635D01*
X0229038Y0309657D02*
X0225105Y0309657D01*
X0222496Y0309657D02*
X0004800Y0309657D01*
X0009093Y0364032D02*
X0082405Y0364032D01*
X0082212Y0364298D02*
X0082795Y0363496D01*
X0083496Y0362795D01*
X0084298Y0362212D01*
X0085182Y0361762D01*
X0086125Y0361455D01*
X0087104Y0361300D01*
X0087600Y0361300D01*
X0087600Y0367600D01*
X0087600Y0367600D01*
X0081300Y0367600D01*
X0081300Y0367104D01*
X0081455Y0366125D01*
X0081762Y0365182D01*
X0082212Y0364298D01*
X0081300Y0367230D02*
X0012576Y0367230D01*
X0087600Y0367230D02*
X0087600Y0367230D01*
X0087600Y0364032D02*
X0087600Y0364032D01*
X0092795Y0364032D02*
X0092824Y0364032D01*
X0102376Y0364032D02*
X0102824Y0364032D01*
X0112376Y0364032D02*
X0112824Y0364032D01*
X0122376Y0364032D02*
X0122824Y0364032D01*
X0132376Y0364032D02*
X0132824Y0364032D01*
X0433664Y0101754D02*
X0456194Y0101754D01*
X0455035Y0098555D02*
X0434825Y0098555D01*
X0434491Y0095357D02*
X0455307Y0095357D01*
X0457258Y0092158D02*
X0432376Y0092158D01*
X0462525Y0092158D02*
X0462675Y0092158D01*
X0462675Y0089975D02*
X0463100Y0089975D01*
X0464091Y0090105D01*
X0465056Y0090364D01*
X0465980Y0090747D01*
X0466845Y0091246D01*
X0467638Y0091855D01*
X0468345Y0092562D01*
X0468954Y0093355D01*
X0469453Y0094220D01*
X0469836Y0095144D01*
X0470095Y0096109D01*
X0470225Y0097100D01*
X0470225Y0097525D01*
X0462675Y0097525D01*
X0462675Y0089975D01*
X0467942Y0092158D02*
X0490400Y0092158D01*
X0490400Y0095357D02*
X0469893Y0095357D01*
X0470165Y0098555D02*
X0490400Y0098555D01*
X0490400Y0101754D02*
X0469006Y0101754D01*
X0462675Y0101754D02*
X0462525Y0101754D01*
X0462525Y0098555D02*
X0462675Y0098555D01*
X0462675Y0095357D02*
X0462525Y0095357D01*
X0478477Y0005799D02*
X0016723Y0005799D01*
X0152639Y0098555D02*
X0153894Y0098555D01*
X0163714Y0082563D02*
X0164600Y0082563D01*
M02*
