%
M48
M72
T01C0.01200
T02C0.04000
T03C0.05000
T04C0.06700
%
T01
X95376Y47324
X170100Y32324
X174175Y41025
X178525Y44175
X197600Y47324
X207600Y55100
X220100Y46301
X235100Y42600
X210946Y25946
X230100Y63850
X245100Y80100
X257600Y78850
X257600Y66350
X223801Y84301
X207600Y85100
X207600Y95100
X227600Y102600
X182600Y70100
X177600Y72600
X172600Y80100
X227600Y140100
X227600Y157600
X230100Y162600
X235100Y165100
X240100Y167600
X235100Y187600
X240100Y200100
X250100Y202600
X257600Y205100
X262600Y205100
X267600Y205100
X272600Y205100
X250100Y225100
X225100Y230100
X211350Y220100
X218850Y217600
X215100Y210100
X207600Y200100
X202600Y195100
X197600Y195100
X202600Y185100
X212600Y190100
X217600Y195100
X192600Y180100
X202600Y165100
X182600Y152600
X165100Y155100
X157600Y162600
X152108Y142108
X52600Y100100
X177600Y212600
X172600Y220100
X177600Y230100
X202600Y240592
X207600Y235100
X215100Y242600
X220100Y247600
X225100Y252600
X222600Y242600
X207600Y251350
X192108Y250592
X223801Y273801
X232600Y276350
X237600Y263446
X238850Y256350
X208550Y287600
X342885Y209815
X353850Y205100
X360100Y205100
X357600Y189696
X401320Y190130
X409194Y149756
X417069Y148131
X427600Y137600
X420100Y115100
X377698Y132502
X370100Y45100
X367600Y36350
X367600Y26350
X356350Y21350
X333850Y35100
X418850Y23850
T02
X416350Y12600
X406350Y12600
X396350Y12600
X386350Y12600
X426350Y12600
X436350Y12600
X359000Y59800
X341200Y59800
X321500Y47900
X303700Y47900
X284000Y59800
X266200Y59800
X266200Y85400
X284000Y85400
X303700Y97300
X321500Y97300
X341200Y85400
X359000Y85400
X321500Y122900
X303700Y122900
X303700Y22300
X321500Y22300
X331200Y229800
X349000Y229800
X349000Y255400
X331200Y255400
X366350Y267600
X366350Y277600
X284000Y282900
X266200Y282900
X266200Y257300
X284000Y257300
T03
X65356Y54608
X65356Y64608
X65356Y74608
X65356Y84608
X65356Y94608
X65356Y104608
X65356Y114608
X65356Y124608
X65356Y180592
X65356Y190592
X65356Y200592
X65356Y210592
X65356Y220592
X65356Y230592
X65356Y240592
X65356Y250592
X159844Y250592
X159844Y240592
X159844Y230592
X159844Y220592
X159844Y210592
X159844Y200592
X159844Y190592
X159844Y180592
X159844Y124608
X159844Y114608
X159844Y104608
X159844Y94608
X159844Y84608
X159844Y74608
X159844Y64608
X159844Y54608
T04
X387600Y67600
X387600Y97600
X437600Y97600
X437600Y67600
X437600Y207600
X437600Y237600
X387600Y237600
X387600Y207600
M30
