G75*
%MOIN*%
%OFA0B0*%
%FSLAX25Y25*%
%IPPOS*%
%LPD*%
%AMOC8*
5,1,8,0,0,1.08239X$1,22.5*
%
%ADD10C,0.00000*%
%ADD11R,0.04724X0.03150*%
%ADD12R,0.03150X0.04724*%
%ADD13R,0.07874X0.03150*%
%ADD14R,0.03937X0.04331*%
%ADD15R,0.02165X0.04724*%
%ADD16R,0.07874X0.04724*%
%ADD17OC8,0.07500*%
%ADD18R,0.01575X0.06299*%
%ADD19R,0.06299X0.01575*%
%ADD20R,0.02600X0.08000*%
%ADD21R,0.02559X0.01969*%
%ADD22R,0.04331X0.03937*%
%ADD23C,0.07400*%
%ADD24C,0.07000*%
%ADD25R,0.01969X0.02559*%
%ADD26C,0.10050*%
%ADD27R,0.08700X0.02400*%
%ADD28C,0.02000*%
%ADD29C,0.01600*%
%ADD30C,0.02800*%
%ADD31C,0.03200*%
%ADD32C,0.05000*%
%ADD33C,0.04000*%
%ADD34C,0.02400*%
%ADD35C,0.10000*%
D10*
X0022600Y0002600D02*
X0472600Y0002600D01*
X0473083Y0002606D01*
X0473566Y0002623D01*
X0474049Y0002653D01*
X0474530Y0002693D01*
X0475011Y0002746D01*
X0475490Y0002810D01*
X0475967Y0002885D01*
X0476443Y0002973D01*
X0476916Y0003071D01*
X0477386Y0003181D01*
X0477854Y0003302D01*
X0478319Y0003435D01*
X0478780Y0003579D01*
X0479238Y0003734D01*
X0479692Y0003900D01*
X0480142Y0004077D01*
X0480587Y0004264D01*
X0481028Y0004463D01*
X0481464Y0004671D01*
X0481894Y0004891D01*
X0482320Y0005121D01*
X0482739Y0005361D01*
X0483153Y0005611D01*
X0483560Y0005871D01*
X0483961Y0006140D01*
X0484356Y0006420D01*
X0484743Y0006708D01*
X0485124Y0007007D01*
X0485497Y0007314D01*
X0485862Y0007630D01*
X0486220Y0007955D01*
X0486570Y0008288D01*
X0486912Y0008630D01*
X0487245Y0008980D01*
X0487570Y0009338D01*
X0487886Y0009703D01*
X0488193Y0010076D01*
X0488492Y0010457D01*
X0488780Y0010844D01*
X0489060Y0011239D01*
X0489329Y0011640D01*
X0489589Y0012047D01*
X0489839Y0012461D01*
X0490079Y0012880D01*
X0490309Y0013306D01*
X0490529Y0013736D01*
X0490737Y0014172D01*
X0490936Y0014613D01*
X0491123Y0015058D01*
X0491300Y0015508D01*
X0491466Y0015962D01*
X0491621Y0016420D01*
X0491765Y0016881D01*
X0491898Y0017346D01*
X0492019Y0017814D01*
X0492129Y0018284D01*
X0492227Y0018757D01*
X0492315Y0019233D01*
X0492390Y0019710D01*
X0492454Y0020189D01*
X0492507Y0020670D01*
X0492547Y0021151D01*
X0492577Y0021634D01*
X0492594Y0022117D01*
X0492600Y0022600D01*
X0492600Y0352600D01*
X0492594Y0353083D01*
X0492577Y0353566D01*
X0492547Y0354049D01*
X0492507Y0354530D01*
X0492454Y0355011D01*
X0492390Y0355490D01*
X0492315Y0355967D01*
X0492227Y0356443D01*
X0492129Y0356916D01*
X0492019Y0357386D01*
X0491898Y0357854D01*
X0491765Y0358319D01*
X0491621Y0358780D01*
X0491466Y0359238D01*
X0491300Y0359692D01*
X0491123Y0360142D01*
X0490936Y0360587D01*
X0490737Y0361028D01*
X0490529Y0361464D01*
X0490309Y0361894D01*
X0490079Y0362320D01*
X0489839Y0362739D01*
X0489589Y0363153D01*
X0489329Y0363560D01*
X0489060Y0363961D01*
X0488780Y0364356D01*
X0488492Y0364743D01*
X0488193Y0365124D01*
X0487886Y0365497D01*
X0487570Y0365862D01*
X0487245Y0366220D01*
X0486912Y0366570D01*
X0486570Y0366912D01*
X0486220Y0367245D01*
X0485862Y0367570D01*
X0485497Y0367886D01*
X0485124Y0368193D01*
X0484743Y0368492D01*
X0484356Y0368780D01*
X0483961Y0369060D01*
X0483560Y0369329D01*
X0483153Y0369589D01*
X0482739Y0369839D01*
X0482320Y0370079D01*
X0481894Y0370309D01*
X0481464Y0370529D01*
X0481028Y0370737D01*
X0480587Y0370936D01*
X0480142Y0371123D01*
X0479692Y0371300D01*
X0479238Y0371466D01*
X0478780Y0371621D01*
X0478319Y0371765D01*
X0477854Y0371898D01*
X0477386Y0372019D01*
X0476916Y0372129D01*
X0476443Y0372227D01*
X0475967Y0372315D01*
X0475490Y0372390D01*
X0475011Y0372454D01*
X0474530Y0372507D01*
X0474049Y0372547D01*
X0473566Y0372577D01*
X0473083Y0372594D01*
X0472600Y0372600D01*
X0022600Y0372600D01*
X0022117Y0372594D01*
X0021634Y0372577D01*
X0021151Y0372547D01*
X0020670Y0372507D01*
X0020189Y0372454D01*
X0019710Y0372390D01*
X0019233Y0372315D01*
X0018757Y0372227D01*
X0018284Y0372129D01*
X0017814Y0372019D01*
X0017346Y0371898D01*
X0016881Y0371765D01*
X0016420Y0371621D01*
X0015962Y0371466D01*
X0015508Y0371300D01*
X0015058Y0371123D01*
X0014613Y0370936D01*
X0014172Y0370737D01*
X0013736Y0370529D01*
X0013306Y0370309D01*
X0012880Y0370079D01*
X0012461Y0369839D01*
X0012047Y0369589D01*
X0011640Y0369329D01*
X0011239Y0369060D01*
X0010844Y0368780D01*
X0010457Y0368492D01*
X0010076Y0368193D01*
X0009703Y0367886D01*
X0009338Y0367570D01*
X0008980Y0367245D01*
X0008630Y0366912D01*
X0008288Y0366570D01*
X0007955Y0366220D01*
X0007630Y0365862D01*
X0007314Y0365497D01*
X0007007Y0365124D01*
X0006708Y0364743D01*
X0006420Y0364356D01*
X0006140Y0363961D01*
X0005871Y0363560D01*
X0005611Y0363153D01*
X0005361Y0362739D01*
X0005121Y0362320D01*
X0004891Y0361894D01*
X0004671Y0361464D01*
X0004463Y0361028D01*
X0004264Y0360587D01*
X0004077Y0360142D01*
X0003900Y0359692D01*
X0003734Y0359238D01*
X0003579Y0358780D01*
X0003435Y0358319D01*
X0003302Y0357854D01*
X0003181Y0357386D01*
X0003071Y0356916D01*
X0002973Y0356443D01*
X0002885Y0355967D01*
X0002810Y0355490D01*
X0002746Y0355011D01*
X0002693Y0354530D01*
X0002653Y0354049D01*
X0002623Y0353566D01*
X0002606Y0353083D01*
X0002600Y0352600D01*
X0002600Y0022600D01*
X0002606Y0022117D01*
X0002623Y0021634D01*
X0002653Y0021151D01*
X0002693Y0020670D01*
X0002746Y0020189D01*
X0002810Y0019710D01*
X0002885Y0019233D01*
X0002973Y0018757D01*
X0003071Y0018284D01*
X0003181Y0017814D01*
X0003302Y0017346D01*
X0003435Y0016881D01*
X0003579Y0016420D01*
X0003734Y0015962D01*
X0003900Y0015508D01*
X0004077Y0015058D01*
X0004264Y0014613D01*
X0004463Y0014172D01*
X0004671Y0013736D01*
X0004891Y0013306D01*
X0005121Y0012880D01*
X0005361Y0012461D01*
X0005611Y0012047D01*
X0005871Y0011640D01*
X0006140Y0011239D01*
X0006420Y0010844D01*
X0006708Y0010457D01*
X0007007Y0010076D01*
X0007314Y0009703D01*
X0007630Y0009338D01*
X0007955Y0008980D01*
X0008288Y0008630D01*
X0008630Y0008288D01*
X0008980Y0007955D01*
X0009338Y0007630D01*
X0009703Y0007314D01*
X0010076Y0007007D01*
X0010457Y0006708D01*
X0010844Y0006420D01*
X0011239Y0006140D01*
X0011640Y0005871D01*
X0012047Y0005611D01*
X0012461Y0005361D01*
X0012880Y0005121D01*
X0013306Y0004891D01*
X0013736Y0004671D01*
X0014172Y0004463D01*
X0014613Y0004264D01*
X0015058Y0004077D01*
X0015508Y0003900D01*
X0015962Y0003734D01*
X0016420Y0003579D01*
X0016881Y0003435D01*
X0017346Y0003302D01*
X0017814Y0003181D01*
X0018284Y0003071D01*
X0018757Y0002973D01*
X0019233Y0002885D01*
X0019710Y0002810D01*
X0020189Y0002746D01*
X0020670Y0002693D01*
X0021151Y0002653D01*
X0021634Y0002623D01*
X0022117Y0002606D01*
X0022600Y0002600D01*
X0017600Y0167600D02*
X0017602Y0167417D01*
X0017609Y0167235D01*
X0017620Y0167053D01*
X0017636Y0166871D01*
X0017656Y0166689D01*
X0017680Y0166508D01*
X0017709Y0166328D01*
X0017742Y0166148D01*
X0017779Y0165969D01*
X0017821Y0165791D01*
X0017868Y0165615D01*
X0017918Y0165439D01*
X0017973Y0165265D01*
X0018032Y0165092D01*
X0018095Y0164921D01*
X0018162Y0164751D01*
X0018234Y0164583D01*
X0018309Y0164417D01*
X0018389Y0164252D01*
X0018472Y0164090D01*
X0018560Y0163929D01*
X0018651Y0163771D01*
X0018746Y0163615D01*
X0018845Y0163462D01*
X0018948Y0163311D01*
X0019054Y0163162D01*
X0019164Y0163016D01*
X0019277Y0162873D01*
X0019394Y0162733D01*
X0019514Y0162595D01*
X0019638Y0162461D01*
X0019765Y0162329D01*
X0019894Y0162201D01*
X0020027Y0162076D01*
X0020163Y0161954D01*
X0020302Y0161835D01*
X0020444Y0161720D01*
X0020589Y0161608D01*
X0020736Y0161500D01*
X0020886Y0161396D01*
X0021038Y0161295D01*
X0021193Y0161198D01*
X0021350Y0161105D01*
X0021509Y0161015D01*
X0021671Y0160930D01*
X0021834Y0160848D01*
X0021999Y0160771D01*
X0022167Y0160697D01*
X0022336Y0160628D01*
X0022506Y0160563D01*
X0022678Y0160502D01*
X0022852Y0160445D01*
X0023027Y0160392D01*
X0023203Y0160344D01*
X0023380Y0160300D01*
X0023559Y0160260D01*
X0023738Y0160225D01*
X0023918Y0160194D01*
X0024098Y0160167D01*
X0024280Y0160145D01*
X0024461Y0160127D01*
X0024644Y0160114D01*
X0024826Y0160105D01*
X0025009Y0160101D01*
X0025191Y0160101D01*
X0025374Y0160105D01*
X0025556Y0160114D01*
X0025739Y0160127D01*
X0025920Y0160145D01*
X0026102Y0160167D01*
X0026282Y0160194D01*
X0026462Y0160225D01*
X0026641Y0160260D01*
X0026820Y0160300D01*
X0026997Y0160344D01*
X0027173Y0160392D01*
X0027348Y0160445D01*
X0027522Y0160502D01*
X0027694Y0160563D01*
X0027864Y0160628D01*
X0028033Y0160697D01*
X0028201Y0160771D01*
X0028366Y0160848D01*
X0028529Y0160930D01*
X0028691Y0161015D01*
X0028850Y0161105D01*
X0029007Y0161198D01*
X0029162Y0161295D01*
X0029314Y0161396D01*
X0029464Y0161500D01*
X0029611Y0161608D01*
X0029756Y0161720D01*
X0029898Y0161835D01*
X0030037Y0161954D01*
X0030173Y0162076D01*
X0030306Y0162201D01*
X0030435Y0162329D01*
X0030562Y0162461D01*
X0030686Y0162595D01*
X0030806Y0162733D01*
X0030923Y0162873D01*
X0031036Y0163016D01*
X0031146Y0163162D01*
X0031252Y0163311D01*
X0031355Y0163462D01*
X0031454Y0163615D01*
X0031549Y0163771D01*
X0031640Y0163929D01*
X0031728Y0164090D01*
X0031811Y0164252D01*
X0031891Y0164417D01*
X0031966Y0164583D01*
X0032038Y0164751D01*
X0032105Y0164921D01*
X0032168Y0165092D01*
X0032227Y0165265D01*
X0032282Y0165439D01*
X0032332Y0165615D01*
X0032379Y0165791D01*
X0032421Y0165969D01*
X0032458Y0166148D01*
X0032491Y0166328D01*
X0032520Y0166508D01*
X0032544Y0166689D01*
X0032564Y0166871D01*
X0032580Y0167053D01*
X0032591Y0167235D01*
X0032598Y0167417D01*
X0032600Y0167600D01*
X0032600Y0202600D01*
X0032598Y0202783D01*
X0032591Y0202965D01*
X0032580Y0203147D01*
X0032564Y0203329D01*
X0032544Y0203511D01*
X0032520Y0203692D01*
X0032491Y0203872D01*
X0032458Y0204052D01*
X0032421Y0204231D01*
X0032379Y0204409D01*
X0032332Y0204585D01*
X0032282Y0204761D01*
X0032227Y0204935D01*
X0032168Y0205108D01*
X0032105Y0205279D01*
X0032038Y0205449D01*
X0031966Y0205617D01*
X0031891Y0205783D01*
X0031811Y0205948D01*
X0031728Y0206110D01*
X0031640Y0206271D01*
X0031549Y0206429D01*
X0031454Y0206585D01*
X0031355Y0206738D01*
X0031252Y0206889D01*
X0031146Y0207038D01*
X0031036Y0207184D01*
X0030923Y0207327D01*
X0030806Y0207467D01*
X0030686Y0207605D01*
X0030562Y0207739D01*
X0030435Y0207871D01*
X0030306Y0207999D01*
X0030173Y0208124D01*
X0030037Y0208246D01*
X0029898Y0208365D01*
X0029756Y0208480D01*
X0029611Y0208592D01*
X0029464Y0208700D01*
X0029314Y0208804D01*
X0029162Y0208905D01*
X0029007Y0209002D01*
X0028850Y0209095D01*
X0028691Y0209185D01*
X0028529Y0209270D01*
X0028366Y0209352D01*
X0028201Y0209429D01*
X0028033Y0209503D01*
X0027864Y0209572D01*
X0027694Y0209637D01*
X0027522Y0209698D01*
X0027348Y0209755D01*
X0027173Y0209808D01*
X0026997Y0209856D01*
X0026820Y0209900D01*
X0026641Y0209940D01*
X0026462Y0209975D01*
X0026282Y0210006D01*
X0026102Y0210033D01*
X0025920Y0210055D01*
X0025739Y0210073D01*
X0025556Y0210086D01*
X0025374Y0210095D01*
X0025191Y0210099D01*
X0025009Y0210099D01*
X0024826Y0210095D01*
X0024644Y0210086D01*
X0024461Y0210073D01*
X0024280Y0210055D01*
X0024098Y0210033D01*
X0023918Y0210006D01*
X0023738Y0209975D01*
X0023559Y0209940D01*
X0023380Y0209900D01*
X0023203Y0209856D01*
X0023027Y0209808D01*
X0022852Y0209755D01*
X0022678Y0209698D01*
X0022506Y0209637D01*
X0022336Y0209572D01*
X0022167Y0209503D01*
X0021999Y0209429D01*
X0021834Y0209352D01*
X0021671Y0209270D01*
X0021509Y0209185D01*
X0021350Y0209095D01*
X0021193Y0209002D01*
X0021038Y0208905D01*
X0020886Y0208804D01*
X0020736Y0208700D01*
X0020589Y0208592D01*
X0020444Y0208480D01*
X0020302Y0208365D01*
X0020163Y0208246D01*
X0020027Y0208124D01*
X0019894Y0207999D01*
X0019765Y0207871D01*
X0019638Y0207739D01*
X0019514Y0207605D01*
X0019394Y0207467D01*
X0019277Y0207327D01*
X0019164Y0207184D01*
X0019054Y0207038D01*
X0018948Y0206889D01*
X0018845Y0206738D01*
X0018746Y0206585D01*
X0018651Y0206429D01*
X0018560Y0206271D01*
X0018472Y0206110D01*
X0018389Y0205948D01*
X0018309Y0205783D01*
X0018234Y0205617D01*
X0018162Y0205449D01*
X0018095Y0205279D01*
X0018032Y0205108D01*
X0017973Y0204935D01*
X0017918Y0204761D01*
X0017868Y0204585D01*
X0017821Y0204409D01*
X0017779Y0204231D01*
X0017742Y0204052D01*
X0017709Y0203872D01*
X0017680Y0203692D01*
X0017656Y0203511D01*
X0017636Y0203329D01*
X0017620Y0203147D01*
X0017609Y0202965D01*
X0017602Y0202783D01*
X0017600Y0202600D01*
X0017600Y0167600D01*
D11*
X0402600Y0093643D03*
X0402600Y0086557D03*
D12*
X0396143Y0092600D03*
X0389057Y0092600D03*
D13*
X0402600Y0081537D03*
X0402600Y0073663D03*
D14*
X0380100Y0076754D03*
X0380100Y0083446D03*
X0230100Y0084254D03*
X0230100Y0090946D03*
X0230100Y0101754D03*
X0230100Y0108446D03*
X0235100Y0206754D03*
X0235100Y0213446D03*
X0230100Y0289254D03*
X0230100Y0295946D03*
X0375100Y0338004D03*
X0375100Y0344696D03*
X0385100Y0345504D03*
X0385100Y0352196D03*
X0472600Y0288446D03*
X0472600Y0281754D03*
D15*
X0393840Y0082719D03*
X0390100Y0082719D03*
X0386360Y0082719D03*
X0386360Y0072481D03*
X0390100Y0072481D03*
X0393840Y0072481D03*
D16*
X0398072Y0282698D03*
X0398072Y0290572D03*
X0398072Y0298446D03*
X0398072Y0306320D03*
X0398072Y0314194D03*
X0398072Y0322069D03*
X0398072Y0329943D03*
X0398072Y0337817D03*
X0457128Y0337817D03*
X0457128Y0329943D03*
X0457128Y0322069D03*
X0457128Y0314194D03*
X0457128Y0306320D03*
X0457128Y0298446D03*
X0457128Y0290572D03*
X0457128Y0282698D03*
D17*
X0159844Y0283092D03*
X0159844Y0273092D03*
X0159844Y0263092D03*
X0159844Y0253092D03*
X0159844Y0243092D03*
X0159844Y0233092D03*
X0159844Y0223092D03*
X0159844Y0213092D03*
X0159844Y0157108D03*
X0159844Y0147108D03*
X0159844Y0137108D03*
X0159844Y0127108D03*
X0159844Y0117108D03*
X0159844Y0107108D03*
X0159844Y0097108D03*
X0159844Y0087108D03*
X0065356Y0087108D03*
X0065356Y0097108D03*
X0065356Y0107108D03*
X0065356Y0117108D03*
X0065356Y0127108D03*
X0065356Y0137108D03*
X0065356Y0147108D03*
X0065356Y0157108D03*
X0065356Y0213092D03*
X0065356Y0223092D03*
X0065356Y0233092D03*
X0065356Y0243092D03*
X0065356Y0253092D03*
X0065356Y0263092D03*
X0065356Y0273092D03*
X0065356Y0283092D03*
D18*
X0205946Y0290592D03*
X0208506Y0290592D03*
X0211065Y0290592D03*
X0213624Y0290592D03*
X0216183Y0290592D03*
X0218742Y0290592D03*
X0221301Y0290592D03*
X0223860Y0290592D03*
X0223860Y0313820D03*
X0221301Y0313820D03*
X0218742Y0313820D03*
X0216183Y0313820D03*
X0213624Y0313820D03*
X0211065Y0313820D03*
X0208506Y0313820D03*
X0205946Y0313820D03*
X0205946Y0133820D03*
X0208506Y0133820D03*
X0211065Y0133820D03*
X0213624Y0133820D03*
X0216183Y0133820D03*
X0218742Y0133820D03*
X0221301Y0133820D03*
X0223860Y0133820D03*
X0223860Y0110592D03*
X0221301Y0110592D03*
X0218742Y0110592D03*
X0216183Y0110592D03*
X0213624Y0110592D03*
X0211065Y0110592D03*
X0208506Y0110592D03*
X0205946Y0110592D03*
D19*
X0203880Y0076360D03*
X0203880Y0073801D03*
X0203880Y0071242D03*
X0203880Y0068683D03*
X0203880Y0066124D03*
X0203880Y0063565D03*
X0203880Y0061006D03*
X0203880Y0058446D03*
X0227108Y0058446D03*
X0227108Y0061006D03*
X0227108Y0063565D03*
X0227108Y0066124D03*
X0227108Y0068683D03*
X0227108Y0071242D03*
X0227108Y0073801D03*
X0227108Y0076360D03*
X0227108Y0238446D03*
X0227108Y0241006D03*
X0227108Y0243565D03*
X0227108Y0246124D03*
X0227108Y0248683D03*
X0227108Y0251242D03*
X0227108Y0253801D03*
X0227108Y0256360D03*
X0203880Y0256360D03*
X0203880Y0253801D03*
X0203880Y0251242D03*
X0203880Y0248683D03*
X0203880Y0246124D03*
X0203880Y0243565D03*
X0203880Y0241006D03*
X0203880Y0238446D03*
D20*
X0202600Y0204400D03*
X0197600Y0204400D03*
X0192600Y0204400D03*
X0187600Y0204400D03*
X0207600Y0204400D03*
X0212600Y0204400D03*
X0217600Y0204400D03*
X0222600Y0204400D03*
X0227600Y0204400D03*
X0227600Y0165800D03*
X0222600Y0165800D03*
X0217600Y0165800D03*
X0212600Y0165800D03*
X0207600Y0165800D03*
X0202600Y0165800D03*
X0197600Y0165800D03*
X0192600Y0165800D03*
X0187600Y0165800D03*
D21*
X0187561Y0235376D03*
X0187561Y0238525D03*
X0187561Y0241675D03*
X0187561Y0244824D03*
X0182639Y0244824D03*
X0182639Y0241675D03*
X0182639Y0238525D03*
X0182639Y0235376D03*
X0182639Y0250376D03*
X0182639Y0253525D03*
X0182639Y0256675D03*
X0182639Y0259824D03*
X0187561Y0259824D03*
X0187561Y0256675D03*
X0187561Y0253525D03*
X0187561Y0250376D03*
X0187639Y0297876D03*
X0187639Y0301025D03*
X0187639Y0304175D03*
X0187639Y0307324D03*
X0192561Y0307324D03*
X0192561Y0304175D03*
X0192561Y0301025D03*
X0192561Y0297876D03*
X0187561Y0079824D03*
X0187561Y0076675D03*
X0187561Y0073525D03*
X0187561Y0070376D03*
X0182639Y0070376D03*
X0182639Y0073525D03*
X0182639Y0076675D03*
X0182639Y0079824D03*
X0182639Y0064824D03*
X0182639Y0061675D03*
X0182639Y0058525D03*
X0182639Y0055376D03*
X0187561Y0055376D03*
X0187561Y0058525D03*
X0187561Y0061675D03*
X0187561Y0064824D03*
D22*
X0231754Y0262600D03*
X0238446Y0262600D03*
X0356754Y0345100D03*
X0363446Y0345100D03*
X0389254Y0272600D03*
X0395946Y0272600D03*
X0471754Y0297600D03*
X0478446Y0297600D03*
X0478446Y0307600D03*
X0471754Y0307600D03*
D23*
X0349000Y0295400D03*
X0331200Y0295400D03*
X0331200Y0269800D03*
X0349000Y0269800D03*
X0284000Y0297300D03*
X0266200Y0297300D03*
X0266200Y0322900D03*
X0284000Y0322900D03*
X0137600Y0367600D03*
X0127600Y0367600D03*
X0117600Y0367600D03*
X0107600Y0367600D03*
X0097600Y0367600D03*
X0087600Y0367600D03*
X0303700Y0172900D03*
X0321500Y0172900D03*
X0321500Y0147300D03*
X0303700Y0147300D03*
X0274000Y0125400D03*
X0256200Y0125400D03*
X0256200Y0099800D03*
X0274000Y0099800D03*
X0303700Y0077900D03*
X0321500Y0077900D03*
X0351200Y0099800D03*
X0369000Y0099800D03*
X0369000Y0125400D03*
X0351200Y0125400D03*
X0321500Y0052300D03*
X0303700Y0052300D03*
D24*
X0375100Y0312600D03*
X0375100Y0322600D03*
D25*
X0219824Y0325139D03*
X0216675Y0325139D03*
X0213525Y0325139D03*
X0210376Y0325139D03*
X0210376Y0330061D03*
X0213525Y0330061D03*
X0216675Y0330061D03*
X0219824Y0330061D03*
D26*
X0427600Y0267600D03*
X0462600Y0267600D03*
X0462600Y0237600D03*
X0427600Y0237600D03*
X0427600Y0127600D03*
X0462600Y0127600D03*
X0462600Y0097600D03*
X0427600Y0097600D03*
D27*
X0376650Y0210100D03*
X0376650Y0215100D03*
X0376650Y0220100D03*
X0376650Y0225100D03*
X0347300Y0225100D03*
X0347300Y0220100D03*
X0347300Y0215100D03*
X0347300Y0210100D03*
D28*
X0250100Y0235100D02*
X0244194Y0241006D01*
X0227108Y0241006D01*
X0227108Y0256360D02*
X0232206Y0256360D01*
X0238446Y0262600D01*
X0203880Y0238446D02*
X0201754Y0238446D01*
X0192600Y0229293D01*
X0192600Y0212600D01*
X0205946Y0133820D02*
X0205946Y0129254D01*
X0207600Y0127600D01*
X0207600Y0117600D02*
X0208506Y0116694D01*
X0208506Y0110592D01*
X0223860Y0110592D02*
X0226006Y0108446D01*
X0230100Y0108446D01*
X0223860Y0110592D02*
X0223860Y0111360D01*
X0230100Y0084254D02*
X0227108Y0081261D01*
X0227108Y0076360D01*
X0237600Y0065100D02*
X0233506Y0061006D01*
X0227108Y0061006D01*
X0210946Y0058446D02*
X0203880Y0058446D01*
X0230100Y0289254D02*
X0228761Y0290592D01*
X0223860Y0290592D01*
X0213624Y0313820D02*
X0211065Y0313820D01*
X0211065Y0319135D01*
X0210100Y0320100D01*
X0208550Y0320100D01*
X0206793Y0320100D01*
X0205946Y0319254D01*
X0205946Y0313820D01*
X0187639Y0307324D02*
X0187600Y0307364D01*
X0187639Y0297876D02*
X0187600Y0297836D01*
X0132600Y0337600D02*
X0292600Y0337600D01*
X0300100Y0330100D01*
X0365100Y0330100D01*
X0375100Y0322600D02*
X0375100Y0338004D01*
X0375100Y0344696D02*
X0375100Y0345100D01*
X0363446Y0345100D01*
X0356754Y0345100D02*
X0350100Y0345100D01*
X0340100Y0352600D01*
X0152600Y0352600D01*
X0137600Y0367600D01*
X0127600Y0367600D02*
X0127600Y0355100D01*
X0140100Y0342600D01*
X0300100Y0342600D01*
X0304883Y0337817D01*
X0344883Y0337817D01*
X0345100Y0337600D01*
X0360100Y0312600D02*
X0367600Y0305100D01*
X0375100Y0312600D02*
X0380100Y0317600D01*
X0390100Y0317600D01*
X0393506Y0314194D01*
X0398072Y0314194D01*
X0398072Y0322069D02*
X0393131Y0322069D01*
X0390100Y0325100D01*
X0390100Y0341350D01*
X0393850Y0343850D02*
X0393850Y0338850D01*
X0394883Y0337817D01*
X0398072Y0337817D01*
X0393850Y0343850D02*
X0392196Y0345504D01*
X0385100Y0345504D01*
X0384696Y0345100D01*
X0375100Y0345100D01*
X0385100Y0352196D02*
X0389254Y0352196D01*
X0390100Y0351350D01*
X0410100Y0337600D02*
X0456911Y0337600D01*
X0457128Y0337817D01*
X0457128Y0329943D02*
X0412757Y0329943D01*
X0412600Y0330100D01*
X0415100Y0310100D02*
X0437600Y0310100D01*
X0449569Y0322069D01*
X0457128Y0322069D01*
X0457128Y0314194D02*
X0449194Y0314194D01*
X0440100Y0305100D01*
X0427600Y0305100D01*
X0415100Y0301350D02*
X0443850Y0301350D01*
X0448820Y0306320D01*
X0457128Y0306320D01*
X0132600Y0337600D02*
X0117600Y0352600D01*
X0117600Y0367600D01*
D29*
X0192561Y0307324D02*
X0192836Y0307600D01*
X0212600Y0307600D01*
X0218742Y0301458D01*
X0218742Y0290592D01*
X0218742Y0286458D01*
X0220100Y0285100D01*
X0225100Y0285100D01*
X0220100Y0280100D02*
X0216183Y0284017D01*
X0216183Y0290592D01*
X0216183Y0299017D01*
X0211025Y0304175D01*
X0192561Y0304175D01*
X0192561Y0301025D02*
X0209175Y0301025D01*
X0213624Y0296576D01*
X0213624Y0290592D01*
X0213624Y0281576D01*
X0220100Y0275100D01*
X0222600Y0275100D01*
X0215100Y0275100D02*
X0211065Y0279135D01*
X0211065Y0290592D01*
X0211065Y0294135D01*
X0207324Y0297876D01*
X0192561Y0297876D01*
X0205946Y0290592D02*
X0205946Y0285504D01*
X0207600Y0283850D01*
X0202600Y0273092D02*
X0159844Y0273092D01*
X0159844Y0283092D02*
X0192108Y0283092D01*
X0207600Y0267600D02*
X0174352Y0267600D01*
X0159844Y0253092D01*
X0167600Y0252600D02*
X0167600Y0240848D01*
X0159844Y0233092D01*
X0167600Y0235100D02*
X0167600Y0210100D01*
X0162600Y0205100D01*
X0095100Y0205100D01*
X0087600Y0212600D01*
X0087600Y0265100D01*
X0079608Y0273092D01*
X0065356Y0273092D01*
X0065356Y0263092D02*
X0072108Y0263092D01*
X0082600Y0252600D01*
X0082600Y0207600D01*
X0090100Y0200100D01*
X0162600Y0200100D01*
X0172600Y0210100D01*
X0172600Y0235100D01*
X0179175Y0241675D01*
X0182639Y0241675D01*
X0182639Y0244824D02*
X0177876Y0244824D01*
X0177600Y0245100D01*
X0172600Y0247600D02*
X0175376Y0250376D01*
X0182639Y0250376D01*
X0182639Y0253525D02*
X0173525Y0253525D01*
X0172600Y0252600D01*
X0171675Y0256675D02*
X0167600Y0252600D01*
X0171675Y0256675D02*
X0182639Y0256675D01*
X0182639Y0259824D02*
X0180376Y0259824D01*
X0177600Y0262600D01*
X0187561Y0259824D02*
X0210376Y0259824D01*
X0216399Y0253801D01*
X0227108Y0253801D01*
X0227108Y0251242D02*
X0348850Y0251350D01*
X0350100Y0252600D01*
X0362600Y0265100D01*
X0362600Y0285100D01*
X0370100Y0292600D02*
X0387600Y0310100D01*
X0390100Y0310100D01*
X0388820Y0306320D02*
X0398072Y0306320D01*
X0398072Y0298446D02*
X0387196Y0298446D01*
X0382600Y0293850D01*
X0377600Y0288850D01*
X0377600Y0260100D01*
X0388850Y0248850D01*
X0388850Y0218850D01*
X0385100Y0215100D01*
X0376650Y0215100D01*
X0376650Y0210100D02*
X0390100Y0210100D01*
X0356065Y0222315D02*
X0353850Y0220100D01*
X0347300Y0220100D01*
X0347300Y0225100D02*
X0347300Y0236050D01*
X0350100Y0238850D01*
X0356065Y0243565D02*
X0356065Y0222315D01*
X0356065Y0243565D02*
X0372600Y0260100D01*
X0372600Y0290100D01*
X0388820Y0306320D01*
X0385100Y0312600D02*
X0367600Y0295100D01*
X0367600Y0265100D01*
X0351183Y0248683D01*
X0227108Y0248683D01*
X0220267Y0248683D01*
X0218850Y0250100D01*
X0218624Y0246124D02*
X0227108Y0246124D01*
X0353624Y0246124D01*
X0370100Y0262600D01*
X0370100Y0292600D01*
X0363850Y0293850D02*
X0350100Y0280100D01*
X0273850Y0280100D01*
X0265100Y0288850D01*
X0238850Y0288850D01*
X0250100Y0300100D02*
X0223850Y0300100D01*
X0221301Y0297551D01*
X0221301Y0290592D01*
X0222600Y0302600D02*
X0261350Y0302600D01*
X0263850Y0305100D01*
X0267600Y0305100D01*
X0283850Y0288850D01*
X0324650Y0288850D01*
X0331200Y0295400D01*
X0348850Y0285100D02*
X0361350Y0297600D01*
X0348850Y0285100D02*
X0275100Y0285100D01*
X0268850Y0291350D01*
X0258850Y0291350D01*
X0250100Y0300100D01*
X0238850Y0308850D02*
X0235100Y0312600D01*
X0235100Y0317600D01*
X0232876Y0319824D01*
X0219824Y0319824D01*
X0219824Y0325139D01*
X0216675Y0325139D02*
X0216183Y0324647D01*
X0216183Y0313820D01*
X0216183Y0309017D01*
X0222600Y0302600D01*
X0223801Y0306301D02*
X0221301Y0308801D01*
X0221301Y0313820D01*
X0223860Y0313820D02*
X0227630Y0313820D01*
X0232600Y0308850D01*
X0223801Y0306399D02*
X0223801Y0306301D01*
X0218742Y0311458D02*
X0218742Y0313820D01*
X0218742Y0318742D01*
X0219824Y0319824D01*
X0238850Y0308850D02*
X0272450Y0308850D01*
X0284000Y0297300D01*
X0218624Y0246124D02*
X0215100Y0242600D01*
X0211350Y0240100D02*
X0211350Y0252600D01*
X0203880Y0253801D02*
X0187836Y0253801D01*
X0187561Y0253525D01*
X0187876Y0256360D02*
X0187561Y0256675D01*
X0187876Y0256360D02*
X0203880Y0256360D01*
X0203880Y0251242D02*
X0190927Y0251242D01*
X0187561Y0250376D01*
X0191419Y0248683D02*
X0187561Y0244824D01*
X0187561Y0241675D02*
X0189175Y0241675D01*
X0193624Y0246124D01*
X0203880Y0246124D01*
X0203880Y0248683D02*
X0191419Y0248683D01*
X0196065Y0243565D02*
X0203880Y0243565D01*
X0203880Y0241006D02*
X0198506Y0241006D01*
X0192876Y0235376D01*
X0187561Y0235376D01*
X0187561Y0238525D02*
X0191025Y0238525D01*
X0196065Y0243565D01*
X0182639Y0238525D02*
X0181025Y0238525D01*
X0177600Y0235100D01*
X0177600Y0210100D01*
X0157600Y0190100D01*
X0082600Y0190100D01*
X0072600Y0200100D01*
X0072600Y0217600D01*
X0067108Y0223092D01*
X0065356Y0223092D01*
X0057600Y0227600D02*
X0063092Y0233092D01*
X0065356Y0233092D01*
X0057600Y0227600D02*
X0057600Y0180100D01*
X0162600Y0180100D01*
X0180100Y0197600D01*
X0190100Y0197600D01*
X0192600Y0200100D01*
X0192600Y0204400D01*
X0197600Y0204400D02*
X0197600Y0200100D01*
X0192600Y0195100D01*
X0182600Y0195100D01*
X0159844Y0172344D01*
X0159844Y0157108D01*
X0167600Y0154864D02*
X0159844Y0147108D01*
X0167600Y0154864D02*
X0167600Y0175100D01*
X0185100Y0192600D01*
X0207600Y0192600D01*
X0212600Y0197600D01*
X0212600Y0204400D01*
X0212600Y0217600D01*
X0202600Y0227600D01*
X0197600Y0227600D02*
X0197600Y0204400D01*
X0202600Y0204400D02*
X0202600Y0197600D01*
X0207600Y0204400D02*
X0207600Y0212600D01*
X0202600Y0217600D01*
X0212600Y0222600D02*
X0217600Y0217600D01*
X0217600Y0204400D01*
X0217600Y0197600D01*
X0210100Y0190100D01*
X0187600Y0190100D01*
X0182600Y0185100D01*
X0190100Y0187600D02*
X0177600Y0175100D01*
X0177600Y0130100D01*
X0174608Y0127108D01*
X0159844Y0127108D01*
X0159844Y0117108D02*
X0168092Y0117108D01*
X0172600Y0112600D01*
X0175592Y0107108D02*
X0159844Y0107108D01*
X0159844Y0097108D02*
X0177108Y0097108D01*
X0182600Y0102600D01*
X0177600Y0105100D02*
X0175592Y0107108D01*
X0205946Y0110592D02*
X0205946Y0089254D01*
X0207600Y0087600D01*
X0197600Y0079824D02*
X0187561Y0079824D01*
X0187561Y0076675D02*
X0187876Y0076360D01*
X0203880Y0076360D01*
X0203880Y0073801D02*
X0187836Y0073801D01*
X0187561Y0073525D01*
X0187561Y0070376D02*
X0190927Y0071242D01*
X0203880Y0071242D01*
X0203880Y0068683D02*
X0191419Y0068683D01*
X0187561Y0064824D01*
X0187561Y0061675D02*
X0189175Y0061675D01*
X0193624Y0066124D01*
X0203880Y0066124D01*
X0203880Y0063565D02*
X0196065Y0063565D01*
X0191025Y0058525D01*
X0187561Y0058525D01*
X0187561Y0055376D02*
X0192876Y0055376D01*
X0198506Y0061006D01*
X0203880Y0061006D01*
X0211065Y0069135D02*
X0211065Y0110592D01*
X0211065Y0123565D01*
X0215100Y0127600D01*
X0230100Y0127600D01*
X0232600Y0130100D01*
X0232600Y0185100D01*
X0227600Y0190100D01*
X0230100Y0195100D02*
X0235100Y0190100D01*
X0235100Y0127600D01*
X0232600Y0125100D01*
X0217600Y0125100D01*
X0213624Y0121124D01*
X0213624Y0110592D01*
X0213624Y0071576D01*
X0219076Y0066124D01*
X0227108Y0066124D01*
X0227108Y0068683D02*
X0221517Y0068683D01*
X0216183Y0074017D01*
X0216183Y0110592D01*
X0216183Y0118683D01*
X0220100Y0122600D01*
X0235100Y0122600D01*
X0237600Y0125100D01*
X0237600Y0195100D01*
X0235100Y0197600D01*
X0240100Y0200100D02*
X0240100Y0122600D01*
X0237600Y0120100D01*
X0222600Y0120100D01*
X0218742Y0116242D01*
X0218742Y0110592D01*
X0221301Y0110592D02*
X0221301Y0114301D01*
X0223801Y0116801D01*
X0223860Y0133820D02*
X0223860Y0153840D01*
X0217600Y0160100D01*
X0217600Y0165800D01*
X0212600Y0165800D02*
X0212600Y0157600D01*
X0215100Y0155100D01*
X0217600Y0155100D01*
X0221301Y0151399D01*
X0221301Y0133820D01*
X0218742Y0133820D02*
X0218742Y0148958D01*
X0215100Y0152600D01*
X0210100Y0152600D01*
X0207600Y0155100D01*
X0207600Y0165800D01*
X0202600Y0165800D02*
X0202600Y0152600D01*
X0205100Y0150100D01*
X0212600Y0150100D01*
X0216183Y0146517D01*
X0216183Y0133820D01*
X0213624Y0133820D02*
X0213624Y0144076D01*
X0210100Y0147600D01*
X0200100Y0147600D01*
X0197600Y0150100D01*
X0197600Y0165800D01*
X0192600Y0165800D02*
X0192600Y0147600D01*
X0195100Y0145100D01*
X0207600Y0145100D01*
X0211065Y0141635D01*
X0211065Y0133820D01*
X0208506Y0133820D02*
X0208506Y0139194D01*
X0205100Y0142600D01*
X0192600Y0142600D01*
X0187600Y0147600D01*
X0187600Y0165800D01*
X0190100Y0187600D02*
X0212600Y0187600D01*
X0222600Y0197600D01*
X0222600Y0204400D01*
X0222600Y0217600D01*
X0207600Y0232600D01*
X0213850Y0237600D02*
X0211350Y0240100D01*
X0213850Y0237600D02*
X0217600Y0237600D01*
X0223565Y0243565D01*
X0227108Y0243565D01*
X0356065Y0243565D01*
X0408850Y0258850D02*
X0408850Y0275100D01*
X0415100Y0281350D01*
X0415100Y0301350D01*
X0418850Y0297600D02*
X0445100Y0297600D01*
X0445946Y0298446D01*
X0457128Y0298446D01*
X0398072Y0290572D02*
X0386822Y0290572D01*
X0272600Y0240100D02*
X0272600Y0202600D01*
X0285100Y0190100D01*
X0342600Y0190100D01*
X0360100Y0172600D01*
X0360100Y0108700D01*
X0369000Y0099800D01*
X0321500Y0052300D02*
X0308700Y0065100D01*
X0275100Y0065100D01*
X0265100Y0075100D01*
X0265100Y0080100D01*
X0265100Y0095100D02*
X0265100Y0132600D01*
X0257600Y0140100D01*
X0257600Y0240100D01*
X0262600Y0240100D02*
X0262600Y0147600D01*
X0282600Y0127600D01*
X0282600Y0107600D01*
X0274800Y0099800D01*
X0274000Y0099800D01*
X0235100Y0075100D02*
X0231242Y0071242D01*
X0227108Y0071242D01*
X0227108Y0073801D02*
X0221399Y0073801D01*
X0220100Y0075100D01*
X0220100Y0078801D01*
X0211065Y0069135D02*
X0216635Y0063565D01*
X0227108Y0063565D01*
X0182639Y0064824D02*
X0170100Y0064824D01*
X0174175Y0073525D02*
X0182639Y0073525D01*
X0182639Y0070376D02*
X0089824Y0070376D01*
X0082600Y0077600D01*
X0082600Y0142600D01*
X0078092Y0147108D01*
X0065356Y0147108D01*
X0065356Y0157108D02*
X0134608Y0157108D01*
X0152108Y0174608D01*
X0157600Y0185100D02*
X0182639Y0210139D01*
X0182639Y0235376D01*
X0172600Y0240100D02*
X0167600Y0235100D01*
X0172600Y0240100D02*
X0172600Y0247600D01*
X0217600Y0237600D02*
X0217600Y0227600D01*
X0227108Y0238446D02*
X0236754Y0238446D01*
X0240100Y0235100D01*
X0240100Y0232600D01*
X0267600Y0240100D02*
X0267600Y0165100D01*
X0272600Y0160100D01*
X0308700Y0160100D01*
X0321500Y0147300D01*
X0227600Y0155100D02*
X0227600Y0135100D01*
X0227600Y0155100D02*
X0222600Y0160100D01*
X0222600Y0165800D01*
X0187600Y0204400D02*
X0181900Y0204400D01*
X0165100Y0187600D01*
X0157600Y0185100D02*
X0072600Y0185100D01*
X0065356Y0192344D01*
X0065356Y0213092D01*
X0077600Y0205100D02*
X0087600Y0195100D01*
X0157600Y0195100D01*
X0077600Y0205100D02*
X0077600Y0242600D01*
X0067108Y0253092D01*
X0065356Y0253092D01*
X0063092Y0253092D01*
X0052600Y0242600D01*
X0052600Y0132600D01*
X0065356Y0137108D02*
X0073092Y0137108D01*
X0077600Y0132600D01*
X0077600Y0072600D01*
X0088525Y0061675D01*
X0182639Y0061675D01*
X0182639Y0058525D02*
X0081675Y0058525D01*
X0072600Y0067600D01*
X0072600Y0089864D01*
X0065356Y0097108D01*
X0065356Y0087108D02*
X0065356Y0064844D01*
X0074824Y0055376D01*
X0182639Y0055376D01*
X0182639Y0076675D02*
X0178525Y0076675D01*
X0182639Y0079824D02*
X0095376Y0079824D01*
X0065356Y0107108D02*
X0063092Y0107108D01*
X0057600Y0112600D01*
X0057600Y0180100D01*
D30*
X0052600Y0132600D03*
X0095376Y0079824D03*
X0170100Y0064824D03*
X0174175Y0073525D03*
X0178525Y0076675D03*
X0197600Y0079824D03*
X0207600Y0087600D03*
X0220100Y0078801D03*
X0235100Y0075100D03*
X0230100Y0096350D03*
X0245100Y0112600D03*
X0223801Y0116801D03*
X0207600Y0117600D03*
X0207600Y0127600D03*
X0227600Y0135100D03*
X0182600Y0102600D03*
X0177600Y0105100D03*
X0172600Y0112600D03*
X0210946Y0058446D03*
X0265100Y0080100D03*
X0265100Y0095100D03*
X0227600Y0172600D03*
X0227600Y0190100D03*
X0230100Y0195100D03*
X0235100Y0197600D03*
X0240100Y0200100D03*
X0235100Y0220100D03*
X0240100Y0232600D03*
X0250100Y0235100D03*
X0257600Y0240100D03*
X0262600Y0240100D03*
X0267600Y0240100D03*
X0272600Y0240100D03*
X0250100Y0257600D03*
X0225100Y0262600D03*
X0218850Y0250100D03*
X0211350Y0252600D03*
X0215100Y0242600D03*
X0207600Y0232600D03*
X0202600Y0227600D03*
X0197600Y0227600D03*
X0202600Y0217600D03*
X0212600Y0222600D03*
X0217600Y0227600D03*
X0192600Y0212600D03*
X0202600Y0197600D03*
X0182600Y0185100D03*
X0165100Y0187600D03*
X0157600Y0195100D03*
X0152108Y0174608D03*
X0177600Y0245100D03*
X0172600Y0252600D03*
X0177600Y0262600D03*
X0202600Y0273092D03*
X0207600Y0267600D03*
X0215100Y0275100D03*
X0220100Y0280100D03*
X0222600Y0275100D03*
X0225100Y0285100D03*
X0238850Y0288850D03*
X0237600Y0295946D03*
X0223801Y0306301D03*
X0232600Y0308850D03*
X0208550Y0320100D03*
X0207600Y0283850D03*
X0192108Y0283092D03*
X0345100Y0337600D03*
X0365100Y0330100D03*
X0385100Y0312600D03*
X0390100Y0310100D03*
X0382600Y0293850D03*
X0386822Y0290572D03*
X0367600Y0305100D03*
X0361350Y0297600D03*
X0363850Y0293850D03*
X0362600Y0285100D03*
X0382600Y0272600D03*
X0408850Y0258850D03*
X0383850Y0225100D03*
X0390100Y0210100D03*
X0350100Y0238850D03*
X0350100Y0252600D03*
X0415100Y0301350D03*
X0418850Y0297600D03*
X0427600Y0305100D03*
X0415100Y0310100D03*
X0412600Y0330100D03*
X0410100Y0337600D03*
X0390100Y0341350D03*
X0390100Y0351350D03*
X0465100Y0282600D03*
X0400100Y0097600D03*
X0390100Y0067600D03*
D31*
X0393840Y0072481D02*
X0401419Y0072481D01*
X0402600Y0073663D01*
X0390100Y0082719D02*
X0390100Y0088643D01*
X0235100Y0213446D02*
X0235100Y0220100D01*
X0231754Y0262600D02*
X0225100Y0262600D01*
X0230100Y0295946D02*
X0237600Y0295946D01*
X0457128Y0298446D02*
X0470907Y0298446D01*
X0471754Y0297600D01*
X0470474Y0290572D02*
X0472600Y0288446D01*
X0470474Y0290572D02*
X0457128Y0290572D01*
X0457128Y0282698D02*
X0457226Y0282600D01*
X0465100Y0282600D01*
X0465946Y0281754D01*
X0472600Y0281754D01*
X0470474Y0306320D02*
X0457128Y0306320D01*
X0470474Y0306320D02*
X0471754Y0307600D01*
D32*
X0478446Y0307600D02*
X0478446Y0297600D01*
X0480100Y0297600D01*
X0482600Y0295100D01*
X0482600Y0267600D01*
X0467600Y0252600D01*
X0398072Y0252600D01*
X0398072Y0272600D01*
X0395946Y0272600D01*
X0398072Y0272600D02*
X0398072Y0282698D01*
X0402698Y0282698D01*
X0407600Y0287600D01*
X0407600Y0317600D01*
X0403131Y0322069D01*
X0398072Y0322069D01*
X0389254Y0272600D02*
X0382600Y0272600D01*
X0398072Y0252600D02*
X0398072Y0201350D01*
X0398072Y0108072D01*
X0388643Y0098643D01*
X0388643Y0092600D01*
X0389057Y0092600D01*
X0377600Y0092600D01*
X0372600Y0087600D01*
X0245100Y0087600D01*
X0245100Y0107600D01*
X0244254Y0108446D01*
X0230100Y0108446D01*
X0230100Y0101754D02*
X0230100Y0096350D01*
X0230100Y0090946D01*
X0230100Y0084254D02*
X0245100Y0084254D01*
X0245100Y0087600D01*
X0245100Y0084254D02*
X0245100Y0072600D01*
X0237600Y0065100D01*
X0245100Y0107600D02*
X0245100Y0112600D01*
X0245100Y0206754D01*
X0250100Y0211754D01*
X0250100Y0235100D01*
X0250100Y0257600D02*
X0245100Y0262600D01*
X0238446Y0262600D01*
X0245100Y0262600D02*
X0245100Y0267600D01*
X0242600Y0270100D01*
X0230100Y0270100D01*
X0230100Y0289254D01*
X0230100Y0270100D02*
X0212600Y0270100D01*
X0187600Y0295100D01*
X0187600Y0297836D01*
X0187639Y0297876D02*
X0187639Y0301025D01*
X0187639Y0304175D01*
X0187639Y0307324D01*
X0187600Y0307364D02*
X0187600Y0322600D01*
X0195061Y0330061D01*
X0210376Y0330061D01*
X0213525Y0330061D01*
X0216675Y0330061D01*
X0219824Y0330061D01*
X0234954Y0206754D02*
X0235100Y0206754D01*
X0245100Y0206754D01*
X0389057Y0092600D02*
X0390100Y0091557D01*
X0390100Y0088643D01*
X0396143Y0092600D02*
X0397187Y0093643D01*
X0402600Y0093643D01*
X0400100Y0093643D02*
X0400100Y0097600D01*
X0402600Y0086557D02*
X0396557Y0086557D01*
X0402600Y0086557D02*
X0402600Y0081537D01*
X0402600Y0086557D02*
X0416557Y0086557D01*
X0427600Y0097600D01*
D33*
X0402600Y0093643D02*
X0400100Y0093643D01*
X0234954Y0206754D02*
X0232600Y0204400D01*
X0227600Y0204400D01*
X0227600Y0172600D02*
X0227600Y0165800D01*
D34*
X0347300Y0210100D02*
X0347300Y0215100D01*
X0360100Y0215100D01*
X0360100Y0208850D01*
X0366350Y0202600D01*
X0398072Y0202600D01*
X0398072Y0201350D01*
X0376650Y0220100D02*
X0365100Y0220100D01*
X0360100Y0215100D01*
X0376650Y0225100D02*
X0383850Y0225100D01*
X0396557Y0086557D02*
X0393840Y0083840D01*
X0393840Y0082719D01*
X0393840Y0078840D01*
X0392600Y0077600D01*
X0380946Y0077600D01*
X0380100Y0076754D01*
X0380828Y0082719D02*
X0386360Y0082719D01*
X0380828Y0082719D02*
X0380100Y0083446D01*
X0390100Y0072481D02*
X0390100Y0067600D01*
D35*
X0427600Y0267600D02*
X0462600Y0267600D01*
M02*
