%
M48
M72
T01C0.01200
T02C0.04000
T03C0.05000
T04C0.06700
%
T01
X95376Y79824
X52600Y132600
X152108Y174608
X165100Y187600
X157600Y195100
X182600Y185100
X202600Y197600
X192600Y212600
X202600Y217600
X212600Y222600
X217600Y227600
X207600Y232600
X202600Y227600
X197600Y227600
X215100Y242600
X218850Y250100
X211350Y252600
X225100Y262600
X222600Y275100
X220100Y280100
X215100Y275100
X207600Y267600
X202600Y273092
X207600Y283850
X192108Y283092
X177600Y262600
X172600Y252600
X177600Y245100
X225100Y285100
X238850Y288850
X237600Y295946
X223801Y306301
X232600Y308850
X208550Y320100
X250100Y257600
X257600Y240100
X262600Y240100
X267600Y240100
X272600Y240100
X250100Y235100
X240100Y232600
X235100Y220100
X240100Y200100
X235100Y197600
X230100Y195100
X227600Y190100
X227600Y172600
X227600Y135100
X207600Y127600
X207600Y117600
X223801Y116801
X245100Y112600
X230100Y96350
X220100Y78801
X207600Y87600
X197600Y79824
X178525Y76675
X174175Y73525
X170100Y64824
X210946Y58446
X235100Y75100
X265100Y80100
X265100Y95100
X182600Y102600
X177600Y105100
X172600Y112600
X350100Y238850
X350100Y252600
X382600Y272600
X362600Y285100
X363850Y293850
X361350Y297600
X367600Y305100
X382600Y293850
X386822Y290572
X390100Y310100
X385100Y312600
X365100Y330100
X345100Y337600
X390100Y341350
X390100Y351350
X410100Y337600
X412600Y330100
X415100Y310100
X415100Y301350
X418850Y297600
X427600Y305100
X465100Y282600
X408850Y258850
X383850Y225100
X390100Y210100
X400100Y97600
X390100Y67600
T02
X369000Y99800
X351200Y99800
X321500Y77900
X303700Y77900
X274000Y99800
X256200Y99800
X256200Y125400
X274000Y125400
X303700Y147300
X321500Y147300
X351200Y125400
X369000Y125400
X321500Y172900
X303700Y172900
X331200Y269800
X349000Y269800
X349000Y295400
X331200Y295400
X375100Y312600
X375100Y322600
X284000Y322900
X266200Y322900
X266200Y297300
X284000Y297300
X137600Y367600
X127600Y367600
X117600Y367600
X107600Y367600
X97600Y367600
X87600Y367600
X303700Y52300
X321500Y52300
T03
X159844Y87108
X159844Y97108
X159844Y107108
X159844Y117108
X159844Y127108
X159844Y137108
X159844Y147108
X159844Y157108
X159844Y213092
X159844Y223092
X159844Y233092
X159844Y243092
X159844Y253092
X159844Y263092
X159844Y273092
X159844Y283092
X65356Y283092
X65356Y273092
X65356Y263092
X65356Y253092
X65356Y243092
X65356Y233092
X65356Y223092
X65356Y213092
X65356Y157108
X65356Y147108
X65356Y137108
X65356Y127108
X65356Y117108
X65356Y107108
X65356Y97108
X65356Y87108
T04
X427600Y97600
X462600Y97600
X462600Y127600
X427600Y127600
X427600Y237600
X462600Y237600
X462600Y267600
X427600Y267600
M30
